<svg xmlns="http://www.w3.org/2000/svg" xmlns:xlink="http://www.w3.org/1999/xlink" version="1.1" id="Layer_1" x="0px" y="0px" viewBox="0 0 100 100" style="enable-background:new 0 0 100 100;" xml:space="preserve">
<style type="text/css">
	.st0{fill:#5a65f2;}
</style>
<path class="st0" d="M98.2,47l-44-44c-2.3-2.3-6.2-2.3-8.5,0l-44,44C0.6,48.1,0,49.7,0,51.2v41.5c0,3.3,2.7,6,6,6h21.7  c3.3,0,6-2.7,6-6l0-26c0-9.1,7.4-16.9,16.6-16.8c8.9,0.1,16.1,7.4,16.1,16.3v26.4c0,3.3,2.7,6,6,6H94c3.3,0,6-2.7,6-6V51.2  C100,49.7,99.4,48.1,98.2,47z" fill="#000000"/>
</svg>