<?xml version="1.0" standalone="no"?>
<!DOCTYPE svg PUBLIC "-//W3C//DTD SVG 20010904//EN"
 "http://www.w3.org/TR/2001/REC-SVG-20010904/DTD/svg10.dtd">
<svg version="1.0" xmlns="http://www.w3.org/2000/svg"
 width="500.000000pt" height="500.000000pt" viewBox="0 0 500.000000 500.000000"
 preserveAspectRatio="xMidYMid meet">

<g transform="translate(0.000000,500.000000) scale(0.100000,-0.100000)"
fill="#000000" stroke="none">
<path d="M612 4711 c-157 -45 -283 -179 -327 -348 -22 -86 -22 -3696 0 -3791
38 -161 151 -285 311 -343 81 -30 226 -31 304 -3 31 10 392 219 804 463 l748
443 56 -4 c54 -4 95 -27 802 -447 455 -270 766 -448 800 -459 81 -25 218 -21
295 8 169 64 284 198 314 364 8 42 11 614 11 1875 0 1521 -3 1827 -14 1882
-37 172 -170 315 -334 361 -64 17 -148 18 -1887 17 -1717 0 -1824 -1 -1883
-18z m3590 -393 c46 -14 83 -54 98 -106 6 -25 10 -599 10 -1742 0 -1644 -1
-1706 -19 -1746 -30 -66 -104 -103 -169 -85 -17 5 -340 192 -718 416 -378 224
-705 416 -728 426 -104 45 -254 44 -358 -4 -29 -13 -359 -205 -732 -427 -374
-221 -693 -406 -710 -411 -38 -11 -103 6 -135 34 -54 49 -51 -48 -51 1806 0
1194 3 1728 11 1748 14 37 47 73 84 89 41 18 3356 21 3417 2z"/>
</g>
</svg>
