<?xml version="1.0" encoding="utf-8"?>
<!-- Generator: Adobe Illustrator 21.0.0, SVG Export Plug-In . SVG Version: 6.00 Build 0)  -->
<svg version="1.1" id="Layer_1" xmlns="http://www.w3.org/2000/svg" xmlns:xlink="http://www.w3.org/1999/xlink" x="0px" y="0px"
	 viewBox="0 0 100 100" style="enable-background:new 0 0 100 100;" xml:space="preserve">
<style type="text/css">
	.st0{fill:#727272;}
</style>
<g>
	<path class="st0" d="M34.2,88.7c10.6,0,21.1,0,31.6,0c-0.8,5.5-8.1,10.9-15,11.3C43.5,100.4,35.9,95.2,34.2,88.7z"/>
	<path class="st0" d="M94.6,82.5c-0.4,1.4-1.6,2.3-3.1,2.5c-0.4,0-0.7,0-1.1,0H9.2c-2.4,0-4-1.4-3.8-3.4c0.1-0.9,0.5-2,1.2-2.4
		c2.9-2,4.6-4.9,6-8C15,66,16.2,60.5,17,54.9c0.8-6,0.8-12.1,1.1-18.1c0.6-10.7,5.4-19.1,14.3-25c3.8-2.5,7.9-4.1,12-4.9V5.6
		C44.4,2.5,46.9,0,50,0c3.1,0,5.6,2.5,5.6,5.6v1.3C67.2,9,77.4,17.5,80.8,30.3c0.6,2.3,1,4.8,1,7.3c0.2,7.9,0.5,15.8,2.2,23.6
		c1.1,5.1,2.7,10.1,5.8,14.4c0.9,1.3,2.2,2.4,3.4,3.5C94.4,79.9,94.9,81.2,94.6,82.5z"/>
</g>
</svg>
