<svg width="20" height="20" viewBox="0 0 20 20" fill="none" xmlns="http://www.w3.org/2000/svg">
<path fill-rule="evenodd" clip-rule="evenodd" d="M9.63833 19.6004C4.3427 19.6004 0.0383301 15.296 0.0383301 10.0004C0.0383301 4.70476 4.3427 0.400391 9.63833 0.400391C10.0045 0.400391 10.3081 0.704019 10.3081 1.07016C10.3081 1.4363 10.0045 1.73993 9.63833 1.73993C5.08391 1.73993 1.37787 5.44597 1.37787 10.0004C1.37787 14.5548 5.08391 18.2609 9.63833 18.2609C14.1927 18.2609 17.8988 14.5548 17.8988 10.0004C17.8988 9.63425 18.2024 9.33062 18.5686 9.33062C18.9347 9.33062 19.2383 9.63425 19.2383 10.0004C19.2383 15.296 14.934 19.6004 9.63833 19.6004ZM10.5309 9.77734C10.3612 9.77734 10.1915 9.71483 10.0576 9.58088C9.79859 9.3219 9.79859 8.89325 10.0576 8.63427L16.9519 1.73993H14.2552C13.8891 1.73993 13.5854 1.4363 13.5854 1.07016C13.5854 0.704019 13.8891 0.400391 14.2552 0.400391H18.5685C18.9346 0.400391 19.2383 0.704019 19.2383 1.07016V5.38346C19.2383 5.7496 18.9346 6.05323 18.5685 6.05323C18.2024 6.05323 17.8987 5.7496 17.8987 5.38346V2.68632L11.0042 9.58088C10.8702 9.71483 10.7005 9.77734 10.5309 9.77734Z" fill="#292D32"/>
</svg>
