<?xml version="1.0" standalone="no"?>
<!DOCTYPE svg PUBLIC "-//W3C//DTD SVG 20010904//EN"
 "http://www.w3.org/TR/2001/REC-SVG-20010904/DTD/svg10.dtd">
<svg version="1.0" xmlns="http://www.w3.org/2000/svg"
 width="500.000000pt" height="500.000000pt" viewBox="0 0 500.000000 500.000000"
 preserveAspectRatio="xMidYMid meet">

<g transform="translate(0.000000,500.000000) scale(0.100000,-0.100000)"
fill="#000000" stroke="none">
<path d="M1422 4316 c-431 -82 -757 -373 -897 -800 -52 -160 -69 -290 -62
-496 9 -281 60 -476 192 -745 145 -294 324 -534 615 -825 250 -251 485 -446
830 -686 321 -225 388 -249 507 -188 132 68 461 299 698 489 667 535 1093
1125 1205 1671 98 474 -15 937 -304 1242 -228 242 -544 367 -881 349 -137 -8
-244 -35 -360 -92 -160 -78 -330 -236 -427 -395 l-37 -61 -57 88 c-147 223
-377 389 -605 439 -102 22 -325 27 -417 10z m1218 -1086 c387 -28 729 -143
1089 -365 143 -88 181 -130 181 -197 0 -47 -39 -106 -86 -129 -58 -28 -88 -22
-177 37 -236 156 -517 274 -782 328 -485 100 -1025 -16 -1490 -318 -80 -53
-108 -66 -140 -66 -78 0 -135 62 -135 146 0 64 18 89 114 154 169 113 301 183
481 255 254 102 468 146 785 163 14 1 86 -3 160 -8z"/>
</g>
</svg>
