<?xml version="1.0" standalone="no"?>
<!DOCTYPE svg PUBLIC "-//W3C//DTD SVG 20010904//EN"
 "http://www.w3.org/TR/2001/REC-SVG-20010904/DTD/svg10.dtd">
<svg version="1.0" xmlns="http://www.w3.org/2000/svg"
 width="500.000000pt" height="500.000000pt" viewBox="0 0 500.000000 500.000000"
 preserveAspectRatio="xMidYMid meet">

<g transform="translate(0.000000,500.000000) scale(0.100000,-0.100000)"
fill="#000000" stroke="none">
<path d="M1400 4649 c-593 -67 -1038 -517 -1125 -1139 -112 -806 352 -1630
1387 -2463 121 -97 435 -322 578 -414 150 -96 197 -117 260 -117 70 0 131 31
334 166 947 632 1582 1337 1805 2004 145 434 131 884 -38 1239 -132 279 -327
479 -586 605 -178 86 -342 123 -560 124 -210 1 -354 -29 -521 -109 -145 -70
-330 -220 -402 -327 -13 -21 -28 -38 -32 -38 -4 0 -16 12 -25 28 -31 47 -167
182 -235 232 -130 96 -295 167 -455 196 -107 19 -281 25 -385 13z m394 -459
c156 -40 328 -156 448 -302 l37 -45 -215 -249 c-118 -136 -213 -251 -212 -254
2 -4 192 -177 422 -386 231 -208 421 -384 423 -390 2 -6 -85 -113 -192 -238
-108 -125 -195 -230 -193 -235 5 -12 238 -211 248 -211 15 0 622 712 613 720
-4 4 -198 179 -431 389 l-422 382 152 175 c84 97 194 226 244 288 112 138 198
216 306 279 233 134 527 141 783 17 226 -109 382 -304 452 -566 24 -88 26
-118 27 -274 1 -193 -10 -269 -67 -440 -39 -121 -162 -364 -252 -499 -283
-429 -798 -921 -1347 -1289 -59 -40 -112 -72 -119 -72 -27 0 -371 248 -574
413 -478 392 -836 806 -1035 1198 -126 247 -180 455 -180 685 0 498 291 860
745 924 88 13 249 3 339 -20z"/>
</g>
</svg>
