<?xml version="1.0" standalone="no"?>
<!DOCTYPE svg PUBLIC "-//W3C//DTD SVG 20010904//EN"
 "http://www.w3.org/TR/2001/REC-SVG-20010904/DTD/svg10.dtd">
<svg version="1.0" xmlns="http://www.w3.org/2000/svg"
 width="500.000000pt" height="500.000000pt" viewBox="0 0 500.000000 500.000000"
 preserveAspectRatio="xMidYMid meet">

<g transform="translate(0.000000,500.000000) scale(0.100000,-0.100000)"
fill="#000000" stroke="none">
<path d="M1074 4036 c-422 -110 -726 -442 -794 -869 -19 -114 -8 -308 24 -429
92 -358 363 -637 726 -749 41 -13 79 -26 84 -30 12 -10 -63 -131 -297 -482
-109 -164 -205 -315 -214 -335 -17 -40 -12 -107 9 -143 52 -85 222 -79 503 18
545 188 949 588 1133 1123 93 272 127 482 127 800 0 227 -1 239 -28 335 -98
352 -359 629 -697 739 -112 37 -179 46 -339 46 -120 -1 -162 -5 -237 -24z
m461 -306 c147 -46 290 -143 379 -258 58 -76 131 -226 147 -300 19 -91 6 -459
-21 -612 -85 -477 -308 -841 -660 -1075 -95 -63 -259 -149 -268 -140 -3 3 8
26 25 52 170 268 216 345 269 449 43 86 66 143 74 192 12 66 11 73 -9 116 -32
65 -68 83 -200 102 -230 32 -391 116 -524 272 -58 69 -130 206 -151 288 -20
79 -21 274 -1 369 21 102 92 238 166 318 122 134 240 199 454 251 49 12 252
-3 320 -24z"/>
<path d="M3465 4049 c-446 -109 -749 -422 -831 -858 -22 -117 -15 -333 16
-446 29 -107 87 -237 146 -327 60 -90 188 -221 271 -277 80 -53 227 -125 316
-153 38 -13 72 -29 74 -36 7 -17 -91 -178 -312 -512 -212 -321 -205 -308 -205
-355 0 -75 44 -129 119 -146 114 -27 509 96 746 232 237 136 479 370 614 594
151 250 236 488 282 795 18 119 22 190 23 390 0 281 -8 326 -88 496 -60 126
-106 194 -200 292 -105 110 -180 165 -301 223 -158 76 -228 90 -445 95 -102 2
-203 -1 -225 -7z m442 -328 c223 -78 387 -234 474 -453 33 -83 33 -84 37 -283
4 -236 -11 -377 -63 -580 -122 -477 -372 -798 -789 -1015 -54 -28 -100 -49
-103 -46 -3 2 50 92 116 198 67 106 151 252 187 324 56 111 67 142 71 195 3
54 0 70 -19 103 -37 64 -62 76 -188 92 -223 29 -345 87 -485 228 -104 104
-163 205 -195 332 -24 94 -27 279 -5 370 59 250 272 474 520 545 44 13 99 18
210 18 140 1 155 -1 232 -28z"/>
</g>
</svg>
