<?xml version="1.0" standalone="no"?>
<!DOCTYPE svg PUBLIC "-//W3C//DTD SVG 20010904//EN"
 "http://www.w3.org/TR/2001/REC-SVG-20010904/DTD/svg10.dtd">
<svg version="1.0" xmlns="http://www.w3.org/2000/svg"
 width="500.000000pt" height="500.000000pt" viewBox="0 0 500.000000 500.000000"
 preserveAspectRatio="xMidYMid meet">

<g transform="translate(0.000000,500.000000) scale(0.100000,-0.100000)"
fill="#000000" stroke="none">
<path d="M975 4231 c-293 -79 -535 -318 -600 -594 -20 -83 -19 -283 1 -367 41
-178 165 -330 336 -414 129 -64 188 -77 343 -77 113 -1 153 4 298 35 92 20
182 36 200 36 94 0 182 -63 216 -154 63 -170 49 -454 -34 -686 -68 -188 -172
-348 -322 -491 -103 -99 -194 -168 -478 -362 -110 -75 -215 -150 -233 -166
l-32 -30 0 -105 c0 -85 3 -106 14 -106 27 0 321 122 461 191 262 129 461 275
680 500 369 379 553 767 606 1278 14 140 6 391 -16 481 -68 282 -192 507 -385
700 -122 122 -219 192 -363 260 -157 75 -192 82 -422 86 -173 3 -210 1 -270
-15z"/>
<path d="M3230 4244 c-163 -31 -341 -132 -461 -262 -151 -164 -215 -340 -206
-562 9 -203 67 -333 207 -463 187 -173 416 -218 755 -149 213 44 243 47 306
29 127 -37 179 -159 179 -417 0 -203 -34 -349 -124 -535 -130 -267 -257 -393
-704 -699 -142 -97 -269 -187 -282 -201 -21 -23 -25 -37 -28 -118 -1 -51 1
-98 6 -106 8 -11 33 -5 137 34 425 157 743 358 1020 646 345 357 536 750 595
1224 17 133 15 414 -3 507 -52 260 -182 508 -370 704 -157 164 -317 270 -507
335 -93 32 -99 33 -295 35 -110 1 -211 0 -225 -2z"/>
</g>
</svg>
