<?xml version="1.0" standalone="yes"?>
<svg xmlns="http://www.w3.org/2000/svg" width="1080" height="1080">
<path style="fill:#f2f6f7; stroke:none;" d="M0 0L0 1080L1080 1080L1080 0L0 0z"/>
<path style="fill:#c7cbd1; stroke:none;" d="M537 160L538 161L537 160z"/>
<path style="fill:#aeb3bb; stroke:none;" d="M538 160L539 161L538 160z"/>
<path style="fill:#7d8793; stroke:none;" d="M539 160.638C530.483 161.256 521.096 165.691 513 168.33C497.086 173.517 481.027 178.452 465 183.28C404.836 201.404 345.163 221.156 285 239.28C264.959 245.317 245.112 252.068 225 257.859C220 259.299 205.977 261.315 203.6 266.279C198.943 276.001 200.638 292.385 199.91 303C197.628 336.293 197.5 369.649 198.961 403C205.919 561.912 254.356 725.596 379 832.271C413.87 862.114 453.758 885.699 496 903.424C508.27 908.573 527.474 919.947 541 919.146C553.926 918.38 570.178 909.363 582 904.281C613.234 890.853 643.268 875.238 671 855.421C807.239 758.069 867.729 595.094 879.089 433C881.964 391.988 882.901 351.056 880.089 310C879.241 297.609 881.832 277.569 876.258 266.303C873.814 261.364 860.903 259.757 856 258.28C835.944 252.238 816.102 245.462 796 239.576C736.071 222.027 676.634 202.506 617 183.974C599.998 178.691 582.906 173.579 566 168.001C558.137 165.406 547.333 160.034 539 160.638z"/>
<path style="fill:#aeb3bb; stroke:none;" d="M541 160L542 161L541 160z"/>
<path style="fill:#c7cbd1; stroke:none;" d="M542 160L543 161L542 160z"/>
<path style="fill:#d9dcdf; stroke:none;" d="M533 161L534 162L533 161z"/>
<path style="fill:#aeb3bb; stroke:none;" d="M534 161L535 162L534 161z"/>
<path style="fill:#c7cbd1; stroke:none;" d="M545 161L546 162L545 161z"/>
<path style="fill:#d9dcdf; stroke:none;" d="M546 161L547 162L546 161M530 162L531 163L530 162z"/>
<path style="fill:#aeb3bb; stroke:none;" d="M531 162L532 163L531 162M548 162L549 163L548 162z"/>
<path style="fill:#d9dcdf; stroke:none;" d="M549 162L550 163L549 162z"/>
<path style="fill:#c7cbd1; stroke:none;" d="M527 163L528 164L527 163z"/>
<path style="fill:#aeb3bb; stroke:none;" d="M528 163L529 164L528 163M551 163L552 164L551 163z"/>
<path style="fill:#d9dcdf; stroke:none;" d="M552 163L553 164L552 163z"/>
<path style="fill:#c7cbd1; stroke:none;" d="M524 164L525 165L524 164z"/>
<path style="fill:#aeb3bb; stroke:none;" d="M525 164L526 165L525 164M554 164L555 165L554 164z"/>
<path style="fill:#c7cbd1; stroke:none;" d="M555 164L556 165L555 164z"/>
<path style="fill:#d9dcdf; stroke:none;" d="M520 165L521 166L520 165z"/>
<path style="fill:#c7cbd1; stroke:none;" d="M521 165L522 166L521 165z"/>
<path style="fill:#aeb3bb; stroke:none;" d="M557 165L558 166L557 165z"/>
<path style="fill:#c7cbd1; stroke:none;" d="M558 165L559 166L558 165z"/>
<path style="fill:#d9dcdf; stroke:none;" d="M517 166L518 167L517 166z"/>
<path style="fill:#aeb3bb; stroke:none;" d="M518 166L519 167L518 166M561 166L562 167L561 166z"/>
<path style="fill:#d9dcdf; stroke:none;" d="M562 166L563 167L562 166M514 167L515 168L514 167z"/>
<path style="fill:#aeb3bb; stroke:none;" d="M515 167L516 168L515 167M564 167L565 168L564 167z"/>
<path style="fill:#d9dcdf; stroke:none;" d="M565 167L566 168L565 167z"/>
<path style="fill:#c7cbd1; stroke:none;" d="M511 168L512 169L511 168z"/>
<path style="fill:#aeb3bb; stroke:none;" d="M512 168L513 169L512 168M567 168L568 169L567 168z"/>
<path style="fill:#d9dcdf; stroke:none;" d="M568 168L569 169L568 168z"/>
<path style="fill:#c7cbd1; stroke:none;" d="M508 169L509 170L508 169z"/>
<path style="fill:#aeb3bb; stroke:none;" d="M509 169L510 170L509 169M570 169L571 170L570 169z"/>
<path style="fill:#c7cbd1; stroke:none;" d="M571 169L572 170L571 169z"/>
<path style="fill:#d9dcdf; stroke:none;" d="M504 170L505 171L504 170z"/>
<path style="fill:#aeb3bb; stroke:none;" d="M505 170L506 171L505 170M573 170L574 171L573 170z"/>
<path style="fill:#c7cbd1; stroke:none;" d="M574 170L575 171L574 170z"/>
<path style="fill:#d9dcdf; stroke:none;" d="M501 171L502 172L501 171z"/>
<path style="fill:#aeb3bb; stroke:none;" d="M502 171L503 172L502 171M577 171L578 172L577 171z"/>
<path style="fill:#d9dcdf; stroke:none;" d="M578 171L579 172L578 171M498 172L499 173L498 172z"/>
<path style="fill:#aeb3bb; stroke:none;" d="M499 172L500 173L499 172M580 172L581 173L580 172z"/>
<path style="fill:#d9dcdf; stroke:none;" d="M581 172L582 173L581 172z"/>
<path style="fill:#c7cbd1; stroke:none;" d="M495 173L496 174L495 173z"/>
<path style="fill:#aeb3bb; stroke:none;" d="M496 173L497 174L496 173M583 173L584 174L583 173z"/>
<path style="fill:#c7cbd1; stroke:none;" d="M584 173L585 174L584 173M492 174L493 175L492 174z"/>
<path style="fill:#aeb3bb; stroke:none;" d="M493 174L494 175L493 174M586 174L587 175L586 174z"/>
<path style="fill:#c7cbd1; stroke:none;" d="M587 174L588 175L587 174z"/>
<path style="fill:#d9dcdf; stroke:none;" d="M488 175L489 176L488 175z"/>
<path style="fill:#aeb3bb; stroke:none;" d="M489 175L490 176L489 175z"/>
<path style="fill:#c7cbd1; stroke:none;" d="M590 175L591 176L590 175z"/>
<path style="fill:#d9dcdf; stroke:none;" d="M591 175L592 176L591 175M485 176L486 177L485 176z"/>
<path style="fill:#aeb3bb; stroke:none;" d="M486 176L487 177L486 176M593 176L594 177L593 176z"/>
<path style="fill:#d9dcdf; stroke:none;" d="M594 176L595 177L594 176z"/>
<path style="fill:#c7cbd1; stroke:none;" d="M482 177L483 178L482 177z"/>
<path style="fill:#aeb3bb; stroke:none;" d="M483 177L484 178L483 177M596 177L597 178L596 177z"/>
<path style="fill:#d9dcdf; stroke:none;" d="M597 177L598 178L597 177z"/>
<path style="fill:#c7cbd1; stroke:none;" d="M479 178L480 179L479 178z"/>
<path style="fill:#aeb3bb; stroke:none;" d="M480 178L481 179L480 178M599 178L600 179L599 178z"/>
<path style="fill:#c7cbd1; stroke:none;" d="M600 178L601 179L600 178z"/>
<path style="fill:#d9dcdf; stroke:none;" d="M475 179L476 180L475 179z"/>
<path style="fill:#c7cbd1; stroke:none;" d="M476 179L477 180L476 179z"/>
<path style="fill:#aeb3bb; stroke:none;" d="M602 179L603 180L602 179z"/>
<path style="fill:#c7cbd1; stroke:none;" d="M603 179L604 180L603 179z"/>
<path style="fill:#d9dcdf; stroke:none;" d="M472 180L473 181L472 180z"/>
<path style="fill:#aeb3bb; stroke:none;" d="M473 180L474 181L473 180M606 180L607 181L606 180z"/>
<path style="fill:#d9dcdf; stroke:none;" d="M607 180L608 181L607 180M469 181L470 182L469 181z"/>
<path style="fill:#aeb3bb; stroke:none;" d="M470 181L471 182L470 181M609 181L610 182L609 181z"/>
<path style="fill:#d9dcdf; stroke:none;" d="M610 181L611 182L610 181z"/>
<path style="fill:#c7cbd1; stroke:none;" d="M466 182L467 183L466 182z"/>
<path style="fill:#aeb3bb; stroke:none;" d="M467 182L468 183L467 182M612 182L613 183L612 182z"/>
<path style="fill:#d9dcdf; stroke:none;" d="M613 182L614 183L613 182z"/>
<path style="fill:#c7cbd1; stroke:none;" d="M463 183L464 184L463 183z"/>
<path style="fill:#aeb3bb; stroke:none;" d="M464 183L465 184L464 183M615 183L616 184L615 183z"/>
<path style="fill:#c7cbd1; stroke:none;" d="M616 183L617 184L616 183z"/>
<path style="fill:#d9dcdf; stroke:none;" d="M459 184L460 185L459 184z"/>
<path style="fill:#aeb3bb; stroke:none;" d="M460 184L461 185L460 184M618 184L619 185L618 184z"/>
<path style="fill:#c7cbd1; stroke:none;" d="M619 184L620 185L619 184z"/>
<path style="fill:#d9dcdf; stroke:none;" d="M456 185L457 186L456 185z"/>
<path style="fill:#aeb3bb; stroke:none;" d="M457 185L458 186L457 185M622 185L623 186L622 185z"/>
<path style="fill:#d9dcdf; stroke:none;" d="M623 185L624 186L623 185M453 186L454 187L453 186z"/>
<path style="fill:#aeb3bb; stroke:none;" d="M454 186L455 187L454 186M625 186L626 187L625 186z"/>
<path style="fill:#d9dcdf; stroke:none;" d="M626 186L627 187L626 186z"/>
<path style="fill:#c7cbd1; stroke:none;" d="M450 187L451 188L450 187z"/>
<path style="fill:#aeb3bb; stroke:none;" d="M451 187L452 188L451 187M628 187L629 188L628 187z"/>
<path style="fill:#c7cbd1; stroke:none;" d="M629 187L630 188L629 187M447 188L448 189L447 188z"/>
<path style="fill:#aeb3bb; stroke:none;" d="M448 188L449 189L448 188M631 188L632 189L631 188z"/>
<path style="fill:#c7cbd1; stroke:none;" d="M632 188L633 189L632 188z"/>
<path style="fill:#d9dcdf; stroke:none;" d="M443 189L444 190L443 189z"/>
<path style="fill:#aeb3bb; stroke:none;" d="M444 189L445 190L444 189z"/>
<path style="fill:#c7cbd1; stroke:none;" d="M635 189L636 190L635 189z"/>
<path style="fill:#d9dcdf; stroke:none;" d="M636 189L637 190L636 189M440 190L441 191L440 190z"/>
<path style="fill:#aeb3bb; stroke:none;" d="M441 190L442 191L441 190M638 190L639 191L638 190z"/>
<path style="fill:#d9dcdf; stroke:none;" d="M639 190L640 191L639 190z"/>
<path style="fill:#c7cbd1; stroke:none;" d="M437 191L438 192L437 191z"/>
<path style="fill:#aeb3bb; stroke:none;" d="M438 191L439 192L438 191M641 191L642 192L641 191z"/>
<path style="fill:#d9dcdf; stroke:none;" d="M642 191L643 192L642 191z"/>
<path style="fill:#c7cbd1; stroke:none;" d="M434 192L435 193L434 192z"/>
<path style="fill:#aeb3bb; stroke:none;" d="M435 192L436 193L435 192M644 192L645 193L644 192z"/>
<path style="fill:#c7cbd1; stroke:none;" d="M645 192L646 193L645 192z"/>
<path style="fill:#d9dcdf; stroke:none;" d="M430 193L431 194L430 193z"/>
<path style="fill:#c7cbd1; stroke:none;" d="M431 193L432 194L431 193z"/>
<path style="fill:#aeb3bb; stroke:none;" d="M647 193L648 194L647 193z"/>
<path style="fill:#c7cbd1; stroke:none;" d="M648 193L649 194L648 193z"/>
<path style="fill:#d9dcdf; stroke:none;" d="M427 194L428 195L427 194z"/>
<path style="fill:#aeb3bb; stroke:none;" d="M428 194L429 195L428 194M651 194L652 195L651 194z"/>
<path style="fill:#d9dcdf; stroke:none;" d="M652 194L653 195L652 194M424 195L425 196L424 195z"/>
<path style="fill:#aeb3bb; stroke:none;" d="M425 195L426 196L425 195M654 195L655 196L654 195z"/>
<path style="fill:#d9dcdf; stroke:none;" d="M655 195L656 196L655 195z"/>
<path style="fill:#c7cbd1; stroke:none;" d="M421 196L422 197L421 196z"/>
<path style="fill:#aeb3bb; stroke:none;" d="M422 196L423 197L422 196M657 196L658 197L657 196z"/>
<path style="fill:#d9dcdf; stroke:none;" d="M658 196L659 197L658 196z"/>
<path style="fill:#c7cbd1; stroke:none;" d="M418 197L419 198L418 197z"/>
<path style="fill:#aeb3bb; stroke:none;" d="M419 197L420 198L419 197M660 197L661 198L660 197z"/>
<path style="fill:#c7cbd1; stroke:none;" d="M661 197L662 198L661 197z"/>
<path style="fill:#d9dcdf; stroke:none;" d="M414 198L415 199L414 198z"/>
<path style="fill:#aeb3bb; stroke:none;" d="M415 198L416 199L415 198M663 198L664 199L663 198z"/>
<path style="fill:#c7cbd1; stroke:none;" d="M664 198L665 199L664 198z"/>
<path style="fill:#d9dcdf; stroke:none;" d="M411 199L412 200L411 199z"/>
<path style="fill:#aeb3bb; stroke:none;" d="M412 199L413 200L412 199M667 199L668 200L667 199z"/>
<path style="fill:#d9dcdf; stroke:none;" d="M668 199L669 200L668 199M408 200L409 201L408 200z"/>
<path style="fill:#aeb3bb; stroke:none;" d="M409 200L410 201L409 200M670 200L671 201L670 200z"/>
<path style="fill:#d9dcdf; stroke:none;" d="M671 200L672 201L671 200z"/>
<path style="fill:#c7cbd1; stroke:none;" d="M405 201L406 202L405 201z"/>
<path style="fill:#aeb3bb; stroke:none;" d="M406 201L407 202L406 201M673 201L674 202L673 201z"/>
<path style="fill:#c7cbd1; stroke:none;" d="M674 201L675 202L674 201M402 202L403 203L402 202z"/>
<path style="fill:#aeb3bb; stroke:none;" d="M676 202L677 203L676 202z"/>
<path style="fill:#c7cbd1; stroke:none;" d="M677 202L678 203L677 202z"/>
<path style="fill:#d9dcdf; stroke:none;" d="M398 203L399 204L398 203z"/>
<path style="fill:#aeb3bb; stroke:none;" d="M399 203L400 204L399 203z"/>
<path style="fill:#c7cbd1; stroke:none;" d="M680 203L681 204L680 203z"/>
<path style="fill:#d9dcdf; stroke:none;" d="M681 203L682 204L681 203M395 204L396 205L395 204z"/>
<path style="fill:#aeb3bb; stroke:none;" d="M396 204L397 205L396 204M683 204L684 205L683 204z"/>
<path style="fill:#d9dcdf; stroke:none;" d="M684 204L685 205L684 204z"/>
<path style="fill:#c7cbd1; stroke:none;" d="M392 205L393 206L392 205z"/>
<path style="fill:#aeb3bb; stroke:none;" d="M393 205L394 206L393 205M686 205L687 206L686 205z"/>
<path style="fill:#d9dcdf; stroke:none;" d="M687 205L688 206L687 205z"/>
<path style="fill:#c7cbd1; stroke:none;" d="M389 206L390 207L389 206z"/>
<path style="fill:#aeb3bb; stroke:none;" d="M390 206L391 207L390 206M689 206L690 207L689 206z"/>
<path style="fill:#c7cbd1; stroke:none;" d="M690 206L691 207L690 206z"/>
<path style="fill:#d9dcdf; stroke:none;" d="M385 207L386 208L385 207z"/>
<path style="fill:#c7cbd1; stroke:none;" d="M386 207L387 208L386 207z"/>
<path style="fill:#aeb3bb; stroke:none;" d="M692 207L693 208L692 207z"/>
<path style="fill:#c7cbd1; stroke:none;" d="M693 207L694 208L693 207z"/>
<path style="fill:#d9dcdf; stroke:none;" d="M382 208L383 209L382 208z"/>
<path style="fill:#aeb3bb; stroke:none;" d="M383 208L384 209L383 208M696 208L697 209L696 208z"/>
<path style="fill:#d9dcdf; stroke:none;" d="M697 208L698 209L697 208M379 209L380 210L379 209z"/>
<path style="fill:#aeb3bb; stroke:none;" d="M380 209L381 210L380 209M699 209L700 210L699 209z"/>
<path style="fill:#d9dcdf; stroke:none;" d="M700 209L701 210L700 209z"/>
<path style="fill:#c7cbd1; stroke:none;" d="M376 210L377 211L376 210z"/>
<path style="fill:#aeb3bb; stroke:none;" d="M377 210L378 211L377 210M702 210L703 211L702 210z"/>
<path style="fill:#d9dcdf; stroke:none;" d="M703 210L704 211L703 210z"/>
<path style="fill:#c7cbd1; stroke:none;" d="M373 211L374 212L373 211z"/>
<path style="fill:#aeb3bb; stroke:none;" d="M374 211L375 212L374 211M705 211L706 212L705 211z"/>
<path style="fill:#c7cbd1; stroke:none;" d="M706 211L707 212L706 211z"/>
<path style="fill:#d9dcdf; stroke:none;" d="M369 212L370 213L369 212z"/>
<path style="fill:#aeb3bb; stroke:none;" d="M370 212L371 213L370 212M708 212L709 213L708 212z"/>
<path style="fill:#c7cbd1; stroke:none;" d="M709 212L710 213L709 212z"/>
<path style="fill:#d9dcdf; stroke:none;" d="M366 213L367 214L366 213z"/>
<path style="fill:#aeb3bb; stroke:none;" d="M367 213L368 214L367 213M712 213L713 214L712 213z"/>
<path style="fill:#d9dcdf; stroke:none;" d="M713 213L714 214L713 213M363 214L364 215L363 214z"/>
<path style="fill:#aeb3bb; stroke:none;" d="M364 214L365 215L364 214M715 214L716 215L715 214z"/>
<path style="fill:#d9dcdf; stroke:none;" d="M716 214L717 215L716 214z"/>
<path style="fill:#c7cbd1; stroke:none;" d="M360 215L361 216L360 215z"/>
<path style="fill:#aeb3bb; stroke:none;" d="M361 215L362 216L361 215M718 215L719 216L718 215z"/>
<path style="fill:#c7cbd1; stroke:none;" d="M719 215L720 216L719 215M357 216L358 217L357 216z"/>
<path style="fill:#aeb3bb; stroke:none;" d="M721 216L722 217L721 216z"/>
<path style="fill:#c7cbd1; stroke:none;" d="M722 216L723 217L722 216z"/>
<path style="fill:#d9dcdf; stroke:none;" d="M353 217L354 218L353 217z"/>
<path style="fill:#aeb3bb; stroke:none;" d="M354 217L355 218L354 217z"/>
<path style="fill:#c7cbd1; stroke:none;" d="M725 217L726 218L725 217z"/>
<path style="fill:#d9dcdf; stroke:none;" d="M726 217L727 218L726 217M350 218L351 219L350 218z"/>
<path style="fill:#aeb3bb; stroke:none;" d="M351 218L352 219L351 218M728 218L729 219L728 218z"/>
<path style="fill:#d9dcdf; stroke:none;" d="M729 218L730 219L729 218z"/>
<path style="fill:#c7cbd1; stroke:none;" d="M347 219L348 220L347 219z"/>
<path style="fill:#aeb3bb; stroke:none;" d="M348 219L349 220L348 219M731 219L732 220L731 219z"/>
<path style="fill:#d9dcdf; stroke:none;" d="M732 219L733 220L732 219z"/>
<path style="fill:#c7cbd1; stroke:none;" d="M344 220L345 221L344 220z"/>
<path style="fill:#aeb3bb; stroke:none;" d="M345 220L346 221L345 220M734 220L735 221L734 220z"/>
<path style="fill:#c7cbd1; stroke:none;" d="M735 220L736 221L735 220z"/>
<path style="fill:#d9dcdf; stroke:none;" d="M340 221L341 222L340 221z"/>
<path style="fill:#c7cbd1; stroke:none;" d="M341 221L342 222L341 221z"/>
<path style="fill:#aeb3bb; stroke:none;" d="M737 221L738 222L737 221z"/>
<path style="fill:#c7cbd1; stroke:none;" d="M738 221L739 222L738 221z"/>
<path style="fill:#d9dcdf; stroke:none;" d="M337 222L338 223L337 222z"/>
<path style="fill:#aeb3bb; stroke:none;" d="M338 222L339 223L338 222M741 222L742 223L741 222z"/>
<path style="fill:#d9dcdf; stroke:none;" d="M742 222L743 223L742 222M334 223L335 224L334 223z"/>
<path style="fill:#aeb3bb; stroke:none;" d="M335 223L336 224L335 223M744 223L745 224L744 223z"/>
<path style="fill:#d9dcdf; stroke:none;" d="M745 223L746 224L745 223z"/>
<path style="fill:#c7cbd1; stroke:none;" d="M331 224L332 225L331 224z"/>
<path style="fill:#aeb3bb; stroke:none;" d="M332 224L333 225L332 224M747 224L748 225L747 224z"/>
<path style="fill:#d9dcdf; stroke:none;" d="M748 224L749 225L748 224z"/>
<path style="fill:#c7cbd1; stroke:none;" d="M328 225L329 226L328 225z"/>
<path style="fill:#aeb3bb; stroke:none;" d="M329 225L330 226L329 225M750 225L751 226L750 225z"/>
<path style="fill:#c7cbd1; stroke:none;" d="M751 225L752 226L751 225z"/>
<path style="fill:#d9dcdf; stroke:none;" d="M324 226L325 227L324 226z"/>
<path style="fill:#aeb3bb; stroke:none;" d="M325 226L326 227L325 226z"/>
<path style="fill:#c7cbd1; stroke:none;" d="M754 226L755 227L754 226z"/>
<path style="fill:#d9dcdf; stroke:none;" d="M321 227L322 228L321 227z"/>
<path style="fill:#aeb3bb; stroke:none;" d="M322 227L323 228L322 227M757 227L758 228L757 227z"/>
<path style="fill:#d9dcdf; stroke:none;" d="M758 227L759 228L758 227M318 228L319 229L318 228z"/>
<path style="fill:#aeb3bb; stroke:none;" d="M319 228L320 229L319 228M760 228L761 229L760 228z"/>
<path style="fill:#d9dcdf; stroke:none;" d="M761 228L762 229L761 228z"/>
<path style="fill:#c7cbd1; stroke:none;" d="M315 229L316 230L315 229z"/>
<path style="fill:#aeb3bb; stroke:none;" d="M316 229L317 230L316 229M763 229L764 230L763 229z"/>
<path style="fill:#c7cbd1; stroke:none;" d="M764 229L765 230L764 229M312 230L313 231L312 230z"/>
<path style="fill:#aeb3bb; stroke:none;" d="M766 230L767 231L766 230z"/>
<path style="fill:#c7cbd1; stroke:none;" d="M767 230L768 231L767 230z"/>
<path style="fill:#d9dcdf; stroke:none;" d="M308 231L309 232L308 231z"/>
<path style="fill:#aeb3bb; stroke:none;" d="M309 231L310 232L309 231z"/>
<path style="fill:#c7cbd1; stroke:none;" d="M770 231L771 232L770 231z"/>
<path style="fill:#d9dcdf; stroke:none;" d="M771 231L772 232L771 231M305 232L306 233L305 232z"/>
<path style="fill:#aeb3bb; stroke:none;" d="M306 232L307 233L306 232M773 232L774 233L773 232z"/>
<path style="fill:#d9dcdf; stroke:none;" d="M774 232L775 233L774 232z"/>
<path style="fill:#c7cbd1; stroke:none;" d="M302 233L303 234L302 233z"/>
<path style="fill:#aeb3bb; stroke:none;" d="M303 233L304 234L303 233M776 233L777 234L776 233z"/>
<path style="fill:#d9dcdf; stroke:none;" d="M777 233L778 234L777 233z"/>
<path style="fill:#c7cbd1; stroke:none;" d="M299 234L300 235L299 234z"/>
<path style="fill:#aeb3bb; stroke:none;" d="M300 234L301 235L300 234M779 234L780 235L779 234z"/>
<path style="fill:#c7cbd1; stroke:none;" d="M780 234L781 235L780 234z"/>
<path style="fill:#d9dcdf; stroke:none;" d="M295 235L296 236L295 235z"/>
<path style="fill:#c7cbd1; stroke:none;" d="M296 235L297 236L296 235z"/>
<path style="fill:#aeb3bb; stroke:none;" d="M782 235L783 236L782 235z"/>
<path style="fill:#c7cbd1; stroke:none;" d="M783 235L784 236L783 235z"/>
<path style="fill:#d9dcdf; stroke:none;" d="M292 236L293 237L292 236z"/>
<path style="fill:#aeb3bb; stroke:none;" d="M293 236L294 237L293 236M786 236L787 237L786 236z"/>
<path style="fill:#d9dcdf; stroke:none;" d="M787 236L788 237L787 236M289 237L290 238L289 237z"/>
<path style="fill:#aeb3bb; stroke:none;" d="M290 237L291 238L290 237M789 237L790 238L789 237z"/>
<path style="fill:#d9dcdf; stroke:none;" d="M790 237L791 238L790 237z"/>
<path style="fill:#c7cbd1; stroke:none;" d="M286 238L287 239L286 238z"/>
<path style="fill:#aeb3bb; stroke:none;" d="M287 238L288 239L287 238M792 238L793 239L792 238z"/>
<path style="fill:#d9dcdf; stroke:none;" d="M793 238L794 239L793 238z"/>
<path style="fill:#c7cbd1; stroke:none;" d="M283 239L284 240L283 239z"/>
<path style="fill:#aeb3bb; stroke:none;" d="M284 239L285 240L284 239M795 239L796 240L795 239z"/>
<path style="fill:#c7cbd1; stroke:none;" d="M796 239L797 240L796 239z"/>
<path style="fill:#d9dcdf; stroke:none;" d="M279 240L280 241L279 240z"/>
<path style="fill:#aeb3bb; stroke:none;" d="M280 240L281 241L280 240z"/>
<path style="fill:#c7cbd1; stroke:none;" d="M799 240L800 241L799 240z"/>
<path style="fill:#d9dcdf; stroke:none;" d="M276 241L277 242L276 241z"/>
<path style="fill:#aeb3bb; stroke:none;" d="M277 241L278 242L277 241M802 241L803 242L802 241z"/>
<path style="fill:#d9dcdf; stroke:none;" d="M803 241L804 242L803 241z"/>
<path style="fill:#c7cbd1; stroke:none;" d="M273 242L274 243L273 242z"/>
<path style="fill:#aeb3bb; stroke:none;" d="M274 242L275 243L274 242M805 242L806 243L805 242z"/>
<path style="fill:#d9dcdf; stroke:none;" d="M806 242L807 243L806 242z"/>
<path style="fill:#c7cbd1; stroke:none;" d="M270 243L271 244L270 243z"/>
<path style="fill:#aeb3bb; stroke:none;" d="M271 243L272 244L271 243M808 243L809 244L808 243z"/>
<path style="fill:#c7cbd1; stroke:none;" d="M809 243L810 244L809 243M267 244L268 245L267 244z"/>
<path style="fill:#aeb3bb; stroke:none;" d="M811 244L812 245L811 244z"/>
<path style="fill:#c7cbd1; stroke:none;" d="M812 244L813 245L812 244z"/>
<path style="fill:#d9dcdf; stroke:none;" d="M263 245L264 246L263 245z"/>
<path style="fill:#aeb3bb; stroke:none;" d="M264 245L265 246L264 245z"/>
<path style="fill:#c7cbd1; stroke:none;" d="M815 245L816 246L815 245z"/>
<path style="fill:#d9dcdf; stroke:none;" d="M816 245L817 246L816 245M260 246L261 247L260 246z"/>
<path style="fill:#aeb3bb; stroke:none;" d="M261 246L262 247L261 246M818 246L819 247L818 246z"/>
<path style="fill:#d9dcdf; stroke:none;" d="M819 246L820 247L819 246z"/>
<path style="fill:#c7cbd1; stroke:none;" d="M257 247L258 248L257 247z"/>
<path style="fill:#aeb3bb; stroke:none;" d="M258 247L259 248L258 247M821 247L822 248L821 247z"/>
<path style="fill:#d9dcdf; stroke:none;" d="M822 247L823 248L822 247z"/>
<path style="fill:#c7cbd1; stroke:none;" d="M254 248L255 249L254 248z"/>
<path style="fill:#aeb3bb; stroke:none;" d="M255 248L256 249L255 248M824 248L825 249L824 248z"/>
<path style="fill:#c7cbd1; stroke:none;" d="M825 248L826 249L825 248z"/>
<path style="fill:#d9dcdf; stroke:none;" d="M250 249L251 250L250 249z"/>
<path style="fill:#c7cbd1; stroke:none;" d="M251 249L252 250L251 249z"/>
<path style="fill:#aeb3bb; stroke:none;" d="M827 249L828 250L827 249z"/>
<path style="fill:#c7cbd1; stroke:none;" d="M828 249L829 250L828 249z"/>
<path style="fill:#d9dcdf; stroke:none;" d="M247 250L248 251L247 250z"/>
<path style="fill:#aeb3bb; stroke:none;" d="M248 250L249 251L248 250M831 250L832 251L831 250z"/>
<path style="fill:#d9dcdf; stroke:none;" d="M832 250L833 251L832 250M244 251L245 252L244 251z"/>
<path style="fill:#aeb3bb; stroke:none;" d="M245 251L246 252L245 251M834 251L835 252L834 251z"/>
<path style="fill:#d9dcdf; stroke:none;" d="M835 251L836 252L835 251z"/>
<path style="fill:#c7cbd1; stroke:none;" d="M241 252L242 253L241 252z"/>
<path style="fill:#aeb3bb; stroke:none;" d="M242 252L243 253L242 252M837 252L838 253L837 252z"/>
<path style="fill:#d9dcdf; stroke:none;" d="M838 252L839 253L838 252z"/>
<path style="fill:#c7cbd1; stroke:none;" d="M238 253L239 254L238 253z"/>
<path style="fill:#aeb3bb; stroke:none;" d="M239 253L240 254L239 253M840 253L841 254L840 253z"/>
<path style="fill:#c7cbd1; stroke:none;" d="M841 253L842 254L841 253z"/>
<path style="fill:#d9dcdf; stroke:none;" d="M234 254L235 255L234 254z"/>
<path style="fill:#aeb3bb; stroke:none;" d="M235 254L236 255L235 254z"/>
<path style="fill:#c7cbd1; stroke:none;" d="M844 254L845 255L844 254z"/>
<path style="fill:#d9dcdf; stroke:none;" d="M231 255L232 256L231 255z"/>
<path style="fill:#aeb3bb; stroke:none;" d="M232 255L233 256L232 255M847 255L848 256L847 255z"/>
<path style="fill:#d9dcdf; stroke:none;" d="M848 255L849 256L848 255z"/>
<path style="fill:#c7cbd1; stroke:none;" d="M228 256L229 257L228 256z"/>
<path style="fill:#aeb3bb; stroke:none;" d="M229 256L230 257L229 256M850 256L851 257L850 256z"/>
<path style="fill:#d9dcdf; stroke:none;" d="M851 256L852 257L851 256z"/>
<path style="fill:#c7cbd1; stroke:none;" d="M225 257L226 258L225 257z"/>
<path style="fill:#aeb3bb; stroke:none;" d="M226 257L227 258L226 257M853 257L854 258L853 257z"/>
<path style="fill:#c7cbd1; stroke:none;" d="M854 257L855 258L854 257M222 258L223 259L222 258z"/>
<path style="fill:#aeb3bb; stroke:none;" d="M856 258L857 259L856 258z"/>
<path style="fill:#c7cbd1; stroke:none;" d="M857 258L858 259L857 258z"/>
<path style="fill:#d9dcdf; stroke:none;" d="M218 259L219 260L218 259z"/>
<path style="fill:#aeb3bb; stroke:none;" d="M219 259L220 260L219 259z"/>
<path style="fill:#c7cbd1; stroke:none;" d="M860 259L861 260L860 259z"/>
<path style="fill:#d9dcdf; stroke:none;" d="M861 259L862 260L861 259M215 260L216 261L215 260z"/>
<path style="fill:#aeb3bb; stroke:none;" d="M216 260L217 261L216 260M863 260L864 261L863 260z"/>
<path style="fill:#d9dcdf; stroke:none;" d="M864 260L865 261L864 260z"/>
<path style="fill:#c7cbd1; stroke:none;" d="M212 261L213 262L212 261z"/>
<path style="fill:#aeb3bb; stroke:none;" d="M213 261L214 262L213 261M866 261L867 262L866 261z"/>
<path style="fill:#d9dcdf; stroke:none;" d="M867 261L868 262L867 261z"/>
<path style="fill:#c7cbd1; stroke:none;" d="M209 262L210 263L209 262z"/>
<path style="fill:#aeb3bb; stroke:none;" d="M210 262L211 263L210 262M869 262L870 263L869 262z"/>
<path style="fill:#c7cbd1; stroke:none;" d="M870 262L871 263L870 262z"/>
<path style="fill:#d9dcdf; stroke:none;" d="M205 263L206 264L205 263z"/>
<path style="fill:#c7cbd1; stroke:none;" d="M206 263L207 264L206 263z"/>
<path style="fill:#aeb3bb; stroke:none;" d="M872 263L873 264L872 263z"/>
<path style="fill:#c7cbd1; stroke:none;" d="M873 263L874 264L873 263M203 264L204 265L203 264M876 264L877 265L876 264z"/>
<path style="fill:#aeb3bb; stroke:none;" d="M876 265L877 266L876 265z"/>
<path style="fill:#d9dcdf; stroke:none;" d="M202 268L203 269L202 268z"/>
<path style="fill:#c7cbd1; stroke:none;" d="M202 269L203 270L202 269z"/>
<path style="fill:#d9dcdf; stroke:none;" d="M877.333 269.667L877.667 270.333L877.333 269.667z"/>
<path style="fill:#aeb3bb; stroke:none;" d="M202 270L202 273L203 273L202 270z"/>
<path style="fill:#c7cbd1; stroke:none;" d="M877 271L878 272L877 271z"/>
<path style="fill:#aeb3bb; stroke:none;" d="M877 272L877 275L878 275L877 272z"/>
<path style="fill:#d9dcdf; stroke:none;" d="M201.333 276.667L201.667 277.333L201.333 276.667z"/>
<path style="fill:#c7cbd1; stroke:none;" d="M201.333 278.667L201.667 279.333L201.333 278.667z"/>
<path style="fill:#d9dcdf; stroke:none;" d="M878.333 279.667L878.667 280.333L878.333 279.667z"/>
<path style="fill:#aeb3bb; stroke:none;" d="M201.333 280.667L201.667 281.333L201.333 280.667z"/>
<path style="fill:#c7cbd1; stroke:none;" d="M878 281L879 282L878 281z"/>
<path style="fill:#aeb3bb; stroke:none;" d="M878 282L878 285L879 285L878 282z"/>
<path style="fill:#d9dcdf; stroke:none;" d="M200.333 286.667L200.667 287.333L200.333 286.667z"/>
<path style="fill:#c7cbd1; stroke:none;" d="M200.333 288.667L200.667 289.333L200.333 288.667z"/>
<path style="fill:#aeb3bb; stroke:none;" d="M200 290L200 293L201 293L200 290z"/>
<path style="fill:#d9dcdf; stroke:none;" d="M879.333 290.667L879.667 291.333L879.333 290.667z"/>
<path style="fill:#c7cbd1; stroke:none;" d="M879.333 292.667L879.667 293.333L879.333 292.667z"/>
<path style="fill:#aeb3bb; stroke:none;" d="M879 294L879 298L880 298L879 294z"/>
<path style="fill:#d9dcdf; stroke:none;" d="M199.333 298.667L199.667 299.333L199.333 298.667z"/>
<path style="fill:#c7cbd1; stroke:none;" d="M199 300L199 303L200 303L199 300z"/>
<path style="fill:#aeb3bb; stroke:none;" d="M199 303L199 307L200 307L199 303z"/>
<path style="fill:#d9dcdf; stroke:none;" d="M880 303L880 306L881 306L880 303z"/>
<path style="fill:#c7cbd1; stroke:none;" d="M880 306L880 309L881 309L880 306z"/>
<path style="fill:#aeb3bb; stroke:none;" d="M880 309L880 314L881 314L880 309z"/>
<path style="fill:#d9dcdf; stroke:none;" d="M198 313L198 317L199 317L198 313z"/>
<path style="fill:#c7cbd1; stroke:none;" d="M198 317L198 320L199 320L198 317z"/>
<path style="fill:#aeb3bb; stroke:none;" d="M198 320L198 326L199 326L198 320z"/>
<path style="fill:#d9dcdf; stroke:none;" d="M881 322L881 326L882 326L881 322z"/>
<path style="fill:#c7cbd1; stroke:none;" d="M881 326L881 330L882 330L881 326z"/>
<path style="fill:#aeb3bb; stroke:none;" d="M881 330L881 339L882 339L881 330z"/>
<path style="fill:#d9dcdf; stroke:none;" d="M197 336L197 351L198 351L197 336z"/>
<path style="fill:#c7cbd1; stroke:none;" d="M197 351L197 376L198 376L197 351z"/>
<path style="fill:#d9dcdf; stroke:none;" d="M197 376L197 385L198 385L197 376z"/>
<path style="fill:#aeb3bb; stroke:none;" d="M881 387L881 396L882 396L881 387z"/>
<path style="fill:#c7cbd1; stroke:none;" d="M881 396L881 400L882 400L881 396z"/>
<path style="fill:#aeb3bb; stroke:none;" d="M198 398L198 405L199 405L198 398z"/>
<path style="fill:#d9dcdf; stroke:none;" d="M881 400L881 405L882 405L881 400z"/>
<path style="fill:#c7cbd1; stroke:none;" d="M198 405L198 408L199 408L198 405z"/>
<path style="fill:#d9dcdf; stroke:none;" d="M198 408L198 411L199 411L198 408z"/>
<path style="fill:#aeb3bb; stroke:none;" d="M880 412L880 417L881 417L880 412z"/>
<path style="fill:#c7cbd1; stroke:none;" d="M880 417L880 420L881 420L880 417z"/>
<path style="fill:#aeb3bb; stroke:none;" d="M199 419L199 423L200 423L199 419z"/>
<path style="fill:#d9dcdf; stroke:none;" d="M880 420L880 423L881 423L880 420z"/>
<path style="fill:#c7cbd1; stroke:none;" d="M199.333 423.667L199.667 424.333L199.333 423.667z"/>
<path style="fill:#d9dcdf; stroke:none;" d="M199 425L199 428L200 428L199 425z"/>
<path style="fill:#aeb3bb; stroke:none;" d="M879 429L879 432L880 432L879 429z"/>
<path style="fill:#c7cbd1; stroke:none;" d="M879 432L879 435L880 435L879 432z"/>
<path style="fill:#aeb3bb; stroke:none;" d="M200 433L200 436L201 436L200 433z"/>
<path style="fill:#d9dcdf; stroke:none;" d="M879.333 435.667L879.667 436.333L879.333 435.667z"/>
<path style="fill:#c7cbd1; stroke:none;" d="M200.333 436.667L200.667 437.333L200.333 436.667z"/>
<path style="fill:#d9dcdf; stroke:none;" d="M200 438L200 441L201 441L200 438z"/>
<path style="fill:#aeb3bb; stroke:none;" d="M878 441L878 445L879 445L878 441M201 445L201 448L202 448L201 445z"/>
<path style="fill:#c7cbd1; stroke:none;" d="M878.333 445.667L878.667 446.333L878.333 445.667z"/>
<path style="fill:#d9dcdf; stroke:none;" d="M878 447L879 448L878 447z"/>
<path style="fill:#c7cbd1; stroke:none;" d="M201.333 448.667L201.667 449.333L201.333 448.667z"/>
<path style="fill:#d9dcdf; stroke:none;" d="M201 450L202 451L201 450z"/>
<path style="fill:#aeb3bb; stroke:none;" d="M877 452L877 455L878 455L877 452M202 455L202 458L203 458L202 455z"/>
<path style="fill:#c7cbd1; stroke:none;" d="M877.333 455.667L877.667 456.333L877.333 455.667z"/>
<path style="fill:#d9dcdf; stroke:none;" d="M877 457L878 458L877 457z"/>
<path style="fill:#c7cbd1; stroke:none;" d="M202.333 458.667L202.667 459.333L202.333 458.667z"/>
<path style="fill:#d9dcdf; stroke:none;" d="M202 460L203 461L202 460z"/>
<path style="fill:#aeb3bb; stroke:none;" d="M876.333 462.667L876.667 463.333L876.333 462.667M203 464L203 467L204 467L203 464z"/>
<path style="fill:#c7cbd1; stroke:none;" d="M876.333 464.667L876.667 465.333L876.333 464.667z"/>
<path style="fill:#d9dcdf; stroke:none;" d="M876 466L877 467L876 466z"/>
<path style="fill:#c7cbd1; stroke:none;" d="M203 467L204 468L203 467z"/>
<path style="fill:#d9dcdf; stroke:none;" d="M203.333 468.667L203.667 469.333L203.333 468.667z"/>
<path style="fill:#aeb3bb; stroke:none;" d="M875 470L875 473L876 473L875 470M204.333 473.667L204.667 474.333L204.333 473.667z"/>
<path style="fill:#c7cbd1; stroke:none;" d="M875 473L876 474L875 473z"/>
<path style="fill:#d9dcdf; stroke:none;" d="M875 474L876 475L875 474z"/>
<path style="fill:#c7cbd1; stroke:none;" d="M204 475L205 476L204 475z"/>
<path style="fill:#d9dcdf; stroke:none;" d="M204.333 476.667L204.667 477.333L204.333 476.667z"/>
<path style="fill:#aeb3bb; stroke:none;" d="M874 478L874 481L875 481L874 478M205.333 481.667L205.667 482.333L205.333 481.667z"/>
<path style="fill:#c7cbd1; stroke:none;" d="M874 481L875 482L874 481z"/>
<path style="fill:#d9dcdf; stroke:none;" d="M874 482L875 483L874 482z"/>
<path style="fill:#c7cbd1; stroke:none;" d="M205 483L206 484L205 483z"/>
<path style="fill:#d9dcdf; stroke:none;" d="M205 484L206 485L205 484z"/>
<path style="fill:#aeb3bb; stroke:none;" d="M873.333 486.667L873.667 487.333L873.333 486.667M206.333 488.667L206.667 489.333L206.333 488.667z"/>
<path style="fill:#c7cbd1; stroke:none;" d="M873 488L874 489L873 488z"/>
<path style="fill:#d9dcdf; stroke:none;" d="M873 489L874 490L873 489z"/>
<path style="fill:#c7cbd1; stroke:none;" d="M206 490L207 491L206 490z"/>
<path style="fill:#d9dcdf; stroke:none;" d="M206 491L207 492L206 491z"/>
<path style="fill:#aeb3bb; stroke:none;" d="M872 493L873 494L872 493z"/>
<path style="fill:#c7cbd1; stroke:none;" d="M872 494L873 495L872 494z"/>
<path style="fill:#aeb3bb; stroke:none;" d="M207 495L208 496L207 495z"/>
<path style="fill:#d9dcdf; stroke:none;" d="M872.333 495.667L872.667 496.333L872.333 495.667z"/>
<path style="fill:#c7cbd1; stroke:none;" d="M207.333 496.667L207.667 497.333L207.333 496.667z"/>
<path style="fill:#d9dcdf; stroke:none;" d="M207 498L208 499L207 498z"/>
<path style="fill:#aeb3bb; stroke:none;" d="M871.333 499.667L871.667 500.333L871.333 499.667M208.333 501.667L208.667 502.333L208.333 501.667z"/>
<path style="fill:#c7cbd1; stroke:none;" d="M871 501L872 502L871 501z"/>
<path style="fill:#d9dcdf; stroke:none;" d="M871 502L872 503L871 502z"/>
<path style="fill:#c7cbd1; stroke:none;" d="M208 503L209 504L208 503z"/>
<path style="fill:#d9dcdf; stroke:none;" d="M208 504L209 505L208 504z"/>
<path style="fill:#aeb3bb; stroke:none;" d="M870.333 505.667L870.667 506.333L870.333 505.667M209.333 507.667L209.667 508.333L209.333 507.667z"/>
<path style="fill:#c7cbd1; stroke:none;" d="M870 507L871 508L870 507z"/>
<path style="fill:#d9dcdf; stroke:none;" d="M870 508L871 509L870 508z"/>
<path style="fill:#c7cbd1; stroke:none;" d="M209 509L210 510L209 509z"/>
<path style="fill:#d9dcdf; stroke:none;" d="M209 510L210 511L209 510z"/>
<path style="fill:#aeb3bb; stroke:none;" d="M869.333 511.667L869.667 512.333L869.333 511.667M210 513L211 514L210 513z"/>
<path style="fill:#c7cbd1; stroke:none;" d="M869 513L870 514L869 513M210 514L211 515L210 514z"/>
<path style="fill:#d9dcdf; stroke:none;" d="M869 514L870 515L869 514M210 515L211 516L210 515z"/>
<path style="fill:#aeb3bb; stroke:none;" d="M868 517L869 518L868 517M211.333 518.667L211.667 519.333L211.333 518.667z"/>
<path style="fill:#c7cbd1; stroke:none;" d="M868 518L869 519L868 518z"/>
<path style="fill:#d9dcdf; stroke:none;" d="M868 519L869 520L868 519z"/>
<path style="fill:#c7cbd1; stroke:none;" d="M211 520L212 521L211 520z"/>
<path style="fill:#d9dcdf; stroke:none;" d="M211 521L212 522L211 521z"/>
<path style="fill:#aeb3bb; stroke:none;" d="M867.333 522.667L867.667 523.333L867.333 522.667M212 524L213 525L212 524z"/>
<path style="fill:#c7cbd1; stroke:none;" d="M867 524L868 525L867 524M212 525L213 526L212 525z"/>
<path style="fill:#d9dcdf; stroke:none;" d="M212 526L213 527L212 526z"/>
<path style="fill:#aeb3bb; stroke:none;" d="M866.333 527.667L866.667 528.333L866.333 527.667M213 529L214 530L213 529z"/>
<path style="fill:#c7cbd1; stroke:none;" d="M866 529L867 530L866 529M213 530L214 531L213 530z"/>
<path style="fill:#d9dcdf; stroke:none;" d="M866 530L867 531L866 530M213 531L214 532L213 531z"/>
<path style="fill:#aeb3bb; stroke:none;" d="M865 533L866 534L865 533M214 534L215 535L214 534z"/>
<path style="fill:#c7cbd1; stroke:none;" d="M865 534L866 535L865 534M214 535L215 536L214 535z"/>
<path style="fill:#d9dcdf; stroke:none;" d="M865 535L866 536L865 535z"/>
<path style="fill:#aeb3bb; stroke:none;" d="M215 538L216 539L215 538M864.333 538.667L864.667 539.333L864.333 538.667z"/>
<path style="fill:#c7cbd1; stroke:none;" d="M215 539L216 540L215 539z"/>
<path style="fill:#d9dcdf; stroke:none;" d="M215 540L216 541L215 540M864 540L865 541L864 540z"/>
<path style="fill:#aeb3bb; stroke:none;" d="M216 543L217 544L216 543M863 543L864 544L863 543z"/>
<path style="fill:#d9dcdf; stroke:none;" d="M216 544L217 545L216 544z"/>
<path style="fill:#c7cbd1; stroke:none;" d="M863 544L864 545L863 544z"/>
<path style="fill:#d9dcdf; stroke:none;" d="M863 545L864 546L863 545z"/>
<path style="fill:#aeb3bb; stroke:none;" d="M217 547L218 548L217 547M862.333 547.667L862.667 548.333L862.333 547.667z"/>
<path style="fill:#c7cbd1; stroke:none;" d="M217 548L218 549L217 548z"/>
<path style="fill:#d9dcdf; stroke:none;" d="M217 549L218 550L217 549M862 549L863 550L862 549z"/>
<path style="fill:#aeb3bb; stroke:none;" d="M218 551L219 552L218 551z"/>
<path style="fill:#c7cbd1; stroke:none;" d="M218 552L219 553L218 552z"/>
<path style="fill:#aeb3bb; stroke:none;" d="M861 552L862 553L861 552z"/>
<path style="fill:#d9dcdf; stroke:none;" d="M218 553L219 554L218 553z"/>
<path style="fill:#c7cbd1; stroke:none;" d="M861 553L862 554L861 553z"/>
<path style="fill:#aeb3bb; stroke:none;" d="M219 556L220 557L219 556M860 556L861 557L860 556z"/>
<path style="fill:#c7cbd1; stroke:none;" d="M219 557L220 558L219 557M860 557L861 558L860 557z"/>
<path style="fill:#d9dcdf; stroke:none;" d="M860 558L861 559L860 558z"/>
<path style="fill:#aeb3bb; stroke:none;" d="M220 560L221 561L220 560M859 560L860 561L859 560z"/>
<path style="fill:#c7cbd1; stroke:none;" d="M220 561L221 562L220 561M859 561L860 562L859 561z"/>
<path style="fill:#d9dcdf; stroke:none;" d="M859 562L860 563L859 562z"/>
<path style="fill:#aeb3bb; stroke:none;" d="M221 564L222 565L221 564M858 564L859 565L858 564z"/>
<path style="fill:#c7cbd1; stroke:none;" d="M221 565L222 566L221 565M858 565L859 566L858 565z"/>
<path style="fill:#d9dcdf; stroke:none;" d="M858 566L859 567L858 566z"/>
<path style="fill:#aeb3bb; stroke:none;" d="M222 568L223 569L222 568M857 568L858 569L857 568z"/>
<path style="fill:#c7cbd1; stroke:none;" d="M222 569L223 570L222 569M857 569L858 570L857 569z"/>
<path style="fill:#d9dcdf; stroke:none;" d="M857 570L858 571L857 570z"/>
<path style="fill:#aeb3bb; stroke:none;" d="M223 572L224 573L223 572M856 572L857 573L856 572z"/>
<path style="fill:#d9dcdf; stroke:none;" d="M223 573L224 574L223 573z"/>
<path style="fill:#c7cbd1; stroke:none;" d="M856 573L857 574L856 573z"/>
<path style="fill:#d9dcdf; stroke:none;" d="M856 574L857 575L856 574z"/>
<path style="fill:#aeb3bb; stroke:none;" d="M224 575L225 576L224 575z"/>
<path style="fill:#c7cbd1; stroke:none;" d="M224 576L225 577L224 576z"/>
<path style="fill:#aeb3bb; stroke:none;" d="M855 576L856 577L855 576z"/>
<path style="fill:#d9dcdf; stroke:none;" d="M224 577L225 578L224 577z"/>
<path style="fill:#c7cbd1; stroke:none;" d="M855 577L856 578L855 577z"/>
<path style="fill:#aeb3bb; stroke:none;" d="M225 579L226 580L225 579z"/>
<path style="fill:#c7cbd1; stroke:none;" d="M225 580L226 581L225 580M854 580L855 581L854 580z"/>
<path style="fill:#d9dcdf; stroke:none;" d="M854 581L855 582L854 581z"/>
<path style="fill:#aeb3bb; stroke:none;" d="M226 583L227 584L226 583M853 583L854 584L853 583z"/>
<path style="fill:#d9dcdf; stroke:none;" d="M226 584L227 585L226 584z"/>
<path style="fill:#c7cbd1; stroke:none;" d="M853 584L854 585L853 584z"/>
<path style="fill:#aeb3bb; stroke:none;" d="M227 586L228 587L227 586z"/>
<path style="fill:#c7cbd1; stroke:none;" d="M227 587L228 588L227 587z"/>
<path style="fill:#aeb3bb; stroke:none;" d="M852 587L853 588L852 587z"/>
<path style="fill:#d9dcdf; stroke:none;" d="M852 588L853 589L852 588z"/>
<path style="fill:#aeb3bb; stroke:none;" d="M228 590L229 591L228 590M851 590L852 591L851 590z"/>
<path style="fill:#d9dcdf; stroke:none;" d="M228 591L229 592L228 591z"/>
<path style="fill:#c7cbd1; stroke:none;" d="M851 591L852 592L851 591z"/>
<path style="fill:#aeb3bb; stroke:none;" d="M229 593L230 594L229 593M850 593L851 594L850 593z"/>
<path style="fill:#d9dcdf; stroke:none;" d="M229 594L230 595L229 594z"/>
<path style="fill:#c7cbd1; stroke:none;" d="M850 594L851 595L850 594z"/>
<path style="fill:#aeb3bb; stroke:none;" d="M230 596L231 597L230 596z"/>
<path style="fill:#c7cbd1; stroke:none;" d="M230 597L231 598L230 597z"/>
<path style="fill:#aeb3bb; stroke:none;" d="M849 597L850 598L849 597z"/>
<path style="fill:#d9dcdf; stroke:none;" d="M849 598L850 599L849 598z"/>
<path style="fill:#aeb3bb; stroke:none;" d="M231 599L232 600L231 599z"/>
<path style="fill:#c7cbd1; stroke:none;" d="M231 600L232 601L231 600z"/>
<path style="fill:#aeb3bb; stroke:none;" d="M848 600L849 601L848 600z"/>
<path style="fill:#d9dcdf; stroke:none;" d="M848 601L849 602L848 601z"/>
<path style="fill:#aeb3bb; stroke:none;" d="M232 603L233 604L232 603M847 603L848 604L847 603z"/>
<path style="fill:#d9dcdf; stroke:none;" d="M232 604L233 605L232 604z"/>
<path style="fill:#c7cbd1; stroke:none;" d="M847 604L848 605L847 604z"/>
<path style="fill:#aeb3bb; stroke:none;" d="M233 606L234 607L233 606M846 606L847 607L846 606z"/>
<path style="fill:#d9dcdf; stroke:none;" d="M233 607L234 608L233 607z"/>
<path style="fill:#c7cbd1; stroke:none;" d="M846 607L847 608L846 607z"/>
<path style="fill:#aeb3bb; stroke:none;" d="M234 609L235 610L234 609M845 609L846 610L845 609z"/>
<path style="fill:#d9dcdf; stroke:none;" d="M234 610L235 611L234 610z"/>
<path style="fill:#c7cbd1; stroke:none;" d="M845 610L846 611L845 610z"/>
<path style="fill:#aeb3bb; stroke:none;" d="M235 612L236 613L235 612M844 612L845 613L844 612z"/>
<path style="fill:#d9dcdf; stroke:none;" d="M235 613L236 614L235 613z"/>
<path style="fill:#c7cbd1; stroke:none;" d="M844 613L845 614L844 613z"/>
<path style="fill:#aeb3bb; stroke:none;" d="M236 615L237 616L236 615M843 615L844 616L843 615z"/>
<path style="fill:#d9dcdf; stroke:none;" d="M236 616L237 617L236 616z"/>
<path style="fill:#c7cbd1; stroke:none;" d="M843 616L844 617L843 616z"/>
<path style="fill:#aeb3bb; stroke:none;" d="M237 618L238 619L237 618M842 618L843 619L842 618z"/>
<path style="fill:#d9dcdf; stroke:none;" d="M237 619L238 620L237 619M842 619L843 620L842 619z"/>
<path style="fill:#c7cbd1; stroke:none;" d="M238 621L239 622L238 621z"/>
<path style="fill:#aeb3bb; stroke:none;" d="M841 621L842 622L841 621z"/>
<path style="fill:#d9dcdf; stroke:none;" d="M841 622L842 623L841 622z"/>
<path style="fill:#aeb3bb; stroke:none;" d="M239 623L240 624L239 623z"/>
<path style="fill:#c7cbd1; stroke:none;" d="M239 624L240 625L239 624z"/>
<path style="fill:#aeb3bb; stroke:none;" d="M840 624L841 625L840 624M240 626L241 627L240 626z"/>
<path style="fill:#d9dcdf; stroke:none;" d="M240 627L241 628L240 627z"/>
<path style="fill:#c7cbd1; stroke:none;" d="M839 627L840 628L839 627z"/>
<path style="fill:#aeb3bb; stroke:none;" d="M241 629L242 630L241 629M838 629L839 630L838 629z"/>
<path style="fill:#d9dcdf; stroke:none;" d="M241 630L242 631L241 630z"/>
<path style="fill:#c7cbd1; stroke:none;" d="M838 630L839 631L838 630z"/>
<path style="fill:#aeb3bb; stroke:none;" d="M242 632L243 633L242 632M837 632L838 633L837 632z"/>
<path style="fill:#d9dcdf; stroke:none;" d="M242 633L243 634L242 633M837 633L838 634L837 633z"/>
<path style="fill:#c7cbd1; stroke:none;" d="M243 635L244 636L243 635z"/>
<path style="fill:#aeb3bb; stroke:none;" d="M836 635L837 636L836 635M244 637L245 638L244 637M835 637L836 638L835 637z"/>
<path style="fill:#d9dcdf; stroke:none;" d="M244 638L245 639L244 638M835 638L836 639L835 638z"/>
<path style="fill:#c7cbd1; stroke:none;" d="M245 640L246 641L245 640z"/>
<path style="fill:#aeb3bb; stroke:none;" d="M834 640L835 641L834 640M246 642L247 643L246 642M833 642L834 643L833 642z"/>
<path style="fill:#d9dcdf; stroke:none;" d="M246 643L247 644L246 643z"/>
<path style="fill:#c7cbd1; stroke:none;" d="M833 643L834 644L833 643M247 645L248 646L247 645z"/>
<path style="fill:#aeb3bb; stroke:none;" d="M832 645L833 646L832 645z"/>
<path style="fill:#d9dcdf; stroke:none;" d="M832 646L833 647L832 646z"/>
<path style="fill:#aeb3bb; stroke:none;" d="M248 647L249 648L248 647z"/>
<path style="fill:#d9dcdf; stroke:none;" d="M248 648L249 649L248 648z"/>
<path style="fill:#c7cbd1; stroke:none;" d="M831 648L832 649L831 648M249 650L250 651L249 650z"/>
<path style="fill:#aeb3bb; stroke:none;" d="M830 650L831 651L830 650M250 652L251 653L250 652M829 652L830 653L829 652z"/>
<path style="fill:#d9dcdf; stroke:none;" d="M829 653L830 654L829 653z"/>
<path style="fill:#aeb3bb; stroke:none;" d="M251 654L252 655L251 654z"/>
<path style="fill:#d9dcdf; stroke:none;" d="M251 655L252 656L251 655z"/>
<path style="fill:#c7cbd1; stroke:none;" d="M828 655L829 656L828 655M252 657L253 658L252 657z"/>
<path style="fill:#aeb3bb; stroke:none;" d="M827 657L828 658L827 657M253 659L254 660L253 659M826 659L827 660L826 659z"/>
<path style="fill:#d9dcdf; stroke:none;" d="M253 660L254 661L253 660M826 660L827 661L826 660z"/>
<path style="fill:#c7cbd1; stroke:none;" d="M254 662L255 663L254 662M825 662L826 663L825 662M255 664L256 665L255 664z"/>
<path style="fill:#aeb3bb; stroke:none;" d="M824 664L825 665L824 664M256 666L257 667L256 666M823 666L824 667L823 666M257 668L258 669L257 668M822 668L823 669L822 668z"/>
<path style="fill:#d9dcdf; stroke:none;" d="M822 669L823 670L822 669z"/>
<path style="fill:#aeb3bb; stroke:none;" d="M258 670L259 671L258 670z"/>
<path style="fill:#d9dcdf; stroke:none;" d="M258 671L259 672L258 671z"/>
<path style="fill:#c7cbd1; stroke:none;" d="M821 671L822 672L821 671M259 673L260 674L259 673M820 673L821 674L820 673M260 675L261 676L260 675z"/>
<path style="fill:#aeb3bb; stroke:none;" d="M819 675L820 676L819 675z"/>
<path style="fill:#c7cbd1; stroke:none;" d="M261 677L262 678L261 677z"/>
<path style="fill:#aeb3bb; stroke:none;" d="M818 677L819 678L818 677z"/>
<path style="fill:#c7cbd1; stroke:none;" d="M262 679L263 680L262 679z"/>
<path style="fill:#aeb3bb; stroke:none;" d="M817 679L818 680L817 679z"/>
<path style="fill:#c7cbd1; stroke:none;" d="M263 681L264 682L263 681z"/>
<path style="fill:#aeb3bb; stroke:none;" d="M816 681L817 682L816 681M264 683L265 684L264 683M815 683L816 684L815 683M265 685L266 686L265 685M814 685L815 686L814 685M266 687L267 688L266 687M813 687L814 688L813 687z"/>
<path style="fill:#d9dcdf; stroke:none;" d="M813 688L814 689L813 688z"/>
<path style="fill:#aeb3bb; stroke:none;" d="M267 689L268 690L267 689M812 689L813 690L812 689z"/>
<path style="fill:#c7cbd1; stroke:none;" d="M268 691L269 692L268 691z"/>
<path style="fill:#aeb3bb; stroke:none;" d="M811 691L812 692L811 691z"/>
<path style="fill:#c7cbd1; stroke:none;" d="M269 693L270 694L269 693z"/>
<path style="fill:#aeb3bb; stroke:none;" d="M810 693L811 694L810 693z"/>
<path style="fill:#c7cbd1; stroke:none;" d="M270 695L271 696L270 695z"/>
<path style="fill:#aeb3bb; stroke:none;" d="M809 695L810 696L809 695z"/>
<path style="fill:#c7cbd1; stroke:none;" d="M271 697L272 698L271 697M808 697L809 698L808 697M272 699L273 700L272 699M807 699L808 700L807 699z"/>
<path style="fill:#d9dcdf; stroke:none;" d="M273 701L274 702L273 701z"/>
<path style="fill:#c7cbd1; stroke:none;" d="M806 701L807 702L806 701z"/>
<path style="fill:#d9dcdf; stroke:none;" d="M274 703L275 704L274 703M805 703L806 704L805 703z"/>
<path style="fill:#aeb3bb; stroke:none;" d="M275 704L276 705L275 704M804 704L805 705L804 704M276 706L277 707L276 706M803 706L804 707L803 706z"/>
<path style="fill:#c7cbd1; stroke:none;" d="M277 708L278 709L277 708M802 708L803 709L802 708z"/>
<path style="fill:#d9dcdf; stroke:none;" d="M278 710L279 711L278 710M801 710L802 711L801 710z"/>
<path style="fill:#aeb3bb; stroke:none;" d="M279 711L280 712L279 711M800 711L801 712L800 711z"/>
<path style="fill:#d9dcdf; stroke:none;" d="M279 712L280 713L279 712z"/>
<path style="fill:#aeb3bb; stroke:none;" d="M280 713L281 714L280 713M799 713L800 714L799 713z"/>
<path style="fill:#c7cbd1; stroke:none;" d="M281 715L282 716L281 715M798 715L799 716L798 715z"/>
<path style="fill:#d9dcdf; stroke:none;" d="M282 717L283 718L282 717M797 717L798 718L797 717z"/>
<path style="fill:#aeb3bb; stroke:none;" d="M283 718L284 719L283 718M796 718L797 719L796 718z"/>
<path style="fill:#c7cbd1; stroke:none;" d="M284 720L285 721L284 720M795 720L796 721L795 720z"/>
<path style="fill:#d9dcdf; stroke:none;" d="M285 722L286 723L285 722M794 722L795 723L794 722z"/>
<path style="fill:#aeb3bb; stroke:none;" d="M286 723L287 724L286 723M793 723L794 724L793 723z"/>
<path style="fill:#c7cbd1; stroke:none;" d="M287 725L288 726L287 725M792 725L793 726L792 725z"/>
<path style="fill:#aeb3bb; stroke:none;" d="M288 726L289 727L288 726z"/>
<path style="fill:#d9dcdf; stroke:none;" d="M791 727L792 728L791 727z"/>
<path style="fill:#c7cbd1; stroke:none;" d="M289 728L290 729L289 728z"/>
<path style="fill:#aeb3bb; stroke:none;" d="M790 728L791 729L790 728z"/>
<path style="fill:#d9dcdf; stroke:none;" d="M290 730L291 731L290 730M789 730L790 731L789 730z"/>
<path style="fill:#aeb3bb; stroke:none;" d="M291 731L292 732L291 731M788 731L789 732L788 731z"/>
<path style="fill:#d9dcdf; stroke:none;" d="M292 733L293 734L292 733z"/>
<path style="fill:#c7cbd1; stroke:none;" d="M787 733L788 734L787 733z"/>
<path style="fill:#aeb3bb; stroke:none;" d="M293 734L294 735L293 734M786 734L787 735L786 734z"/>
<path style="fill:#c7cbd1; stroke:none;" d="M294 736L295 737L294 736M785 736L786 737L785 736z"/>
<path style="fill:#aeb3bb; stroke:none;" d="M295 737L296 738L295 737M784 737L785 738L784 737z"/>
<path style="fill:#c7cbd1; stroke:none;" d="M296 739L297 740L296 739M783 739L784 740L783 739z"/>
<path style="fill:#aeb3bb; stroke:none;" d="M782 740L783 741L782 740z"/>
<path style="fill:#c7cbd1; stroke:none;" d="M298 742L299 743L298 742M781 742L782 743L781 742z"/>
<path style="fill:#aeb3bb; stroke:none;" d="M299 743L300 744L299 743M780 743L781 744L780 743z"/>
<path style="fill:#c7cbd1; stroke:none;" d="M300 745L301 746L300 745M779 745L780 746L779 745z"/>
<path style="fill:#aeb3bb; stroke:none;" d="M301 746L302 747L301 746M778 746L779 747L778 746z"/>
<path style="fill:#d9dcdf; stroke:none;" d="M302 748L303 749L302 748z"/>
<path style="fill:#c7cbd1; stroke:none;" d="M777 748L778 749L777 748z"/>
<path style="fill:#aeb3bb; stroke:none;" d="M303 749L304 750L303 749M776 749L777 750L776 749z"/>
<path style="fill:#d9dcdf; stroke:none;" d="M304 751L305 752L304 751M775 751L776 752L775 751z"/>
<path style="fill:#c7cbd1; stroke:none;" d="M305 752L306 753L305 752z"/>
<path style="fill:#aeb3bb; stroke:none;" d="M774 752L775 753L774 752M306 753L307 754L306 753z"/>
<path style="fill:#d9dcdf; stroke:none;" d="M307 755L308 756L307 755z"/>
<path style="fill:#c7cbd1; stroke:none;" d="M772 755L773 756L772 755M308 756L309 757L308 756z"/>
<path style="fill:#aeb3bb; stroke:none;" d="M771 756L772 757L771 756M309 757L310 758L309 757z"/>
<path style="fill:#d9dcdf; stroke:none;" d="M310 759L311 760L310 759z"/>
<path style="fill:#c7cbd1; stroke:none;" d="M769 759L770 760L769 759z"/>
<path style="fill:#aeb3bb; stroke:none;" d="M311 760L312 761L311 760M768 760L769 761L768 760z"/>
<path style="fill:#d9dcdf; stroke:none;" d="M767 762L768 763L767 762M313 763L314 764L313 763z"/>
<path style="fill:#c7cbd1; stroke:none;" d="M766 763L767 764L766 763M314 764L315 765L314 764z"/>
<path style="fill:#aeb3bb; stroke:none;" d="M765 764L766 765L765 764M315 765L316 766L315 765z"/>
<path style="fill:#d9dcdf; stroke:none;" d="M763 767L764 768L763 767M317 768L318 769L317 768z"/>
<path style="fill:#c7cbd1; stroke:none;" d="M762 768L763 769L762 768z"/>
<path style="fill:#aeb3bb; stroke:none;" d="M318 769L319 770L318 769M761 769L762 770L761 769M319 770L320 771L319 770z"/>
<path style="fill:#d9dcdf; stroke:none;" d="M320 772L321 773L320 772M759 772L760 773L759 772z"/>
<path style="fill:#c7cbd1; stroke:none;" d="M321 773L322 774L321 773z"/>
<path style="fill:#aeb3bb; stroke:none;" d="M758 773L759 774L758 773M322 774L323 775L322 774M757 774L758 775L757 774z"/>
<path style="fill:#d9dcdf; stroke:none;" d="M756 776L757 777L756 776M324 777L325 778L324 777M755 777L756 778L755 777M325 778L326 779L325 778z"/>
<path style="fill:#c7cbd1; stroke:none;" d="M754 778L755 779L754 778M326 779L327 780L326 779z"/>
<path style="fill:#aeb3bb; stroke:none;" d="M753 779L754 780L753 779M327 780L328 781L327 780M752 780L753 781L752 780M328 781L329 782L328 781z"/>
<path style="fill:#d9dcdf; stroke:none;" d="M750 783L751 784L750 783M330 784L331 785L330 784z"/>
<path style="fill:#c7cbd1; stroke:none;" d="M749 784L750 785L749 784z"/>
<path style="fill:#d9dcdf; stroke:none;" d="M331 785L332 786L331 785z"/>
<path style="fill:#aeb3bb; stroke:none;" d="M748 785L749 786L748 785z"/>
<path style="fill:#c7cbd1; stroke:none;" d="M332 786L333 787L332 786z"/>
<path style="fill:#aeb3bb; stroke:none;" d="M747 786L748 787L747 786M333 787L334 788L333 787M334 788L335 789L334 788M335 789L336 790L335 789z"/>
<path style="fill:#d9dcdf; stroke:none;" d="M744 790L745 791L744 790M743 791L744 792L743 791M742 792L743 793L742 792M338 793L339 794L338 793M741 793L742 794L741 793M339 794L340 795L339 794z"/>
<path style="fill:#c7cbd1; stroke:none;" d="M740 794L741 795L740 794z"/>
<path style="fill:#d9dcdf; stroke:none;" d="M340 795L341 796L340 795z"/>
<path style="fill:#c7cbd1; stroke:none;" d="M739 795L740 796L739 795M341 796L342 797L341 796z"/>
<path style="fill:#aeb3bb; stroke:none;" d="M738 796L739 797L738 796z"/>
<path style="fill:#c7cbd1; stroke:none;" d="M342 797L343 798L342 797z"/>
<path style="fill:#aeb3bb; stroke:none;" d="M737 797L738 798L737 797M343 798L344 799L343 798M736 798L737 799L736 798M344 799L345 800L344 799M735 799L736 800L735 799M345 800L346 801L345 800M734 800L735 801L734 800M346 801L347 802L346 801M733 801L734 802L733 801M347 802L348 803L347 802M360 815L361 816L360 815M719 815L720 816L719 815M361 816L362 817L361 816M718 816L719 817L718 816M362 817L363 818L362 817M717 817L718 818L717 817z"/>
<path style="fill:#c7cbd1; stroke:none;" d="M363 818L364 819L363 818z"/>
<path style="fill:#aeb3bb; stroke:none;" d="M716 818L717 819L716 818z"/>
<path style="fill:#c7cbd1; stroke:none;" d="M364 819L365 820L364 819M715 819L716 820L715 819z"/>
<path style="fill:#d9dcdf; stroke:none;" d="M365 820L366 821L365 820z"/>
<path style="fill:#c7cbd1; stroke:none;" d="M714 820L715 821L714 820z"/>
<path style="fill:#d9dcdf; stroke:none;" d="M366 821L367 822L366 821M713 821L714 822L713 821M367 822L368 823L367 822M712 822L713 823L712 822M711 823L712 824L711 823z"/>
<path style="fill:#aeb3bb; stroke:none;" d="M371 825L372 826L371 825M372 826L373 827L372 826M707 826L708 827L707 826z"/>
<path style="fill:#c7cbd1; stroke:none;" d="M373 827L374 828L373 827z"/>
<path style="fill:#aeb3bb; stroke:none;" d="M706 827L707 828L706 827z"/>
<path style="fill:#c7cbd1; stroke:none;" d="M374 828L375 829L374 828M705 828L706 829L705 828z"/>
<path style="fill:#d9dcdf; stroke:none;" d="M375 829L376 830L375 829M704 829L705 830L704 829z"/>
<path style="fill:#aeb3bb; stroke:none;" d="M378 831L379 832L378 831M379 832L380 833L379 832M700 832L701 833L700 832M380 833L381 834L380 833z"/>
<path style="fill:#c7cbd1; stroke:none;" d="M699 833L700 834L699 833M381 834L382 835L381 834z"/>
<path style="fill:#d9dcdf; stroke:none;" d="M698 834L699 835L698 834M382 835L383 836L382 835M697 835L698 836L697 835z"/>
<path style="fill:#aeb3bb; stroke:none;" d="M385 837L386 838L385 837M694 837L695 838L694 837M386 838L387 839L386 838z"/>
<path style="fill:#c7cbd1; stroke:none;" d="M693 838L694 839L693 838z"/>
<path style="fill:#d9dcdf; stroke:none;" d="M387 839L388 840L387 839M692 839L693 840L692 839z"/>
<path style="fill:#aeb3bb; stroke:none;" d="M390 841L391 842L390 841M689 841L690 842L689 841z"/>
<path style="fill:#c7cbd1; stroke:none;" d="M391 842L392 843L391 842M688 842L689 843L688 842z"/>
<path style="fill:#d9dcdf; stroke:none;" d="M392 843L393 844L392 843M687 843L688 844L687 843z"/>
<path style="fill:#aeb3bb; stroke:none;" d="M394 844L395 845L394 844M685 844L686 845L685 844z"/>
<path style="fill:#c7cbd1; stroke:none;" d="M395 845L396 846L395 845z"/>
<path style="fill:#aeb3bb; stroke:none;" d="M684 845L685 846L684 845z"/>
<path style="fill:#d9dcdf; stroke:none;" d="M396 846L397 847L396 846M683 846L684 847L683 846z"/>
<path style="fill:#aeb3bb; stroke:none;" d="M398 847L399 848L398 847z"/>
<path style="fill:#d9dcdf; stroke:none;" d="M682 847L683 848L682 847z"/>
<path style="fill:#aeb3bb; stroke:none;" d="M399 848L400 849L399 848M680 848L681 849L680 848z"/>
<path style="fill:#d9dcdf; stroke:none;" d="M400 849L401 850L400 849M679 849L680 850L679 849z"/>
<path style="fill:#aeb3bb; stroke:none;" d="M402 850L403 851L402 850M677 850L678 851L677 850z"/>
<path style="fill:#c7cbd1; stroke:none;" d="M403 851L404 852L403 851M676 851L677 852L676 851z"/>
<path style="fill:#d9dcdf; stroke:none;" d="M404 852L405 853L404 852M675 852L676 853L675 852z"/>
<path style="fill:#aeb3bb; stroke:none;" d="M406 853L407 854L406 853M673 853L674 854L673 853z"/>
<path style="fill:#c7cbd1; stroke:none;" d="M407 854L408 855L407 854z"/>
<path style="fill:#d9dcdf; stroke:none;" d="M672 854L673 855L672 854z"/>
<path style="fill:#aeb3bb; stroke:none;" d="M670 855L671 856L670 855M410 856L411 857L410 856z"/>
<path style="fill:#c7cbd1; stroke:none;" d="M669 856L670 857L669 856z"/>
<path style="fill:#d9dcdf; stroke:none;" d="M411 857L412 858L411 857M668 857L669 858L668 857z"/>
<path style="fill:#aeb3bb; stroke:none;" d="M413 858L414 859L413 858M666 858L667 859L666 858z"/>
<path style="fill:#c7cbd1; stroke:none;" d="M414 859L415 860L414 859z"/>
<path style="fill:#d9dcdf; stroke:none;" d="M665 859L666 860L665 859z"/>
<path style="fill:#aeb3bb; stroke:none;" d="M416 860L417 861L416 860M663 860L664 861L663 860z"/>
<path style="fill:#d9dcdf; stroke:none;" d="M417 861L418 862L417 861M662 861L663 862L662 861z"/>
<path style="fill:#aeb3bb; stroke:none;" d="M419 862L420 863L419 862M660 862L661 863L660 862z"/>
<path style="fill:#d9dcdf; stroke:none;" d="M420 863L421 864L420 863M659 863L660 864L659 863z"/>
<path style="fill:#aeb3bb; stroke:none;" d="M422 864L423 865L422 864M657 864L658 865L657 864z"/>
<path style="fill:#d9dcdf; stroke:none;" d="M423 865L424 866L423 865M656 865L657 866L656 865z"/>
<path style="fill:#aeb3bb; stroke:none;" d="M425 866L426 867L425 866M654 866L655 867L654 866z"/>
<path style="fill:#d9dcdf; stroke:none;" d="M426 867L427 868L426 867M653 867L654 868L653 867z"/>
<path style="fill:#c7cbd1; stroke:none;" d="M428 868L429 869L428 868M651 868L652 869L651 868z"/>
<path style="fill:#aeb3bb; stroke:none;" d="M430 869L431 870L430 869M649 869L650 870L649 869z"/>
<path style="fill:#c7cbd1; stroke:none;" d="M431 870L432 871L431 870z"/>
<path style="fill:#d9dcdf; stroke:none;" d="M648 870L649 871L648 870z"/>
<path style="fill:#aeb3bb; stroke:none;" d="M433 871L434 872L433 871M646 871L647 872L646 871z"/>
<path style="fill:#d9dcdf; stroke:none;" d="M434 872L435 873L434 872z"/>
<path style="fill:#aeb3bb; stroke:none;" d="M644 872L645 873L644 872z"/>
<path style="fill:#c7cbd1; stroke:none;" d="M436 873L437 874L436 873z"/>
<path style="fill:#d9dcdf; stroke:none;" d="M643 873L644 874L643 873z"/>
<path style="fill:#aeb3bb; stroke:none;" d="M438 874L439 875L438 874M641 874L642 875L641 874z"/>
<path style="fill:#d9dcdf; stroke:none;" d="M439 875L440 876L439 875z"/>
<path style="fill:#aeb3bb; stroke:none;" d="M639 875L640 876L639 875M441 876L442 877L441 876z"/>
<path style="fill:#d9dcdf; stroke:none;" d="M638 876L639 877L638 876z"/>
<path style="fill:#aeb3bb; stroke:none;" d="M443 877L444 878L443 877z"/>
<path style="fill:#c7cbd1; stroke:none;" d="M636 877L637 878L636 877z"/>
<path style="fill:#d9dcdf; stroke:none;" d="M444 878L445 879L444 878z"/>
<path style="fill:#aeb3bb; stroke:none;" d="M634 878L635 879L634 878z"/>
<path style="fill:#d9dcdf; stroke:none;" d="M446 879L447 880L446 879z"/>
<path style="fill:#aeb3bb; stroke:none;" d="M632 879L633 880L632 879z"/>
<path style="fill:#d9dcdf; stroke:none;" d="M633 879L634 880L633 879z"/>
<path style="fill:#c7cbd1; stroke:none;" d="M448 880L449 881L448 880z"/>
<path style="fill:#d9dcdf; stroke:none;" d="M631 880L632 881L631 880z"/>
<path style="fill:#aeb3bb; stroke:none;" d="M450 881L451 882L450 881z"/>
<path style="fill:#c7cbd1; stroke:none;" d="M629 881L630 882L629 881z"/>
<path style="fill:#aeb3bb; stroke:none;" d="M452 882L453 883L452 882M627 882L628 883L627 882z"/>
<path style="fill:#d9dcdf; stroke:none;" d="M453 883L454 884L453 883z"/>
<path style="fill:#aeb3bb; stroke:none;" d="M454 883L455 884L454 883M625 883L626 884L625 883z"/>
<path style="fill:#d9dcdf; stroke:none;" d="M626 883L627 884L626 883M455 884L456 885L455 884M624 884L625 885L624 884z"/>
<path style="fill:#c7cbd1; stroke:none;" d="M457 885L458 886L457 885M622 885L623 886L622 885M459 886L460 887L459 886M620 886L621 887L620 886M461 887L462 888L461 887M618 887L619 888L618 887M463 888L464 889L463 888M616 888L617 889L616 888M465 889L466 890L465 889M614 889L615 890L614 889M467 890L468 891L467 890M612 890L613 891L612 890M469 891L470 892L469 891M610 891L611 892L610 891M471 892L472 893L471 892M608 892L609 893L608 892M473 893L474 894L473 893M606 893L607 894L606 893M475 894L476 895L475 894M604 894L605 895L604 894z"/>
<path style="fill:#d9dcdf; stroke:none;" d="M477 895L478 896L477 895z"/>
<path style="fill:#aeb3bb; stroke:none;" d="M478 895L479 896L478 895M601 895L602 896L601 895z"/>
<path style="fill:#d9dcdf; stroke:none;" d="M602 895L603 896L602 895M479 896L480 897L479 896z"/>
<path style="fill:#aeb3bb; stroke:none;" d="M480 896L481 897L480 896M599 896L600 897L599 896z"/>
<path style="fill:#d9dcdf; stroke:none;" d="M600 896L601 897L600 896z"/>
<path style="fill:#aeb3bb; stroke:none;" d="M482 897L483 898L482 897M597 897L598 898L597 897M484 898L485 899L484 898M595 898L596 899L595 898z"/>
<path style="fill:#c7cbd1; stroke:none;" d="M486 899L487 900L486 899M593 899L594 900L593 899M488 900L489 901L488 900M591 900L592 901L591 900z"/>
<path style="fill:#d9dcdf; stroke:none;" d="M490 901L491 902L490 901z"/>
<path style="fill:#aeb3bb; stroke:none;" d="M491 901L492 902L491 901M588 901L589 902L588 901z"/>
<path style="fill:#d9dcdf; stroke:none;" d="M589 901L590 902L589 901z"/>
<path style="fill:#c7cbd1; stroke:none;" d="M493 902L494 903L493 902M586 902L587 903L586 902z"/>
<path style="fill:#d9dcdf; stroke:none;" d="M495 903L496 904L495 903z"/>
<path style="fill:#aeb3bb; stroke:none;" d="M496 903L497 904L496 903M583 903L584 904L583 903z"/>
<path style="fill:#d9dcdf; stroke:none;" d="M584 903L585 904L584 903M497 904L498 905L497 904z"/>
<path style="fill:#aeb3bb; stroke:none;" d="M498 904L499 905L498 904M581 904L582 905L581 904z"/>
<path style="fill:#d9dcdf; stroke:none;" d="M582 904L583 905L582 904z"/>
<path style="fill:#c7cbd1; stroke:none;" d="M500 905L501 906L500 905M579 905L580 906L579 905z"/>
<path style="fill:#d9dcdf; stroke:none;" d="M502 906L503 907L502 906z"/>
<path style="fill:#aeb3bb; stroke:none;" d="M503 906L504 907L503 906M576 906L577 907L576 906z"/>
<path style="fill:#d9dcdf; stroke:none;" d="M577 906L578 907L577 906z"/>
<path style="fill:#aeb3bb; stroke:none;" d="M505 907L506 908L505 907M574 907L575 908L574 907z"/>
<path style="fill:#d9dcdf; stroke:none;" d="M507 908L508 909L507 908z"/>
<path style="fill:#aeb3bb; stroke:none;" d="M508 908L509 909L508 908M571 908L572 909L571 908z"/>
<path style="fill:#d9dcdf; stroke:none;" d="M572 908L573 909L572 908z"/>
<path style="fill:#c7cbd1; stroke:none;" d="M510 909L511 910L510 909M569 909L570 910L569 909z"/>
<path style="fill:#d9dcdf; stroke:none;" d="M512 910L513 911L512 910z"/>
<path style="fill:#aeb3bb; stroke:none;" d="M513 910L514 911L513 910M566 910L567 911L566 910z"/>
<path style="fill:#d9dcdf; stroke:none;" d="M567 910L568 911L567 910M515 911L516 912L515 911z"/>
<path style="fill:#aeb3bb; stroke:none;" d="M516 911L517 912L516 911M563 911L564 912L563 911z"/>
<path style="fill:#d9dcdf; stroke:none;" d="M564 911L565 912L564 911z"/>
<path style="fill:#c7cbd1; stroke:none;" d="M518 912L519 913L518 912M561 912L562 913L561 912z"/>
<path style="fill:#d9dcdf; stroke:none;" d="M520 913L521 914L520 913z"/>
<path style="fill:#aeb3bb; stroke:none;" d="M521 913L522 914L521 913M558 913L559 914L558 913z"/>
<path style="fill:#d9dcdf; stroke:none;" d="M559 913L560 914L559 913M523 914L524 915L523 914z"/>
<path style="fill:#aeb3bb; stroke:none;" d="M524 914L525 915L524 914M555 914L556 915L555 914z"/>
<path style="fill:#d9dcdf; stroke:none;" d="M556 914L557 915L556 914z"/>
<path style="fill:#c7cbd1; stroke:none;" d="M526 915L527 916L526 915z"/>
<path style="fill:#aeb3bb; stroke:none;" d="M527 915L528 916L527 915M552 915L553 916L552 915z"/>
<path style="fill:#c7cbd1; stroke:none;" d="M553 915L554 916L553 915M529 916L530 917L529 916z"/>
<path style="fill:#aeb3bb; stroke:none;" d="M530 916L531 917L530 916M549 916L550 917L549 916z"/>
<path style="fill:#c7cbd1; stroke:none;" d="M550 916L551 917L550 916M532 917L533 918L532 917z"/>
<path style="fill:#aeb3bb; stroke:none;" d="M533 917L534 918L533 917M546 917L547 918L546 917z"/>
<path style="fill:#c7cbd1; stroke:none;" d="M547 917L548 918L547 917M535 918L536 919L535 918z"/>
<path style="fill:#aeb3bb; stroke:none;" d="M536 918L537 919L536 918z"/>
<path style="fill:#c7cbd1; stroke:none;" d="M544 918L545 919L544 918M538 919L539 920L538 919z"/>
<path style="fill:#aeb3bb; stroke:none;" d="M539 919L540 920L539 919z"/>
<path style="fill:#c7cbd1; stroke:none;" d="M541 919L542 920L541 919z"/>
</svg>
