<?xml version="1.0" standalone="yes"?>
<svg xmlns="http://www.w3.org/2000/svg" width="1080" height="1080">
<path style="fill:#f1f5f7; stroke:none;" d="M0 0L0 1080L1080 1080L1080 0L0 0z"/>
<path style="fill:#edf1f5; stroke:none;" d="M274 185L275 186L274 185z"/>
<path style="fill:#eaeff3; stroke:none;" d="M275 185L276 186L275 185z"/>
<path style="fill:#e5ebef; stroke:none;" d="M276 185L276 186L279 186L276 185z"/>
<path style="fill:#dde5eb; stroke:none;" d="M279 185.424C257.705 188.229 238.43 194.508 221 207.478C209.963 215.691 200.488 226.174 193.453 238C147.182 315.779 212.027 415.549 302 403.718C318.262 401.58 333.061 395.995 347 387.388C426.705 338.172 405.015 213.935 317 189.294C304.909 185.909 291.549 183.772 279 185.424z"/>
<path style="fill:#e5ebef; stroke:none;" d="M296 185L296 186L299 186L296 185z"/>
<path style="fill:#eaeff3; stroke:none;" d="M299 185L300 186L299 185z"/>
<path style="fill:#edf1f5; stroke:none;" d="M300 185L301 186L300 185M267 186L268 187L267 186z"/>
<path style="fill:#eaeff3; stroke:none;" d="M268 186L269 187L268 186z"/>
<path style="fill:#e5ebef; stroke:none;" d="M269 186L270 187L269 186M305 186L306 187L305 186z"/>
<path style="fill:#eaeff3; stroke:none;" d="M306 186L307 187L306 186z"/>
<path style="fill:#edf1f5; stroke:none;" d="M307 186L308 187L307 186M263 187L264 188L263 187z"/>
<path style="fill:#e5ebef; stroke:none;" d="M264.667 187.333L265.333 187.667L264.667 187.333M309.667 187.333L310.333 187.667L309.667 187.333z"/>
<path style="fill:#edf1f5; stroke:none;" d="M311 187L312 188L311 187M259 188L260 189L259 188z"/>
<path style="fill:#e5ebef; stroke:none;" d="M260 188L261 189L260 188M314 188L315 189L314 188z"/>
<path style="fill:#edf1f5; stroke:none;" d="M315 188L316 189L315 188M255 189L256 190L255 189z"/>
<path style="fill:#eaeff3; stroke:none;" d="M256 189L257 190L256 189z"/>
<path style="fill:#e5ebef; stroke:none;" d="M257 189L258 190L257 189M317 189L318 190L317 189z"/>
<path style="fill:#eaeff3; stroke:none;" d="M318 189L319 190L318 189z"/>
<path style="fill:#edf1f5; stroke:none;" d="M319 189L320 190L319 189z"/>
<path style="fill:#eaeff3; stroke:none;" d="M253 190L254 191L253 190z"/>
<path style="fill:#e5ebef; stroke:none;" d="M321 190L322 191L321 190z"/>
<path style="fill:#edf1f5; stroke:none;" d="M322 190L323 191L322 190z"/>
<path style="fill:#eaeff3; stroke:none;" d="M250 191L251 192L250 191z"/>
<path style="fill:#e5ebef; stroke:none;" d="M324 191L325 192L324 191z"/>
<path style="fill:#edf1f5; stroke:none;" d="M325 191L326 192L325 191z"/>
<path style="fill:#eaeff3; stroke:none;" d="M247 192L248 193L247 192z"/>
<path style="fill:#e5ebef; stroke:none;" d="M248 192L249 193L248 192M327 192L328 193L327 192z"/>
<path style="fill:#edf1f5; stroke:none;" d="M244 193L245 194L244 193z"/>
<path style="fill:#e5ebef; stroke:none;" d="M245 193L246 194L245 193M329 193L330 194L329 193z"/>
<path style="fill:#edf1f5; stroke:none;" d="M330 193L331 194L330 193z"/>
<path style="fill:#eaeff3; stroke:none;" d="M242 194L243 195L242 194M332 194L333 195L332 194M240 195L241 196L240 195M334 195L335 196L334 195M238 196L239 197L238 196M336 196L337 197L336 196M236 197L237 198L236 197M338 197L339 198L338 197z"/>
<path style="fill:#edf1f5; stroke:none;" d="M234 198L235 199L234 198M340 198L341 199L340 198z"/>
<path style="fill:#e5ebef; stroke:none;" d="M233 199L234 200L233 199M341 199L342 200L341 199z"/>
<path style="fill:#edf1f5; stroke:none;" d="M342 199L343 200L342 199z"/>
<path style="fill:#e5ebef; stroke:none;" d="M231 200L232 201L231 200M343 200L344 201L343 200z"/>
<path style="fill:#eaeff3; stroke:none;" d="M229 201L230 202L229 201M345 201L346 202L345 201z"/>
<path style="fill:#edf1f5; stroke:none;" d="M227 202L228 203L227 202z"/>
<path style="fill:#e5ebef; stroke:none;" d="M228 202L229 203L228 202M346 202L347 203L346 202z"/>
<path style="fill:#eaeff3; stroke:none;" d="M226 203L227 204L226 203M348 203L349 204L348 203z"/>
<path style="fill:#e5ebef; stroke:none;" d="M225 204L226 205L225 204M349 204L350 205L349 204z"/>
<path style="fill:#edf1f5; stroke:none;" d="M223 205L224 206L223 205M351 205L352 206L351 205z"/>
<path style="fill:#e5ebef; stroke:none;" d="M222 206L223 207L222 206M352 206L353 207L352 206z"/>
<path style="fill:#edf1f5; stroke:none;" d="M354 207L355 208L354 207M219 208L220 209L219 208z"/>
<path style="fill:#eaeff3; stroke:none;" d="M355 208L356 209L355 208z"/>
<path style="fill:#e5ebef; stroke:none;" d="M218 209L219 210L218 209M356 209L357 210L356 209M217 210L218 211L217 210z"/>
<path style="fill:#edf1f5; stroke:none;" d="M214 212L215 213L214 212M213 213L214 214L213 213M361 213L362 214L361 213M212 214L213 215L212 214z"/>
<path style="fill:#eaeff3; stroke:none;" d="M362 214L363 215L362 214z"/>
<path style="fill:#edf1f5; stroke:none;" d="M211 215L212 216L211 215z"/>
<path style="fill:#eaeff3; stroke:none;" d="M363 215L364 216L363 215M210 216L211 217L210 216M364 216L365 217L364 216M209 217L210 218L209 217M365 217L366 218L365 217z"/>
<path style="fill:#e5ebef; stroke:none;" d="M208 218L209 219L208 218z"/>
<path style="fill:#eaeff3; stroke:none;" d="M366 218L367 219L366 218M207 219L208 220L207 219M367 219L368 220L367 219z"/>
<path style="fill:#edf1f5; stroke:none;" d="M206 220L207 221L206 220z"/>
<path style="fill:#eaeff3; stroke:none;" d="M368 220L369 221L368 220z"/>
<path style="fill:#edf1f5; stroke:none;" d="M205 221L206 222L205 221M369 221L370 222L369 221M204 222L205 223L204 222M370 222L371 223L370 222z"/>
<path style="fill:#e5ebef; stroke:none;" d="M202 225L203 226L202 225M372 225L373 226L372 225M201 226L202 227L201 226M373 226L374 227L373 226z"/>
<path style="fill:#eaeff3; stroke:none;" d="M200 227L201 228L200 227M374 227L375 228L374 227z"/>
<path style="fill:#edf1f5; stroke:none;" d="M199 228L200 229L199 228z"/>
<path style="fill:#e5ebef; stroke:none;" d="M375 229L376 230L375 229M198 230L199 231L198 230z"/>
<path style="fill:#eaeff3; stroke:none;" d="M376 230L377 231L376 230z"/>
<path style="fill:#edf1f5; stroke:none;" d="M197 231L198 232L197 231M377 231L378 232L377 231z"/>
<path style="fill:#e5ebef; stroke:none;" d="M196 233L197 234L196 233M378 233L379 234L378 233z"/>
<path style="fill:#edf1f5; stroke:none;" d="M195 234L196 235L195 234M379 234L380 235L379 234z"/>
<path style="fill:#e5ebef; stroke:none;" d="M194 236L195 237L194 236z"/>
<path style="fill:#eaeff3; stroke:none;" d="M380 236L381 237L380 236z"/>
<path style="fill:#edf1f5; stroke:none;" d="M193 237L194 238L193 237z"/>
<path style="fill:#e5ebef; stroke:none;" d="M381 238L382 239L381 238M192 239L193 240L192 239z"/>
<path style="fill:#eaeff3; stroke:none;" d="M382 239L383 240L382 239z"/>
<path style="fill:#e5ebef; stroke:none;" d="M191 241L192 242L191 241M383 241L384 242L383 241z"/>
<path style="fill:#edf1f5; stroke:none;" d="M190 242L191 243L190 242z"/>
<path style="fill:#e5ebef; stroke:none;" d="M190 243L191 244L190 243M384 243L385 244L384 243z"/>
<path style="fill:#edf1f5; stroke:none;" d="M189 244L190 245L189 244z"/>
<path style="fill:#e5ebef; stroke:none;" d="M189 245L190 246L189 245M385 245L386 246L385 245z"/>
<path style="fill:#edf1f5; stroke:none;" d="M188 246L189 247L188 246M386 246L387 247L386 246z"/>
<path style="fill:#e5ebef; stroke:none;" d="M188 247L189 248L188 247M386 247L387 248L386 247z"/>
<path style="fill:#edf1f5; stroke:none;" d="M187 248L188 249L187 248z"/>
<path style="fill:#e5ebef; stroke:none;" d="M187 249L188 250L187 249M387 249L388 250L387 249M186 251L187 252L186 251z"/>
<path style="fill:#eaeff3; stroke:none;" d="M388 251L389 252L388 251z"/>
<path style="fill:#e5ebef; stroke:none;" d="M388 252L389 253L388 252z"/>
<path style="fill:#eaeff3; stroke:none;" d="M185 253L186 254L185 253z"/>
<path style="fill:#edf1f5; stroke:none;" d="M389 253L390 254L389 253z"/>
<path style="fill:#e5ebef; stroke:none;" d="M389 254L390 255L389 254z"/>
<path style="fill:#edf1f5; stroke:none;" d="M184 255L185 256L184 255z"/>
<path style="fill:#e5ebef; stroke:none;" d="M184 256L185 257L184 256z"/>
<path style="fill:#eaeff3; stroke:none;" d="M390 256L391 257L390 256M183 258L184 259L183 258z"/>
<path style="fill:#edf1f5; stroke:none;" d="M391 258L392 259L391 258z"/>
<path style="fill:#e5ebef; stroke:none;" d="M183 259L184 260L183 259M391 259L392 260L391 259z"/>
<path style="fill:#eaeff3; stroke:none;" d="M182 261L183 262L182 261z"/>
<path style="fill:#edf1f5; stroke:none;" d="M392 261L393 262L392 261z"/>
<path style="fill:#e5ebef; stroke:none;" d="M182 262L183 263L182 262M392.333 262.667L392.667 263.333L392.333 262.667z"/>
<path style="fill:#edf1f5; stroke:none;" d="M181 264L182 265L181 264z"/>
<path style="fill:#e5ebef; stroke:none;" d="M181 265L182 266L181 265z"/>
<path style="fill:#eaeff3; stroke:none;" d="M393 265L394 266L393 265z"/>
<path style="fill:#e5ebef; stroke:none;" d="M393 266L394 267L393 266z"/>
<path style="fill:#eaeff3; stroke:none;" d="M180 268L181 269L180 268z"/>
<path style="fill:#edf1f5; stroke:none;" d="M394 268L395 269L394 268z"/>
<path style="fill:#e5ebef; stroke:none;" d="M180 269L181 270L180 269z"/>
<path style="fill:#eaeff3; stroke:none;" d="M394 269L395 270L394 269z"/>
<path style="fill:#e5ebef; stroke:none;" d="M394 270L395 271L394 270z"/>
<path style="fill:#edf1f5; stroke:none;" d="M179 272L180 273L179 272z"/>
<path style="fill:#e5ebef; stroke:none;" d="M179.333 273.667L179.667 274.333L179.333 273.667z"/>
<path style="fill:#edf1f5; stroke:none;" d="M395 273L396 274L395 273z"/>
<path style="fill:#e5ebef; stroke:none;" d="M395.333 274.667L395.667 275.333L395.333 274.667z"/>
<path style="fill:#edf1f5; stroke:none;" d="M178 277L179 278L178 277z"/>
<path style="fill:#eaeff3; stroke:none;" d="M178 278L179 279L178 278z"/>
<path style="fill:#edf1f5; stroke:none;" d="M396 278L397 279L396 278z"/>
<path style="fill:#e5ebef; stroke:none;" d="M178 279L178 282L179 282L178 279z"/>
<path style="fill:#eaeff3; stroke:none;" d="M396.333 279.667L396.667 280.333L396.333 279.667z"/>
<path style="fill:#e5ebef; stroke:none;" d="M396.333 281.667L396.667 282.333L396.333 281.667z"/>
<path style="fill:#edf1f5; stroke:none;" d="M177 285L177 289L178 289L177 285z"/>
<path style="fill:#eaeff3; stroke:none;" d="M177 289L177 298L178 298L177 289z"/>
<path style="fill:#edf1f5; stroke:none;" d="M397 292L397 298L398 298L397 292M177 298L177 304L178 304L177 298z"/>
<path style="fill:#e5ebef; stroke:none;" d="M396.333 307.667L396.667 308.333L396.333 307.667M178.333 308.667L178.667 309.333L178.333 308.667z"/>
<path style="fill:#eaeff3; stroke:none;" d="M396.333 309.667L396.667 310.333L396.333 309.667M178.333 310.667L178.667 311.333L178.333 310.667z"/>
<path style="fill:#edf1f5; stroke:none;" d="M396 311L397 312L396 311M178 312L179 313L178 312z"/>
<path style="fill:#e5ebef; stroke:none;" d="M395.333 314.667L395.667 315.333L395.333 314.667M179 315L180 316L179 315z"/>
<path style="fill:#eaeff3; stroke:none;" d="M179 316L180 317L179 316z"/>
<path style="fill:#edf1f5; stroke:none;" d="M395 316L396 317L395 316M179 317L180 318L179 317z"/>
<path style="fill:#e5ebef; stroke:none;" d="M180.333 319.667L180.667 320.333L180.333 319.667M394 319L395 320L394 319z"/>
<path style="fill:#eaeff3; stroke:none;" d="M394 320L395 321L394 320M180 321L181 322L180 321z"/>
<path style="fill:#edf1f5; stroke:none;" d="M394 321L395 322L394 321z"/>
<path style="fill:#e5ebef; stroke:none;" d="M181.333 323.667L181.667 324.333L181.333 323.667M393 323L394 324L393 323z"/>
<path style="fill:#eaeff3; stroke:none;" d="M393 324L394 325L393 324z"/>
<path style="fill:#edf1f5; stroke:none;" d="M181 325L182 326L181 325z"/>
<path style="fill:#e5ebef; stroke:none;" d="M392.333 326.667L392.667 327.333L392.333 326.667M182 327L183 328L182 327z"/>
<path style="fill:#eaeff3; stroke:none;" d="M182 328L183 329L182 328z"/>
<path style="fill:#edf1f5; stroke:none;" d="M392 328L393 329L392 328z"/>
<path style="fill:#e5ebef; stroke:none;" d="M183 330L184 331L183 330M391 330L392 331L391 330z"/>
<path style="fill:#eaeff3; stroke:none;" d="M183 331L184 332L183 331z"/>
<path style="fill:#edf1f5; stroke:none;" d="M391 331L392 332L391 331z"/>
<path style="fill:#e5ebef; stroke:none;" d="M184 333L185 334L184 333z"/>
<path style="fill:#eaeff3; stroke:none;" d="M390 333L391 334L390 333z"/>
<path style="fill:#edf1f5; stroke:none;" d="M184 334L185 335L184 334z"/>
<path style="fill:#e5ebef; stroke:none;" d="M389 335L390 336L389 335z"/>
<path style="fill:#eaeff3; stroke:none;" d="M185 336L186 337L185 336M389 336L390 337L389 336z"/>
<path style="fill:#e5ebef; stroke:none;" d="M186 338L187 339L186 338M388 338L389 339L388 338z"/>
<path style="fill:#edf1f5; stroke:none;" d="M186 339L187 340L186 339z"/>
<path style="fill:#e5ebef; stroke:none;" d="M187 340L188 341L187 340M387 340L388 341L387 340z"/>
<path style="fill:#edf1f5; stroke:none;" d="M187 341L188 342L187 341M387 341L388 342L387 341z"/>
<path style="fill:#e5ebef; stroke:none;" d="M188 342L189 343L188 342M386 342L387 343L386 342z"/>
<path style="fill:#edf1f5; stroke:none;" d="M188 343L189 344L188 343M386 343L387 344L386 343z"/>
<path style="fill:#e5ebef; stroke:none;" d="M385 344L386 345L385 344z"/>
<path style="fill:#eaeff3; stroke:none;" d="M189 345L190 346L189 345z"/>
<path style="fill:#edf1f5; stroke:none;" d="M385 345L386 346L385 345z"/>
<path style="fill:#e5ebef; stroke:none;" d="M384 346L385 347L384 346z"/>
<path style="fill:#edf1f5; stroke:none;" d="M190 347L191 348L190 347z"/>
<path style="fill:#e5ebef; stroke:none;" d="M191 348L192 349L191 348M383 348L384 349L383 348M192 350L193 351L192 350z"/>
<path style="fill:#eaeff3; stroke:none;" d="M382 350L383 351L382 350z"/>
<path style="fill:#e5ebef; stroke:none;" d="M381 351L382 352L381 351z"/>
<path style="fill:#eaeff3; stroke:none;" d="M193 352L194 353L193 352z"/>
<path style="fill:#edf1f5; stroke:none;" d="M381 352L382 353L381 352z"/>
<path style="fill:#e5ebef; stroke:none;" d="M380 353L381 354L380 353z"/>
<path style="fill:#eaeff3; stroke:none;" d="M195 355L196 356L195 355z"/>
<path style="fill:#edf1f5; stroke:none;" d="M379 355L380 356L379 355z"/>
<path style="fill:#e5ebef; stroke:none;" d="M196 356L197 357L196 356M378 356L379 357L378 356z"/>
<path style="fill:#eaeff3; stroke:none;" d="M197 358L198 359L197 358z"/>
<path style="fill:#edf1f5; stroke:none;" d="M377 358L378 359L377 358z"/>
<path style="fill:#e5ebef; stroke:none;" d="M198 359L199 360L198 359M376 359L377 360L376 359z"/>
<path style="fill:#edf1f5; stroke:none;" d="M199 361L200 362L199 361z"/>
<path style="fill:#eaeff3; stroke:none;" d="M200 362L201 363L200 362z"/>
<path style="fill:#edf1f5; stroke:none;" d="M374 362L375 363L374 362z"/>
<path style="fill:#e5ebef; stroke:none;" d="M201 363L202 364L201 363z"/>
<path style="fill:#eaeff3; stroke:none;" d="M373 363L374 364L373 363z"/>
<path style="fill:#e5ebef; stroke:none;" d="M202 364L203 365L202 364M372 364L373 365L372 364z"/>
<path style="fill:#edf1f5; stroke:none;" d="M203 366L204 367L203 366z"/>
<path style="fill:#eaeff3; stroke:none;" d="M204 367L205 368L204 367z"/>
<path style="fill:#edf1f5; stroke:none;" d="M370 367L371 368L370 367z"/>
<path style="fill:#eaeff3; stroke:none;" d="M205 368L206 369L205 368z"/>
<path style="fill:#edf1f5; stroke:none;" d="M369 368L370 369L369 368z"/>
<path style="fill:#eaeff3; stroke:none;" d="M206 369L207 370L206 369z"/>
<path style="fill:#edf1f5; stroke:none;" d="M368 369L369 370L368 369z"/>
<path style="fill:#eaeff3; stroke:none;" d="M207 370L208 371L207 370M367 370L368 371L367 370z"/>
<path style="fill:#e5ebef; stroke:none;" d="M208 371L209 372L208 371z"/>
<path style="fill:#eaeff3; stroke:none;" d="M366 371L367 372L366 371z"/>
<path style="fill:#e5ebef; stroke:none;" d="M209 372L210 373L209 372z"/>
<path style="fill:#eaeff3; stroke:none;" d="M365 372L366 373L365 372z"/>
<path style="fill:#e5ebef; stroke:none;" d="M210 373L211 374L210 373M364 373L365 374L364 373M211 374L212 375L211 374M363 374L364 375L363 374z"/>
<path style="fill:#eaeff3; stroke:none;" d="M212 375L213 376L212 375M362 375L363 376L362 375M213 376L214 377L213 376z"/>
<path style="fill:#edf1f5; stroke:none;" d="M361 376L362 377L361 376M214 377L215 378L214 377M360 377L361 378L360 377z"/>
<path style="fill:#e5ebef; stroke:none;" d="M357 379L358 380L357 379M218 380L219 381L218 380z"/>
<path style="fill:#eaeff3; stroke:none;" d="M356 380L357 381L356 380M219 381L220 382L219 381z"/>
<path style="fill:#edf1f5; stroke:none;" d="M355 381L356 382L355 381M220 382L221 383L220 382z"/>
<path style="fill:#e5ebef; stroke:none;" d="M222 383L223 384L222 383M352 383L353 384L352 383M223 384L224 385L223 384z"/>
<path style="fill:#eaeff3; stroke:none;" d="M351 384L352 385L351 384z"/>
<path style="fill:#edf1f5; stroke:none;" d="M224 385L225 386L224 385z"/>
<path style="fill:#e5ebef; stroke:none;" d="M226 386L227 387L226 386z"/>
<path style="fill:#eaeff3; stroke:none;" d="M348 386L349 387L348 386z"/>
<path style="fill:#edf1f5; stroke:none;" d="M227 387L228 388L227 387z"/>
<path style="fill:#e5ebef; stroke:none;" d="M346 387L347 388L346 387M229 388L230 389L229 388z"/>
<path style="fill:#edf1f5; stroke:none;" d="M345 388L346 389L345 388M230 389L231 390L230 389z"/>
<path style="fill:#e5ebef; stroke:none;" d="M343 389L344 390L343 389z"/>
<path style="fill:#edf1f5; stroke:none;" d="M232 390L233 391L232 390z"/>
<path style="fill:#e5ebef; stroke:none;" d="M341 390L342 391L341 390z"/>
<path style="fill:#eaeff3; stroke:none;" d="M234 391L235 392L234 391z"/>
<path style="fill:#edf1f5; stroke:none;" d="M340 391L341 392L340 391z"/>
<path style="fill:#eaeff3; stroke:none;" d="M236 392L237 393L236 392M338 392L339 393L338 392M238 393L239 394L238 393M336 393L337 394L336 393M240 394L241 395L240 394z"/>
<path style="fill:#edf1f5; stroke:none;" d="M334 394L335 395L334 394M242 395L243 396L242 395z"/>
<path style="fill:#e5ebef; stroke:none;" d="M243 395L244 396L243 395M331 395L332 396L331 395z"/>
<path style="fill:#edf1f5; stroke:none;" d="M332 395L333 396L332 395M244 396L245 397L244 396z"/>
<path style="fill:#e5ebef; stroke:none;" d="M245 396L246 397L245 396M329 396L330 397L329 396z"/>
<path style="fill:#edf1f5; stroke:none;" d="M330 396L331 397L330 396z"/>
<path style="fill:#eaeff3; stroke:none;" d="M247 397L248 398L247 397z"/>
<path style="fill:#e5ebef; stroke:none;" d="M327 397L328 398L327 397M250 398L251 399L250 398M324 398L325 399L324 398z"/>
<path style="fill:#edf1f5; stroke:none;" d="M325 398L326 399L325 398M252 399L253 400L252 399z"/>
<path style="fill:#e5ebef; stroke:none;" d="M253 399L254 400L253 399M321 399L322 400L321 399z"/>
<path style="fill:#edf1f5; stroke:none;" d="M322 399L323 400L322 399z"/>
<path style="fill:#eaeff3; stroke:none;" d="M255 400L256 401L255 400z"/>
<path style="fill:#e5ebef; stroke:none;" d="M256 400L257 401L256 400M318 400L319 401L318 400z"/>
<path style="fill:#eaeff3; stroke:none;" d="M319 400L320 401L319 400M258 401L259 402L258 401z"/>
<path style="fill:#e5ebef; stroke:none;" d="M259 401L260 402L259 401M314 401L315 402L314 401z"/>
<path style="fill:#eaeff3; stroke:none;" d="M315 401L316 402L315 401z"/>
<path style="fill:#edf1f5; stroke:none;" d="M261 402L262 403L261 402z"/>
<path style="fill:#eaeff3; stroke:none;" d="M262 402L263 403L262 402z"/>
<path style="fill:#e5ebef; stroke:none;" d="M263 402L264 403L263 402M310 402L311 403L310 402z"/>
<path style="fill:#eaeff3; stroke:none;" d="M311 402L312 403L311 402z"/>
<path style="fill:#edf1f5; stroke:none;" d="M266 403L267 404L266 403z"/>
<path style="fill:#eaeff3; stroke:none;" d="M267 403L268 404L267 403z"/>
<path style="fill:#e5ebef; stroke:none;" d="M268.667 403.333L269.333 403.667L268.667 403.333M303.667 403.333L304.333 403.667L303.667 403.333z"/>
<path style="fill:#eaeff3; stroke:none;" d="M305 403L306 404L305 403z"/>
<path style="fill:#edf1f5; stroke:none;" d="M306 403L307 404L306 403M273 404L274 405L273 404z"/>
<path style="fill:#eaeff3; stroke:none;" d="M274 404L275 405L274 404z"/>
<path style="fill:#e5ebef; stroke:none;" d="M275 404L275 405L278 405L275 404M295 404L295 405L298 405L295 404z"/>
<path style="fill:#eaeff3; stroke:none;" d="M298 404L299 405L298 404z"/>
<path style="fill:#edf1f5; stroke:none;" d="M299.667 404.333L300.333 404.667L299.667 404.333M206 476L207 477L206 476z"/>
<path style="fill:#e5ebef; stroke:none;" d="M207.667 476.333L208.333 476.667L207.667 476.333z"/>
<path style="fill:#dde5eb; stroke:none;" d="M209 476.439C173.346 482.054 165.929 535.021 201 547.907C215.93 553.392 236.263 550 252 550L359 550L723 550L839 550C855.569 550 875.476 553.505 888.996 541.79C909.464 524.057 904.736 488.723 879 478.479C867.283 473.815 852.35 476 840 476L764 476L391 476L270 476C250.287 476 228.47 473.373 209 476.439z"/>
<path style="fill:#e5ebef; stroke:none;" d="M870.667 476.333L871.333 476.667L870.667 476.333z"/>
<path style="fill:#eaeff3; stroke:none;" d="M872 476L873 477L872 476z"/>
<path style="fill:#edf1f5; stroke:none;" d="M873 476L874 477L873 476M202 477L203 478L202 477z"/>
<path style="fill:#e5ebef; stroke:none;" d="M203 477L204 478L203 477M876 477L877 478L876 477M200 478L201 479L200 478z"/>
<path style="fill:#eaeff3; stroke:none;" d="M879 478L880 479L879 478M198 479L199 480L198 479z"/>
<path style="fill:#edf1f5; stroke:none;" d="M881 479L882 480L881 479z"/>
<path style="fill:#eaeff3; stroke:none;" d="M196 480L197 481L196 480z"/>
<path style="fill:#edf1f5; stroke:none;" d="M883 480L884 481L883 480M194 481L195 482L194 481z"/>
<path style="fill:#e5ebef; stroke:none;" d="M884 481L885 482L884 481M193 482L194 483L193 482z"/>
<path style="fill:#eaeff3; stroke:none;" d="M886 482L887 483L886 482z"/>
<path style="fill:#e5ebef; stroke:none;" d="M887 483L888 484L887 483z"/>
<path style="fill:#eaeff3; stroke:none;" d="M190 484L191 485L190 484z"/>
<path style="fill:#edf1f5; stroke:none;" d="M889 484L890 485L889 484M189 485L190 486L189 485M890 485L891 486L890 485z"/>
<path style="fill:#eaeff3; stroke:none;" d="M188 486L189 487L188 486z"/>
<path style="fill:#edf1f5; stroke:none;" d="M891 486L892 487L891 486M187 487L188 488L187 487M892 487L893 488L892 487M186 488L187 489L186 488z"/>
<path style="fill:#e5ebef; stroke:none;" d="M894 490L895 491L894 490M184 491L185 492L184 491z"/>
<path style="fill:#eaeff3; stroke:none;" d="M895 491L896 492L895 491z"/>
<path style="fill:#edf1f5; stroke:none;" d="M183 492L184 493L183 492z"/>
<path style="fill:#e5ebef; stroke:none;" d="M896 493L897 494L896 493M182 494L183 495L182 494z"/>
<path style="fill:#eaeff3; stroke:none;" d="M897 494L898 495L897 494z"/>
<path style="fill:#e5ebef; stroke:none;" d="M181 496L182 497L181 496z"/>
<path style="fill:#eaeff3; stroke:none;" d="M898 496L899 497L898 496z"/>
<path style="fill:#e5ebef; stroke:none;" d="M180 498L181 499L180 498z"/>
<path style="fill:#edf1f5; stroke:none;" d="M899 498L900 499L899 498z"/>
<path style="fill:#e5ebef; stroke:none;" d="M899 499L900 500L899 499z"/>
<path style="fill:#edf1f5; stroke:none;" d="M179 500L180 501L179 500z"/>
<path style="fill:#e5ebef; stroke:none;" d="M179 501L180 502L179 501z"/>
<path style="fill:#eaeff3; stroke:none;" d="M900 501L901 502L900 501z"/>
<path style="fill:#e5ebef; stroke:none;" d="M900 502L901 503L900 502z"/>
<path style="fill:#edf1f5; stroke:none;" d="M178 503L179 504L178 503z"/>
<path style="fill:#e5ebef; stroke:none;" d="M178.333 504.667L178.667 505.333L178.333 504.667z"/>
<path style="fill:#edf1f5; stroke:none;" d="M901 504L902 505L901 504z"/>
<path style="fill:#e5ebef; stroke:none;" d="M901.333 505.667L901.667 506.333L901.333 505.667z"/>
<path style="fill:#edf1f5; stroke:none;" d="M177 509L177 512L178 512L177 509z"/>
<path style="fill:#eaeff3; stroke:none;" d="M177.333 512.667L177.667 513.333L177.333 512.667z"/>
<path style="fill:#edf1f5; stroke:none;" d="M902.333 512.667L902.667 513.333L902.333 512.667M177 514L177 518L178 518L177 514M902 515L903 516L902 515z"/>
<path style="fill:#e5ebef; stroke:none;" d="M901.333 519.667L901.667 520.333L901.333 519.667M178 521L179 522L178 521z"/>
<path style="fill:#eaeff3; stroke:none;" d="M901 521L902 522L901 521M178 522L179 523L178 522z"/>
<path style="fill:#edf1f5; stroke:none;" d="M178 523L179 524L178 523z"/>
<path style="fill:#e5ebef; stroke:none;" d="M900 524L901 525L900 524M179 525L180 526L179 525z"/>
<path style="fill:#edf1f5; stroke:none;" d="M900 525L901 526L900 525z"/>
<path style="fill:#e5ebef; stroke:none;" d="M180 527L181 528L180 527M899 527L900 528L899 527z"/>
<path style="fill:#edf1f5; stroke:none;" d="M180 528L181 529L180 528z"/>
<path style="fill:#e5ebef; stroke:none;" d="M898 529L899 530L898 529z"/>
<path style="fill:#eaeff3; stroke:none;" d="M181 530L182 531L181 530z"/>
<path style="fill:#edf1f5; stroke:none;" d="M898 530L899 531L898 530z"/>
<path style="fill:#e5ebef; stroke:none;" d="M897 531L898 532L897 531z"/>
<path style="fill:#edf1f5; stroke:none;" d="M182 532L183 533L182 532z"/>
<path style="fill:#e5ebef; stroke:none;" d="M183 533L184 534L183 533z"/>
<path style="fill:#eaeff3; stroke:none;" d="M896 533L897 534L896 533z"/>
<path style="fill:#e5ebef; stroke:none;" d="M895 534L896 535L895 534z"/>
<path style="fill:#edf1f5; stroke:none;" d="M184 535L185 536L184 535z"/>
<path style="fill:#e5ebef; stroke:none;" d="M185 536L186 537L185 536z"/>
<path style="fill:#edf1f5; stroke:none;" d="M894 536L895 537L894 536z"/>
<path style="fill:#e5ebef; stroke:none;" d="M186 537L187 538L186 537z"/>
<path style="fill:#eaeff3; stroke:none;" d="M893 537L894 538L893 537z"/>
<path style="fill:#e5ebef; stroke:none;" d="M187 538L188 539L187 538M892 538L893 539L892 538M891 539L892 540L891 539M189 540L190 541L189 540M890 540L891 541L890 540M190 541L191 542L190 541z"/>
<path style="fill:#eaeff3; stroke:none;" d="M889 541L890 542L889 541z"/>
<path style="fill:#e5ebef; stroke:none;" d="M191 542L192 543L191 542z"/>
<path style="fill:#eaeff3; stroke:none;" d="M888 542L889 543L888 542M192 543L193 544L192 543z"/>
<path style="fill:#edf1f5; stroke:none;" d="M887 543L888 544L887 543z"/>
<path style="fill:#e5ebef; stroke:none;" d="M194 544L195 545L194 544M885 544L886 545L885 544z"/>
<path style="fill:#edf1f5; stroke:none;" d="M195 545L196 546L195 545z"/>
<path style="fill:#e5ebef; stroke:none;" d="M883 545L884 546L883 545z"/>
<path style="fill:#eaeff3; stroke:none;" d="M197 546L198 547L197 546z"/>
<path style="fill:#edf1f5; stroke:none;" d="M882 546L883 547L882 546z"/>
<path style="fill:#eaeff3; stroke:none;" d="M199 547L200 548L199 547M880 547L881 548L880 547z"/>
<path style="fill:#edf1f5; stroke:none;" d="M201 548L202 549L201 548z"/>
<path style="fill:#e5ebef; stroke:none;" d="M202 548L203 549L202 548M877 548L878 549L877 548z"/>
<path style="fill:#edf1f5; stroke:none;" d="M878 548L879 549L878 548M204 549L205 550L204 549z"/>
<path style="fill:#eaeff3; stroke:none;" d="M205 549L206 550L205 549z"/>
<path style="fill:#e5ebef; stroke:none;" d="M206 549L207 550L206 549M873 549L874 550L873 549z"/>
<path style="fill:#eaeff3; stroke:none;" d="M874 549L875 550L874 549z"/>
<path style="fill:#edf1f5; stroke:none;" d="M209.667 550.333L210.333 550.667L209.667 550.333z"/>
<path style="fill:#eaeff3; stroke:none;" d="M211.667 550.333L212.333 550.667L211.667 550.333z"/>
<path style="fill:#e5ebef; stroke:none;" d="M213 550L213 551L867 551L849 550L811 550L677 550L213 550z"/>
<path style="fill:#eaeff3; stroke:none;" d="M867 550L867 551L870 551L867 550z"/>
<path style="fill:#edf1f5; stroke:none;" d="M870 550L871 551L870 550M205 585L206 586L205 585z"/>
<path style="fill:#eaeff3; stroke:none;" d="M206 585L207 586L206 585z"/>
<path style="fill:#e5ebef; stroke:none;" d="M207.667 585.333L208.333 585.667L207.667 585.333z"/>
<path style="fill:#dde5eb; stroke:none;" d="M209 585.428C174.762 590.344 165.607 638.882 199 653.045C208.438 657.048 219.006 656 229 656L278 656L454 656L508 656C518.255 656 529.595 657.041 539 652.088C571.735 634.847 558.661 588.524 524 585.17C504.362 583.269 483.734 585 464 585L346 585L256 585C240.687 585 224.162 583.251 209 585.428z"/>
<path style="fill:#e5ebef; stroke:none;" d="M526 585L526 586L529 586L526 585z"/>
<path style="fill:#edf1f5; stroke:none;" d="M529.667 585.333L530.333 585.667L529.667 585.333M201 586L202 587L201 586z"/>
<path style="fill:#e5ebef; stroke:none;" d="M202 586L203 587L202 586M532 586L533 587L532 586z"/>
<path style="fill:#eaeff3; stroke:none;" d="M533 586L534 587L533 586M199 587L200 588L199 587z"/>
<path style="fill:#e5ebef; stroke:none;" d="M535 587L536 588L535 587z"/>
<path style="fill:#eaeff3; stroke:none;" d="M536 587L537 588L536 587M197 588L198 589L197 588M538 588L539 589L538 588z"/>
<path style="fill:#e5ebef; stroke:none;" d="M195 589L196 590L195 589z"/>
<path style="fill:#eaeff3; stroke:none;" d="M540 589L541 590L540 589z"/>
<path style="fill:#edf1f5; stroke:none;" d="M193 590L194 591L193 590z"/>
<path style="fill:#e5ebef; stroke:none;" d="M541 590L542 591L541 590z"/>
<path style="fill:#edf1f5; stroke:none;" d="M542 590L543 591L542 590z"/>
<path style="fill:#e5ebef; stroke:none;" d="M192 591L193 592L192 591z"/>
<path style="fill:#eaeff3; stroke:none;" d="M543 591L544 592L543 591z"/>
<path style="fill:#e5ebef; stroke:none;" d="M544 592L545 593L544 592z"/>
<path style="fill:#edf1f5; stroke:none;" d="M189 593L190 594L189 593M188 594L189 595L188 594M187 595L188 596L187 595M185 597L186 598L185 597z"/>
<path style="fill:#e5ebef; stroke:none;" d="M550 598L551 599L550 598M184 599L185 600L184 599z"/>
<path style="fill:#eaeff3; stroke:none;" d="M551 599L552 600L551 599z"/>
<path style="fill:#edf1f5; stroke:none;" d="M183 600L184 601L183 600z"/>
<path style="fill:#e5ebef; stroke:none;" d="M182 602L183 603L182 602z"/>
<path style="fill:#eaeff3; stroke:none;" d="M553 602L554 603L553 602M181 603L182 604L181 603z"/>
<path style="fill:#edf1f5; stroke:none;" d="M554 603L555 604L554 603z"/>
<path style="fill:#e5ebef; stroke:none;" d="M181 604L182 605L181 604M554 604L555 605L554 604z"/>
<path style="fill:#edf1f5; stroke:none;" d="M180 605L181 606L180 605z"/>
<path style="fill:#e5ebef; stroke:none;" d="M180 606L181 607L180 606M555 606L556 607L555 606z"/>
<path style="fill:#eaeff3; stroke:none;" d="M179 608L180 609L179 608z"/>
<path style="fill:#edf1f5; stroke:none;" d="M556 608L557 609L556 608z"/>
<path style="fill:#e5ebef; stroke:none;" d="M556 609L557 610L556 609z"/>
<path style="fill:#eaeff3; stroke:none;" d="M178 611L179 612L178 611z"/>
<path style="fill:#edf1f5; stroke:none;" d="M557 611L558 612L557 611z"/>
<path style="fill:#e5ebef; stroke:none;" d="M178 612L179 613L178 612M557.333 612.667L557.667 613.333L557.333 612.667z"/>
<path style="fill:#edf1f5; stroke:none;" d="M177 615L177 618L178 618L177 615M558 617L559 618L558 617z"/>
<path style="fill:#eaeff3; stroke:none;" d="M177 618L177 623L178 623L177 618z"/>
<path style="fill:#edf1f5; stroke:none;" d="M558 619L558 622L559 622L558 619M177.333 623.667L177.667 624.333L177.333 623.667z"/>
<path style="fill:#e5ebef; stroke:none;" d="M557 627L558 628L557 627M178 628L179 629L178 628z"/>
<path style="fill:#eaeff3; stroke:none;" d="M557 628L558 629L557 628M178 629L179 630L178 629z"/>
<path style="fill:#edf1f5; stroke:none;" d="M557 629L558 630L557 629z"/>
<path style="fill:#e5ebef; stroke:none;" d="M556 631L557 632L556 631z"/>
<path style="fill:#eaeff3; stroke:none;" d="M179 632L180 633L179 632z"/>
<path style="fill:#edf1f5; stroke:none;" d="M556 632L557 633L556 632z"/>
<path style="fill:#e5ebef; stroke:none;" d="M180 634L181 635L180 634M555 634L556 635L555 634z"/>
<path style="fill:#edf1f5; stroke:none;" d="M180 635L181 636L180 635z"/>
<path style="fill:#e5ebef; stroke:none;" d="M181 636L182 637L181 636M554 636L555 637L554 636z"/>
<path style="fill:#edf1f5; stroke:none;" d="M181 637L182 638L181 637z"/>
<path style="fill:#e5ebef; stroke:none;" d="M182 638L183 639L182 638M553 638L554 639L553 638z"/>
<path style="fill:#eaeff3; stroke:none;" d="M183 640L184 641L183 640z"/>
<path style="fill:#edf1f5; stroke:none;" d="M552 640L553 641L552 640z"/>
<path style="fill:#e5ebef; stroke:none;" d="M184 641L185 642L184 641M551 641L552 642L551 641M550 642L551 643L550 642z"/>
<path style="fill:#edf1f5; stroke:none;" d="M185 643L186 644L185 643M186 644L187 645L186 644M187 645L188 646L187 645M548 645L549 646L548 645M188 646L189 647L188 646M547 646L548 647L547 646M189 647L190 648L189 647z"/>
<path style="fill:#e5ebef; stroke:none;" d="M191 648L192 649L191 648M544 648L545 649L544 648z"/>
<path style="fill:#eaeff3; stroke:none;" d="M192 649L193 650L192 649z"/>
<path style="fill:#edf1f5; stroke:none;" d="M543 649L544 650L543 649M193 650L194 651L193 650z"/>
<path style="fill:#e5ebef; stroke:none;" d="M194 650L195 651L194 650M541 650L542 651L541 650z"/>
<path style="fill:#eaeff3; stroke:none;" d="M195 651L196 652L195 651z"/>
<path style="fill:#edf1f5; stroke:none;" d="M540 651L541 652L540 651z"/>
<path style="fill:#e5ebef; stroke:none;" d="M197 652L198 653L197 652z"/>
<path style="fill:#eaeff3; stroke:none;" d="M538 652L539 653L538 652M199 653L200 654L199 653M536 653L537 654L536 653z"/>
<path style="fill:#edf1f5; stroke:none;" d="M201 654L202 655L201 654z"/>
<path style="fill:#eaeff3; stroke:none;" d="M202 654L203 655L202 654z"/>
<path style="fill:#e5ebef; stroke:none;" d="M203 654L204 655L203 654M532 654L533 655L532 654z"/>
<path style="fill:#eaeff3; stroke:none;" d="M533 654L534 655L533 654z"/>
<path style="fill:#edf1f5; stroke:none;" d="M534 654L535 655L534 654M205 655L206 656L205 655z"/>
<path style="fill:#eaeff3; stroke:none;" d="M206 655L207 656L206 655z"/>
<path style="fill:#e5ebef; stroke:none;" d="M207 655L208 656L207 655M527.667 655.333L528.333 655.667L527.667 655.333z"/>
<path style="fill:#edf1f5; stroke:none;" d="M529 655L530 656L529 655M204 694L205 695L204 694z"/>
<path style="fill:#eaeff3; stroke:none;" d="M205 694L206 695L205 694z"/>
<path style="fill:#e5ebef; stroke:none;" d="M206 694L207 695L206 694z"/>
<path style="fill:#dde5eb; stroke:none;" d="M207 694.464C174.218 700.365 166.396 747.249 199 760.073C211.864 765.133 227.46 763 241 763L321 763L598 763L684 763C698.188 763 714.019 764.732 725.999 755.471C746.093 739.938 742.009 707.723 719 697.313C699.017 688.273 667.639 694 646 694L350 694L255 694C239.593 694 222.168 691.734 207 694.464z"/>
<path style="fill:#e5ebef; stroke:none;" d="M710 694L711 695L710 694z"/>
<path style="fill:#eaeff3; stroke:none;" d="M711 694L712 695L711 694z"/>
<path style="fill:#edf1f5; stroke:none;" d="M712 694L713 695L712 694M200 695L201 696L200 695z"/>
<path style="fill:#eaeff3; stroke:none;" d="M201 695L202 696L201 695z"/>
<path style="fill:#e5ebef; stroke:none;" d="M202 695L203 696L202 695M714 695L715 696L714 695z"/>
<path style="fill:#eaeff3; stroke:none;" d="M715 695L716 696L715 695z"/>
<path style="fill:#edf1f5; stroke:none;" d="M198 696L199 697L198 696z"/>
<path style="fill:#e5ebef; stroke:none;" d="M199 696L200 697L199 696M717 696L718 697L717 696z"/>
<path style="fill:#edf1f5; stroke:none;" d="M718 696L719 697L718 696M196 697L197 698L196 697z"/>
<path style="fill:#e5ebef; stroke:none;" d="M719 697L720 698L719 697z"/>
<path style="fill:#edf1f5; stroke:none;" d="M194 698L195 699L194 698z"/>
<path style="fill:#e5ebef; stroke:none;" d="M195 698L196 699L195 698M721 698L722 699L721 698M193 699L194 700L193 699M723 699L724 700L723 699z"/>
<path style="fill:#edf1f5; stroke:none;" d="M191 700L192 701L191 700M725 700L726 701L725 700z"/>
<path style="fill:#e5ebef; stroke:none;" d="M190 701L191 702L190 701z"/>
<path style="fill:#edf1f5; stroke:none;" d="M726 701L727 702L726 701z"/>
<path style="fill:#e5ebef; stroke:none;" d="M189 702L190 703L189 702z"/>
<path style="fill:#eaeff3; stroke:none;" d="M727 702L728 703L727 702z"/>
<path style="fill:#e5ebef; stroke:none;" d="M728 703L729 704L728 703M729 704L730 705L729 704M730 705L731 706L730 705M185 706L186 707L185 706M731 706L732 707L731 706M184 707L185 708L184 707z"/>
<path style="fill:#edf1f5; stroke:none;" d="M732 707L733 708L732 707M183 708L184 709L183 708z"/>
<path style="fill:#e5ebef; stroke:none;" d="M733 709L734 710L733 709M182 710L183 711L182 710z"/>
<path style="fill:#edf1f5; stroke:none;" d="M734 710L735 711L734 710z"/>
<path style="fill:#e5ebef; stroke:none;" d="M181 712L182 713L181 712z"/>
<path style="fill:#eaeff3; stroke:none;" d="M735 712L736 713L735 712z"/>
<path style="fill:#e5ebef; stroke:none;" d="M180 714L181 715L180 714z"/>
<path style="fill:#eaeff3; stroke:none;" d="M736 714L737 715L736 714M179 716L180 717L179 716z"/>
<path style="fill:#edf1f5; stroke:none;" d="M737 716L738 717L737 716z"/>
<path style="fill:#e5ebef; stroke:none;" d="M737 717L738 718L737 717z"/>
<path style="fill:#edf1f5; stroke:none;" d="M178 718L179 719L178 718z"/>
<path style="fill:#eaeff3; stroke:none;" d="M178 719L179 720L178 719z"/>
<path style="fill:#edf1f5; stroke:none;" d="M738 719L739 720L738 719z"/>
<path style="fill:#e5ebef; stroke:none;" d="M178 720L179 721L178 720z"/>
<path style="fill:#eaeff3; stroke:none;" d="M738 720L739 721L738 720z"/>
<path style="fill:#e5ebef; stroke:none;" d="M738 721L739 722L738 721z"/>
<path style="fill:#edf1f5; stroke:none;" d="M177 724L177 727L178 727L177 724z"/>
<path style="fill:#eaeff3; stroke:none;" d="M177 727L177 730L178 730L177 727z"/>
<path style="fill:#edf1f5; stroke:none;" d="M739 728L740 729L739 728M177 730L177 734L178 734L177 730z"/>
<path style="fill:#e5ebef; stroke:none;" d="M738 735L739 736L738 735M178 736L179 737L178 736z"/>
<path style="fill:#eaeff3; stroke:none;" d="M738 736L739 737L738 736M178 737L179 738L178 737z"/>
<path style="fill:#e5ebef; stroke:none;" d="M179 739L180 740L179 739M737 739L738 740L737 739z"/>
<path style="fill:#eaeff3; stroke:none;" d="M179 740L180 741L179 740z"/>
<path style="fill:#edf1f5; stroke:none;" d="M737 740L738 741L737 740z"/>
<path style="fill:#e5ebef; stroke:none;" d="M180 742L181 743L180 742z"/>
<path style="fill:#eaeff3; stroke:none;" d="M736 742L737 743L736 742z"/>
<path style="fill:#e5ebef; stroke:none;" d="M181 744L182 745L181 744z"/>
<path style="fill:#eaeff3; stroke:none;" d="M735 744L736 745L735 744z"/>
<path style="fill:#e5ebef; stroke:none;" d="M182 746L183 747L182 746z"/>
<path style="fill:#edf1f5; stroke:none;" d="M734 746L735 747L734 746z"/>
<path style="fill:#e5ebef; stroke:none;" d="M733 747L734 748L733 747z"/>
<path style="fill:#edf1f5; stroke:none;" d="M183 748L184 749L183 748z"/>
<path style="fill:#eaeff3; stroke:none;" d="M184 749L185 750L184 749z"/>
<path style="fill:#edf1f5; stroke:none;" d="M732 749L733 750L732 749z"/>
<path style="fill:#e5ebef; stroke:none;" d="M185 750L186 751L185 750z"/>
<path style="fill:#eaeff3; stroke:none;" d="M731 750L732 751L731 750z"/>
<path style="fill:#e5ebef; stroke:none;" d="M186 751L187 752L186 751z"/>
<path style="fill:#eaeff3; stroke:none;" d="M730 751L731 752L730 751z"/>
<path style="fill:#e5ebef; stroke:none;" d="M187 752L188 753L187 752M729 752L730 753L729 752M188 753L189 754L188 753z"/>
<path style="fill:#eaeff3; stroke:none;" d="M728 753L729 754L728 753M189 754L190 755L189 754M727 754L728 755L727 754z"/>
<path style="fill:#edf1f5; stroke:none;" d="M190 755L191 756L190 755z"/>
<path style="fill:#e5ebef; stroke:none;" d="M724 756L725 757L724 756z"/>
<path style="fill:#eaeff3; stroke:none;" d="M193 757L194 758L193 757z"/>
<path style="fill:#edf1f5; stroke:none;" d="M723 757L724 758L723 757z"/>
<path style="fill:#e5ebef; stroke:none;" d="M195 758L196 759L195 758M721 758L722 759L721 758M197 759L198 760L197 759M719 759L720 760L719 759z"/>
<path style="fill:#eaeff3; stroke:none;" d="M199 760L200 761L199 760z"/>
<path style="fill:#e5ebef; stroke:none;" d="M716 760L717 761L716 760z"/>
<path style="fill:#eaeff3; stroke:none;" d="M717 760L718 761L717 760M202 761L203 762L202 761z"/>
<path style="fill:#e5ebef; stroke:none;" d="M203 761L204 762L203 761M713 761L714 762L713 761z"/>
<path style="fill:#eaeff3; stroke:none;" d="M714 761L715 762L714 761z"/>
<path style="fill:#edf1f5; stroke:none;" d="M205 762L206 763L205 762z"/>
<path style="fill:#eaeff3; stroke:none;" d="M206 762L207 763L206 762z"/>
<path style="fill:#e5ebef; stroke:none;" d="M207.667 762.333L208.333 762.667L207.667 762.333M708.667 762.333L709.333 762.667L708.667 762.333z"/>
<path style="fill:#eaeff3; stroke:none;" d="M710 762L711 763L710 762z"/>
<path style="fill:#edf1f5; stroke:none;" d="M711 762L712 763L711 762z"/>
<path style="fill:#eaeff3; stroke:none;" d="M206 803L207 804L206 803z"/>
<path style="fill:#e5ebef; stroke:none;" d="M207.667 803.333L208.333 803.667L207.667 803.333z"/>
<path style="fill:#dde5eb; stroke:none;" d="M209 803.439C173.308 809.059 165.902 862.011 201 874.907C215.93 880.392 236.263 877 252 877L359 877L723 877L839 877C855.57 877 875.476 880.505 888.996 868.79C909.495 851.03 904.774 815.738 879 805.479C867.283 800.815 852.35 803 840 803L764 803L391 803L270 803C250.287 803 228.47 800.373 209 803.439z"/>
<path style="fill:#e5ebef; stroke:none;" d="M870.667 803.333L871.333 803.667L870.667 803.333z"/>
<path style="fill:#eaeff3; stroke:none;" d="M872 803L873 804L872 803z"/>
<path style="fill:#edf1f5; stroke:none;" d="M873 803L874 804L873 803M202 804L203 805L202 804z"/>
<path style="fill:#e5ebef; stroke:none;" d="M203 804L204 805L203 804M876 804L877 805L876 804M200 805L201 806L200 805z"/>
<path style="fill:#eaeff3; stroke:none;" d="M879 805L880 806L879 805M198 806L199 807L198 806z"/>
<path style="fill:#edf1f5; stroke:none;" d="M881 806L882 807L881 806z"/>
<path style="fill:#eaeff3; stroke:none;" d="M196 807L197 808L196 807z"/>
<path style="fill:#edf1f5; stroke:none;" d="M883 807L884 808L883 807M194 808L195 809L194 808z"/>
<path style="fill:#e5ebef; stroke:none;" d="M884 808L885 809L884 808M193 809L194 810L193 809z"/>
<path style="fill:#eaeff3; stroke:none;" d="M886 809L887 810L886 809z"/>
<path style="fill:#e5ebef; stroke:none;" d="M887 810L888 811L887 810z"/>
<path style="fill:#edf1f5; stroke:none;" d="M190 811L191 812L190 811M889 811L890 812L889 811M189 812L190 813L189 812M890 812L891 813L890 812z"/>
<path style="fill:#eaeff3; stroke:none;" d="M188 813L189 814L188 813z"/>
<path style="fill:#edf1f5; stroke:none;" d="M891 813L892 814L891 813M187 814L188 815L187 814M892 814L893 815L892 814M186 815L187 816L186 815M185 816L186 817L185 816z"/>
<path style="fill:#e5ebef; stroke:none;" d="M894 817L895 818L894 817M184 818L185 819L184 818z"/>
<path style="fill:#eaeff3; stroke:none;" d="M895 818L896 819L895 818z"/>
<path style="fill:#edf1f5; stroke:none;" d="M183 819L184 820L183 819z"/>
<path style="fill:#e5ebef; stroke:none;" d="M896 820L897 821L896 820M182 821L183 822L182 821z"/>
<path style="fill:#eaeff3; stroke:none;" d="M897 821L898 822L897 821z"/>
<path style="fill:#e5ebef; stroke:none;" d="M181 823L182 824L181 823z"/>
<path style="fill:#eaeff3; stroke:none;" d="M898 823L899 824L898 823z"/>
<path style="fill:#e5ebef; stroke:none;" d="M180 825L181 826L180 825z"/>
<path style="fill:#edf1f5; stroke:none;" d="M899 825L900 826L899 825z"/>
<path style="fill:#e5ebef; stroke:none;" d="M899 826L900 827L899 826z"/>
<path style="fill:#edf1f5; stroke:none;" d="M179 827L180 828L179 827z"/>
<path style="fill:#e5ebef; stroke:none;" d="M179 828L180 829L179 828z"/>
<path style="fill:#eaeff3; stroke:none;" d="M900 828L901 829L900 828z"/>
<path style="fill:#edf1f5; stroke:none;" d="M178 830L179 831L178 830z"/>
<path style="fill:#e5ebef; stroke:none;" d="M178 831L179 832L178 831z"/>
<path style="fill:#edf1f5; stroke:none;" d="M901 831L902 832L901 831z"/>
<path style="fill:#e5ebef; stroke:none;" d="M901.333 832.667L901.667 833.333L901.333 832.667z"/>
<path style="fill:#edf1f5; stroke:none;" d="M177 835L177 839L178 839L177 835z"/>
<path style="fill:#eaeff3; stroke:none;" d="M177.333 839.667L177.667 840.333L177.333 839.667z"/>
<path style="fill:#edf1f5; stroke:none;" d="M902 840L903 841L902 840M177 841L177 845L178 845L177 841M902 842L903 843L902 842z"/>
<path style="fill:#e5ebef; stroke:none;" d="M901.333 846.667L901.667 847.333L901.333 846.667M178 848L179 849L178 848z"/>
<path style="fill:#eaeff3; stroke:none;" d="M901 848L902 849L901 848M178 849L179 850L178 849z"/>
<path style="fill:#edf1f5; stroke:none;" d="M178 850L179 851L178 850z"/>
<path style="fill:#e5ebef; stroke:none;" d="M900 851L901 852L900 851M179 852L180 853L179 852z"/>
<path style="fill:#edf1f5; stroke:none;" d="M900 852L901 853L900 852z"/>
<path style="fill:#e5ebef; stroke:none;" d="M180 854L181 855L180 854M899 854L900 855L899 854z"/>
<path style="fill:#edf1f5; stroke:none;" d="M180 855L181 856L180 855z"/>
<path style="fill:#e5ebef; stroke:none;" d="M898 856L899 857L898 856z"/>
<path style="fill:#eaeff3; stroke:none;" d="M181 857L182 858L181 857z"/>
<path style="fill:#edf1f5; stroke:none;" d="M898 857L899 858L898 857z"/>
<path style="fill:#e5ebef; stroke:none;" d="M897 858L898 859L897 858z"/>
<path style="fill:#edf1f5; stroke:none;" d="M182 859L183 860L182 859z"/>
<path style="fill:#e5ebef; stroke:none;" d="M183 860L184 861L183 860z"/>
<path style="fill:#eaeff3; stroke:none;" d="M896 860L897 861L896 860z"/>
<path style="fill:#e5ebef; stroke:none;" d="M895 861L896 862L895 861z"/>
<path style="fill:#edf1f5; stroke:none;" d="M184 862L185 863L184 862z"/>
<path style="fill:#e5ebef; stroke:none;" d="M185 863L186 864L185 863z"/>
<path style="fill:#edf1f5; stroke:none;" d="M894 863L895 864L894 863z"/>
<path style="fill:#e5ebef; stroke:none;" d="M186 864L187 865L186 864z"/>
<path style="fill:#eaeff3; stroke:none;" d="M893 864L894 865L893 864z"/>
<path style="fill:#e5ebef; stroke:none;" d="M187 865L188 866L187 865M892 865L893 866L892 865M891 866L892 867L891 866M189 867L190 868L189 867M890 867L891 868L890 867M190 868L191 869L190 868z"/>
<path style="fill:#eaeff3; stroke:none;" d="M889 868L890 869L889 868z"/>
<path style="fill:#e5ebef; stroke:none;" d="M191 869L192 870L191 869z"/>
<path style="fill:#eaeff3; stroke:none;" d="M888 869L889 870L888 869M192 870L193 871L192 870z"/>
<path style="fill:#edf1f5; stroke:none;" d="M887 870L888 871L887 870z"/>
<path style="fill:#e5ebef; stroke:none;" d="M194 871L195 872L194 871M885 871L886 872L885 871z"/>
<path style="fill:#edf1f5; stroke:none;" d="M195 872L196 873L195 872z"/>
<path style="fill:#e5ebef; stroke:none;" d="M883 872L884 873L883 872z"/>
<path style="fill:#eaeff3; stroke:none;" d="M197 873L198 874L197 873z"/>
<path style="fill:#edf1f5; stroke:none;" d="M882 873L883 874L882 873z"/>
<path style="fill:#eaeff3; stroke:none;" d="M199 874L200 875L199 874M880 874L881 875L880 874z"/>
<path style="fill:#edf1f5; stroke:none;" d="M201 875L202 876L201 875z"/>
<path style="fill:#e5ebef; stroke:none;" d="M202 875L203 876L202 875M877 875L878 876L877 875z"/>
<path style="fill:#edf1f5; stroke:none;" d="M878 875L879 876L878 875M204 876L205 877L204 876z"/>
<path style="fill:#eaeff3; stroke:none;" d="M205 876L206 877L205 876z"/>
<path style="fill:#e5ebef; stroke:none;" d="M206 876L207 877L206 876M873 876L874 877L873 876z"/>
<path style="fill:#eaeff3; stroke:none;" d="M874 876L875 877L874 876z"/>
<path style="fill:#edf1f5; stroke:none;" d="M209.667 877.333L210.333 877.667L209.667 877.333z"/>
<path style="fill:#eaeff3; stroke:none;" d="M211.667 877.333L212.333 877.667L211.667 877.333z"/>
<path style="fill:#e5ebef; stroke:none;" d="M213 877L213 878L867 878L849 877L810 877L677 877L213 877z"/>
<path style="fill:#eaeff3; stroke:none;" d="M867 877L867 878L870 878L867 877z"/>
<path style="fill:#edf1f5; stroke:none;" d="M870 877L871 878L870 877z"/>
</svg>
