<svg width="15" height="16" viewBox="0 0 15 16" fill="none" xmlns="http://www.w3.org/2000/svg">
<path fill-rule="evenodd" clip-rule="evenodd" d="M1.35558 14.7224C1.68189 15.0327 2.13552 15.1999 2.621 15.1999C2.70262 15.1999 2.78097 15.1933 2.86234 15.1865C2.90791 15.1827 2.95443 15.1789 3.00301 15.176L5.56567 14.7383C6.05114 14.6587 6.67191 14.3244 7.00617 13.9663L13.5402 7.05029C15.1717 5.32328 15.1239 3.62015 13.3969 1.98864C11.6699 0.357133 9.96676 0.404884 8.33526 2.13189L7.25886 3.27123C7.2548 3.2754 7.25081 3.27962 7.24688 3.2839L1.80126 9.0479C1.45905 9.39808 1.16458 10.0427 1.10887 10.5282L0.814401 13.1068C0.742774 13.7435 0.941738 14.3324 1.35558 14.7224ZM7.37923 4.86806L2.66875 9.85967C2.50958 10.0268 2.32653 10.4247 2.2947 10.6555L2.00023 13.2341C1.96839 13.4967 2.03206 13.7116 2.17532 13.8469C2.31857 13.9822 2.53345 14.03 2.79609 13.9902L5.35875 13.5525C5.58955 13.5127 5.97156 13.3057 6.13073 13.1386L10.843 8.15081C9.24724 7.64641 7.96776 6.4352 7.37923 4.86806ZM11.7853 7.15341L12.6647 6.2226C13.6516 5.17207 14.0097 4.20112 12.5692 2.84817C11.9325 2.23536 11.3834 1.98068 10.89 1.98068C10.2771 1.98068 9.74392 2.36269 9.20274 2.93571L8.3299 3.86065C8.70596 5.55878 10.0718 6.86265 11.7853 7.15341Z" fill="#292D32"/>
</svg>
