<?xml version="1.0" standalone="no"?>
<!DOCTYPE svg PUBLIC "-//W3C//DTD SVG 20010904//EN"
 "http://www.w3.org/TR/2001/REC-SVG-20010904/DTD/svg10.dtd">
<svg version="1.0" xmlns="http://www.w3.org/2000/svg"
 width="500.000000pt" height="500.000000pt" viewBox="0 0 500.000000 500.000000"
 preserveAspectRatio="xMidYMid meet">

<g transform="translate(0.000000,500.000000) scale(0.100000,-0.100000)"
fill="#000000" stroke="none">
<path d="M3290 4381 c-67 -36 -75 -56 -78 -213 -3 -126 5 -231 24 -325 4 -21
3 -33 -4 -33 -19 0 -133 112 -199 197 -36 46 -78 90 -94 98 -87 46 -256 -20
-316 -123 -54 -92 -31 -148 127 -302 l97 -96 -51 -55 c-28 -30 -76 -92 -106
-137 -30 -45 -57 -81 -60 -82 -3 0 -15 37 -28 81 -108 391 -445 693 -851 764
-119 21 -325 19 -436 -4 -273 -57 -527 -223 -677 -443 -89 -131 -157 -304
-177 -452 -16 -111 -13 -335 4 -446 36 -219 110 -442 224 -669 316 -631 872
-1155 1411 -1331 163 -54 238 -63 442 -57 145 4 189 9 273 31 268 72 501 213
731 441 354 353 638 883 778 1454 47 191 60 304 53 484 -7 216 -42 313 -153
427 l-43 45 13 51 c7 27 30 94 50 147 41 110 45 161 17 216 -73 142 -341 215
-421 114 -26 -33 -76 -189 -98 -305 -18 -97 -33 -116 -62 -80 -32 39 -44 142
-37 323 6 162 6 168 -16 200 -14 20 -48 47 -86 66 -55 29 -72 33 -140 33 -55
0 -86 -5 -111 -19z"/>
</g>
</svg>
