<?xml version="1.0" encoding="utf-8"?>
<!-- Generator: Adobe Illustrator 21.0.0, SVG Export Plug-In . SVG Version: 6.00 Build 0)  -->
<svg version="1.1" id="Layer_1" xmlns="http://www.w3.org/2000/svg" xmlns:xlink="http://www.w3.org/1999/xlink" x="0px" y="0px"
	 viewBox="0 0 100 100" style="enable-background:new 0 0 100 100;" xml:space="preserve">
<g>
	<path d="M50,93.9l-1.9-1.2C46.4,91.7,6.4,66.3,1.4,44.9c-0.9-2.9-1.4-6-1.4-9C0,25,5.9,15,15.4,9.8c4.4-2.4,9.4-3.7,14.4-3.7
		c7.6,0,14.8,2.9,20.3,7.9c5.5-5.1,12.6-7.9,20.2-7.9c5,0,10,1.3,14.4,3.7l0,0c9.5,5.3,15.4,15.3,15.4,26.1c0,3.1-0.5,6.1-1.4,9
		c-5,21.4-45,46.8-46.7,47.9L50,93.9z M29.8,13.1c-3.9,0-7.6,1-11,2.8C11.5,19.9,7,27.6,7,35.9c0,2.4,0.4,4.7,1.1,7l0.1,0.3
		C11.5,57.8,37.9,77.7,50,85.6c12.1-7.9,38.5-27.8,41.8-42.4l0.1-0.3c0.7-2.3,1.1-4.6,1.1-7c0-8.3-4.5-15.9-11.8-20
		c-3.4-1.9-7.1-2.8-11-2.8c-6.8,0-13.2,3-17.5,8.3L50,24.6l-2.7-3.2C43,16.1,36.6,13.1,29.8,13.1z"/>
</g>
</svg>
