<?xml version="1.0" standalone="no"?>
<!DOCTYPE svg PUBLIC "-//W3C//DTD SVG 20010904//EN"
 "http://www.w3.org/TR/2001/REC-SVG-20010904/DTD/svg10.dtd">
<svg version="1.0" xmlns="http://www.w3.org/2000/svg"
 width="512.000000pt" height="512.000000pt" viewBox="0 0 512.000000 512.000000"
 preserveAspectRatio="xMidYMid meet">

<g transform="translate(0.000000,512.000000) scale(0.100000,-0.100000)"
fill="#000000" stroke="none">
<path d="M2365 5106 c-163 -28 -285 -69 -434 -147 -377 -198 -643 -551 -737
-979 -17 -74 -19 -131 -19 -435 l0 -350 30 -55 c18 -33 47 -66 73 -85 40 -27
51 -30 122 -30 71 0 82 3 121 30 24 17 57 50 74 74 l30 43 6 336 c7 387 13
420 98 597 57 119 116 199 210 287 179 169 446 270 671 254 233 -16 442 -111
604 -272 117 -117 204 -269 247 -429 20 -72 23 -115 28 -427 l6 -346 30 -43
c88 -125 252 -146 355 -46 68 66 70 75 70 442 0 451 -21 570 -145 820 -76 154
-160 268 -283 387 -188 181 -420 304 -680 358 -126 27 -366 35 -477 16z"/>
<path d="M2450 3453 c-40 -21 -63 -42 -85 -78 l-30 -48 -3 -762 -2 -762 28
-54 c83 -161 320 -161 404 0 l28 53 0 753 0 753 -28 53 c-39 75 -100 112 -191
117 -57 3 -73 0 -121 -25z"/>
<path d="M1324 2079 c-47 -14 -120 -83 -139 -133 -15 -39 -16 -84 -12 -392 5
-379 9 -415 73 -600 140 -410 481 -747 892 -884 158 -52 241 -65 427 -65 193
1 285 15 450 72 212 73 390 188 550 354 146 153 250 323 314 514 61 184 64
210 68 599 5 412 4 417 -74 486 -111 98 -267 74 -351 -53 l-27 -40 -6 -336
c-5 -297 -9 -345 -27 -412 -111 -409 -451 -697 -857 -726 -348 -25 -715 189
-872 510 -88 178 -103 271 -103 645 0 167 -4 292 -11 316 -14 51 -91 128 -145
144 -47 14 -105 14 -150 1z"/>
</g>
</svg>
