<?xml version="1.0" encoding="utf-8"?>
<!-- Generator: Adobe Illustrator 21.0.0, SVG Export Plug-In . SVG Version: 6.00 Build 0)  -->
<svg version="1.1" id="Layer_1" xmlns="http://www.w3.org/2000/svg" xmlns:xlink="http://www.w3.org/1999/xlink" x="0px" y="0px"
	 viewBox="0 0 100 100" style="enable-background:new 0 0 100 100;" xml:space="preserve">
<style type="text/css">
	.st0{fill:#EC7480;}
</style>
<g id="XMLID_1_">
	<g>
		<g>
			<path class="st0" d="M100,35.9c0,3-0.5,6.1-1.4,9c-5,21.4-45,46.8-46.7,47.9L50,93.9l-1.9-1.2C46.5,91.7,6.3,66.3,1.4,44.9
				c-0.9-3-1.4-6-1.4-9C0,25,5.9,15,15.4,9.8c4.4-2.4,9.4-3.7,14.4-3.7c7.6,0,14.8,2.9,20.3,7.9c5.5-5.1,12.6-7.9,20.2-7.9
				c5,0,10,1.3,14.4,3.7h0C94.1,15,100,25,100,35.9z"/>
		</g>
	</g>
</g>
</svg>
