<svg width="32" height="32" viewBox="0 0 32 32" fill="none" xmlns="http://www.w3.org/2000/svg">
<path fill-rule="evenodd" clip-rule="evenodd" d="M13.321 25.5999H18.6791C23.5282 25.5999 25.6 23.5281 25.6 18.679V13.3208C25.6 8.47172 23.5282 6.3999 18.6791 6.3999H13.321C8.47184 6.3999 6.40002 8.47172 6.40002 13.3208V18.679C6.40002 23.5281 8.47184 25.5999 13.321 25.5999ZM7.73956 13.3208C7.73956 9.204 9.20412 7.73944 13.321 7.73944H18.6791C22.7959 7.73944 24.2605 9.204 24.2605 13.3208V18.679C24.2605 22.7958 22.7959 24.2604 18.6791 24.2604H13.321C9.20412 24.2604 7.73956 22.7958 7.73956 18.679V13.3208ZM16 20.2418C15.6339 20.2418 15.3303 19.9381 15.3303 19.572V16.6697H12.4279C12.0618 16.6697 11.7582 16.366 11.7582 15.9999C11.7582 15.6338 12.0618 15.3301 12.4279 15.3301H15.3303V12.4278C15.3303 12.0617 15.6339 11.758 16 11.758C16.3662 11.758 16.6698 12.0617 16.6698 12.4278V15.3301H19.5721C19.9383 15.3301 20.2419 15.6338 20.2419 15.9999C20.2419 16.366 19.9383 16.6697 19.5721 16.6697H16.6698V19.572C16.6698 19.9381 16.3662 20.2418 16 20.2418Z" fill="#6C7680"/>
</svg>
