<svg xmlns="http://www.w3.org/2000/svg" xmlns:xlink="http://www.w3.org/1999/xlink" version="1.1" id="Layer_1" x="0px" y="0px" viewBox="0 0 1521.4 3560.3" enable-background="new 0 0 1521.4 3560.3" xml:space="preserve">
<g>
	<path d="M356.9,1418.7c-37.1,12.5-54,3.9-60.3-1.2c-1.3-1.1-3.3-0.1-3.2,1.6c0.3,7,4,19.7,26.6,21.3c22.8,1.6,34.5-11.7,39.2-18.8   C360.1,1419.9,358.6,1418.1,356.9,1418.7z" fill="#ffffff"/>
	<path d="M601.6,2610.5c15.8-3.8,45.5-9.3,71-4.6c3.2,0.6,5-3.5,2.4-5.4c-14.6-10.4-43.3-23.1-76.1,4.7   C596.5,2607.4,598.5,2611.2,601.6,2610.5z" fill="#ffffff"/>
	<path d="M711.4,919.1c-0.1-2-2.7-2.6-3.7-0.8c-11.2,20.6-10.2,62.5-8.5,111.4c1.9,53.5-4.8,73.2-15.4,88.5   c-9.4,13.7-24,29.9-44.4,50.2c-1.6,1.6,0.2,4.1,2.2,3.2c76.6-36.6,75.2-76.5,73.8-113C714.2,1025.5,712,942.3,711.4,919.1z" fill="#ffffff"/>
	<path d="M1500.1,1972.7c-3.2-6-6.6-12.8-9.8-19.6c-13.7-29.9-17.8-38.1-42.1-65.4c-7.3-8.3-15.5-15.7-23.1-22.9   c-14.2-13.2-28.8-26.7-29.4-37.6c0-0.6-0.1-1.1-0.2-1.7c-6.5-49.2-13.1-113.3-17.8-175.9c0-0.3-0.1-0.6-0.1-1c-1-8.3-2-16-2.9-23.4   c-7.8-65.5-12.2-101.6-41.4-180c-23.9-64.2-23.9-80.6-24-124.9c0-11.5,0-24.5-0.5-40.6c-0.4-12.7-0.6-24.4-0.9-35.7   c-1.4-58.8-2.4-101.4-11.7-150.5c-10.3-53.8-22.6-149.2-22.6-186.9c0-44.4-28.4-98.2-56.5-131.7c-30.5-36.5-98.1-68.2-162-76.5   c-48.7-27.8-116.8-52.7-158.1-66.5V548c55.4-54.7,62.4-78.4,72.2-124.9c0.2-1,0.4-2,0.6-3.1l0,0c14.9,0,25.7-3.7,33.1-11.2   c11.6-11.6,13.6-30.4,13-57.2c-0.3-14.2,1.5-19.7,3.4-25.6c2.3-6.9,4.6-14.2,3.6-30.8l-0.1-0.8c-2.5-17.4-9.1-29-19.8-34.2   c-7.6-3.8-15.4-3.5-21.3-2.1c0-2.6,0.1-5,0.1-7.1c0.1-22-2.8-43.6-8.4-64.2C955.4,121.6,916.7,73,861.5,46.1   c-43.4-21.1-84.6-22.8-96.2-22.8c-1.2,0-2.2,0-2.8,0c-0.6,0-1.6,0-2.8,0c-10.6,0-48.3,1.4-89.1,19.5   c-51.9,23-90.3,64.9-111.2,120.7c-10.9,29.1-16.2,60.3-15.8,92.8c0,0.4,0,0.9,0,1.3c-6-1.4-14-1.9-21.7,2   c-10.7,5.4-17.4,16.8-19.8,34.2l-0.1,0.8c-1,16.7,1.4,23.9,3.6,30.8c1.9,5.9,3.7,11.5,3.4,25.6c-0.6,26.7,1.4,45.6,13,57.2   c7.5,7.5,18.2,11.2,33.1,11.2c0.1,0,0.3,0,0.4,0c0.6,3,1.1,5.9,1.8,8.8c9.4,44,18.7,68,71,119.5v83.9   C587,645.5,519,670.4,470.2,698.2c-64,8.2-131.5,40-162,76.5c-28.1,33.6-56.5,87.4-56.5,131.7c0,37.7-12.4,133.1-22.6,186.9   c-9.3,49.2-10.3,91.7-11.7,150.5c-0.3,11.2-0.5,23-0.9,35.7c-0.4,16-0.5,29.1-0.5,40.6c-0.1,44.3-0.1,60.8-24,124.9   c-29.3,78.3-33.5,114.4-41.4,180c-0.9,7.3-1.8,15.2-2.9,23.4c0,0.3-0.1,0.6-0.1,1c-4.8,62.7-11.3,126.8-17.8,175.9   c-0.1,0.6-0.1,1.1-0.2,1.7c-0.6,10.8-15.3,24.4-29.4,37.6c-7.8,7.2-15.8,14.7-23.1,22.9c-24.3,27.4-28.5,35.5-42.1,65.4   c-3.2,6.9-6.7,13.8-9.8,19.6c-9.7,18.5-17.4,33.3-9.7,47.5c4.1,7.5,11.7,12.5,20.9,13.4c11.3,1.2,20.8-0.7,29.2-4.6   c-2.4,6.1-5.8,14-9.3,21.9c-16.4,37.2-26.6,63.1-18.3,82.8c3.4,8.1,9.6,14.4,17.8,17.5c0.9,0.3,1.7,0.6,2.6,0.8   c3.2,0.8,6.3,1.2,9.4,1.2c5.3,0,10.1-1.1,14.8-3.2c0.4,21.7,14,30.6,25.7,34.3c3.5,1.1,6.9,1.6,10.4,1.6c8.7,0,20.2-3.4,29.7-17.9   c5,5.5,11.5,9.1,18.8,10.5c2.7,0.5,5.5,0.5,8.1-0.1c14.1-3,23.5-13.3,30.5-27.6c5,4.5,12.9,8.9,24.8,8.6c1.3,0,2.5-0.2,3.8-0.4   c12.7-2.6,21.6-11.6,26.7-26.9c3-9,4.8-20.1,6.7-33c1.3-8.2,2.8-17.6,4.8-27.4c1.8-8.9,3.9-18.2,6-28.2c7.6-34,16.1-72.6,15.8-108   c-0.1-7.9-0.3-15.2-0.5-22.2c-0.9-31.8-1.5-54.8,10.8-90c11.7-32.7,38.3-98.9,55.8-142.6c7.1-17.8,12.9-31.8,15.7-39.4   c0.5-1.4,1.1-2.8,1.7-4.3c10.4-26.3,24.5-62.4,25.9-142c1.3-71,10.4-138.7,30.3-226.8c4.8-20.8,9.7-44.4,13.6-66.6   c7.1,22.8,15.1,50.2,24,87.2c9.7,52.8,11.8,128.4,14,237.5c-0.5,76.3-9.5,123.3-17.4,164.7c-3.4,17.8-6.6,34.7-9,52.6l-0.7,5.1   c-8.4,63.1-30.7,230.7-12.4,420c18.4,190.7,33,255.2,59.5,348.1c25.6,89.5,24,105.4,20,143.5c-0.6,5.9-2.3,15.1-4.4,26.5   c-11.6,64-35.6,197,15.7,357.2l1.6,6.2c22.3,89.2,43.4,173.5,54.4,243.8c0.3,2.7,0.5,5.4,0.8,8c3.9,39,4.9,56.1-11.8,73.4   c-13.3,8.1-68.8,42.5-75.6,49l0.1-0.1l-0.1,0.1c-16.4,15.6-16.7,31.5-15.5,39.8c2.7,17.2,16.3,31.7,40.6,43.3   c1.5,0.7,3.1,1.3,4.7,1.6c22.2,4.8,96.1,25.3,119.5,34.2c4.9,1.9,22.3,7.9,44,7.9c24.6,0,45.1-8,59.2-23c1.3-1.3,2.5-2.7,3.6-4.2   c1.1,1.4,2.3,2.8,3.6,4.2c14.2,15.1,34.6,23,59.2,23c21.6,0,39.2-6,44-7.9c23.4-9,97.3-29.5,119.5-34.2c1.6-0.3,3.2-0.9,4.7-1.6   c24.2-11.6,37.9-26.1,40.6-43.3c1.3-8.1,1-24.1-15.5-39.8l-0.1-0.1l0.1,0.1c-6.7-6.5-62.3-41-75.6-49   c-16.6-17.2-15.6-34.4-11.8-73.4c0.3-2.6,0.5-5.3,0.8-8c11.1-70.3,32.1-154.6,54.4-243.8l1.6-6.2c51.4-160.2,27.3-293.2,15.7-357.2   c-2.1-11.5-3.8-20.5-4.4-26.5c-3.9-38.2-5.6-53.9,20-143.5c26.5-92.8,41.1-157.4,59.5-348.1c18.3-189.4-4-356.9-12.4-420l-0.7-5.1   c-2.4-17.9-5.6-34.8-9-52.6c-7.9-41.5-16.9-88.6-17.4-164.7c2.2-109.1,4.3-184.7,14-237.5c9-37,16.9-64.4,24-87.2   c3.9,22.3,8.8,45.9,13.6,66.6c19.9,88,29.1,155.8,30.3,226.8c1.4,79.6,15.6,115.7,25.9,142c0.6,1.5,1.1,2.9,1.7,4.3   c2.9,7.4,8.5,21.5,15.7,39.4c17.6,43.8,44.1,109.8,55.8,142.6c12.3,35.3,11.7,58.2,10.8,90c-0.2,7-0.4,14.4-0.5,22.2   c-0.3,35.5,8.3,74.1,15.8,108c2.2,10,4.4,19.3,6,28.2c2,9.8,3.5,19.1,4.8,27.4c2,12.9,3.8,24,6.7,33c5.1,15.4,14.1,24.4,26.7,26.9   c1.2,0.2,2.5,0.4,3.8,0.4c11.9,0.2,19.8-4.2,24.8-8.6c7,14.4,16.5,24.6,30.5,27.6c2.7,0.6,5.5,0.6,8.1,0.1   c7.4-1.4,14-5.1,18.8-10.5c9.5,14.7,21,17.9,29.7,17.9c3.5,0,6.9-0.6,10.4-1.6c11.8-3.7,25.3-12.6,25.7-34.3   c4.6,2.1,9.5,3.2,14.8,3.2c3.1,0,6.2-0.4,9.4-1.2c0.9-0.2,1.8-0.5,2.6-0.8c8.1-3.2,14.5-9.4,17.8-17.5c8.1-19.7-2-45.7-18.3-82.8   c-3.6-8-6.9-15.8-9.3-21.9c8.3,3.9,17.8,5.8,29.2,4.6c9.2-1,16.9-5.9,20.9-13.4C1517.4,2005.9,1509.8,1991.3,1500.1,1972.7z    M973.7,393.9c4.7-52.2,6.7-89.7,7.6-115.9c2.6-1.1,8.8-3.3,13.7-0.9c5.9,3,8.4,12.3,9.5,19.6c0.7,13-0.8,17.7-2.8,23.7   c-2.2,6.7-4.7,14.5-4.3,31.7c0.5,21.2-0.7,36.8-7.5,43.6c-3.4,3.5-9,5.3-17,5.7C973.2,398.8,973.5,396.3,973.7,393.9z M535.1,395.4   c-6.8-6.9-7.9-22.4-7.5-43.6c0.4-17.3-2.1-25-4.3-31.7c-2-6-3.5-10.8-2.8-23.7c1.1-7.4,3.7-16.7,9.5-19.6c5.1-2.6,11.8,0,14.1,1.1   c0.8,24.7,2.8,60.7,7.1,110.7c0.4,4.3,0.9,8.4,1.4,12.7C544.4,400.7,538.6,398.8,535.1,395.4z M762.6,3376.7   c-3-13.5-5-31.7-4.7-68.7c0.5-59.7,1.7-134.6,4.7-209.8c3,75.4,4.3,150.1,4.7,209.8C767.6,3345,765.7,3363.2,762.6,3376.7z    M761.7,2516.6c0-0.2,0.3-6.2,0.9-16c0.5,9.9,0.9,15.9,0.9,16.1c4.8,65.8,5.2,128.7,1.1,160.4c-0.7,4.1-1.4,8-2,12   c-0.7-4-1.3-7.9-2-12C756.7,2645.5,757.1,2582.7,761.7,2516.6z M1486.8,2012.8c-14.1,1.5-29.5-2.9-46.9-34.8   c-17.6-31.5-31.5-38.4-28.7-23.6c0,0,18.2,45.9,26.5,74.3c8.2,28.4,48,94,24.4,103.3c-22.9,5.8-29.5-32.6-51.6-86.4   c-12.2-34.1-13-32.3-18.9-29.5s1.1,14.4,16.9,72.1c15.8,57.7,20,71,2.9,76.5c-17.2,5.4-23.6-22.2-31.5-53.1s-19.7-72.9-21.5-78.1   c-1.8-5.4-6.1-7.9-9.7-3.6c-3.6,4.4-1.1,10.8,4.4,34.4c5.4,23.6,28.4,88.9,1.8,94c-22.2-4.7-29.1-63.9-36.6-98.7   c-3.6-24.7-4-31.2-12.2-30.4c-7.9,0.7,0,31.2,2.9,58.8s7.2,51.3-13.3,50.9c-14.4-2.9-14.1-31.5-21.8-71   c-7.9-39.5-21.8-88.9-21.5-132c0.4-43,5.1-72.1-11.5-119.4c-16.5-46.2-61.7-156.8-71.8-182.6c-10.1-25.8-24.7-58.8-26.2-139.1   s-13-152-30.8-231c-9.4-41.4-14.9-72.1-17.6-94c-1.6-11.9,6.2-55.7,12.5-87.6c3.1-11.2,5.8-23,7.1-34.9l0,0l0,0   c0.5-4.4,0.8-8.7,0.9-13.1c-1.5-13.7-7.2-12.2-22.2,50.2c-15.1,62.4-32.3,91.1-58.8,200.2c-10.1,54.4-12.2,131.3-14.4,241.7   c0.7,110.4,18.6,160.6,26.5,220.2c7.9,59.5,31.5,228.2,13,420.3c-18.5,192.1-33,254-58.8,344.3c-25.8,90.3-25.1,109-20.7,151.3   c4.4,42.3,48.7,190.8-10.8,375.8c-22.9,91.8-45.2,180-56.6,253.3c-4.4,44.5-9.3,73.2,18.6,100.5c30.8,18.6,71.8,45.2,73.9,47.3   c2.2,2.2,30.1,25.8-19.3,49.5c-23.6,5.1-98.3,25.8-122.7,35.2c-24.4,9.3-101.8,22.2-96.1-68.9c9.3-71.8,22.9-52.4,22.2-147.1   c-0.7-95.4-3.6-248.2-14.4-370.9c-4.4-115.4-3.6-170,11.5-256.8c4.7-35.4,3.5-103.1-1-165c0,0-6.9-126.2-10.3-188.9   c-3.4-62.7-1.2-191.8-2.8-292.2l3.7-108.5c0,0,45.5,49.3,141.2,43.5c38.5-2.4,75-18.7,100.9-47c5.7-6.1,10.3-12.3,13.7-17.8   c5.8-10.5-9.1,1.9-33.9,22.4c-23.1,19.1-72,42.4-153.8,21.2c-18-4.7-35-13.3-49.1-25.5c-6.4-5.6-11.2-10.8-14.6-15.3   c-5.1-6.5-7.8-14.5-7.9-22.5c-0.6-24.4-2-89.4-3.2-151.1c-1.5-13-5.7-11-5.7-11s-4.2-1.9-5.7,11c-1.1,61.8-2.6,126.8-3.2,151.1   c-0.2,8.2-3,16.1-7.9,22.5c-3.4,4.5-8.1,9.7-14.6,15.3c-14.2,12.3-31,20.7-49.1,25.5c-81.8,21.1-130.7-2.1-153.8-21.2   c-24.9-20.5-39.8-33-33.9-22.4c3.4,5.8,8,11.9,13.7,17.8c26.1,28.4,62.6,44.8,100.9,47c95.8,5.9,141.2-43.5,141.2-43.5l3.7,108.5   c-1.6,100.5,0.6,229.6-2.8,292.2c-3.4,62.7-10.3,188.8-10.3,188.9c-4.5,61.9-5.6,129.6-1,165c15.1,86.8,15.8,141.3,11.5,256.8   c-10.8,122.7-13.7,275.4-14.4,370.9c-0.7,94.7,13,75.4,22.2,147.1c5.8,91.1-71.8,78.1-96.1,68.9c-24.4-9.3-99-30.1-122.7-35.2   c-49.5-23.6-21.5-47.3-19.3-49.5c2.2-2.2,43-28.7,73.9-47.3c28-27.3,22.9-55.9,18.6-100.5c-11.5-73.2-33.7-161.4-56.6-253.3   c-59.5-185-15.1-333.5-10.8-375.8c4.4-42.3,5.1-61-20.7-151.3c-25.8-90.3-40.2-152-58.8-344.3s5.1-360.8,13-420.3   s25.8-109.7,26.5-220.2c-2.2-110.4-4.4-187.2-14.4-241.7c-26.5-109-43.8-137.7-58.8-200.2c-15.1-62.4-20.7-63.9-22.2-50.2   c0.2,7.9,1.1,16.1,2.6,24.2l0,0c0,0,0,0,0,0.1c0.6,3.3,1.3,6.5,2,9.8c3.8,18.6,11.5,58.5,12.2,70.5c1,15.8,3.9,30.1,3.9,30.1   c-2.8,21.9-8.2,53-17.7,94.9c-17.8,78.8-29.5,150.6-30.8,231c-1.5,80.3-16.1,113.3-26.2,139.1s-55.2,136.3-71.8,182.6   c-16.5,47.3-11.9,76.5-11.5,119.4s-13.7,92.5-21.5,132c-7.9,39.5-7.5,68.1-21.8,71c-20.4,0.4-16.1-23.3-13.3-50.9   c2.9-27.6,10.8-58.1,2.9-58.8c-8.2-0.7-8.6,5.8-12.2,30.4c-7.5,34.8-14.4,94-36.6,98.7c-26.5-5.1-3.6-70.3,1.8-94   c5.4-23.6,7.9-30.1,4.4-34.4c-3.6-4.4-7.9-1.8-9.7,3.6c-1.8,5.4-13.7,47.3-21.5,78.1c-7.9,30.8-14.4,58.4-31.5,53.1   c-17.2-5.4-13-18.6,2.9-76.5c15.8-57.7,22.9-69.2,16.9-72.1c-6-2.9-6.8-4.7-18.9,29.5c-22.2,53.7-28.7,92.1-51.6,86.4   c-23.6-9.3,16.1-75,24.4-103.3c8.2-28.4,26.5-74.3,26.5-74.3c2.9-14.8-11.1-7.9-28.7,23.6c-17.6,31.9-33,36.2-46.9,34.8   c-13.9-1.4,2.5-22.9,15.4-51.3s16.1-34.8,38.8-60.3c22.6-25.5,56.3-45.9,57.7-73.2c7.2-53.7,13.7-120.5,17.8-177.1   c10.1-81.7,11.5-114,43-198.7c31.5-84.6,23.6-94,25.8-172.1s1.5-126.2,12.2-182.9s22.9-152,22.9-190.8c0-38.8,25.8-87.5,51.6-118.3   s88.3-62.4,152.8-69.6c71-41.6,193-78.1,193-78.1c-7.2-3.6-20.7-6.4-20.7-6.4v-94.7c-55.9-54-62.9-75.1-71.5-115.1   c-2.7-12.4-4.6-25-5.7-37.6c-5.7-64.5-7.2-105.6-7.5-130.2c-0.3-29.1,4.4-58.1,14.6-85.4C629,38.1,763.1,44.3,763.1,44.3   s148-6.8,190.7,148.1c5.3,19,7.7,38.8,7.6,58.6c-0.1,24.4-1.6,68.3-8,140.9c-0.8,9-2.2,17.9-4.1,26.8   c-9.2,43.7-14.3,64.1-72.6,120.5v94.7c0,0-13.7,2.9-20.7,6.4c0,0,122,36.6,193,78.1c64.6,7.2,126.9,38.8,152.8,69.6   c25.8,30.8,51.6,79.5,51.6,118.3s12.2,134.2,22.9,190.8c10.8,56.6,10.1,104.7,12.2,182.9c2.2,78.1-5.8,87.5,25.8,172.1   c31.5,84.6,33,116.9,43,198.7c4.4,56.6,10.8,123.4,17.8,177.1c1.5,27.3,35.2,47.7,57.7,73.2c22.6,25.5,25.8,31.9,38.8,60.3   C1484.5,1990,1500.7,2011.4,1486.8,2012.8z" fill="#ffffff"/>
	<path d="M1228.8,1417.5c-6.1,5.1-23.2,13.7-60.3,1.2c-1.8-0.6-3.3,1.3-2.3,2.9c4.7,7.2,16.3,20.4,39.2,18.8   c22.6-1.6,26.3-14.4,26.6-21.3C1232,1417.4,1230.1,1416.4,1228.8,1417.5z" fill="#ffffff"/>
	<path d="M841.5,1118.1c-10.5-15.4-17.2-34.9-15.4-88.5c1.8-48.9,2.7-90.6-8.5-111.4c-1-1.8-3.6-1.2-3.7,0.8   c-0.6,23.2-2.9,106.5-4.2,139.2c-1.4,36.8-2.8,76.6,73.8,113c2,0.9,3.8-1.6,2.2-3.2C865.6,1148,850.9,1131.7,841.5,1118.1z" fill="#ffffff"/>
	<path d="M850.6,2600.6c-2.7,1.9-0.8,5.9,2.4,5.4c25.5-4.8,55.1,0.7,71,4.6c3.1,0.7,5.1-3.2,2.7-5.3   C893.7,2577.5,865.1,2590.3,850.6,2600.6z" fill="#ffffff"/>
	<path d="M759.9,1204.5c-6.2,47.7-9.8,159.4,1.2,324.6c0.2,2.7,4.3,2.9,4.9,0.2c6.5-29.1,8.9-184.5-1.1-324.7   C764.5,1201.7,760.1,1201.6,759.9,1204.5z" fill="#ffffff"/>
</g>
</svg>