<?xml version="1.0" standalone="yes"?>
<svg xmlns="http://www.w3.org/2000/svg" width="1080" height="1080">
<path style="fill:#dde5eb; stroke:none;" d="M0 0L0 1080L189 1080L189 635L382 635L431 635C435.513 635 445.706 636.895 449.397 633.972C453.942 630.372 451 611.521 451 606L451 521L451 175L813 175L903 175C909.749 175 929.458 171.664 934.397 176.603C937.537 179.744 936 187.938 936 192L936 234L936 404L936 1080L1080 1080L1080 0L0 0z"/>
<path style="fill:#c9d2d8; stroke:none;" d="M451 175L451 176L935 176L935 1080C937.292 1074.54 936 1066.89 936 1061L936 1020L936 878L936 386L936 228L936 189C936 185.684 937.351 178.368 934.397 176.028C928.596 171.434 908.348 175 901 175L809 175L451 175z"/>
<path style="fill:#677987; stroke:none;" d="M451 176L451 635L693 635L693 1080L935 1080L935 176L451 176z"/>
<path style="fill:#c9d2d8; stroke:none;" d="M450 634L451 635L450 634z"/>
<path style="fill:#a9c0cf; stroke:none;" d="M189 635L189 1080L190 1080L190 765L190 674C190 662.842 193.308 645.266 189 635z"/>
<path style="fill:#9bb5c9; stroke:none;" d="M190 635L190 1080L408 1080L408 974L494 974L494 1080L693 1080L693 635L190 635z"/>
<path style="fill:#c9d2d8; stroke:none;" d="M408 974L408 1080L409 1080L409 1006L408 974z"/>
<path style="fill:#dde5eb; stroke:none;" d="M409 974L409 1080L493 1080L493 974L409 974z"/>
<path style="fill:#a9c0cf; stroke:none;" d="M493 974L493 1080L494 1080L494 1006L493 974z"/>
</svg>
