<?xml version="1.0" standalone="no"?>
<!DOCTYPE svg PUBLIC "-//W3C//DTD SVG 20010904//EN"
 "http://www.w3.org/TR/2001/REC-SVG-20010904/DTD/svg10.dtd">
<svg version="1.0" xmlns="http://www.w3.org/2000/svg"
 width="500.000000pt" height="500.000000pt" viewBox="0 0 500.000000 500.000000"
 preserveAspectRatio="xMidYMid meet">

<g transform="translate(0.000000,500.000000) scale(0.100000,-0.100000)"
fill="#000000" stroke="none">
<path d="M1990 4459 c-1951 -9 -1741 -5 -1780 -32 -67 -44 -92 -137 -56 -203
9 -16 355 -393 769 -838 l754 -809 334 -1060 c313 -995 336 -1063 369 -1098
55 -58 142 -63 207 -11 12 9 516 881 1120 1937 1067 1866 1098 1921 1098 1972
0 58 -20 93 -75 131 l-33 22 -651 -2 c-358 -1 -1283 -5 -2056 -9z m1959 -373
c-2 -2 -462 -270 -1023 -596 -708 -412 -1023 -590 -1031 -584 -18 13 -1079
1154 -1083 1165 -2 5 536 10 1270 12 700 1 1408 3 1572 5 165 1 297 0 295 -2z
m140 -298 c-44 -82 -1542 -2699 -1544 -2696 -3 4 -477 1509 -479 1522 -1 6
2015 1193 2032 1196 1 0 -3 -10 -9 -22z"/>
</g>
</svg>
