<svg version="1.1" id="Layer_1" xmlns="http://www.w3.org/2000/svg" xmlns:xlink="http://www.w3.org/1999/xlink" x="0px" y="0px"
	 width="100%" viewBox="0 0 496 496" enable-background="new 0 0 496 496" xml:space="preserve">
<path fill="#000000" opacity="1.000000" stroke="none" 
	d="
M252.945312,426.919067 
	C244.532654,438.131317 236.355576,449.074585 228.140915,459.989594 
	C221.612930,468.663605 212.768845,471.885620 203.740860,468.947662 
	C194.398911,465.907501 189.131302,457.851654 188.628937,447.105042 
	C187.549103,424.005219 186.122055,400.921814 184.903885,377.828186 
	C184.106201,362.706116 183.461685,347.575958 182.683929,332.452759 
	C181.479187,309.026306 180.219360,285.602631 178.981842,262.177826 
	C178.955475,261.678711 178.811050,261.160706 178.899048,260.684296 
	C180.949814,249.582123 174.614838,243.329285 166.717453,236.821640 
	C118.761543,197.304733 71.141914,157.379547 23.439083,117.555840 
	C15.166461,110.649620 12.499271,101.959381 15.685063,93.148804 
	C18.758385,84.649277 27.007603,79.076157 37.166145,78.805794 
	C42.328300,78.668411 47.496838,78.766357 52.662491,78.765671 
	C191.801849,78.747322 330.941193,78.715050 470.080566,78.747696 
	C478.880768,78.749756 485.994995,82.293564 490.071381,90.445564 
	C494.416229,99.134338 492.691498,107.170135 487.003937,114.722252 
	C469.665009,137.745529 452.373413,160.804535 435.088562,183.868454 
	C381.037537,255.991257 326.998474,328.123047 272.953613,400.250458 
	C266.360901,409.048981 259.761169,417.842224 252.945312,426.919067 
M113.510796,121.380714 
	C108.319672,121.962242 102.800606,120.031464 97.929626,122.680367 
	C98.033424,124.546646 98.884918,125.148315 99.640839,125.778503 
	C132.405197,153.092575 165.204483,180.364914 197.899780,207.761368 
	C200.916595,210.289261 203.267258,210.410919 206.767670,208.651062 
	C261.542389,181.112656 316.394257,153.727646 371.216492,126.283638 
	C373.304474,125.238411 375.562866,124.352562 378.000031,121.380188 
	C289.414368,121.380188 201.960846,121.380188 113.510796,121.380714 
M307.993835,282.524231 
	C338.386505,241.936096 368.779205,201.347961 399.809113,159.908829 
	C397.244232,160.989990 395.696075,161.541199 394.237823,162.271835 
	C337.956116,190.470917 281.693909,218.708954 225.378540,246.840576 
	C222.195557,248.430603 221.047821,250.464813 221.275467,253.894531 
	C222.002380,264.846802 222.627319,275.807220 223.158508,286.770935 
	C224.591309,316.345184 225.939774,345.923523 227.367065,375.498047 
	C227.537109,379.021515 227.482407,382.651001 229.804138,386.457520 
	C255.963181,351.703491 281.777313,317.407684 307.993835,282.524231 
z"/>
</svg>