<svg width="20" height="20" viewBox="0 0 20 20" fill="none" xmlns="http://www.w3.org/2000/svg">
<path fill-rule="evenodd" clip-rule="evenodd" d="M14.2163 2.08855C16.0307 1.48374 17.1622 1.76363 17.7151 2.31731C18.2688 2.87187 18.5481 4.00701 17.9481 5.82164L17.9479 5.82241L15.0812 14.4226L15.081 14.4229C14.6158 15.8211 14.0939 16.8109 13.5774 17.4364C13.0589 18.0643 12.6151 18.2487 12.2871 18.2487C11.959 18.2487 11.5153 18.0643 10.9967 17.4364C10.4803 16.8109 9.95837 15.8211 9.49315 14.4229L9.49302 14.4226L8.7277 12.1266L12.2812 8.56319C12.5737 8.26989 12.573 7.79502 12.2797 7.50253C11.9864 7.21005 11.5115 7.21071 11.2191 7.50401L7.5919 11.1413C7.57663 11.1566 7.56216 11.1724 7.5485 11.1887L5.61442 10.544L5.61404 10.5438C4.2157 10.0785 3.22575 9.55721 2.60023 9.04137C1.97222 8.52348 1.78833 8.08069 1.78833 7.7537C1.78833 7.42648 1.97245 6.98293 2.60083 6.46364C3.22653 5.94655 4.21654 5.42347 5.61469 4.95574L5.61516 4.95559L14.2163 2.08855ZM19.372 6.29339C20.0484 4.24828 19.9173 2.39986 18.7765 1.25744C17.6349 0.114059 15.7877 -0.0163876 13.7419 0.665528L5.14008 3.53281L5.13933 3.53306C3.64512 4.03287 2.46582 4.62928 1.64529 5.30737C0.827359 5.98331 0.28833 6.81066 0.28833 7.7537C0.28833 8.69698 0.827597 9.52382 1.64589 10.1986C2.46667 10.8755 3.64618 11.4699 5.14045 11.9671L7.33752 12.6995L8.06987 14.8965L8.06996 14.8968L8.07 14.8969C8.56726 16.3912 9.16236 17.5707 9.8401 18.3915C10.5159 19.2098 11.3436 19.7487 12.2871 19.7487C13.2306 19.7487 14.0583 19.2098 14.7341 18.3915C15.4118 17.5707 16.0069 16.3912 16.5042 14.8969L16.5043 14.8965L19.3715 6.29507L19.372 6.29339Z" fill="#292D32"/>
</svg>
