<?xml version="1.0" standalone="yes"?>
<svg xmlns="http://www.w3.org/2000/svg" width="512" height="512">
<path style="fill:#3e525e; stroke:none;" d="M0 0L0 27L1 27C3.91911 14.7104 14.252 3.27243 27 1L0 0z"/>
<path style="fill:#b97369; stroke:none;" d="M0 256L86 256C79.3461 266.069 73.3527 274.748 71.439 287C62.7681 342.517 135.283 375.642 171.699 333C176.6 327.261 180.394 320.237 182.56 313C184.944 305.035 185.785 296.267 184.711 288C183.074 275.409 176.958 266.185 170 256L256 256L256 170C245.964 176.193 237.063 182.962 225 184.7C171.704 192.38 137.802 126.277 176.039 88.0394C181.4 82.679 187.965 78.0542 195 75.2068C203.879 71.613 212.487 70.4621 222.015 71.0286C235.306 71.8188 245.179 79.2627 256 86L256 0L79 0C58.0692 0 26.5531 -6.34204 10.3002 9.59106C-6.25756 25.8229 0 56.8481 0 78L0 256z"/>
<path style="fill:#d1ab89; stroke:none;" d="M256 0L256 86C248.812 79.7848 241.113 75.4221 232 72.7207C178.157 56.7604 135.07 126.235 174.04 166.999C179.52 172.732 185.749 177.418 193 180.687C202.49 184.965 212.757 185.426 223 184.961C235.283 184.403 246.872 177.78 256 170L256 256L342 256C335.884 245.263 328.04 235.95 327.09 223C326.421 213.879 327.108 204.576 330.464 196C333.258 188.858 337.673 182.459 343.015 177.001C380.332 138.87 443.274 168.639 440.961 221C440.352 234.771 432.929 244.771 426 256L512 256L512 78C512 56.905 518.213 26.2936 501.96 10.0401C485.706 -6.21332 455.095 0 434 0L256 0z"/>
<path style="fill:#3e525e; stroke:none;" d="M485 0L485 1C496.989 3.13846 508.862 15.0109 511 27L512 27L512 0L485 0z"/>
<path style="fill:#a1cbdb; stroke:none;" d="M5 15L6 16L5 15z"/>
<path style="fill:#b97369; stroke:none;" d="M375 159L376 160L375 159z"/>
<path style="fill:#7095a3; stroke:none;" d="M376 159L377 160L376 159z"/>
<path style="fill:#3e525e; stroke:none;" d="M342 256L256 256L256 342C266.876 335.805 276.01 328.47 289 327.171C352.263 320.841 376.949 408.477 319 435.88C310.956 439.684 302.822 441.041 294 440.999C278.683 440.926 268.661 433.212 256 426L256 512L512 512L512 256L426 256C432.901 245.523 439.537 235.918 440.829 223C441.719 214.115 440.589 205.401 437.655 197C435.201 189.974 431.222 183.678 426.384 178.039C389.611 135.177 317.991 171.551 327.615 226C329.698 237.782 335.571 246.24 342 256z"/>
<path style="fill:#7095a3; stroke:none;" d="M391 159L392 160L391 159z"/>
<path style="fill:#b97369; stroke:none;" d="M392 159L393 160L392 159M370 160L371 161L370 160z"/>
<path style="fill:#7095a3; stroke:none;" d="M371 160L372 161L371 160M396 160L397 161L396 160M367 161L368 162L367 161M400 161L401 162L400 161M364 162L365 163L364 162z"/>
<path style="fill:#b97369; stroke:none;" d="M403 162L404 163L403 162M361 163L362 164L361 163z"/>
<path style="fill:#7095a3; stroke:none;" d="M405 163L406 164L405 163M359 164L360 165L359 164M357 165L358 166L357 165z"/>
<path style="fill:#b97369; stroke:none;" d="M355 166L356 167L355 166z"/>
<path style="fill:#7095a3; stroke:none;" d="M413 167L414 168L413 167M352 168L353 169L352 168M416 169L417 170L416 169z"/>
<path style="fill:#b97369; stroke:none;" d="M349 170L350 171L349 170M420 172L421 173L420 172z"/>
<path style="fill:#7095a3; stroke:none;" d="M421 173L422 174L421 173M426 178L427 179L426 178z"/>
<path style="fill:#b97369; stroke:none;" d="M427 179L428 180L427 179z"/>
<path style="fill:#7095a3; stroke:none;" d="M338 181L339 182L338 181M430 183L431 184L430 183M432 186L433 187L432 186M334 187L335 188L334 187M332 191L333 192L332 191z"/>
<path style="fill:#b97369; stroke:none;" d="M435 191L436 192L435 191z"/>
<path style="fill:#7095a3; stroke:none;" d="M331 193L332 194L331 193z"/>
<path style="fill:#b97369; stroke:none;" d="M330 195L331 196L330 195z"/>
<path style="fill:#7095a3; stroke:none;" d="M437 196L438 197L437 196M329 198L330 199L329 198M438 199L439 200L438 199M328 202L329 203L328 202M439 202L440 203L439 202z"/>
<path style="fill:#b97369; stroke:none;" d="M327 206L328 207L327 206M440 206L441 207L440 206z"/>
<path style="fill:#7095a3; stroke:none;" d="M327 207L328 208L327 207M440 207L441 208L440 207M327 225L328 226L327 225M440 225L441 226L440 225z"/>
<path style="fill:#b97369; stroke:none;" d="M327 226L328 227L327 226M328 230L329 231L328 230M439 230L440 231L439 230z"/>
<path style="fill:#7095a3; stroke:none;" d="M438 233L439 234L438 233M330 236L331 237L330 236M437 236L438 237L437 236z"/>
<path style="fill:#b97369; stroke:none;" d="M436 239L437 240L436 239M332 241L333 242L332 241M435 241L436 242L435 241M333 243L334 244L333 243M434 243L435 244L434 243z"/>
<path style="fill:#7095a3; stroke:none;" d="M335 246L336 247L335 246M432 246L433 247L432 246M337 249L338 250L337 249M430 249L431 250L430 249z"/>
<path style="fill:#b97369; stroke:none;" d="M428 252L429 253L428 252M340 253L341 254L340 253z"/>
<path style="fill:#7095a3; stroke:none;" d="M427 253L428 254L427 253M341 254L342 255L341 254M426 254L427 255L426 254z"/>
<path style="fill:#a1cbdb; stroke:none;" d="M0 256L0 434C0 455.04 -6.19232 485.727 10.0401 501.96C26.2726 518.192 56.96 512 78 512L256 512L256 425C263.181 431.853 271.367 436.696 281 439.244C289.46 441.482 298.466 441.604 307 439.789C315.26 438.033 323.287 434.667 330 429.471C375.667 394.123 344.379 316.634 286 327.805C274.353 330.034 264.607 334.786 256 343L256 256L170 256C176.202 266.888 183.529 276.002 184.829 289C191.156 352.238 103.518 376.94 76.1204 319C72.3165 310.956 70.9588 302.822 71.0008 294C71.0733 278.767 78.8181 268.608 86 256L0 256z"/>
<path style="fill:#7095a3; stroke:none;" d="M85 257L86 258L85 257M170 257L171 258L170 257M84 258L85 259L84 258M171 258L172 259L171 258M81 262L82 263L81 262M77 268L78 269L77 268M179 270L180 271L179 270M74 275L75 276L74 275M181 275L182 276L181 275M72 281L73 282L72 281M183 281L184 282L183 281M71 286L72 287L71 286M184 286L185 287L184 286M71 304L72 305L71 304M184.333 304.667L184.667 305.333L184.333 304.667M72 309L73 310L72 309M183 309L184 310L183 309M73 312L74 313L73 312M182 313L183 314L182 313M74 315L75 316L74 315M180 318L181 319L180 318M76 320L77 321L76 320M179 320L180 321L179 320M177 324L178 325L177 324M286.667 327.333L287.333 327.667L286.667 327.333M303 327L303 328L306 328L303 327M81 328L82 329L81 328M281.667 328.333L282.333 328.667L281.667 328.333M309 328L310 329L309 328M278 329L279 330L278 329M313 329L314 330L313 329M173 330L174 331L173 330M275 330L276 331L275 330M318 331L319 332L318 331M84 332L85 333L84 332M320 332L321 333L320 332M85 333L86 334L85 333M268 333L269 334L268 333M322 333L323 334L322 333M324 334L325 335L324 334M265 335L266 336L265 335M327 336L328 337L327 336M262 337L263 338L262 337M330 338L331 339L330 338M91 339L92 340L91 339M331 339L332 340L331 339M258 340L259 341L258 340M162 341L163 342L162 341M257 341L258 342L257 341M95 342L96 343L95 342M256 342L257 343L256 342M159 343L160 344L159 343M98 344L99 345L98 344M154 346L155 347L154 346M152 347L153 348L152 347M150 348L151 349L150 348M340 348L341 349L340 348M108 349L109 350L108 349M147 349L148 350L147 349M341 349L342 350L341 349M111 350L112 351L111 350M144 350L145 351L144 350M115 351L116 352L115 351M120 352L121 353L120 352M134.667 352.333L135.333 352.667L134.667 352.333M343 352L344 353L343 352M345 355L346 356L345 355M346 357L347 358L346 357M347 359L348 360L347 359M348 361L349 362L348 361M349 364L350 365L349 364M350 367L351 368L350 367M351 371L352 372L351 371M352.333 376.667L352.667 377.333L352.333 376.667M352 389L352 392L353 392L352 389M351 396L352 397L351 396M350 400L351 401L350 400M349 403L350 404L349 403M348 405L349 406L348 405M345 411L346 412L345 411M344 413L345 414L344 413M342 416L343 417L342 416M339 420L340 421L339 420M338 421L339 422L338 421M337 422L338 423L337 422M336 423L337 424L336 423M335 424L336 425L335 424M256 425L257 426L256 425M334 425L335 426L334 425M257 426L258 427L257 426M333 426L334 427L333 426M258 427L259 428L258 427M332 427L333 428L332 427M262 430L263 431L262 430M328 430L329 431L328 430M265 432L266 433L265 432M325 432L326 433L325 432M323 433L324 434L323 433M268 434L269 435L268 434M270 435L271 436L270 435M320 435L321 436L320 435M317 436L318 437L317 436M275 437L276 438L275 437M315 437L316 438L315 437M278 438L279 439L278 438M312 438L313 439L312 438M281 439L282 440L281 439M308.667 439.333L309.333 439.667L308.667 439.333M286.667 440.333L287.333 440.667L286.667 440.333M303.667 440.333L304.333 440.667L303.667 440.333z"/>
<path style="fill:#3e525e; stroke:none;" d="M0 485L0 512L27 512L27 511C12.3321 507.514 7.27741 496.508 0 485z"/>
<path style="fill:#a1cbdb; stroke:none;" d="M506 496L507 497L506 496z"/>
</svg>
