<?xml version="1.0" standalone="yes"?>
<svg xmlns="http://www.w3.org/2000/svg" width="400" height="400">
<path style="fill:#dde5eb; stroke:none;" d="M0 0L0 260L1 260C8.04774 219.069 59.8305 194.935 97 208.436C121.872 217.47 134.109 234.696 146 257C164.149 252.036 180.713 245.029 200 245.029C219.224 245.029 235.944 251.838 254 257C273.762 184.747 382.674 191.431 399 262L400 262L400 0L0 0z"/>
<path style="fill:#bac5cd; stroke:none;" d="M195 88L195 89L200 89L195 88z"/>
<path style="fill:#aab6bf; stroke:none;" d="M200 88L201 89L200 88z"/>
<path style="fill:#bac5cd; stroke:none;" d="M201 88L201 89L206 89L201 88M187 89L188 90L187 89z"/>
<path style="fill:#aab6bf; stroke:none;" d="M188 89L189 90L188 89z"/>
<path style="fill:#92a1ac; stroke:none;" d="M189.667 89.3333L190.333 89.6667L189.667 89.3333z"/>
<path style="fill:#677987; stroke:none;" d="M191 89.4283C179.547 91.069 168.778 94.8194 159 101.09C151.295 106.032 144.996 112.631 139.641 120C101.648 172.281 148.528 244.851 211 235.869C221.707 234.329 231.964 230.639 241 224.644C303.831 182.959 267.113 78.5244 191 89.4283z"/>
<path style="fill:#92a1ac; stroke:none;" d="M209.667 89.3333L210.333 89.6667L209.667 89.3333z"/>
<path style="fill:#aab6bf; stroke:none;" d="M211 89L212 90L211 89z"/>
<path style="fill:#bac5cd; stroke:none;" d="M212 89L213 90L212 89M182 90L183 91L182 90z"/>
<path style="fill:#92a1ac; stroke:none;" d="M183.667 90.3333L184.333 90.6667L183.667 90.3333M215.667 90.3333L216.333 90.6667L215.667 90.3333z"/>
<path style="fill:#bac5cd; stroke:none;" d="M217 90L218 91L217 90z"/>
<path style="fill:#aab6bf; stroke:none;" d="M179 91L180 92L179 91z"/>
<path style="fill:#92a1ac; stroke:none;" d="M180 91L181 92L180 91M219 91L220 92L219 91z"/>
<path style="fill:#aab6bf; stroke:none;" d="M220 91L221 92L220 91z"/>
<path style="fill:#bac5cd; stroke:none;" d="M221 91L222 92L221 91M175 92L176 93L175 92z"/>
<path style="fill:#aab6bf; stroke:none;" d="M176 92L177 93L176 92z"/>
<path style="fill:#92a1ac; stroke:none;" d="M223 92L224 93L223 92z"/>
<path style="fill:#bac5cd; stroke:none;" d="M224 92L225 93L224 92z"/>
<path style="fill:#aab6bf; stroke:none;" d="M173 93L174 94L173 93z"/>
<path style="fill:#92a1ac; stroke:none;" d="M226 93L227 94L226 93z"/>
<path style="fill:#bac5cd; stroke:none;" d="M170 94L171 95L170 94z"/>
<path style="fill:#92a1ac; stroke:none;" d="M171 94L172 95L171 94M228 94L229 95L228 94z"/>
<path style="fill:#bac5cd; stroke:none;" d="M229 94L230 95L229 94M168 95L169 96L168 95z"/>
<path style="fill:#92a1ac; stroke:none;" d="M169 95L170 96L169 95M230 95L231 96L230 95z"/>
<path style="fill:#bac5cd; stroke:none;" d="M231 95L232 96L231 95M166 96L167 97L166 96z"/>
<path style="fill:#92a1ac; stroke:none;" d="M167 96L168 97L167 96z"/>
<path style="fill:#bac5cd; stroke:none;" d="M233 96L234 97L233 96M164 97L165 98L164 97z"/>
<path style="fill:#92a1ac; stroke:none;" d="M165 97L166 98L165 97z"/>
<path style="fill:#bac5cd; stroke:none;" d="M235 97L236 98L235 97M162 98L163 99L162 98z"/>
<path style="fill:#92a1ac; stroke:none;" d="M163 98L164 99L163 98M236 98L237 99L236 98z"/>
<path style="fill:#bac5cd; stroke:none;" d="M237 98L238 99L237 98z"/>
<path style="fill:#92a1ac; stroke:none;" d="M161 99L162 100L161 99M238 99L239 100L238 99z"/>
<path style="fill:#bac5cd; stroke:none;" d="M159 100L160 101L159 100M240 100L241 101L240 100z"/>
<path style="fill:#92a1ac; stroke:none;" d="M158 101L159 102L158 101M241 101L242 102L241 101z"/>
<path style="fill:#bac5cd; stroke:none;" d="M156 102L157 103L156 102M243 102L244 103L243 102z"/>
<path style="fill:#aab6bf; stroke:none;" d="M155 103L156 104L155 103z"/>
<path style="fill:#92a1ac; stroke:none;" d="M244 103L245 104L244 103M154 104L155 105L154 104M245 104L246 105L245 104z"/>
<path style="fill:#bac5cd; stroke:none;" d="M152 105L153 106L152 105M247 105L248 106L247 105M151 106L152 107L151 106M248 106L249 107L248 106M150 107L151 108L150 107z"/>
<path style="fill:#aab6bf; stroke:none;" d="M249 107L250 108L249 107M149 108L150 109L149 108M250 108L251 109L250 108M148 109L149 110L148 109z"/>
<path style="fill:#92a1ac; stroke:none;" d="M251 109L252 110L251 109z"/>
<path style="fill:#aab6bf; stroke:none;" d="M147 110L148 111L147 110z"/>
<path style="fill:#92a1ac; stroke:none;" d="M252 110L253 111L252 110z"/>
<path style="fill:#aab6bf; stroke:none;" d="M146 111L147 112L146 111z"/>
<path style="fill:#92a1ac; stroke:none;" d="M253 111L254 112L253 111z"/>
<path style="fill:#aab6bf; stroke:none;" d="M145 112L146 113L145 112z"/>
<path style="fill:#92a1ac; stroke:none;" d="M254 112L255 113L254 112z"/>
<path style="fill:#bac5cd; stroke:none;" d="M66 113L67 114L66 113z"/>
<path style="fill:#aab6bf; stroke:none;" d="M67 113L68 114L67 113z"/>
<path style="fill:#92a1ac; stroke:none;" d="M68 113L68 114L79 114L68 113z"/>
<path style="fill:#aab6bf; stroke:none;" d="M79 113L80 114L79 113z"/>
<path style="fill:#bac5cd; stroke:none;" d="M80 113L81 114L80 113M144 113L145 114L144 113z"/>
<path style="fill:#aab6bf; stroke:none;" d="M255 113L256 114L255 113z"/>
<path style="fill:#bac5cd; stroke:none;" d="M318 113L319 114L318 113z"/>
<path style="fill:#aab6bf; stroke:none;" d="M319.667 113.333L320.333 113.667L319.667 113.333z"/>
<path style="fill:#92a1ac; stroke:none;" d="M321 113L321 114L331 114L321 113z"/>
<path style="fill:#aab6bf; stroke:none;" d="M331 113L332 114L331 113z"/>
<path style="fill:#bac5cd; stroke:none;" d="M332.667 113.333L333.333 113.667L332.667 113.333M61 114L62 115L61 114z"/>
<path style="fill:#aab6bf; stroke:none;" d="M62 114L63 115L62 114z"/>
<path style="fill:#92a1ac; stroke:none;" d="M63 114L64 115L63 114z"/>
<path style="fill:#677987; stroke:none;" d="M64 114.465C36.2087 119.475 22.3894 152.898 35.3241 177C44.5891 194.264 64.236 201.897 83 198.381C111.528 193.036 125.484 158.218 110.532 134C100.598 117.91 82.2381 111.176 64 114.465z"/>
<path style="fill:#92a1ac; stroke:none;" d="M83 114L84 115L83 114z"/>
<path style="fill:#aab6bf; stroke:none;" d="M84 114L85 115L84 114z"/>
<path style="fill:#bac5cd; stroke:none;" d="M85 114L86 115L85 114M143 114L144 115L143 114M256 114L257 115L256 114z"/>
<path style="fill:#aab6bf; stroke:none;" d="M314 114L315 115L314 114z"/>
<path style="fill:#92a1ac; stroke:none;" d="M315 114L316 115L315 114z"/>
<path style="fill:#677987; stroke:none;" d="M316 114.518C261.039 126.173 281.426 209.974 336 198.331C390.428 186.719 370.204 103.023 316 114.518z"/>
<path style="fill:#92a1ac; stroke:none;" d="M335 114L336 115L335 114z"/>
<path style="fill:#aab6bf; stroke:none;" d="M336 114L337 115L336 114z"/>
<path style="fill:#bac5cd; stroke:none;" d="M337 114L338 115L337 114M58 115L59 116L58 115z"/>
<path style="fill:#92a1ac; stroke:none;" d="M59 115L60 116L59 115M87 115L88 116L87 115z"/>
<path style="fill:#bac5cd; stroke:none;" d="M88 115L89 116L88 115M257 115L258 116L257 115M310 115L311 116L310 115z"/>
<path style="fill:#aab6bf; stroke:none;" d="M311 115L312 116L311 115z"/>
<path style="fill:#92a1ac; stroke:none;" d="M312 115L313 116L312 115M339 115L340 116L339 115z"/>
<path style="fill:#bac5cd; stroke:none;" d="M340 115L341 116L340 115z"/>
<path style="fill:#aab6bf; stroke:none;" d="M56 116L57 117L56 116M90 116L91 117L90 116z"/>
<path style="fill:#92a1ac; stroke:none;" d="M142 116L143 117L142 116z"/>
<path style="fill:#bac5cd; stroke:none;" d="M308 116L309 117L308 116z"/>
<path style="fill:#92a1ac; stroke:none;" d="M309 116L310 117L309 116M342 116L343 117L342 116z"/>
<path style="fill:#bac5cd; stroke:none;" d="M343 116L344 117L343 116z"/>
<path style="fill:#92a1ac; stroke:none;" d="M54 117L55 118L54 117M92 117L93 118L92 117M141 117L142 118L141 117M258 117L259 118L258 117z"/>
<path style="fill:#aab6bf; stroke:none;" d="M306 117L307 118L306 117z"/>
<path style="fill:#92a1ac; stroke:none;" d="M344 117L345 118L344 117z"/>
<path style="fill:#bac5cd; stroke:none;" d="M345 117L346 118L345 117z"/>
<path style="fill:#aab6bf; stroke:none;" d="M52 118L53 119L52 118M94 118L95 119L94 118M140 118L141 119L140 118z"/>
<path style="fill:#92a1ac; stroke:none;" d="M259 118L260 119L259 118z"/>
<path style="fill:#bac5cd; stroke:none;" d="M304 118L305 119L304 118z"/>
<path style="fill:#92a1ac; stroke:none;" d="M346 118L347 119L346 118z"/>
<path style="fill:#bac5cd; stroke:none;" d="M50 119L51 120L50 119M96 119L97 120L96 119M139 119L140 120L139 119M260 119L261 120L260 119M302 119L303 120L302 119z"/>
<path style="fill:#92a1ac; stroke:none;" d="M303 119L304 120L303 119z"/>
<path style="fill:#aab6bf; stroke:none;" d="M348 119L349 120L348 119z"/>
<path style="fill:#92a1ac; stroke:none;" d="M49 120L50 121L49 120M97 120L98 121L97 120M139 120L140 121L139 120z"/>
<path style="fill:#aab6bf; stroke:none;" d="M301 120L302 121L301 120z"/>
<path style="fill:#bac5cd; stroke:none;" d="M350 120L351 121L350 120M47 121L48 122L47 121M99 121L100 122L99 121z"/>
<path style="fill:#92a1ac; stroke:none;" d="M138 121L139 122L138 121M261 121L262 122L261 121M300 121L301 122L300 121z"/>
<path style="fill:#aab6bf; stroke:none;" d="M351 121L352 122L351 121M46 122L47 123L46 122M100 122L101 123L100 122z"/>
<path style="fill:#bac5cd; stroke:none;" d="M137 122L138 123L137 122z"/>
<path style="fill:#aab6bf; stroke:none;" d="M262 122L263 123L262 122z"/>
<path style="fill:#bac5cd; stroke:none;" d="M298 122L299 123L298 122z"/>
<path style="fill:#92a1ac; stroke:none;" d="M352 122L353 123L352 122M45 123L46 124L45 123M101 123L102 124L101 123z"/>
<path style="fill:#aab6bf; stroke:none;" d="M297 123L298 124L297 123z"/>
<path style="fill:#92a1ac; stroke:none;" d="M44 124L45 125L44 124M102 124L103 125L102 124z"/>
<path style="fill:#aab6bf; stroke:none;" d="M136 124L137 125L136 124z"/>
<path style="fill:#92a1ac; stroke:none;" d="M263 124L264 125L263 124M296 124L297 125L296 124z"/>
<path style="fill:#bac5cd; stroke:none;" d="M355 124L356 125L355 124z"/>
<path style="fill:#92a1ac; stroke:none;" d="M43 125L44 126L43 125M103 125L104 126L103 125z"/>
<path style="fill:#bac5cd; stroke:none;" d="M264 125L265 126L264 125z"/>
<path style="fill:#92a1ac; stroke:none;" d="M295 125L296 126L295 125z"/>
<path style="fill:#bac5cd; stroke:none;" d="M356 125L357 126L356 125z"/>
<path style="fill:#92a1ac; stroke:none;" d="M42 126L43 127L42 126M104 126L105 127L104 126M135 126L136 127L135 126M264 126L265 127L264 126M294 126L295 127L294 126z"/>
<path style="fill:#bac5cd; stroke:none;" d="M357 126L358 127L357 126z"/>
<path style="fill:#92a1ac; stroke:none;" d="M41 127L42 128L41 127M105 127L106 128L105 127z"/>
<path style="fill:#bac5cd; stroke:none;" d="M134 127L135 128L134 127M265 127L266 128L265 127z"/>
<path style="fill:#aab6bf; stroke:none;" d="M293 127L294 128L293 127z"/>
<path style="fill:#bac5cd; stroke:none;" d="M358 127L359 128L358 127z"/>
<path style="fill:#92a1ac; stroke:none;" d="M40 128L41 129L40 128M106 128L107 129L106 128M134 128L135 129L134 128z"/>
<path style="fill:#aab6bf; stroke:none;" d="M292 128L293 129L292 128z"/>
<path style="fill:#92a1ac; stroke:none;" d="M39 129L40 130L39 129z"/>
<path style="fill:#aab6bf; stroke:none;" d="M107 129L108 130L107 129z"/>
<path style="fill:#bac5cd; stroke:none;" d="M133 129L134 130L133 129z"/>
<path style="fill:#aab6bf; stroke:none;" d="M266 129L267 130L266 129z"/>
<path style="fill:#bac5cd; stroke:none;" d="M291 129L292 130L291 129z"/>
<path style="fill:#92a1ac; stroke:none;" d="M359 129L360 130L359 129z"/>
<path style="fill:#bac5cd; stroke:none;" d="M38 130L39 131L38 130M108 130L109 131L108 130z"/>
<path style="fill:#92a1ac; stroke:none;" d="M133 130L134 131L133 130M360 130L361 131L360 130z"/>
<path style="fill:#bac5cd; stroke:none;" d="M132 131L133 132L132 131M267 131L268 132L267 131z"/>
<path style="fill:#92a1ac; stroke:none;" d="M290 131L291 132L290 131z"/>
<path style="fill:#bac5cd; stroke:none;" d="M361 131L362 132L361 131z"/>
<path style="fill:#92a1ac; stroke:none;" d="M37 132L38 133L37 132M109 132L110 133L109 132M132 132L133 133L132 132M267 132L268 133L267 132z"/>
<path style="fill:#aab6bf; stroke:none;" d="M289 132L290 133L289 132z"/>
<path style="fill:#bac5cd; stroke:none;" d="M36 133L37 134L36 133M110 133L111 134L110 133M268 133L269 134L268 133z"/>
<path style="fill:#92a1ac; stroke:none;" d="M362 133L363 134L362 133M131 134L132 135L131 134M268 134L269 135L268 134M288 134L289 135L288 134z"/>
<path style="fill:#bac5cd; stroke:none;" d="M363 134L364 135L363 134z"/>
<path style="fill:#aab6bf; stroke:none;" d="M35 135L36 136L35 135M111 135L112 136L111 135z"/>
<path style="fill:#bac5cd; stroke:none;" d="M287 135L288 136L287 135z"/>
<path style="fill:#92a1ac; stroke:none;" d="M363 135L364 136L363 135z"/>
<path style="fill:#bac5cd; stroke:none;" d="M130 136L131 137L130 136z"/>
<path style="fill:#aab6bf; stroke:none;" d="M269 136L270 137L269 136z"/>
<path style="fill:#92a1ac; stroke:none;" d="M287 136L288 137L287 136z"/>
<path style="fill:#bac5cd; stroke:none;" d="M364 136L365 137L364 136z"/>
<path style="fill:#92a1ac; stroke:none;" d="M34 137L35 138L34 137M112 137L113 138L112 137M130 137L131 138L130 137z"/>
<path style="fill:#bac5cd; stroke:none;" d="M286 137L287 138L286 137z"/>
<path style="fill:#92a1ac; stroke:none;" d="M364 137L365 138L364 137z"/>
<path style="fill:#bac5cd; stroke:none;" d="M270 138L271 139L270 138z"/>
<path style="fill:#92a1ac; stroke:none;" d="M286 138L287 139L286 138z"/>
<path style="fill:#bac5cd; stroke:none;" d="M365 138L366 139L365 138z"/>
<path style="fill:#aab6bf; stroke:none;" d="M33 139L34 140L33 139M113 139L114 140L113 139M129 139L130 140L129 139z"/>
<path style="fill:#92a1ac; stroke:none;" d="M270 139L271 140L270 139z"/>
<path style="fill:#bac5cd; stroke:none;" d="M285 139L286 140L285 139z"/>
<path style="fill:#92a1ac; stroke:none;" d="M365 139L366 140L365 139M129 140L130 141L129 140M285 140L286 141L285 140z"/>
<path style="fill:#bac5cd; stroke:none;" d="M366 140L367 141L366 140M32 141L33 142L32 141M114 141L115 142L114 141M271 141L272 142L271 141z"/>
<path style="fill:#92a1ac; stroke:none;" d="M366 141L367 142L366 141M32 142L33 143L32 142M114 142L115 143L114 142z"/>
<path style="fill:#bac5cd; stroke:none;" d="M128 142L129 143L128 142z"/>
<path style="fill:#aab6bf; stroke:none;" d="M271 142L272 143L271 142z"/>
<path style="fill:#bac5cd; stroke:none;" d="M284 142L285 143L284 142z"/>
<path style="fill:#92a1ac; stroke:none;" d="M128 143L129 144L128 143M271 143L272 144L271 143M284 143L285 144L284 143z"/>
<path style="fill:#bac5cd; stroke:none;" d="M367 143L368 144L367 143M31 144L32 145L31 144M115 144L116 145L115 144z"/>
<path style="fill:#92a1ac; stroke:none;" d="M367 144L368 145L367 144M31.3333 145.667L31.6667 146.333L31.3333 145.667M115.333 145.667L115.667 146.333L115.333 145.667z"/>
<path style="fill:#bac5cd; stroke:none;" d="M272 145L273 146L272 145M283 145L284 146L283 145M127 146L128 147L127 146z"/>
<path style="fill:#aab6bf; stroke:none;" d="M272 146L273 147L272 146M283 146L284 147L283 146z"/>
<path style="fill:#92a1ac; stroke:none;" d="M127.333 147.667L127.667 148.333L127.333 147.667M272 147L273 148L272 147M283 147L284 148L283 147z"/>
<path style="fill:#bac5cd; stroke:none;" d="M368 147L369 148L368 147M30 148L31 149L30 148M116 148L117 149L116 148z"/>
<path style="fill:#aab6bf; stroke:none;" d="M368 148L369 149L368 148M30 149L31 150L30 149M116 149L117 150L116 149z"/>
<path style="fill:#92a1ac; stroke:none;" d="M368.333 149.667L368.667 150.333L368.333 149.667M30 150L30 153L31 153L30 150M116 150L116 153L117 153L116 150z"/>
<path style="fill:#bac5cd; stroke:none;" d="M273 150L274 151L273 150M282 150L283 151L282 150M126 151L127 152L126 151z"/>
<path style="fill:#aab6bf; stroke:none;" d="M273 151L274 152L273 151M282.333 151.667L282.667 152.333L282.333 151.667M126 152L127 153L126 152z"/>
<path style="fill:#92a1ac; stroke:none;" d="M273.333 152.667L273.667 153.333L273.333 152.667M126 153L126 156L127 156L126 153M282 153L282 160L283 160L282 153z"/>
<path style="fill:#bac5cd; stroke:none;" d="M369 154L369 159L370 159L369 154M274 158L274 168L275 168L274 158z"/>
<path style="fill:#92a1ac; stroke:none;" d="M30 160L30 163L31 163L30 160M116 160L116 163L117 163L116 160z"/>
<path style="fill:#aab6bf; stroke:none;" d="M282.333 160.667L282.667 161.333L282.333 160.667z"/>
<path style="fill:#bac5cd; stroke:none;" d="M125 161L125 164L126 164L125 161M282 162L283 163L282 162z"/>
<path style="fill:#92a1ac; stroke:none;" d="M368.333 162.667L368.667 163.333L368.333 162.667z"/>
<path style="fill:#aab6bf; stroke:none;" d="M30 163L31 164L30 163M116 163L117 164L116 163z"/>
<path style="fill:#bac5cd; stroke:none;" d="M30 164L31 165L30 164M116 164L117 165L116 164z"/>
<path style="fill:#aab6bf; stroke:none;" d="M368 164L369 165L368 164z"/>
<path style="fill:#92a1ac; stroke:none;" d="M283 165L284 166L283 165z"/>
<path style="fill:#bac5cd; stroke:none;" d="M368 165L369 166L368 165z"/>
<path style="fill:#92a1ac; stroke:none;" d="M31 166L32 167L31 166M115 166L116 167L115 166z"/>
<path style="fill:#aab6bf; stroke:none;" d="M283 166L284 167L283 166M31 167L32 168L31 167M115 167L116 168L115 167z"/>
<path style="fill:#bac5cd; stroke:none;" d="M283 167L284 168L283 167z"/>
<path style="fill:#92a1ac; stroke:none;" d="M367 167L368 168L367 167z"/>
<path style="fill:#bac5cd; stroke:none;" d="M31 168L32 169L31 168M115 168L116 169L115 168z"/>
<path style="fill:#aab6bf; stroke:none;" d="M367 168L368 169L367 168z"/>
<path style="fill:#92a1ac; stroke:none;" d="M284 169L285 170L284 169z"/>
<path style="fill:#bac5cd; stroke:none;" d="M367 169L368 170L367 169z"/>
<path style="fill:#92a1ac; stroke:none;" d="M32 170L33 171L32 170M114 170L115 171L114 170M126 170L126 173L127 173L126 170z"/>
<path style="fill:#bac5cd; stroke:none;" d="M284 170L285 171L284 170M32 171L33 172L32 171M114 171L115 172L114 171z"/>
<path style="fill:#92a1ac; stroke:none;" d="M273 171L273 174L274 174L273 171M366 171L367 172L366 171M285 172L286 173L285 172z"/>
<path style="fill:#bac5cd; stroke:none;" d="M366 172L367 173L366 172z"/>
<path style="fill:#aab6bf; stroke:none;" d="M33 173L34 174L33 173M113 173L114 174L113 173M126 173L127 174L126 173z"/>
<path style="fill:#bac5cd; stroke:none;" d="M285 173L286 174L285 173z"/>
<path style="fill:#92a1ac; stroke:none;" d="M365 173L366 174L365 173z"/>
<path style="fill:#bac5cd; stroke:none;" d="M126 174L127 175L126 174z"/>
<path style="fill:#aab6bf; stroke:none;" d="M273 174L274 175L273 174z"/>
<path style="fill:#92a1ac; stroke:none;" d="M286 174L287 175L286 174z"/>
<path style="fill:#bac5cd; stroke:none;" d="M365 174L366 175L365 174z"/>
<path style="fill:#92a1ac; stroke:none;" d="M34 175L35 176L34 175M112 175L113 176L112 175z"/>
<path style="fill:#bac5cd; stroke:none;" d="M273 175L274 176L273 175M286 175L287 176L286 175z"/>
<path style="fill:#92a1ac; stroke:none;" d="M364 175L365 176L364 175M287 176L288 177L287 176z"/>
<path style="fill:#bac5cd; stroke:none;" d="M364 176L365 177L364 176z"/>
<path style="fill:#aab6bf; stroke:none;" d="M35 177L36 178L35 177M111 177L112 178L111 177z"/>
<path style="fill:#92a1ac; stroke:none;" d="M127 177L128 178L127 177z"/>
<path style="fill:#bac5cd; stroke:none;" d="M287 177L288 178L287 177z"/>
<path style="fill:#92a1ac; stroke:none;" d="M363 177L364 178L363 177z"/>
<path style="fill:#aab6bf; stroke:none;" d="M127 178L128 179L127 178z"/>
<path style="fill:#92a1ac; stroke:none;" d="M272 178L273 179L272 178M288 178L289 179L288 178z"/>
<path style="fill:#bac5cd; stroke:none;" d="M363 178L364 179L363 178M36 179L37 180L36 179M110 179L111 180L110 179M127 179L128 180L127 179z"/>
<path style="fill:#aab6bf; stroke:none;" d="M272 179L273 180L272 179z"/>
<path style="fill:#92a1ac; stroke:none;" d="M362 179L363 180L362 179M37 180L38 181L37 180M109 180L110 181L109 180z"/>
<path style="fill:#bac5cd; stroke:none;" d="M272 180L273 181L272 180M289 180L290 181L289 180z"/>
<path style="fill:#92a1ac; stroke:none;" d="M128 181L129 182L128 181M290 181L291 182L290 181z"/>
<path style="fill:#bac5cd; stroke:none;" d="M361 181L362 182L361 181M38 182L39 183L38 182M108 182L109 183L108 182z"/>
<path style="fill:#aab6bf; stroke:none;" d="M128 182L129 183L128 182z"/>
<path style="fill:#92a1ac; stroke:none;" d="M271 182L272 183L271 182z"/>
<path style="fill:#aab6bf; stroke:none;" d="M360 182L361 183L360 182M39 183L40 184L39 183M107 183L108 184L107 183z"/>
<path style="fill:#bac5cd; stroke:none;" d="M128 183L129 184L128 183z"/>
<path style="fill:#aab6bf; stroke:none;" d="M271 183L272 184L271 183z"/>
<path style="fill:#bac5cd; stroke:none;" d="M291 183L292 184L291 183z"/>
<path style="fill:#92a1ac; stroke:none;" d="M359 183L360 184L359 183M40 184L41 185L40 184M106 184L107 185L106 184z"/>
<path style="fill:#bac5cd; stroke:none;" d="M292 184L293 185L292 184z"/>
<path style="fill:#92a1ac; stroke:none;" d="M41 185L42 186L41 185M105 185L106 186L105 185M129 185L130 186L129 185M270 185L271 186L270 185z"/>
<path style="fill:#aab6bf; stroke:none;" d="M293 185L294 186L293 185z"/>
<path style="fill:#92a1ac; stroke:none;" d="M42 186L43 187L42 186M104 186L105 187L104 186z"/>
<path style="fill:#bac5cd; stroke:none;" d="M129 186L130 187L129 186z"/>
<path style="fill:#aab6bf; stroke:none;" d="M270 186L271 187L270 186z"/>
<path style="fill:#92a1ac; stroke:none;" d="M294 186L295 187L294 186z"/>
<path style="fill:#bac5cd; stroke:none;" d="M357 186L358 187L357 186z"/>
<path style="fill:#92a1ac; stroke:none;" d="M43 187L44 188L43 187M103 187L104 188L103 187z"/>
<path style="fill:#aab6bf; stroke:none;" d="M295 187L296 188L295 187z"/>
<path style="fill:#bac5cd; stroke:none;" d="M356 187L357 188L356 187z"/>
<path style="fill:#92a1ac; stroke:none;" d="M44 188L45 189L44 188M102 188L103 189L102 188M130 188L131 189L130 188M269 188L270 189L269 188z"/>
<path style="fill:#aab6bf; stroke:none;" d="M296 188L297 189L296 188z"/>
<path style="fill:#92a1ac; stroke:none;" d="M45 189L46 190L45 189M101 189L102 190L101 189z"/>
<path style="fill:#bac5cd; stroke:none;" d="M130 189L131 190L130 189z"/>
<path style="fill:#aab6bf; stroke:none;" d="M269 189L270 190L269 189z"/>
<path style="fill:#bac5cd; stroke:none;" d="M297 189L298 190L297 189z"/>
<path style="fill:#92a1ac; stroke:none;" d="M353 189L354 190L353 189z"/>
<path style="fill:#bac5cd; stroke:none;" d="M46 190L47 191L46 190M100 190L101 191L100 190M298 190L299 191L298 190z"/>
<path style="fill:#92a1ac; stroke:none;" d="M352 190L353 191L352 190z"/>
<path style="fill:#bac5cd; stroke:none;" d="M47 191L48 192L47 191z"/>
<path style="fill:#92a1ac; stroke:none;" d="M48 191L49 192L48 191M98 191L99 192L98 191z"/>
<path style="fill:#bac5cd; stroke:none;" d="M99 191L100 192L99 191z"/>
<path style="fill:#aab6bf; stroke:none;" d="M131 191L132 192L131 191z"/>
<path style="fill:#92a1ac; stroke:none;" d="M268 191L269 192L268 191M300 191L301 192L300 191z"/>
<path style="fill:#bac5cd; stroke:none;" d="M351 191L352 192L351 191z"/>
<path style="fill:#92a1ac; stroke:none;" d="M49 192L50 193L49 192M97 192L98 193L97 192z"/>
<path style="fill:#bac5cd; stroke:none;" d="M268 192L269 193L268 192z"/>
<path style="fill:#aab6bf; stroke:none;" d="M301 192L302 193L301 192z"/>
<path style="fill:#92a1ac; stroke:none;" d="M349 192L350 193L349 192z"/>
<path style="fill:#bac5cd; stroke:none;" d="M50 193L51 194L50 193z"/>
<path style="fill:#92a1ac; stroke:none;" d="M51 193L52 194L51 193M95 193L96 194L95 193z"/>
<path style="fill:#bac5cd; stroke:none;" d="M96 193L97 194L96 193z"/>
<path style="fill:#92a1ac; stroke:none;" d="M132 193L133 194L132 193M267 193L268 194L267 193M303 193L304 194L303 193z"/>
<path style="fill:#aab6bf; stroke:none;" d="M348 193L349 194L348 193z"/>
<path style="fill:#bac5cd; stroke:none;" d="M52 194L53 195L52 194M94 194L95 195L94 194M267 194L268 195L267 194M304 194L305 195L304 194z"/>
<path style="fill:#92a1ac; stroke:none;" d="M305 194L306 195L305 194z"/>
<path style="fill:#aab6bf; stroke:none;" d="M346 194L347 195L346 194M54 195L55 196L54 195M92 195L93 196L92 195z"/>
<path style="fill:#92a1ac; stroke:none;" d="M133 195L134 196L133 195M266 195L267 196L266 195z"/>
<path style="fill:#bac5cd; stroke:none;" d="M306 195L307 196L306 195z"/>
<path style="fill:#92a1ac; stroke:none;" d="M307 195L308 196L307 195M344 195L345 196L344 195z"/>
<path style="fill:#bac5cd; stroke:none;" d="M56 196L57 197L56 196z"/>
<path style="fill:#92a1ac; stroke:none;" d="M57 196L58 197L57 196M89 196L90 197L89 196z"/>
<path style="fill:#bac5cd; stroke:none;" d="M90 196L91 197L90 196M266 196L267 197L266 196M308 196L309 197L308 196z"/>
<path style="fill:#92a1ac; stroke:none;" d="M309 196L310 197L309 196z"/>
<path style="fill:#aab6bf; stroke:none;" d="M342 196L343 197L342 196M59 197L60 198L59 197M87 197L88 198L87 197z"/>
<path style="fill:#92a1ac; stroke:none;" d="M134 197L135 198L134 197M265 197L266 198L265 197z"/>
<path style="fill:#bac5cd; stroke:none;" d="M311 197L312 198L311 197z"/>
<path style="fill:#92a1ac; stroke:none;" d="M312 197L313 198L312 197M339 197L340 198L339 197z"/>
<path style="fill:#bac5cd; stroke:none;" d="M340 197L341 198L340 197M62 198L63 199L62 198z"/>
<path style="fill:#92a1ac; stroke:none;" d="M63.6667 198.333L64.3333 198.667L63.6667 198.333M82.6667 198.333L83.3333 198.667L82.6667 198.333z"/>
<path style="fill:#bac5cd; stroke:none;" d="M84 198L85 199L84 198M265 198L266 199L265 198M314 198L315 199L314 198z"/>
<path style="fill:#aab6bf; stroke:none;" d="M315 198L316 199L315 198z"/>
<path style="fill:#92a1ac; stroke:none;" d="M316 198L317 199L316 198M335 198L336 199L335 198z"/>
<path style="fill:#aab6bf; stroke:none;" d="M336 198L337 199L336 198z"/>
<path style="fill:#bac5cd; stroke:none;" d="M337 198L338 199L337 198M66.6667 199.333L67.3333 199.667L66.6667 199.333z"/>
<path style="fill:#aab6bf; stroke:none;" d="M68 199L69 200L68 199z"/>
<path style="fill:#92a1ac; stroke:none;" d="M69 199L69 200L78 200L69 199z"/>
<path style="fill:#aab6bf; stroke:none;" d="M78 199L79 200L78 199z"/>
<path style="fill:#bac5cd; stroke:none;" d="M79.6667 199.333L80.3333 199.667L79.6667 199.333z"/>
<path style="fill:#aab6bf; stroke:none;" d="M135 199L136 200L135 199z"/>
<path style="fill:#92a1ac; stroke:none;" d="M264 199L265 200L264 199z"/>
<path style="fill:#bac5cd; stroke:none;" d="M319 199L320 200L319 199z"/>
<path style="fill:#aab6bf; stroke:none;" d="M320.667 199.333L321.333 199.667L320.667 199.333z"/>
<path style="fill:#92a1ac; stroke:none;" d="M322 199L322 200L330 200L322 199z"/>
<path style="fill:#aab6bf; stroke:none;" d="M330 199L331 200L330 199z"/>
<path style="fill:#bac5cd; stroke:none;" d="M331.667 199.333L332.333 199.667L331.667 199.333M136 201L137 202L136 201z"/>
<path style="fill:#aab6bf; stroke:none;" d="M263 201L264 202L263 201z"/>
<path style="fill:#92a1ac; stroke:none;" d="M137 202L138 203L137 202M262 202L263 203L262 202z"/>
<path style="fill:#bac5cd; stroke:none;" d="M262 203L263 204L262 203M138 204L139 205L138 204z"/>
<path style="fill:#aab6bf; stroke:none;" d="M261 204L262 205L261 204z"/>
<path style="fill:#bac5cd; stroke:none;" d="M61.6667 205.333L62.3333 205.667L61.6667 205.333z"/>
<path style="fill:#aab6bf; stroke:none;" d="M63 205L64 206L63 205z"/>
<path style="fill:#92a1ac; stroke:none;" d="M64.6667 205.333L65.3333 205.667L64.6667 205.333z"/>
<path style="fill:#677987; stroke:none;" d="M0 400L400 400L400 302C400 279.138 401.653 257.932 388.251 238C355.358 189.081 268.59 196.575 254 258C219.821 239.797 179.589 244.585 145 258C143.486 249.205 138.438 241.016 133.101 234C103.342 194.878 40.9339 196.308 12.4282 236C-1.86254 255.899 0 276.735 0 300L0 400z"/>
<path style="fill:#92a1ac; stroke:none;" d="M80 205L80 206L83 206L80 205z"/>
<path style="fill:#aab6bf; stroke:none;" d="M83 205L84 206L83 205z"/>
<path style="fill:#bac5cd; stroke:none;" d="M84.6667 205.333L85.3333 205.667L84.6667 205.333z"/>
<path style="fill:#92a1ac; stroke:none;" d="M139 205L140 206L139 205M260 205L261 206L260 205z"/>
<path style="fill:#bac5cd; stroke:none;" d="M314 205L315 206L314 205z"/>
<path style="fill:#aab6bf; stroke:none;" d="M315 205L316 206L315 205z"/>
<path style="fill:#92a1ac; stroke:none;" d="M316 205L316 206L319 206L316 205M333 205L333 206L336 206L333 205z"/>
<path style="fill:#aab6bf; stroke:none;" d="M336 205L337 206L336 205z"/>
<path style="fill:#bac5cd; stroke:none;" d="M337 205L338 206L337 205M56 206L57 207L56 206z"/>
<path style="fill:#aab6bf; stroke:none;" d="M57 206L58 207L57 206z"/>
<path style="fill:#92a1ac; stroke:none;" d="M58 206L59 207L58 206M88 206L89 207L88 206z"/>
<path style="fill:#aab6bf; stroke:none;" d="M89 206L90 207L89 206z"/>
<path style="fill:#bac5cd; stroke:none;" d="M90 206L91 207L90 206M260 206L261 207L260 206z"/>
<path style="fill:#aab6bf; stroke:none;" d="M309 206L310 207L309 206z"/>
<path style="fill:#92a1ac; stroke:none;" d="M310.667 206.333L311.333 206.667L310.667 206.333M340 206L341 207L340 206z"/>
<path style="fill:#aab6bf; stroke:none;" d="M341 206L342 207L341 206z"/>
<path style="fill:#bac5cd; stroke:none;" d="M342 206L343 207L342 206M52 207L53 208L52 207z"/>
<path style="fill:#aab6bf; stroke:none;" d="M53 207L54 208L53 207z"/>
<path style="fill:#92a1ac; stroke:none;" d="M54 207L55 208L54 207M92 207L93 208L92 207z"/>
<path style="fill:#aab6bf; stroke:none;" d="M93 207L94 208L93 207z"/>
<path style="fill:#bac5cd; stroke:none;" d="M94 207L95 208L94 207M140 207L141 208L140 207z"/>
<path style="fill:#aab6bf; stroke:none;" d="M259 207L260 208L259 207z"/>
<path style="fill:#bac5cd; stroke:none;" d="M305 207L306 208L305 207z"/>
<path style="fill:#92a1ac; stroke:none;" d="M306 207L307 208L306 207M344.667 207.333L345.333 207.667L344.667 207.333z"/>
<path style="fill:#bac5cd; stroke:none;" d="M346 207L347 208L346 207M49 208L50 209L49 208z"/>
<path style="fill:#92a1ac; stroke:none;" d="M50 208L51 209L50 208M96 208L97 209L96 208z"/>
<path style="fill:#bac5cd; stroke:none;" d="M97 208L98 209L97 208z"/>
<path style="fill:#aab6bf; stroke:none;" d="M141 208L142 209L141 208z"/>
<path style="fill:#92a1ac; stroke:none;" d="M258 208L259 209L258 208z"/>
<path style="fill:#aab6bf; stroke:none;" d="M302 208L303 209L302 208z"/>
<path style="fill:#92a1ac; stroke:none;" d="M303 208L304 209L303 208M348 208L349 209L348 208z"/>
<path style="fill:#bac5cd; stroke:none;" d="M349 208L350 209L349 208M46 209L47 210L46 209z"/>
<path style="fill:#92a1ac; stroke:none;" d="M47 209L48 210L47 209z"/>
<path style="fill:#aab6bf; stroke:none;" d="M99 209L100 210L99 209z"/>
<path style="fill:#92a1ac; stroke:none;" d="M142 209L143 210L142 209M257 209L258 210L257 209z"/>
<path style="fill:#aab6bf; stroke:none;" d="M299 209L300 210L299 209z"/>
<path style="fill:#92a1ac; stroke:none;" d="M300 209L301 210L300 209M351 209L352 210L351 209z"/>
<path style="fill:#bac5cd; stroke:none;" d="M352 209L353 210L352 209z"/>
<path style="fill:#aab6bf; stroke:none;" d="M44 210L45 211L44 210z"/>
<path style="fill:#92a1ac; stroke:none;" d="M45 210L46 211L45 210M101 210L102 211L101 210z"/>
<path style="fill:#aab6bf; stroke:none;" d="M102 210L103 211L102 210z"/>
<path style="fill:#92a1ac; stroke:none;" d="M143 210L144 211L143 210z"/>
<path style="fill:#bac5cd; stroke:none;" d="M296 210L297 211L296 210z"/>
<path style="fill:#92a1ac; stroke:none;" d="M297 210L298 211L297 210z"/>
<path style="fill:#aab6bf; stroke:none;" d="M354 210L355 211L354 210M42 211L43 212L42 211M104 211L105 212L104 211z"/>
<path style="fill:#bac5cd; stroke:none;" d="M256 211L257 212L256 211M294 211L295 212L294 211z"/>
<path style="fill:#92a1ac; stroke:none;" d="M295 211L296 212L295 211M356 211L357 212L356 211M40 212L41 213L40 212z"/>
<path style="fill:#aab6bf; stroke:none;" d="M106 212L107 213L106 212z"/>
<path style="fill:#bac5cd; stroke:none;" d="M144 212L145 213L144 212M255 212L256 213L255 212M292 212L293 213L292 212z"/>
<path style="fill:#92a1ac; stroke:none;" d="M358 212L359 213L358 212z"/>
<path style="fill:#bac5cd; stroke:none;" d="M359 212L360 213L359 212z"/>
<path style="fill:#aab6bf; stroke:none;" d="M38 213L39 214L38 213M108 213L109 214L108 213z"/>
<path style="fill:#bac5cd; stroke:none;" d="M145 213L146 214L145 213M254 213L255 214L254 213M290 213L291 214L290 213z"/>
<path style="fill:#92a1ac; stroke:none;" d="M360 213L361 214L360 213z"/>
<path style="fill:#bac5cd; stroke:none;" d="M361 213L362 214L361 213z"/>
<path style="fill:#aab6bf; stroke:none;" d="M36 214L37 215L36 214M110 214L111 215L110 214z"/>
<path style="fill:#bac5cd; stroke:none;" d="M146 214L147 215L146 214M253 214L254 215L253 214M288 214L289 215L288 214z"/>
<path style="fill:#92a1ac; stroke:none;" d="M289 214L290 215L289 214M362 214L363 215L362 214z"/>
<path style="fill:#bac5cd; stroke:none;" d="M34 215L35 216L34 215M112 215L113 216L112 215M147 215L148 216L147 215M252 215L253 216L252 215M286 215L287 216L286 215z"/>
<path style="fill:#92a1ac; stroke:none;" d="M287 215L288 216L287 215z"/>
<path style="fill:#aab6bf; stroke:none;" d="M364 215L365 216L364 215z"/>
<path style="fill:#92a1ac; stroke:none;" d="M33 216L34 217L33 216M113 216L114 217L113 216z"/>
<path style="fill:#bac5cd; stroke:none;" d="M148 216L149 217L148 216M251 216L252 217L251 216z"/>
<path style="fill:#aab6bf; stroke:none;" d="M285 216L286 217L285 216z"/>
<path style="fill:#92a1ac; stroke:none;" d="M365 216L366 217L365 216z"/>
<path style="fill:#bac5cd; stroke:none;" d="M366 216L367 217L366 216z"/>
<path style="fill:#aab6bf; stroke:none;" d="M31 217L32 218L31 217z"/>
<path style="fill:#bac5cd; stroke:none;" d="M115 217L116 218L115 217M149 217L150 218L149 217M250 217L251 218L250 217M283 217L284 218L283 217z"/>
<path style="fill:#92a1ac; stroke:none;" d="M284 217L285 218L284 217M367 217L368 218L367 217M30 218L31 219L30 218M116 218L117 219L116 218z"/>
<path style="fill:#bac5cd; stroke:none;" d="M249 218L250 219L249 218z"/>
<path style="fill:#aab6bf; stroke:none;" d="M282 218L283 219L282 218z"/>
<path style="fill:#92a1ac; stroke:none;" d="M368 218L369 219L368 218z"/>
<path style="fill:#bac5cd; stroke:none;" d="M369 218L370 219L369 218M28 219L29 220L28 219M118 219L119 220L118 219z"/>
<path style="fill:#92a1ac; stroke:none;" d="M152 219L153 220L152 219z"/>
<path style="fill:#bac5cd; stroke:none;" d="M248 219L249 220L248 219z"/>
<path style="fill:#92a1ac; stroke:none;" d="M281 219L282 220L281 219z"/>
<path style="fill:#aab6bf; stroke:none;" d="M370 219L371 220L370 219M27 220L28 221L27 220M119 220L120 221L119 220z"/>
<path style="fill:#92a1ac; stroke:none;" d="M153 220L154 221L153 220M246 220L247 221L246 220z"/>
<path style="fill:#bac5cd; stroke:none;" d="M279 220L280 221L279 220z"/>
<path style="fill:#92a1ac; stroke:none;" d="M371 220L372 221L371 220M26 221L27 222L26 221M120 221L121 222L120 221z"/>
<path style="fill:#bac5cd; stroke:none;" d="M154 221L155 222L154 221z"/>
<path style="fill:#aab6bf; stroke:none;" d="M245 221L246 222L245 221M278 221L279 222L278 221z"/>
<path style="fill:#bac5cd; stroke:none;" d="M373 221L374 222L373 221M24 222L25 223L24 222M155 222L156 223L155 222z"/>
<path style="fill:#92a1ac; stroke:none;" d="M156 222L157 223L156 222z"/>
<path style="fill:#bac5cd; stroke:none;" d="M244 222L245 223L244 222z"/>
<path style="fill:#92a1ac; stroke:none;" d="M277 222L278 223L277 222z"/>
<path style="fill:#bac5cd; stroke:none;" d="M374 222L375 223L374 222M23 223L24 224L23 223M123 223L124 224L123 223z"/>
<path style="fill:#92a1ac; stroke:none;" d="M157 223L158 224L157 223M242 223L243 224L242 223M276 223L277 224L276 223z"/>
<path style="fill:#aab6bf; stroke:none;" d="M375 223L376 224L375 223z"/>
<path style="fill:#bac5cd; stroke:none;" d="M22 224L23 225L22 224M124 224L125 225L124 224M158 224L159 225L158 224z"/>
<path style="fill:#aab6bf; stroke:none;" d="M241 224L242 225L241 224z"/>
<path style="fill:#92a1ac; stroke:none;" d="M376 224L377 225L376 224z"/>
<path style="fill:#aab6bf; stroke:none;" d="M21 225L22 226L21 225z"/>
<path style="fill:#bac5cd; stroke:none;" d="M125 225L126 226L125 225z"/>
<path style="fill:#92a1ac; stroke:none;" d="M160 225L161 226L160 225M239 225L240 226L239 225M377 225L378 226L377 225z"/>
<path style="fill:#aab6bf; stroke:none;" d="M20 226L21 227L20 226z"/>
<path style="fill:#bac5cd; stroke:none;" d="M126 226L127 227L126 226M161 226L162 227L161 226z"/>
<path style="fill:#92a1ac; stroke:none;" d="M162 226L163 227L162 226z"/>
<path style="fill:#bac5cd; stroke:none;" d="M238 226L239 227L238 226M272 226L273 227L272 226z"/>
<path style="fill:#92a1ac; stroke:none;" d="M378 226L379 227L378 226z"/>
<path style="fill:#aab6bf; stroke:none;" d="M19 227L20 228L19 227z"/>
<path style="fill:#bac5cd; stroke:none;" d="M127 227L128 228L127 227z"/>
<path style="fill:#aab6bf; stroke:none;" d="M163 227L164 228L163 227M236 227L237 228L236 227z"/>
<path style="fill:#bac5cd; stroke:none;" d="M271 227L272 228L271 227z"/>
<path style="fill:#92a1ac; stroke:none;" d="M379 227L380 228L379 227z"/>
<path style="fill:#aab6bf; stroke:none;" d="M18 228L19 229L18 228z"/>
<path style="fill:#bac5cd; stroke:none;" d="M128 228L129 229L128 228z"/>
<path style="fill:#aab6bf; stroke:none;" d="M165 228L166 229L165 228z"/>
<path style="fill:#92a1ac; stroke:none;" d="M234 228L235 229L234 228M380 228L381 229L380 228z"/>
<path style="fill:#bac5cd; stroke:none;" d="M17 229L18 230L17 229M129 229L130 230L129 229z"/>
<path style="fill:#92a1ac; stroke:none;" d="M167 229L168 230L167 229M232 229L233 230L232 229M381 229L382 230L381 229z"/>
<path style="fill:#bac5cd; stroke:none;" d="M16 230L17 231L16 230M130 230L131 231L130 230z"/>
<path style="fill:#aab6bf; stroke:none;" d="M169 230L170 231L169 230z"/>
<path style="fill:#92a1ac; stroke:none;" d="M230 230L231 231L230 230M269 230L270 231L269 230z"/>
<path style="fill:#aab6bf; stroke:none;" d="M382 230L383 231L382 230z"/>
<path style="fill:#bac5cd; stroke:none;" d="M15 231L16 232L15 231M131 231L132 232L131 231M171 231L172 232L171 231z"/>
<path style="fill:#92a1ac; stroke:none;" d="M172 231L173 232L172 231M227 231L228 232L227 231z"/>
<path style="fill:#aab6bf; stroke:none;" d="M228 231L229 232L228 231z"/>
<path style="fill:#92a1ac; stroke:none;" d="M268 231L269 232L268 231z"/>
<path style="fill:#bac5cd; stroke:none;" d="M383 231L384 232L383 231z"/>
<path style="fill:#aab6bf; stroke:none;" d="M174 232L175 233L174 232z"/>
<path style="fill:#92a1ac; stroke:none;" d="M225 232L226 233L225 232z"/>
<path style="fill:#bac5cd; stroke:none;" d="M226 232L227 233L226 232z"/>
<path style="fill:#92a1ac; stroke:none;" d="M267 232L268 233L267 232z"/>
<path style="fill:#bac5cd; stroke:none;" d="M384 232L385 233L384 232z"/>
<path style="fill:#92a1ac; stroke:none;" d="M14 233L15 234L14 233M132 233L133 234L132 233z"/>
<path style="fill:#bac5cd; stroke:none;" d="M176 233L177 234L176 233z"/>
<path style="fill:#92a1ac; stroke:none;" d="M177 233L178 234L177 233M222 233L223 234L222 233z"/>
<path style="fill:#bac5cd; stroke:none;" d="M223 233L224 234L223 233z"/>
<path style="fill:#aab6bf; stroke:none;" d="M266 233L267 234L266 233M13 234L14 235L13 234M133 234L134 235L133 234z"/>
<path style="fill:#bac5cd; stroke:none;" d="M179 234L180 235L179 234z"/>
<path style="fill:#aab6bf; stroke:none;" d="M180 234L181 235L180 234z"/>
<path style="fill:#92a1ac; stroke:none;" d="M181 234L182 235L181 234M218 234L219 235L218 234z"/>
<path style="fill:#aab6bf; stroke:none;" d="M219 234L220 235L219 234z"/>
<path style="fill:#bac5cd; stroke:none;" d="M220 234L221 235L220 234M265 234L266 235L265 234z"/>
<path style="fill:#92a1ac; stroke:none;" d="M385 234L386 235L385 234z"/>
<path style="fill:#bac5cd; stroke:none;" d="M12 235L13 236L12 235M134 235L135 236L134 235M183 235L184 236L183 235z"/>
<path style="fill:#aab6bf; stroke:none;" d="M184 235L185 236L184 235z"/>
<path style="fill:#92a1ac; stroke:none;" d="M185.667 235.333L186.333 235.667L185.667 235.333M213.667 235.333L214.333 235.667L213.667 235.333z"/>
<path style="fill:#aab6bf; stroke:none;" d="M215 235L216 236L215 235z"/>
<path style="fill:#bac5cd; stroke:none;" d="M216 235L217 236L216 235z"/>
<path style="fill:#aab6bf; stroke:none;" d="M386 235L387 236L386 235z"/>
<path style="fill:#bac5cd; stroke:none;" d="M188.667 236.333L189.333 236.667L188.667 236.333z"/>
<path style="fill:#aab6bf; stroke:none;" d="M190.667 236.333L191.333 236.667L190.667 236.333z"/>
<path style="fill:#92a1ac; stroke:none;" d="M192.667 236.333L193.333 236.667L192.667 236.333M206 236L206 237L209 237L206 236z"/>
<path style="fill:#aab6bf; stroke:none;" d="M209 236L210 237L209 236z"/>
<path style="fill:#bac5cd; stroke:none;" d="M210.667 236.333L211.333 236.667L210.667 236.333z"/>
<path style="fill:#92a1ac; stroke:none;" d="M264 236L265 237L264 236z"/>
<path style="fill:#bac5cd; stroke:none;" d="M387 236L388 237L387 236z"/>
<path style="fill:#92a1ac; stroke:none;" d="M11 237L12 238L11 237M135 237L136 238L135 237z"/>
<path style="fill:#aab6bf; stroke:none;" d="M263 237L264 238L263 237z"/>
<path style="fill:#bac5cd; stroke:none;" d="M10 238L11 239L10 238M136 238L137 239L136 238z"/>
<path style="fill:#92a1ac; stroke:none;" d="M388 238L389 239L388 238M262 239L263 240L262 239z"/>
<path style="fill:#bac5cd; stroke:none;" d="M389 239L390 240L389 239z"/>
<path style="fill:#92a1ac; stroke:none;" d="M9 240L10 241L9 240M137 240L138 241L137 240z"/>
<path style="fill:#aab6bf; stroke:none;" d="M261 240L262 241L261 240z"/>
<path style="fill:#bac5cd; stroke:none;" d="M8 241L9 242L8 241M138 241L139 242L138 241z"/>
<path style="fill:#aab6bf; stroke:none;" d="M390 241L391 242L390 241z"/>
<path style="fill:#92a1ac; stroke:none;" d="M260 242L261 243L260 242z"/>
<path style="fill:#bac5cd; stroke:none;" d="M391 242L392 243L391 242z"/>
<path style="fill:#aab6bf; stroke:none;" d="M7 243L8 244L7 243M139 243L140 244L139 243z"/>
<path style="fill:#bac5cd; stroke:none;" d="M259 243L260 244L259 243z"/>
<path style="fill:#92a1ac; stroke:none;" d="M391 243L392 244L391 243M259 244L260 245L259 244z"/>
<path style="fill:#bac5cd; stroke:none;" d="M392 244L393 245L392 244z"/>
<path style="fill:#aab6bf; stroke:none;" d="M6 245L7 246L6 245M140 245L141 246L140 245z"/>
<path style="fill:#bac5cd; stroke:none;" d="M194 245L194 246L206 246L194 245M258 245L259 246L258 245z"/>
<path style="fill:#92a1ac; stroke:none;" d="M392 245L393 246L392 245z"/>
<path style="fill:#bac5cd; stroke:none;" d="M183.667 246.333L184.333 246.667L183.667 246.333z"/>
<path style="fill:#aab6bf; stroke:none;" d="M185 246L186 247L185 246z"/>
<path style="fill:#92a1ac; stroke:none;" d="M186 246L186 247L189 247L186 246M211 246L211 247L214 247L211 246z"/>
<path style="fill:#aab6bf; stroke:none;" d="M214 246L215 247L214 246z"/>
<path style="fill:#bac5cd; stroke:none;" d="M215.667 246.333L216.333 246.667L215.667 246.333z"/>
<path style="fill:#92a1ac; stroke:none;" d="M258 246L259 247L258 246z"/>
<path style="fill:#bac5cd; stroke:none;" d="M393 246L394 247L393 246z"/>
<path style="fill:#aab6bf; stroke:none;" d="M5 247L6 248L5 247M141 247L142 248L141 247z"/>
<path style="fill:#bac5cd; stroke:none;" d="M177 247L178 248L177 247z"/>
<path style="fill:#aab6bf; stroke:none;" d="M178 247L179 248L178 247z"/>
<path style="fill:#92a1ac; stroke:none;" d="M179.667 247.333L180.333 247.667L179.667 247.333M219.667 247.333L220.333 247.667L219.667 247.333z"/>
<path style="fill:#aab6bf; stroke:none;" d="M221 247L222 248L221 247z"/>
<path style="fill:#bac5cd; stroke:none;" d="M222 247L223 248L222 247M257 247L258 248L257 247z"/>
<path style="fill:#92a1ac; stroke:none;" d="M393 247L394 248L393 247z"/>
<path style="fill:#bac5cd; stroke:none;" d="M172 248L173 249L172 248z"/>
<path style="fill:#aab6bf; stroke:none;" d="M173 248L174 249L173 248z"/>
<path style="fill:#92a1ac; stroke:none;" d="M174 248L175 249L174 248M225 248L226 249L225 248z"/>
<path style="fill:#aab6bf; stroke:none;" d="M226 248L227 249L226 248z"/>
<path style="fill:#bac5cd; stroke:none;" d="M227 248L228 249L227 248z"/>
<path style="fill:#92a1ac; stroke:none;" d="M257 248L258 249L257 248z"/>
<path style="fill:#bac5cd; stroke:none;" d="M394 248L395 249L394 248z"/>
<path style="fill:#aab6bf; stroke:none;" d="M4 249L5 250L4 249M142 249L143 250L142 249z"/>
<path style="fill:#bac5cd; stroke:none;" d="M168 249L169 250L168 249z"/>
<path style="fill:#aab6bf; stroke:none;" d="M169 249L170 250L169 249z"/>
<path style="fill:#92a1ac; stroke:none;" d="M170 249L171 250L170 249M229.667 249.333L230.333 249.667L229.667 249.333z"/>
<path style="fill:#bac5cd; stroke:none;" d="M231 249L232 250L231 249M256 249L257 250L256 249z"/>
<path style="fill:#92a1ac; stroke:none;" d="M394 249L395 250L394 249z"/>
<path style="fill:#bac5cd; stroke:none;" d="M164 250L165 251L164 250z"/>
<path style="fill:#aab6bf; stroke:none;" d="M165 250L166 251L165 250z"/>
<path style="fill:#92a1ac; stroke:none;" d="M166 250L167 251L166 250M233 250L234 251L233 250z"/>
<path style="fill:#aab6bf; stroke:none;" d="M234 250L235 251L234 250z"/>
<path style="fill:#bac5cd; stroke:none;" d="M235 250L236 251L235 250z"/>
<path style="fill:#92a1ac; stroke:none;" d="M256 250L257 251L256 250z"/>
<path style="fill:#bac5cd; stroke:none;" d="M395 250L396 251L395 250M3 251L4 252L3 251M143 251L144 252L143 251M161 251L162 252L161 251z"/>
<path style="fill:#92a1ac; stroke:none;" d="M162 251L163 252L162 251M237 251L238 252L237 251z"/>
<path style="fill:#bac5cd; stroke:none;" d="M238 251L239 252L238 251z"/>
<path style="fill:#92a1ac; stroke:none;" d="M395 251L396 252L395 251M3 252L4 253L3 252M143 252L144 253L143 252z"/>
<path style="fill:#bac5cd; stroke:none;" d="M158 252L159 253L158 252z"/>
<path style="fill:#92a1ac; stroke:none;" d="M159 252L160 253L159 252M240 252L241 253L240 252z"/>
<path style="fill:#bac5cd; stroke:none;" d="M241 252L242 253L241 252z"/>
<path style="fill:#aab6bf; stroke:none;" d="M255 252L256 253L255 252z"/>
<path style="fill:#bac5cd; stroke:none;" d="M155 253L156 254L155 253z"/>
<path style="fill:#92a1ac; stroke:none;" d="M156 253L157 254L156 253M243 253L244 254L243 253z"/>
<path style="fill:#bac5cd; stroke:none;" d="M244 253L245 254L244 253z"/>
<path style="fill:#aab6bf; stroke:none;" d="M396 253L397 254L396 253M2 254L3 255L2 254M144 254L145 255L144 254M153 254L154 255L153 254z"/>
<path style="fill:#92a1ac; stroke:none;" d="M246 254L247 255L246 254z"/>
<path style="fill:#bac5cd; stroke:none;" d="M247 254L248 255L247 254M254 254L255 255L254 254z"/>
<path style="fill:#92a1ac; stroke:none;" d="M396 254L397 255L396 254z"/>
<path style="fill:#bac5cd; stroke:none;" d="M150 255L151 256L150 255z"/>
<path style="fill:#92a1ac; stroke:none;" d="M151 255L152 256L151 255M248 255L249 256L248 255z"/>
<path style="fill:#aab6bf; stroke:none;" d="M249 255L250 256L249 255z"/>
<path style="fill:#92a1ac; stroke:none;" d="M254 255L255 256L254 255z"/>
<path style="fill:#bac5cd; stroke:none;" d="M1 256L2 257L1 256M145 256L146 257L145 256z"/>
<path style="fill:#aab6bf; stroke:none;" d="M148 256L149 257L148 256z"/>
<path style="fill:#92a1ac; stroke:none;" d="M251 256L252 257L251 256z"/>
<path style="fill:#aab6bf; stroke:none;" d="M397 256L398 257L397 256M1 257L2 258L1 257z"/>
<path style="fill:#92a1ac; stroke:none;" d="M145.667 257.333L146.333 257.667L145.667 257.333M253 257L254 258L253 257M397 257L398 258L397 257M1 258L2 259L1 258z"/>
<path style="fill:#aab6bf; stroke:none;" d="M398 259L399 260L398 259M0 260L1 261L0 260z"/>
<path style="fill:#92a1ac; stroke:none;" d="M398 260L399 261L398 260M0 261L1 262L0 261z"/>
<path style="fill:#bac5cd; stroke:none;" d="M399 262L400 263L399 262z"/>
<path style="fill:#aab6bf; stroke:none;" d="M399 263L400 264L399 263z"/>
<path style="fill:#92a1ac; stroke:none;" d="M399 264L400 265L399 264z"/>
</svg>
