<?xml version="1.0" standalone="no"?>
<!DOCTYPE svg PUBLIC "-//W3C//DTD SVG 20010904//EN"
 "http://www.w3.org/TR/2001/REC-SVG-20010904/DTD/svg10.dtd">
<svg version="1.0" xmlns="http://www.w3.org/2000/svg"
 width="512.000000pt" height="512.000000pt" viewBox="0 0 512.000000 512.000000"
 preserveAspectRatio="xMidYMid meet">

<g transform="translate(0.000000,512.000000) scale(0.100000,-0.100000)"
fill="#000000" stroke="none">
<path d="M3045 4671 c-28 -13 -370 -349 -1107 -1087 l-1066 -1069 -12 -55 c-8
-39 -11 -198 -8 -541 l3 -486 30 -48 c22 -36 45 -57 84 -77 l53 -28 495 0
c345 0 508 4 537 12 36 10 179 149 1104 1072 659 657 1071 1076 1084 1101 29
55 29 137 1 190 -32 59 -978 1000 -1025 1020 -50 20 -124 19 -173 -4z"/>
<path d="M980 834 c-173 -75 -161 -342 18 -394 26 -8 505 -10 1584 -8 l1546 3
44 30 c138 97 118 306 -34 370 -33 13 -210 15 -1580 15 -1356 -1 -1547 -3
-1578 -16z"/>
</g>
</svg>
