<svg width="24" height="24" viewBox="0 0 24 24" fill="none" xmlns="http://www.w3.org/2000/svg">
<path fill-rule="evenodd" clip-rule="evenodd" d="M8.69072 23.3999H15.1093C20.9182 23.3999 23.4 20.918 23.4 15.1092V8.6906C23.4 2.88176 20.9182 0.399902 15.1093 0.399902H8.69072C2.88189 0.399902 0.400024 2.88176 0.400024 8.6906V15.1092C0.400024 20.918 2.88189 23.3999 8.69072 23.3999ZM2.00468 8.6906C2.00468 3.75897 3.75909 2.00455 8.69072 2.00455H15.1093C20.041 2.00455 21.7954 3.75897 21.7954 8.6906V15.1092C21.7954 20.0408 20.041 21.7953 15.1093 21.7953H8.69072C3.75909 21.7953 2.00468 20.0408 2.00468 15.1092V8.6906ZM11.8999 16.981C11.4613 16.981 11.0976 16.6173 11.0976 16.1787V12.7021H7.62093C7.18233 12.7021 6.81861 12.3384 6.81861 11.8998C6.81861 11.4612 7.18233 11.0975 7.62093 11.0975H11.0976V7.62055C11.0976 7.18194 11.4613 6.81822 11.8999 6.81822C12.3385 6.81822 12.7022 7.18194 12.7022 7.62055V11.0975H16.1791C16.6177 11.0975 16.9814 11.4612 16.9814 11.8998C16.9814 12.3384 16.6177 12.7021 16.1791 12.7021H12.7022V16.1787C12.7022 16.6173 12.3385 16.981 11.8999 16.981Z" fill="#6C7680"/>
</svg>
