<svg id="eEovK89g2qt1" xmlns="http://www.w3.org/2000/svg" xmlns:xlink="http://www.w3.org/1999/xlink" viewBox="0 0 500 500" shape-rendering="geometricPrecision" text-rendering="geometricPrecision"><g transform="matrix(.1 0 0-.1 0 500)"><path d="M286,4517c-22-12-53-39-70-60-26-32-31-48-34-105-3-45-4.24353-82.73443,4.75647-104.73443C186.75647,4247.26557,503,3897,920,3450c392-421,718-774,725-785c8-11,157-493,333-1072c176-578,328-1063,339-1076c76-103,220-109,316-14c33,32,308,502,1117,1906c0,0,795.59207,1240.86647,1073,1865c6.945288,15.626038,0,57,0,57c0,81-27.15549,141.32354-100.26266,186-11.762334,9.745854-48.93934,23-64.73734,23h-2167-2139.14531c-20.501901-2.517011-53.060572-14.262794-65.85469-23Zm3548-396c-10-9-1918-1099-1932-1103-4-2-225,231-491,517s-500,537-519,558l-36,37h1494c822,0,1490-4,1484-9ZM3300,2463c-408-708-745-1291-749-1295-7-9-455,1456-449,1472c3,11,1930,1119,1937,1114c2-2-331-583-739-1291Z"/></g></svg>
