<?xml version="1.0" standalone="no"?>
<!DOCTYPE svg PUBLIC "-//W3C//DTD SVG 20010904//EN"
 "http://www.w3.org/TR/2001/REC-SVG-20010904/DTD/svg10.dtd">
<svg version="1.0" xmlns="http://www.w3.org/2000/svg"
 width="1000.000000pt" height="1000.000000pt" viewBox="0 0 1000.000000 1000.000000"
 preserveAspectRatio="xMidYMid meet">

<g transform="translate(0.000000,1000.000000) scale(0.100000,-0.100000)"
fill="#000000" stroke="none">
<path d="M910 9181 l-515 -6 -54 -29 c-172 -90 -257 -259 -231 -461 17 -133
42 -170 295 -440 232 -247 650 -695 1050 -1125 887 -954 1146 -1231 1355
-1455 332 -354 360 -385 391 -440 36 -63 -2 59 718 -2305 335 -1103 621 -2038
635 -2079 46 -134 103 -203 215 -265 148 -80 371 -43 507 86 77 73 44 18 891
1488 198 344 643 1115 988 1715 345 600 1087 1887 1648 2860 561 974 1036
1804 1056 1845 34 71 36 80 36 180 0 97 -2 110 -32 173 -57 119 -161 204 -300
244 -53 15 -393 16 -4098 18 -2222 1 -4272 -1 -4555 -4z m6655 -880 c-26 -24
-97 -68 -1345 -824 -2504 -1520 -2467 -1497 -2496 -1497 -13 0 -128 116 -324
327 -168 180 -411 440 -540 578 -307 328 -1106 1188 -1199 1290 -87 96 -105
121 -96 135 4 7 935 10 3013 10 2933 0 3006 0 2987 -19z m805 -568 c0 -22 -15
-48 -1715 -2998 -1463 -2540 -1541 -2675 -1554 -2675 -12 0 -39 84 -190 575
-379 1237 -772 2538 -769 2552 3 15 577 366 2973 1817 1089 660 1232 746 1248
746 4 0 7 -8 7 -17z"/>
</g>
</svg>
