<svg width="19" height="25" viewBox="0 0 19 25" fill="none" xmlns="http://www.w3.org/2000/svg">
<path fill-rule="evenodd" clip-rule="evenodd" d="M17.3274 13.3759L18.5625 15.4261C19.0441 16.2166 19.1306 17.1552 18.8095 18.0074C18.4884 18.8596 17.8214 19.5142 16.9569 19.7983C14.5608 20.6011 12.0413 20.9963 9.5217 20.9963C7.00214 20.9963 4.48259 20.6011 2.08654 19.7859C1.17258 19.4772 0.468583 18.8349 0.172165 18.0074C-0.136605 17.1676 -0.0254474 16.2536 0.468584 15.4261L1.71601 13.3635C1.97538 12.9189 2.21004 12.0544 2.21004 11.548V8.42323C2.21004 5.55785 3.8774 3.07534 6.2858 1.87732C6.92804 0.728696 8.13841 0 9.48465 0C10.8432 0 12.0289 0.703994 12.6711 1.84027C15.129 3.01359 16.8334 5.5208 16.8334 8.42323V11.548C16.8334 12.0544 17.068 12.9189 17.3274 13.3759ZM9.49666 24.7012C11.1023 24.7012 12.4732 23.6761 12.9919 22.2434C12.7822 22.2681 12.5848 22.2928 12.3875 22.3174L12.3867 22.3175C12.2199 22.3426 12.0475 22.3563 11.8732 22.3702C11.7894 22.3769 11.7052 22.3836 11.621 22.3916C10.9293 22.4534 10.2254 22.4904 9.52136 22.4904C8.80501 22.4904 8.08867 22.4534 7.38468 22.3916C7.08826 22.3669 6.79184 22.3299 6.50777 22.2928C6.4265 22.2812 6.34796 22.2723 6.27087 22.2636C6.18393 22.2538 6.09884 22.2442 6.01374 22.2311C6.18665 22.7375 6.48307 23.2315 6.87829 23.602C7.55759 24.306 8.52095 24.7012 9.49666 24.7012Z" fill="#383B4F"/>
</svg>
