<svg xmlns="http://www.w3.org/2000/svg" xmlns:xlink="http://www.w3.org/1999/xlink" version="1.1" id="Layer_1" x="0px" y="0px" viewBox="0 0 1521.4 3560.3" enable-background="new 0 0 1521.4 3560.3" xml:space="preserve">
<g>
	<path d="M1504.9,1969.5c-4.7-8.4-10-17.8-13.8-27.1c-0.2-0.6-0.5-1.1-0.8-1.7c-26.5-51.4-63.4-83.9-83.1-98.6   c-7.5-5.7-8.9-12.3-11-31.4c-0.3-2.6-0.6-5.2-0.9-7.9c-1.1-8.9-2.9-26.8-5.1-49.4c-3.2-33.2-7.6-78.8-12.7-123   c-1.2-10.4-2.3-20-3.3-29.2c-6.1-55.7-10-92.5-37.4-163.9c-25.8-67.3-25.3-107.5-24.4-168.5c0.1-8.1,0.2-16.3,0.3-25   c0.5-71.4-6.1-110.3-15.9-169.2l-2.2-12.8c-11.5-69.4-17.1-117.7-18-156.3c-0.9-41.1-20.7-106.3-73.1-154.9   c-47.5-44-91.9-50.6-140.8-54.2c-2-0.2-4.1-0.3-6.1-0.4c-1.3-5.7-4.9-10.4-9.7-13.3c-29.2-18.9-74.3-34.3-107.3-45.7   c-14.6-5-28.3-9.7-34.4-12.6c-6.9-3.9-8.4-7.1-8.7-8c0-0.2,0-0.5,0-0.7c0-1.5,0.9-32.6,0.3-62.5v-16.8   c36.3-29,59.4-64.5,68.5-105.1c1.8-8.1,3.5-16.1,4.9-24.3c0.2,0,0.4,0,0.6,0c14.9,0,25.9-3.7,33.3-11.2   c11.6-11.6,13.6-30.6,13-57.6c-0.3-14.2,1.5-19.9,3.4-25.8c2.3-7,4.6-14.2,3.6-31l-0.1-0.8c-2.5-17.5-9.2-29.1-20-34.4   c-7.7-3.8-15.5-3.5-21.6-2.1c0.1-8.8,0.1-17.7,0.1-26.9c0-23.3-7.8-61.7-29.5-99.8c-26.6-46.4-67.1-80-117.4-97.3   C811.9,12,787,7.8,761.7,7.8c-25.3,0-50.1,4.2-73.9,12.3c-50.3,17.3-90.9,50.9-117.4,97.3c-21.8,38.1-29.5,76.6-29.5,99.8   c0,9,0,17.7,0.1,26.3c-6-1.3-13.6-1.5-21.2,2.2c-10.7,5.4-17.5,16.9-20,34.4l-0.1,0.8c-1,16.8,1.4,24.1,3.6,31   c1.9,5.9,3.7,11.5,3.4,25.8c-0.6,26.9,1.4,45.9,13,57.6c7.6,7.6,18.4,11.2,33.3,11.2h0.1c1.5,8.3,3.2,16.5,5,24.7   c10.5,47.1,38.4,81.2,68.4,105.2V556c-0.5,28.9,0.3,58.2,0.3,59.6c0,0.2,0,0.5,0,0.7c-0.3,0.9-1.8,4.1-8.7,8   c-6,2.9-19.8,7.7-34.4,12.6c-33.3,11.4-78.9,27.1-108.1,46.2c-4.7,3-7.8,7.7-9,12.8c-2,0.1-4,0.3-6.1,0.4   c-48.9,3.7-93.2,10.2-140.8,54.2c-52.4,48.5-72.2,113.8-73.1,154.9c-0.9,38.7-6.5,86.8-18,156.3l-2.2,12.8   c-9.8,58.9-16.4,97.8-15.9,169.2c0.1,8.7,0.2,17,0.3,25c0.8,61,1.4,101.2-24.4,168.5c-27.4,71.4-31.4,108.2-37.4,163.9   c-1,9.3-2.1,18.8-3.3,29.2c-5.2,44.3-9.5,89.8-12.7,123c-2.2,22.7-3.9,40.6-5.1,49.4c-0.3,2.7-0.7,5.3-0.9,7.9   c-2.2,19.2-3.6,25.9-11,31.4c-19.6,14.7-56.5,47.1-83.1,98.6c-0.3,0.6-0.5,1.1-0.8,1.7c-3.8,9.3-9.2,18.7-13.8,27.1   C9,1986,1.6,1999.1,6.3,2012.7c2.4,6.9,7.5,12.2,14.3,15c5.8,2.4,11.7,3.6,17.6,3.6c7.3,0,14.2-1.7,20.9-5.1   c-9.4,25.3-17.1,43.7-22.2,55.9c-4,9.5-6.2,14.7-7.3,18.6c-3.6,12.2-2.5,24,3,33c5,8.1,13.2,13.6,23.3,15.5c2.4,0.5,5.5,1,9.1,1   c4.1,0,7.8-0.6,11.1-1.8c1.5,24.6,18,32.2,25.5,34.5c3.2,1,6.5,1.4,9.6,1.4c9.2,0,21.5-3.7,31.4-20.2c5.9,5.9,13.8,9.3,23.8,9.9   c0.7,0.1,1.4,0.1,2.1,0.1c16.4,0,26.2-11.9,32.4-26.7c4.3,3.6,10.4,7,19.3,8c1,0.1,2.1,0.2,3.1,0.2c19.9,0,29-18.2,33.2-33.4   c3.3-12.1,5.4-27.6,7.4-42.4c0.8-6.3,1.7-12.8,2.6-18.7c2.8-17.5,7.5-39,11.5-58c3.8-17.2,7-32,8.3-41.5c0.2-1.8,0.5-3.6,0.7-5.4   c2.3-17,4.7-34.5,2.3-67.2c-2.2-30,1.9-48.7,24.4-111c8.3-21.8,18.2-46.6,27.9-70.5c16-40,31.2-77.8,40.3-105.2   c15.4-46.7,16.2-73.2,16.2-112.7c0-36.9,10.7-132.4,22.2-183.4c0.1-0.5,0.2-1,0.3-1.4c2.4-15.8,5.8-33.5,9.4-52.2   c4.3-22.4,8.6-45.3,11.8-67.4c1.4,5.9,3,12.4,4.8,19.5c2.5,10.1,5.1,20.7,7.7,31.7c3.8,16.2,7.5,29.8,10.7,42   c8.1,29.7,13.9,51.2,13.9,86.5c0,37.3,0.7,79.8,1.4,121c0.3,17.4,0.6,34.4,0.8,50.4c0.7,51.6-11,130.8-24.2,214.4   c-0.7,4.4-1.4,9-2.2,13.5c-13.7,85.9-34.4,215.9-8.6,439.6c25.6,221.1,49.6,305.2,65.6,349.2l1.2,3.3   c11.2,30.9,19.3,53.3,1.8,146.5c-18,97.3-19,167.2,21.3,349c10.1,45.4,20.2,85.3,29,120.7c20.6,82,35.5,141.2,25,167.2   c-10,24.9-24.8,43.1-38.9,60.6c-9.3,11.4-18,22.2-24.7,34c-37.8,51.1-28.5,76.5-14.1,88.8c8,6.8,15.9,8.3,21.2,8.3   c4.9,0,9.4-1.1,13.2-3c5.4,5.8,12.8,9.1,22,9.8c0.9,0.1,1.8,0.1,2.7,0.1c5.7,0,10.4-1.3,14.5-3.3c3.4,2.7,7.5,4.8,12.1,5.9   c5.8,1.5,10.2,2.1,14.4,2.1c7.3,0,13.4-1.9,18.7-5.7c4.9,4.5,12.8,9.1,25.1,9.3c0.6,0,1.1,0,1.6,0c14.5,0,23.9-3.7,30.1-9.1   c7.7,7.1,18.7,10.9,32.7,11.5c1.5,0.1,3,0.1,4.4,0.1c15.6,0,27.7-3.6,36.5-11c9,7.5,20.9,11,36.5,11c1.4,0,2.9,0,4.4-0.1   c14-0.6,25.1-4.4,32.7-11.5c6.2,5.3,15.6,9.1,30.1,9.1c0.5,0,1.1,0,1.6,0c12.2-0.2,20.2-4.8,25.1-9.3c5.2,3.8,11.4,5.7,18.7,5.7   c4.2,0,8.7-0.7,14.4-2.1c4.6-1.2,8.7-3.2,12.1-5.9c4.1,2.1,8.9,3.3,14.5,3.3c0.9,0,1.8,0,2.7-0.1c9.2-0.7,16.5-4,22-9.8   c3.9,1.9,8.3,3,13.2,3c5.3,0,13.2-1.4,21.2-8.3c14.4-12.3,23.7-37.7-14.1-88.8c-6.8-11.8-15.5-22.7-24.7-34   c-14.2-17.5-28.8-35.6-38.9-60.6c-10.5-26.2,4.3-85.3,24.9-167.2c8.9-35.3,18.9-75.3,29-120.7c40.3-181.8,39.3-251.8,21.3-349.1   c-17.6-93.1-9.4-115.5,1.8-146.4l1.2-3.3c15.9-44.1,40-128.1,65.6-349.2c25.9-223.7,5.2-353.6-8.6-439.6c-0.7-4.7-1.5-9.2-2.2-13.5   c-13.1-83.5-24.9-162.7-24.2-214.4c0.2-16,0.5-33,0.8-50.4c0.7-41.1,1.4-83.7,1.4-121c0-35.3,5.9-56.8,13.9-86.5   c3.3-12,7-25.8,10.7-42c2.6-11,5.2-21.6,7.7-31.7c1.8-7.2,3.4-13.6,4.8-19.6c3.3,22.3,7.6,45.1,11.8,67.4c3.6,18.8,7,36.5,9.4,52.2   c0.1,0.5,0.2,1,0.3,1.4c11.4,51,22.2,146.6,22.2,183.4c0,39.5,0.8,65.9,16.2,112.7c9.1,27.5,24.3,65.3,40.3,105.2   c9.6,24,19.6,48.7,27.9,70.5c22.5,62.3,26.7,81,24.4,111c-2.4,32.7,0,50.2,2.3,67.2c0.2,1.8,0.5,3.6,0.7,5.4   c1.2,9.4,4.5,24.3,8.3,41.5c4.2,18.9,8.9,40.4,11.5,58c0.9,6,1.8,12.4,2.6,18.7c2,14.8,4,30.1,7.4,42.4   c7.6,27.7,22.2,33.4,33.2,33.4c1,0,2.1-0.1,3.1-0.2c8.9-1,15.1-4.4,19.3-8c6.3,14.7,16,26.7,32.4,26.7c0.7,0,1.4,0,2.1-0.1   c9.9-0.7,17.9-4.1,23.8-9.9c9.9,16.5,22.3,20.2,31.4,20.2c3.2,0,6.5-0.5,9.6-1.4c7.5-2.2,24-9.9,25.5-34.5   c3.4,1.2,7.1,1.8,11.1,1.8c3.6,0,6.7-0.5,9.1-1c10-1.9,18.3-7.5,23.3-15.5c5.6-9.1,6.6-20.8,3-33c-1.1-3.8-3.3-9.1-7.3-18.6   c-5.1-12.2-12.7-30.6-22.2-55.9c6.7,3.4,13.6,5.1,20.9,5.1c5.9,0,11.8-1.2,17.6-3.6c6.9-2.8,11.9-8.2,14.3-15   C1521.7,1999.2,1514.2,1986.1,1504.9,1969.5z M982.3,263.5c2.6-1.1,8.9-3.2,13.5-0.8c6,3,8.5,12.3,9.5,19.8   c0.7,13-0.8,17.8-2.8,23.9c-2.2,6.8-4.7,14.5-4.3,31.9c0.5,21.4-0.7,37-7.6,43.9c-3.5,3.5-9.3,5.4-17.6,5.7   C979,349.2,981.5,308.5,982.3,263.5z M533.2,381.8c-6.9-7-8-22.6-7.6-43.9c0.4-17.4-2.1-25.2-4.3-31.9c-2-6.1-3.5-10.8-2.8-23.9   c1.1-7.5,3.7-16.8,9.5-19.8c4.5-2.3,10.3-0.5,13.1,0.7c0.9,45,3.3,85.7,9.1,124.4C542.3,387.1,536.7,385.2,533.2,381.8z    M578.9,426.4c-14.8-65.4-17-136.4-17-209.3c0-38.4,27.3-141,132.9-177.3c43.4-14.9,90.7-14.9,134.2,0   c105.6,36.3,132.9,139,132.9,177.3c0,72.9-2.2,144-17,209.3c-19.5,86.9-107.8,125-139.5,136.1c-6.9,2.4-14,3.6-21.3,3.6h-22.2   h-21.4c-7.9,0-15.7-1.4-23.2-4C684.6,550.5,598.1,512.3,578.9,426.4z M761.8,3271.7c-2.2-32.7-4.4-105.8-3-135.9l0.3-6.4   c0.6-12,1.4-30.7,2.6-53.2c1.2,22.4,2.1,41.2,2.6,53.2l0.3,6.4C766.1,3165.9,764,3239,761.8,3271.7z M758.2,2535l0.7-13.6   c0.8-15.9,1.8-33.7,2.9-52c1.1,18.3,2.1,36.1,2.9,52l0.7,13.6c3.2,64.7,5.2,103.6-2.5,143c-0.1,0.5-0.2,0.9-0.2,1.4   c-0.3,2.4-0.6,4.8-0.9,7.2c-0.3-2.4-0.6-4.8-0.9-7.2c-0.1-0.5-0.1-0.9-0.2-1.4C753.1,2638.5,755.1,2599.5,758.2,2535z    M1494.7,2008.6c-10.5,4.4-29.3,5.3-50-36.6c-13.9-24.6-22.2-31.2-24.1-31.2s-12-4.4,13.4,64c21.7,61.6,37,93.8,39.5,102.1   c2.4,8.2,2.4,19.7-10.1,22.2s-18.8,0-37.5-56.3c-16.3-47.6-22.6-65.9-30.8-61.1c-8.2,4.8,9.6,44.8,24.6,100.6   c5.1,17.4,13.9,45.8-3.9,51c-17.8,5.3-24.8-28-30-47c-5.3-22.2-22.6-84.5-24.1-90c-1.5-5.6-14.7-5.3-13,5.3   c1.7,10.5,13.4,59.7,20,91.2c4.8,25.8-3.4,30-13.2,30.8c-9.8,0.7-16.6-16.1-22.6-47.1c-6-31-14.7-70.7-15.1-74.6   c-0.5-3.9-4.8-8-10.3-5.6c-5.6,2.4-0.5,17.3,3.9,54.8c4.4,37.5,5.3,52.2-10.3,53.9c-15.6,1.7-18-42.9-23.4-76.8   c-5.4-33.9-17.3-80.6-19.7-98.9c-2.4-18.3-5.4-34.4-2.9-68.3c2.5-33.9-2.5-55.9-25.7-119.9c-21.7-57-53.4-131.4-67.8-175.1   c-14.4-43.7-15.1-67.8-15.1-106.1s-10.8-135-22.8-188c-6.9-45.2-21.3-105-25.3-154.9c-0.5-6.2-0.9-11.7-1.3-16.6   c0,0-1.7-22.7,1.7-41.5c6.2-33.2,0-50.9,0-50.9c-1.9-10.4-4.1-2.7-6,8.3c-6,33.1-15.9,59.9-15.9,59.9c-12.1,17.6-38,35.8-94.7,39.3   c-96,4.4-118-7.3-138.6-16.6c-9.9-4-13.2-2.9-12.5,0c0.3,1.2,1.2,2.7,2.7,4.3c3.1,4.1,9.3,10.4,21,17c0.5,0.3,1,0.6,1.5,0.8   c0.6,0.3,1.2,0.6,1.8,0.9c0.1,0,0.2,0.1,0.2,0.1c20,10.1,57.6,21,127.3,20.5c45.3-2.6,69.8-12,81.3-18.2   c-2.7,17.1-10.5,45.6-17.9,77.4c-13,55.9-25.3,80.1-25.3,133.2c0,53-1.5,117.7-2.2,171.1c-0.7,53.4,10.9,132.2,24.5,217.8   c13.4,85.6,37.5,214.7,10.5,447.5s-51.9,309.9-64.5,344.6c-12.5,34.6-23.1,58.7-3.9,160.7c16.3,88.5,20.2,154-21.2,340.7   c-35.6,159.8-71.2,255-52.9,300.3c18.3,45.3,50,70.2,65.5,98.2c13.8,18.5,32.6,49.2,18.2,61.5s-24.9-14.1-26.4-18.4   c-1.5-4.4-8.3-9.1-6.9,6.9c1.5,15.9-1.8,20.9-11.1,21.7c-9.4,0.8-13-7.6-17-15.9c-4-8.4-10.1-15.9-10.1-8.7s7.3,24.6-5.8,27.8   c-13,3.2-18,1.8-22.4-11.1c-4.4-13-11.9-26.7-15.1-20.2c-3.2,6.5,8.7,36.1-15.9,36.4c-24.6,0.3-20.9-9.1-26-29.9   c-5.1-20.9-18.8-19.5-18.4-8.7c0.4,10.8,16.2,39.7-20.6,41.2c-36.8,1.5-37.9-19.1-34.3-55.6c3.6-36.4,4-69.3,9.7-90.9   c5.8-21.7,3.3-74.7,5.4-108.6c2.2-33.9,4.4-107.2,2.9-138.3s-5.8-132.5-14.4-211.9c-1.5-59.9,0.7-148.7,12.2-241.1   c8.7-44.8,5.8-88,2.2-161.6c-3.6-73.6-12.2-188.4-13-205.7c-0.7-17.3-0.2-179.4-0.2-317.1c0-64.7,0.7-92.8,1.2-104.7   c65.2-11.2,66.3-56.8,66.3-56.8c1.3-4.8-2.6-5.1-7.7-0.2c-55,53.3-99.5,30.3-121,13.3c-12-9.5-18.9-13.7-22.6-15.4   c-1.5-1-2.8-1.4-3.7-1.3c-0.1,0-0.1,0-0.1,0c-1.2,0.2-1.8,1.5-1.2,3.7c0,0,1.2,45.6,66.3,56.8c0.5,12,1.2,40.1,1.2,104.7   c0,137.7,0.5,299.8-0.2,317.1c-0.7,17.3-9.4,132.1-13,205.7c-3.6,73.6-6.5,117,2.2,161.6c11.5,92.4,13.7,181.1,12.2,241.1   c-8.7,79.4-13,180.8-14.4,211.9c-1.4,31,0.7,104.3,2.9,138.3c2.2,33.9-0.4,86.9,5.4,108.6c5.8,21.7,6.2,54.5,9.7,90.9   c3.6,36.4,2.5,57-34.3,55.6c-36.8-1.5-20.9-30.3-20.6-41.2c0.4-10.8-13.3-12.2-18.4,8.7c-5.1,20.9-1.5,30.3-26,29.9   c-24.6-0.4-12.6-29.9-15.9-36.4c-3.3-6.5-10.8,7.3-15.1,20.2c-4.4,13-9.4,14.4-22.4,11.1s-5.8-20.6-5.8-27.8   c0-7.3-6.2,0.4-10.1,8.7c-4,8.3-7.6,16.6-17,15.9c-9.4-0.7-12.6-5.8-11.1-21.7s-5.4-11.1-6.9-6.9s-11.9,30.6-26.4,18.4   c-14.4-12.2,4.4-43,18.2-61.5c15.4-28,47.1-52.9,65.5-98.2c18.3-45.3-17.3-140.6-52.9-300.3c-41.4-186.7-37.5-252.2-21.2-340.7   c19.3-102.1,8.7-126-3.9-160.7c-12.5-34.6-37.5-111.6-64.5-344.6c-27-232.9-2.9-361.9,10.5-447.5c13.4-85.6,25.2-164.4,24.5-217.8   c-0.7-53.4-2.2-118-2.2-171.1c0-53-12.2-77.2-25.3-133.2c-7.5-32.3-15.5-61.1-18-78.2c10.7,6.1,35.5,16.3,82.7,19   c84.9,0.6,122.4-15.6,138.1-26.9c0.4-0.3,0.8-0.6,1.2-0.9c7.3-5.4,11-10.5,12.7-13.2c0.5-0.7,0.9-1.4,1.1-2   c1.2-3.3-1.8-4.9-12.4-0.6c-20.6,9.4-42.6,20.9-138.6,16.6c-41.3-2.6-66.1-12.9-81.4-25.1c0,0-16-17.4-24.8-46.7   c-0.1-0.6-0.2-1.1-0.3-1.5c-1.2-5.5-3.1-21.7-5.2-31.4c-1.6-7.7-3.4-11.3-5-2.8c0,0-4.9-2.9,3.3,70.2c-0.6,8.5-1.5,20.8-3,38.8   c-4,49.8-18.4,109.7-25.3,154.9c-11.9,53-22.8,149.8-22.8,188c0,38.3-0.7,62.5-15.1,106.1c-14.4,43.7-46.2,118-67.8,175.1   c-23.1,63.9-28.2,85.9-25.7,119.9s-0.5,50-2.9,68.3c-2.4,18.3-14.4,65-19.7,98.9s-7.7,78.5-23.4,76.8   c-15.6-1.7-14.7-16.3-10.3-53.9s9.4-52.4,3.9-54.8c-5.6-2.4-9.8,1.7-10.3,5.6s-9.2,43.6-15.1,74.6s-12.7,47.8-22.6,47.1   c-9.8-0.7-18-5.1-13.2-30.8c6.5-31.5,18.3-80.6,20-91.2c1.7-10.5-11.5-10.8-13-5.3c-1.5,5.6-18.8,67.8-24.1,90   c-5.3,19-12.2,52.2-30,47c-17.8-5.3-8.9-33.6-3.9-51c14.9-55.8,32.7-95.8,24.6-100.6s-14.4,13.4-30.8,61.1   c-18.8,56.3-25.1,58.7-37.5,56.3c-12.5-2.4-12.5-13.9-10.1-22.2c2.4-8.2,17.8-40.4,39.5-102.1c25.5-68.3,15.4-64,13.4-64   c-1.9,0-10.1,6.8-24.1,31.2c-20.7,41.9-39.5,40.9-50,36.6c-10.5-4.4,11.5-29.8,23.1-58.2c25.1-48.6,59.7-78.5,77-91.4   c17.3-12.9,17.3-30.8,20.2-53.4c2.9-22.6,9.2-98.7,17.8-172.8c8.7-74.1,8.7-107.8,39.5-188.2s26-126.5,25.5-201.1   s6.8-112.1,17.8-178.6c11-66.4,17.3-117,18.3-159.3c1-42.4,22.8-99.6,66.4-140.1c43.7-40.4,84.5-45.5,128.1-48.7   c43.7-3.3,76.2-4,81.2-5.8c5-1.8,0.7-9.1-0.7-9.7c-1.4-0.7-39-1.5-55.6-1.1c40.8-26.7,119.9-47.2,140.8-57.8   c22.4-12.2,19.9-27.8,19.9-27.8s-0.9-33.7-0.2-64.4c13.9,8.6,34.5,20.2,60.5,31.4c17.8,8.2,39,7.7,64.5,7.3   c25.5-0.5,37.8-1.7,63.1-15.4c13.9-7.6,28.5-16.5,39.8-23.7c0.7,30.7-0.2,64.8-0.2,64.8s-2.5,15.5,19.9,27.8   c20.9,10.4,100,31,140.8,57.8c-16.6-0.4-54.1,0.4-55.6,1.1c-1.5,0.7-5.8,8-0.7,9.7c5.1,1.8,37.5,2.5,81.2,5.8   c43.7,3.3,84.5,8.3,128.1,48.7c43.7,40.4,65.5,97.7,66.4,140.1s7.3,92.9,18.3,159.3c11,66.4,18.3,103.9,17.8,178.6   s-5.3,120.8,25.5,201.1c30.8,80.4,30.8,114.1,39.5,188.2c8.7,74.1,14.9,150.1,17.8,172.8c2.9,22.6,2.9,40.4,20.2,53.4   s51.9,42.9,77,91.4C1483.2,1978.7,1505.3,2004.2,1494.7,2008.6z" fill="#ffffff"/>
	<path d="M761.8,1525.9c-10.6,0.2-19.3,4.4-19.3,9.6c0,5.2,8.6,9.4,19.3,9.6c10.6-0.2,19.3-4.4,19.3-9.6   C781.1,1530.3,772.6,1526,761.8,1525.9z M762.3,1529.5c-0.1,0-0.2,0-0.3,0v-0.6C762.2,1529.1,762.3,1529.3,762.3,1529.5z    M761.5,1529.6c-0.1,0-0.2,0-0.3,0c0.1-0.2,0.2-0.5,0.3-0.7V1529.6z M762.1,1542L762.1,1542L762.1,1542L762.1,1542z" fill="#ffffff"/>
	<path d="M192.7,1876.5c-6.3,17.2-23.5,56.4-55.3,76.8c-1.6,1-0.6,3.5,1.3,3.1c18.7-4.5,58.1-20.9,57.3-79.3   C195.8,1875.2,193.2,1874.8,192.7,1876.5z" fill="#ffffff"/>
	<path d="M1332,1872.9c-0.6-2.3-3.8-2.5-4.6-0.2c-15.4,44.3,29.7,71.6,54.6,83c2.5,1.2,4.7-2.2,2.6-4   C1346.8,1919.2,1335.4,1887.3,1332,1872.9z" fill="#ffffff"/>
	<path d="M674.2,2585.2c-27.4,12.3-62.2-1.2-77.6-8.6c-2.5-1.2-5,1.7-3.4,4c4.6,6.7,13.2,16.3,28.1,23.6c0.1,0,0.2,0.1,0.3,0.1   c32.8,13.2,49.3-4.1,56.1-15.2C679,2586.9,676.6,2584.1,674.2,2585.2z" fill="#ffffff"/>
	<path d="M899.4,2604.3c0.1,0,0.2-0.1,0.3-0.1c14.8-7.3,23.5-16.8,28.1-23.6c1.6-2.3-0.9-5.2-3.4-4c-15.4,7.4-50.2,20.9-77.6,8.6   c-2.4-1.1-4.8,1.6-3.4,3.9C850.1,2600.2,866.6,2617.5,899.4,2604.3z" fill="#ffffff"/>
</g>
</svg>