<svg width="22" height="23" viewBox="0 0 22 23" fill="none" xmlns="http://www.w3.org/2000/svg">
<path fill-rule="evenodd" clip-rule="evenodd" d="M7.74083 0H13.4607C14.7264 0 15.7608 0.966038 15.7486 2.16208V3.24313C15.7486 4.43917 14.7264 5.40521 13.4607 5.40521H7.72866C6.46299 5.40521 5.44072 4.43917 5.44072 3.24313V2.16208C5.44072 0.966038 6.47516 0 7.74083 0ZM21.2 17.8593V7.03739C21.2 5.07082 20.0317 3.35725 18.3157 2.49471C17.7072 2.1957 16.977 2.59822 16.977 3.24224C16.977 5.07082 15.395 6.56587 13.4599 6.56587H7.74007C5.80505 6.56587 4.22296 5.07082 4.22296 3.24224C4.22296 2.59822 3.4806 2.1957 2.88427 2.49471C1.16831 3.35725 0 5.07082 0 7.03739V17.8593C0 20.6884 2.44615 23 5.43996 23H15.76C18.7538 23 21.2 20.6884 21.2 17.8593Z" fill="#383B4F"/>
</svg>
