<?xml version="1.0" standalone="yes"?>
<svg xmlns="http://www.w3.org/2000/svg" width="1080" height="1080">
<path style="fill:#dde5eb; stroke:none;" d="M0 0L0 1080L1080 1080L1080 0L0 0z"/>
<path style="fill:#b5cddd; stroke:none;" d="M384.667 79.3333L385.333 79.6667L384.667 79.3333z"/>
<path style="fill:#9bb5c9; stroke:none;" d="M386 79L386 80L391 80L386 79z"/>
<path style="fill:#8798a4; stroke:none;" d="M391 79L391 80L400 80L391 79z"/>
<path style="fill:#677987; stroke:none;" d="M408 721C407.155 710.31 404.51 699.743 404.039 689C402.415 651.899 408.44 615.421 422.452 581C469.557 465.288 603.809 403.555 722 442C727.451 372.94 719.164 305.363 684.281 244C659.295 200.047 624.72 160.723 582 133.218C529.003 99.0961 467.365 79.0787 404 79.0787C298.655 79.0787 194.68 133.469 136.861 222C114.843 255.714 99.1115 292.669 90.4244 332C80.0034 379.181 81.6382 426.983 91.7901 474C100.782 515.644 120.126 555.695 145.151 590C171.728 626.432 205.872 656.65 245 678.999C294.614 707.338 351.112 721 408 721z"/>
<path style="fill:#8798a4; stroke:none;" d="M408 79L408 80L417 80L408 79z"/>
<path style="fill:#9bb5c9; stroke:none;" d="M417 79L417 80L421 80L417 79z"/>
<path style="fill:#b5cddd; stroke:none;" d="M421 79L421 80L424 80L421 79M372.667 80.3333L373.333 80.6667L372.667 80.3333z"/>
<path style="fill:#9bb5c9; stroke:none;" d="M374 80L374 81L377 81L374 80z"/>
<path style="fill:#8798a4; stroke:none;" d="M377 80L377 81L380 81L377 80M428 80L428 81L431 81L428 80z"/>
<path style="fill:#9bb5c9; stroke:none;" d="M431 80L431 81L434 81L431 80z"/>
<path style="fill:#b5cddd; stroke:none;" d="M434.667 80.3333L435.333 80.6667L434.667 80.3333M364.667 81.3333L365.333 81.6667L364.667 81.3333z"/>
<path style="fill:#9bb5c9; stroke:none;" d="M366 81L367 82L366 81z"/>
<path style="fill:#8798a4; stroke:none;" d="M367.667 81.3333L368.333 81.6667L367.667 81.3333M438 81L438 82L441 82L438 81z"/>
<path style="fill:#9bb5c9; stroke:none;" d="M441 81L442 82L441 81z"/>
<path style="fill:#b5cddd; stroke:none;" d="M442.667 81.3333L443.333 81.6667L442.667 81.3333M356.667 82.3333L357.333 82.6667L356.667 82.3333z"/>
<path style="fill:#9bb5c9; stroke:none;" d="M358 82L359 83L358 82z"/>
<path style="fill:#8798a4; stroke:none;" d="M359 82L359 83L362 83L359 82M446.667 82.3333L447.333 82.6667L446.667 82.3333z"/>
<path style="fill:#9bb5c9; stroke:none;" d="M448.667 82.3333L449.333 82.6667L448.667 82.3333z"/>
<path style="fill:#b5cddd; stroke:none;" d="M450.667 82.3333L451.333 82.6667L450.667 82.3333M350 83L351 84L350 83z"/>
<path style="fill:#9bb5c9; stroke:none;" d="M351.667 83.3333L352.333 83.6667L351.667 83.3333z"/>
<path style="fill:#8798a4; stroke:none;" d="M353 83L354 84L353 83M453.667 83.3333L454.333 83.6667L453.667 83.3333z"/>
<path style="fill:#9bb5c9; stroke:none;" d="M455.667 83.3333L456.333 83.6667L455.667 83.3333z"/>
<path style="fill:#b5cddd; stroke:none;" d="M457 83L458 84L457 83M344 84L345 85L344 84z"/>
<path style="fill:#9bb5c9; stroke:none;" d="M345 84L346 85L345 84z"/>
<path style="fill:#8798a4; stroke:none;" d="M346.667 84.3333L347.333 84.6667L346.667 84.3333M460 84L461 85L460 84z"/>
<path style="fill:#9bb5c9; stroke:none;" d="M461.667 84.3333L462.333 84.6667L461.667 84.3333z"/>
<path style="fill:#b5cddd; stroke:none;" d="M463 84L464 85L463 84M339 85L340 86L339 85z"/>
<path style="fill:#9bb5c9; stroke:none;" d="M340 85L341 86L340 85z"/>
<path style="fill:#8798a4; stroke:none;" d="M341 85L342 86L341 85M466 85L467 86L466 85z"/>
<path style="fill:#9bb5c9; stroke:none;" d="M467 85L468 86L467 85z"/>
<path style="fill:#b5cddd; stroke:none;" d="M468 85L469 86L468 85M334 86L335 87L334 86z"/>
<path style="fill:#9bb5c9; stroke:none;" d="M335 86L336 87L335 86z"/>
<path style="fill:#8798a4; stroke:none;" d="M336 86L337 87L336 86M470.667 86.3333L471.333 86.6667L470.667 86.3333z"/>
<path style="fill:#9bb5c9; stroke:none;" d="M472 86L473 87L472 86z"/>
<path style="fill:#b5cddd; stroke:none;" d="M473 86L474 87L473 86M330 87L331 88L330 87z"/>
<path style="fill:#9bb5c9; stroke:none;" d="M331 87L332 88L331 87z"/>
<path style="fill:#8798a4; stroke:none;" d="M332 87L333 88L332 87M475 87L476 88L475 87z"/>
<path style="fill:#9bb5c9; stroke:none;" d="M476 87L477 88L476 87z"/>
<path style="fill:#b5cddd; stroke:none;" d="M477 87L478 88L477 87M325 88L326 89L325 88z"/>
<path style="fill:#9bb5c9; stroke:none;" d="M326 88L327 89L326 88z"/>
<path style="fill:#8798a4; stroke:none;" d="M327 88L328 89L327 88M479.667 88.3333L480.333 88.6667L479.667 88.3333z"/>
<path style="fill:#9bb5c9; stroke:none;" d="M481 88L482 89L481 88z"/>
<path style="fill:#b5cddd; stroke:none;" d="M482 88L483 89L482 88z"/>
<path style="fill:#9bb5c9; stroke:none;" d="M322 89L323 90L322 89z"/>
<path style="fill:#8798a4; stroke:none;" d="M323 89L324 90L323 89M484 89L485 90L484 89z"/>
<path style="fill:#b5cddd; stroke:none;" d="M485 89L486 90L485 89M318 90L319 91L318 90z"/>
<path style="fill:#9bb5c9; stroke:none;" d="M319 90L320 91L319 90z"/>
<path style="fill:#8798a4; stroke:none;" d="M320 90L321 91L320 90M487 90L488 91L487 90z"/>
<path style="fill:#9bb5c9; stroke:none;" d="M488 90L489 91L488 90z"/>
<path style="fill:#b5cddd; stroke:none;" d="M489 90L490 91L489 90z"/>
<path style="fill:#9bb5c9; stroke:none;" d="M315 91L316 92L315 91z"/>
<path style="fill:#8798a4; stroke:none;" d="M316 91L317 92L316 91M491 91L492 92L491 91z"/>
<path style="fill:#b5cddd; stroke:none;" d="M492 91L493 92L492 91M311 92L312 93L311 92z"/>
<path style="fill:#9bb5c9; stroke:none;" d="M312 92L313 93L312 92z"/>
<path style="fill:#8798a4; stroke:none;" d="M313 92L314 93L313 92M494 92L495 93L494 92z"/>
<path style="fill:#9bb5c9; stroke:none;" d="M495 92L496 93L495 92z"/>
<path style="fill:#b5cddd; stroke:none;" d="M496 92L497 93L496 92M308 93L309 94L308 93z"/>
<path style="fill:#8798a4; stroke:none;" d="M309 93L310 94L309 93z"/>
<path style="fill:#9bb5c9; stroke:none;" d="M498 93L499 94L498 93z"/>
<path style="fill:#b5cddd; stroke:none;" d="M499 93L500 94L499 93M305 94L306 95L305 94z"/>
<path style="fill:#8798a4; stroke:none;" d="M306 94L307 95L306 94z"/>
<path style="fill:#9bb5c9; stroke:none;" d="M501 94L502 95L501 94z"/>
<path style="fill:#b5cddd; stroke:none;" d="M502 94L503 95L502 94M302 95L303 96L302 95z"/>
<path style="fill:#8798a4; stroke:none;" d="M303 95L304 96L303 95z"/>
<path style="fill:#9bb5c9; stroke:none;" d="M504 95L505 96L504 95z"/>
<path style="fill:#b5cddd; stroke:none;" d="M505 95L506 96L505 95M299 96L300 97L299 96z"/>
<path style="fill:#8798a4; stroke:none;" d="M300 96L301 97L300 96z"/>
<path style="fill:#9bb5c9; stroke:none;" d="M507 96L508 97L507 96z"/>
<path style="fill:#b5cddd; stroke:none;" d="M508 96L509 97L508 96M296 97L297 98L296 97z"/>
<path style="fill:#8798a4; stroke:none;" d="M297 97L298 98L297 97z"/>
<path style="fill:#9bb5c9; stroke:none;" d="M510 97L511 98L510 97z"/>
<path style="fill:#b5cddd; stroke:none;" d="M511 97L512 98L511 97M293 98L294 99L293 98z"/>
<path style="fill:#8798a4; stroke:none;" d="M294 98L295 99L294 98z"/>
<path style="fill:#9bb5c9; stroke:none;" d="M513 98L514 99L513 98z"/>
<path style="fill:#b5cddd; stroke:none;" d="M514 98L515 99L514 98z"/>
<path style="fill:#9bb5c9; stroke:none;" d="M291 99L292 100L291 99z"/>
<path style="fill:#8798a4; stroke:none;" d="M292 99L293 100L292 99M515 99L516 100L515 99z"/>
<path style="fill:#9bb5c9; stroke:none;" d="M516 99L517 100L516 99z"/>
<path style="fill:#b5cddd; stroke:none;" d="M288 100L289 101L288 100z"/>
<path style="fill:#8798a4; stroke:none;" d="M289 100L290 101L289 100M518 100L519 101L518 100z"/>
<path style="fill:#b5cddd; stroke:none;" d="M519 100L520 101L519 100M285 101L286 102L285 101z"/>
<path style="fill:#9bb5c9; stroke:none;" d="M286 101L287 102L286 101M521 101L522 102L521 101M283 102L284 103L283 102z"/>
<path style="fill:#8798a4; stroke:none;" d="M284 102L285 103L284 102M523 102L524 103L523 102z"/>
<path style="fill:#b5cddd; stroke:none;" d="M524 102L525 103L524 102M280 103L281 104L280 103z"/>
<path style="fill:#8798a4; stroke:none;" d="M281 103L282 104L281 103M526 103L527 104L526 103z"/>
<path style="fill:#b5cddd; stroke:none;" d="M527 103L528 104L527 103z"/>
<path style="fill:#9bb5c9; stroke:none;" d="M278 104L279 105L278 104z"/>
<path style="fill:#8798a4; stroke:none;" d="M279 104L280 105L279 104M528 104L529 105L528 104z"/>
<path style="fill:#b5cddd; stroke:none;" d="M529 104L530 105L529 104z"/>
<path style="fill:#9bb5c9; stroke:none;" d="M276 105L277 106L276 105z"/>
<path style="fill:#8798a4; stroke:none;" d="M530 105L531 106L530 105z"/>
<path style="fill:#9bb5c9; stroke:none;" d="M531 105L532 106L531 105z"/>
<path style="fill:#b5cddd; stroke:none;" d="M273 106L274 107L273 106z"/>
<path style="fill:#8798a4; stroke:none;" d="M274 106L275 107L274 106z"/>
<path style="fill:#9bb5c9; stroke:none;" d="M533 106L534 107L533 106z"/>
<path style="fill:#b5cddd; stroke:none;" d="M271 107L272 108L271 107z"/>
<path style="fill:#8798a4; stroke:none;" d="M272 107L273 108L272 107M535 107L536 108L535 107z"/>
<path style="fill:#b5cddd; stroke:none;" d="M536 107L537 108L536 107z"/>
<path style="fill:#9bb5c9; stroke:none;" d="M269 108L270 109L269 108z"/>
<path style="fill:#8798a4; stroke:none;" d="M270 108L271 109L270 108M537 108L538 109L537 108z"/>
<path style="fill:#b5cddd; stroke:none;" d="M538 108L539 109L538 108z"/>
<path style="fill:#9bb5c9; stroke:none;" d="M267 109L268 110L267 109z"/>
<path style="fill:#8798a4; stroke:none;" d="M539 109L540 110L539 109z"/>
<path style="fill:#9bb5c9; stroke:none;" d="M540 109L541 110L540 109M265 110L266 111L265 110M542 110L543 111L542 110M263 111L264 112L263 111M544 111L545 112L544 111M261 112L262 113L261 112M546 112L547 113L546 112M259 113L260 114L259 113M548 113L549 114L548 113M257 114L258 115L257 114M550 114L551 115L550 114M255 115L256 116L255 115M552 115L553 116L552 115M253 116L254 117L253 116M554 116L555 117L554 116M251 117L252 118L251 117z"/>
<path style="fill:#8798a4; stroke:none;" d="M555 117L556 118L555 117z"/>
<path style="fill:#b5cddd; stroke:none;" d="M556 117L557 118L556 117M249 118L250 119L249 118z"/>
<path style="fill:#8798a4; stroke:none;" d="M250 118L251 119L250 118M557 118L558 119L557 118z"/>
<path style="fill:#b5cddd; stroke:none;" d="M558 118L559 119L558 118M247 119L248 120L247 119z"/>
<path style="fill:#8798a4; stroke:none;" d="M248 119L249 120L248 119M559 119L560 120L559 119z"/>
<path style="fill:#9bb5c9; stroke:none;" d="M246 120L247 121L246 120M561 120L562 121L561 120M244 121L245 122L244 121z"/>
<path style="fill:#b5cddd; stroke:none;" d="M563 121L564 122L563 121M242 122L243 123L242 122z"/>
<path style="fill:#8798a4; stroke:none;" d="M564 122L565 123L564 122z"/>
<path style="fill:#b5cddd; stroke:none;" d="M565 122L566 123L565 122M240 123L241 124L240 123z"/>
<path style="fill:#8798a4; stroke:none;" d="M241 123L242 124L241 123M566 123L567 124L566 123M239 124L240 125L239 124z"/>
<path style="fill:#9bb5c9; stroke:none;" d="M568 124L569 125L568 124M237 125L238 126L237 125z"/>
<path style="fill:#b5cddd; stroke:none;" d="M570 125L571 126L570 125M235 126L236 127L235 126z"/>
<path style="fill:#8798a4; stroke:none;" d="M236 126L237 127L236 126M571 126L572 127L571 126z"/>
<path style="fill:#9bb5c9; stroke:none;" d="M234 127L235 128L234 127z"/>
<path style="fill:#b5cddd; stroke:none;" d="M573 127L574 128L573 127M232 128L233 129L232 128z"/>
<path style="fill:#8798a4; stroke:none;" d="M233 128L234 129L233 128M574 128L575 129L574 128z"/>
<path style="fill:#9bb5c9; stroke:none;" d="M231 129L232 130L231 129M576 129L577 130L576 129z"/>
<path style="fill:#b5cddd; stroke:none;" d="M229 130L230 131L229 130z"/>
<path style="fill:#8798a4; stroke:none;" d="M577 130L578 131L577 130z"/>
<path style="fill:#b5cddd; stroke:none;" d="M578 130L579 131L578 130z"/>
<path style="fill:#8798a4; stroke:none;" d="M228 131L229 132L228 131z"/>
<path style="fill:#9bb5c9; stroke:none;" d="M579 131L580 132L579 131M226 132L227 133L226 132z"/>
<path style="fill:#8798a4; stroke:none;" d="M580 132L581 133L580 132z"/>
<path style="fill:#b5cddd; stroke:none;" d="M581 132L582 133L581 132M224 133L225 134L224 133z"/>
<path style="fill:#8798a4; stroke:none;" d="M225 133L226 134L225 133M582 133L583 134L582 133z"/>
<path style="fill:#b5cddd; stroke:none;" d="M223 134L224 135L223 134M584 134L585 135L584 134z"/>
<path style="fill:#8798a4; stroke:none;" d="M222 135L223 136L222 135z"/>
<path style="fill:#9bb5c9; stroke:none;" d="M585 135L586 136L585 135z"/>
<path style="fill:#b5cddd; stroke:none;" d="M220 136L221 137L220 136z"/>
<path style="fill:#8798a4; stroke:none;" d="M586 136L587 137L586 136z"/>
<path style="fill:#9bb5c9; stroke:none;" d="M219 137L220 138L219 137M588 137L589 138L588 137z"/>
<path style="fill:#b5cddd; stroke:none;" d="M217 138L218 139L217 138z"/>
<path style="fill:#8798a4; stroke:none;" d="M218 138L219 139L218 138M589 138L590 139L589 138z"/>
<path style="fill:#9bb5c9; stroke:none;" d="M216 139L217 140L216 139z"/>
<path style="fill:#b5cddd; stroke:none;" d="M591 139L592 140L591 139z"/>
<path style="fill:#8798a4; stroke:none;" d="M215 140L216 141L215 140z"/>
<path style="fill:#9bb5c9; stroke:none;" d="M592 140L593 141L592 140z"/>
<path style="fill:#b5cddd; stroke:none;" d="M213 141L214 142L213 141z"/>
<path style="fill:#8798a4; stroke:none;" d="M593 141L594 142L593 141z"/>
<path style="fill:#b5cddd; stroke:none;" d="M594 141L595 142L594 141z"/>
<path style="fill:#9bb5c9; stroke:none;" d="M212 142L213 143L212 142M595 142L596 143L595 142z"/>
<path style="fill:#8798a4; stroke:none;" d="M211 143L212 144L211 143M596 143L597 144L596 143z"/>
<path style="fill:#b5cddd; stroke:none;" d="M209 144L210 145L209 144z"/>
<path style="fill:#8798a4; stroke:none;" d="M597 144L598 145L597 144z"/>
<path style="fill:#9bb5c9; stroke:none;" d="M208 145L209 146L208 145z"/>
<path style="fill:#b5cddd; stroke:none;" d="M599 145L600 146L599 145z"/>
<path style="fill:#8798a4; stroke:none;" d="M207 146L208 147L207 146z"/>
<path style="fill:#9bb5c9; stroke:none;" d="M600 146L601 147L600 146z"/>
<path style="fill:#b5cddd; stroke:none;" d="M205 147L206 148L205 147z"/>
<path style="fill:#8798a4; stroke:none;" d="M206 147L207 148L206 147M601 147L602 148L601 147z"/>
<path style="fill:#b5cddd; stroke:none;" d="M204 148L205 149L204 148M603 148L604 149L603 148z"/>
<path style="fill:#9bb5c9; stroke:none;" d="M203 149L204 150L203 149M604 149L605 150L604 149z"/>
<path style="fill:#8798a4; stroke:none;" d="M202 150L203 151L202 150M605 150L606 151L605 150z"/>
<path style="fill:#b5cddd; stroke:none;" d="M200 151L201 152L200 151z"/>
<path style="fill:#8798a4; stroke:none;" d="M606 151L607 152L606 151z"/>
<path style="fill:#b5cddd; stroke:none;" d="M607 151L608 152L607 151z"/>
<path style="fill:#9bb5c9; stroke:none;" d="M199 152L200 153L199 152z"/>
<path style="fill:#b5cddd; stroke:none;" d="M608 152L609 153L608 152z"/>
<path style="fill:#9bb5c9; stroke:none;" d="M198 153L199 154L198 153M609 153L610 154L609 153z"/>
<path style="fill:#8798a4; stroke:none;" d="M197 154L198 155L197 154z"/>
<path style="fill:#9bb5c9; stroke:none;" d="M610 154L611 155L610 154z"/>
<path style="fill:#8798a4; stroke:none;" d="M196 155L197 156L196 155M611 155L612 156L611 155z"/>
<path style="fill:#b5cddd; stroke:none;" d="M194 156L195 157L194 156z"/>
<path style="fill:#8798a4; stroke:none;" d="M612 156L613 157L612 156z"/>
<path style="fill:#b5cddd; stroke:none;" d="M193 157L194 158L193 157z"/>
<path style="fill:#9bb5c9; stroke:none;" d="M192 158L193 159L192 158z"/>
<path style="fill:#b5cddd; stroke:none;" d="M615 158L616 159L615 158z"/>
<path style="fill:#9bb5c9; stroke:none;" d="M191 159L192 160L191 159z"/>
<path style="fill:#b5cddd; stroke:none;" d="M616 159L617 160L616 159z"/>
<path style="fill:#8798a4; stroke:none;" d="M190 160L191 161L190 160z"/>
<path style="fill:#9bb5c9; stroke:none;" d="M617 160L618 161L617 160z"/>
<path style="fill:#8798a4; stroke:none;" d="M189 161L190 162L189 161M618 161L619 162L618 161M188 162L189 163L188 162M619 162L620 163L619 162M187 163L188 164L187 163M620 163L621 164L620 163M621 164L622 165L621 164z"/>
<path style="fill:#b5cddd; stroke:none;" d="M184 165L185 166L184 165z"/>
<path style="fill:#8798a4; stroke:none;" d="M622 165L623 166L622 165z"/>
<path style="fill:#b5cddd; stroke:none;" d="M183 166L184 167L183 166z"/>
<path style="fill:#8798a4; stroke:none;" d="M623 166L624 167L623 166z"/>
<path style="fill:#b5cddd; stroke:none;" d="M182 167L183 168L182 167z"/>
<path style="fill:#8798a4; stroke:none;" d="M624 167L625 168L624 167z"/>
<path style="fill:#b5cddd; stroke:none;" d="M181 168L182 169L181 168M180 169L181 170L180 169M627 169L628 170L627 169M179 170L180 171L179 170M628 170L629 171L628 170M178 171L179 172L178 171M629 171L630 172L629 171M177 172L178 173L177 172M630 172L631 173L630 172z"/>
<path style="fill:#9bb5c9; stroke:none;" d="M176 173L177 174L176 173z"/>
<path style="fill:#b5cddd; stroke:none;" d="M631 173L632 174L631 173M175 174L176 175L175 174M632 174L633 175L632 174M174 175L175 176L174 175M633 175L634 176L633 175M173 176L174 177L173 176M172 177L173 178L172 177M171 178L172 179L171 178M170 179L171 180L170 179z"/>
<path style="fill:#8798a4; stroke:none;" d="M636 179L637 180L636 179M637 180L638 181L637 180M638 181L639 182L638 181M639 182L640 183L639 182M167 183L168 184L167 183M640 183L641 184L640 183M166 184L167 185L166 184M641 184L642 185L641 184M165 185L166 186L165 185z"/>
<path style="fill:#9bb5c9; stroke:none;" d="M642 185L643 186L642 185z"/>
<path style="fill:#8798a4; stroke:none;" d="M164 186L165 187L164 186z"/>
<path style="fill:#9bb5c9; stroke:none;" d="M643 186L644 187L643 186M163 187L164 188L163 187z"/>
<path style="fill:#b5cddd; stroke:none;" d="M644 187L645 188L644 187z"/>
<path style="fill:#9bb5c9; stroke:none;" d="M162 188L163 189L162 188z"/>
<path style="fill:#b5cddd; stroke:none;" d="M645 188L646 189L645 188M161 189L162 190L161 189M646 189L647 190L646 189M160 190L161 191L160 190z"/>
<path style="fill:#8798a4; stroke:none;" d="M646 190L647 191L646 190M647 191L648 192L647 191M159 192L160 193L159 192M648 192L649 193L648 192M158 193L159 194L158 193z"/>
<path style="fill:#9bb5c9; stroke:none;" d="M649 193L650 194L649 193M157 194L158 195L157 194M650 194L651 195L650 194M156 195L157 196L156 195z"/>
<path style="fill:#b5cddd; stroke:none;" d="M651 195L652 196L651 195M155 196L156 197L155 196M652 196L653 197L652 196M154 197L155 198L154 197z"/>
<path style="fill:#8798a4; stroke:none;" d="M652 197L653 198L652 197M154 198L155 199L154 198M653 198L654 199L653 198M153 199L154 200L153 199z"/>
<path style="fill:#9bb5c9; stroke:none;" d="M654 199L655 200L654 199M152 200L153 201L152 200z"/>
<path style="fill:#b5cddd; stroke:none;" d="M655 200L656 201L655 200M151 201L152 202L151 201z"/>
<path style="fill:#8798a4; stroke:none;" d="M656 202L657 203L656 202M150 203L151 204L150 203M657 203L658 204L657 203z"/>
<path style="fill:#9bb5c9; stroke:none;" d="M149 204L150 205L149 204M658 204L659 205L658 204z"/>
<path style="fill:#b5cddd; stroke:none;" d="M148 205L149 206L148 205M659 205L660 206L659 205M147 206L148 207L147 206z"/>
<path style="fill:#8798a4; stroke:none;" d="M659 206L660 207L659 206M147 207L148 208L147 207M660 207L661 208L660 207M146 208L147 209L146 208z"/>
<path style="fill:#9bb5c9; stroke:none;" d="M661 208L662 209L661 208M145 209L146 210L145 209z"/>
<path style="fill:#b5cddd; stroke:none;" d="M662 209L663 210L662 209M144 210L145 211L144 210z"/>
<path style="fill:#8798a4; stroke:none;" d="M144 211L145 212L144 211M663 211L664 212L663 211z"/>
<path style="fill:#9bb5c9; stroke:none;" d="M143 212L144 213L143 212z"/>
<path style="fill:#b5cddd; stroke:none;" d="M664 212L665 213L664 212M142 213L143 214L142 213z"/>
<path style="fill:#8798a4; stroke:none;" d="M665 214L666 215L665 214M141 215L142 216L141 215z"/>
<path style="fill:#9bb5c9; stroke:none;" d="M666 215L667 216L666 215M140 216L141 217L140 216z"/>
<path style="fill:#b5cddd; stroke:none;" d="M667 216L668 217L667 216z"/>
<path style="fill:#8798a4; stroke:none;" d="M139 218L140 219L139 218M668 218L669 219L668 218z"/>
<path style="fill:#9bb5c9; stroke:none;" d="M138 219L139 220L138 219z"/>
<path style="fill:#b5cddd; stroke:none;" d="M669 219L670 220L669 219M137 220L138 221L137 220z"/>
<path style="fill:#8798a4; stroke:none;" d="M670 221L671 222L670 221z"/>
<path style="fill:#9bb5c9; stroke:none;" d="M136 222L137 223L136 222M671 222L672 223L671 222z"/>
<path style="fill:#b5cddd; stroke:none;" d="M135 223L136 224L135 223z"/>
<path style="fill:#8798a4; stroke:none;" d="M135 224L136 225L135 224M672 224L673 225L672 224z"/>
<path style="fill:#9bb5c9; stroke:none;" d="M134 225L135 226L134 225z"/>
<path style="fill:#b5cddd; stroke:none;" d="M673 225L674 226L673 225z"/>
<path style="fill:#8798a4; stroke:none;" d="M673 226L674 227L673 226M133 227L134 228L133 227z"/>
<path style="fill:#9bb5c9; stroke:none;" d="M674 227L675 228L674 227M132 228L133 229L132 228z"/>
<path style="fill:#b5cddd; stroke:none;" d="M675 228L676 229L675 228z"/>
<path style="fill:#8798a4; stroke:none;" d="M675 229L676 230L675 229M131 230L132 231L131 230z"/>
<path style="fill:#9bb5c9; stroke:none;" d="M676 230L677 231L676 230z"/>
<path style="fill:#b5cddd; stroke:none;" d="M130 231L131 232L130 231z"/>
<path style="fill:#8798a4; stroke:none;" d="M130 232L131 233L130 232M677 232L678 233L677 232z"/>
<path style="fill:#9bb5c9; stroke:none;" d="M129 233L130 234L129 233z"/>
<path style="fill:#b5cddd; stroke:none;" d="M678 233L679 234L678 233M128 234L129 235L128 234z"/>
<path style="fill:#8798a4; stroke:none;" d="M128 235L129 236L128 235M679 235L680 236L679 235z"/>
<path style="fill:#b5cddd; stroke:none;" d="M127 236L128 237L127 236M680 236L681 237L680 236z"/>
<path style="fill:#8798a4; stroke:none;" d="M680 237L681 238L680 237z"/>
<path style="fill:#9bb5c9; stroke:none;" d="M126 238L127 239L126 238z"/>
<path style="fill:#b5cddd; stroke:none;" d="M681 238L682 239L681 238z"/>
<path style="fill:#8798a4; stroke:none;" d="M681 239L682 240L681 239M125 240L126 241L125 240z"/>
<path style="fill:#9bb5c9; stroke:none;" d="M682 240L683 241L682 240z"/>
<path style="fill:#b5cddd; stroke:none;" d="M124 241L125 242L124 241z"/>
<path style="fill:#8798a4; stroke:none;" d="M124 242L125 243L124 242z"/>
<path style="fill:#9bb5c9; stroke:none;" d="M683 242L684 243L683 242z"/>
<path style="fill:#b5cddd; stroke:none;" d="M123 243L124 244L123 243z"/>
<path style="fill:#8798a4; stroke:none;" d="M123 244L124 245L123 244M684 244L685 245L684 244z"/>
<path style="fill:#9bb5c9; stroke:none;" d="M122 245L123 246L122 245z"/>
<path style="fill:#b5cddd; stroke:none;" d="M685 245L686 246L685 245z"/>
<path style="fill:#8798a4; stroke:none;" d="M685 246L686 247L685 246M121 247L122 248L121 247z"/>
<path style="fill:#b5cddd; stroke:none;" d="M686 247L687 248L686 247M120 248L121 249L120 248z"/>
<path style="fill:#8798a4; stroke:none;" d="M120 249L121 250L120 249z"/>
<path style="fill:#9bb5c9; stroke:none;" d="M687 249L688 250L687 249z"/>
<path style="fill:#b5cddd; stroke:none;" d="M119 250L120 251L119 250z"/>
<path style="fill:#8798a4; stroke:none;" d="M119 251L120 252L119 251z"/>
<path style="fill:#9bb5c9; stroke:none;" d="M688 251L689 252L688 251z"/>
<path style="fill:#b5cddd; stroke:none;" d="M118 252L119 253L118 252z"/>
<path style="fill:#8798a4; stroke:none;" d="M118 253L119 254L118 253z"/>
<path style="fill:#9bb5c9; stroke:none;" d="M689 253L690 254L689 253z"/>
<path style="fill:#b5cddd; stroke:none;" d="M117 254L118 255L117 254z"/>
<path style="fill:#8798a4; stroke:none;" d="M117 255L118 256L117 255z"/>
<path style="fill:#9bb5c9; stroke:none;" d="M690 255L691 256L690 255z"/>
<path style="fill:#b5cddd; stroke:none;" d="M116 256L117 257L116 256z"/>
<path style="fill:#8798a4; stroke:none;" d="M116 257L117 258L116 257z"/>
<path style="fill:#9bb5c9; stroke:none;" d="M691 257L692 258L691 257z"/>
<path style="fill:#b5cddd; stroke:none;" d="M115 258L116 259L115 258z"/>
<path style="fill:#8798a4; stroke:none;" d="M115 259L116 260L115 259z"/>
<path style="fill:#9bb5c9; stroke:none;" d="M692 259L693 260L692 259z"/>
<path style="fill:#b5cddd; stroke:none;" d="M114 260L115 261L114 260z"/>
<path style="fill:#8798a4; stroke:none;" d="M114 261L115 262L114 261z"/>
<path style="fill:#9bb5c9; stroke:none;" d="M693 261L694 262L693 261z"/>
<path style="fill:#b5cddd; stroke:none;" d="M113 262L114 263L113 262z"/>
<path style="fill:#8798a4; stroke:none;" d="M113 263L114 264L113 263z"/>
<path style="fill:#9bb5c9; stroke:none;" d="M694 263L695 264L694 263M112 265L113 266L112 265z"/>
<path style="fill:#b5cddd; stroke:none;" d="M695 265L696 266L695 265z"/>
<path style="fill:#8798a4; stroke:none;" d="M695 266L696 267L695 266z"/>
<path style="fill:#9bb5c9; stroke:none;" d="M111 267L112 268L111 267z"/>
<path style="fill:#b5cddd; stroke:none;" d="M696 267L697 268L696 267z"/>
<path style="fill:#8798a4; stroke:none;" d="M696 268L697 269L696 268z"/>
<path style="fill:#b5cddd; stroke:none;" d="M110 269L111 270L110 269M697 269L698 270L697 269z"/>
<path style="fill:#8798a4; stroke:none;" d="M110 270L111 271L110 270M697 270L698 271L697 270z"/>
<path style="fill:#b5cddd; stroke:none;" d="M109 271L110 272L109 271z"/>
<path style="fill:#8798a4; stroke:none;" d="M109 272L110 273L109 272z"/>
<path style="fill:#9bb5c9; stroke:none;" d="M698 272L699 273L698 272M108 274L109 275L108 274z"/>
<path style="fill:#b5cddd; stroke:none;" d="M699 274L700 275L699 274z"/>
<path style="fill:#8798a4; stroke:none;" d="M699 275L700 276L699 275z"/>
<path style="fill:#9bb5c9; stroke:none;" d="M107 276L108 277L107 276z"/>
<path style="fill:#b5cddd; stroke:none;" d="M700 276L701 277L700 276z"/>
<path style="fill:#8798a4; stroke:none;" d="M107 277L108 278L107 277M700 277L701 278L700 277z"/>
<path style="fill:#b5cddd; stroke:none;" d="M106 278L107 279L106 278z"/>
<path style="fill:#8798a4; stroke:none;" d="M106 279L107 280L106 279z"/>
<path style="fill:#9bb5c9; stroke:none;" d="M701 279L702 280L701 279z"/>
<path style="fill:#8798a4; stroke:none;" d="M701 280L702 281L701 280z"/>
<path style="fill:#9bb5c9; stroke:none;" d="M105 281L106 282L105 281z"/>
<path style="fill:#b5cddd; stroke:none;" d="M702 281L703 282L702 281z"/>
<path style="fill:#8798a4; stroke:none;" d="M105 282L106 283L105 282z"/>
<path style="fill:#9bb5c9; stroke:none;" d="M702 282L703 283L702 282z"/>
<path style="fill:#b5cddd; stroke:none;" d="M104 283L105 284L104 283z"/>
<path style="fill:#9bb5c9; stroke:none;" d="M104 284L105 285L104 284M703 284L704 285L703 284z"/>
<path style="fill:#8798a4; stroke:none;" d="M703 285L704 286L703 285z"/>
<path style="fill:#b5cddd; stroke:none;" d="M103 286L104 287L103 286z"/>
<path style="fill:#8798a4; stroke:none;" d="M103 287L104 288L103 287z"/>
<path style="fill:#9bb5c9; stroke:none;" d="M704 287L705 288L704 287M102 289L103 290L102 289z"/>
<path style="fill:#b5cddd; stroke:none;" d="M705 289L706 290L705 289z"/>
<path style="fill:#8798a4; stroke:none;" d="M705 290L706 291L705 290z"/>
<path style="fill:#b5cddd; stroke:none;" d="M101 291L102 292L101 291z"/>
<path style="fill:#8798a4; stroke:none;" d="M101 292L102 293L101 292z"/>
<path style="fill:#9bb5c9; stroke:none;" d="M706 292L707 293L706 292z"/>
<path style="fill:#8798a4; stroke:none;" d="M706 293L707 294L706 293z"/>
<path style="fill:#b5cddd; stroke:none;" d="M100 294L101 295L100 294z"/>
<path style="fill:#8798a4; stroke:none;" d="M100 295L101 296L100 295z"/>
<path style="fill:#9bb5c9; stroke:none;" d="M707 295L708 296L707 295z"/>
<path style="fill:#8798a4; stroke:none;" d="M707 296L708 297L707 296z"/>
<path style="fill:#b5cddd; stroke:none;" d="M99 297L100 298L99 297z"/>
<path style="fill:#8798a4; stroke:none;" d="M99 298L100 299L99 298z"/>
<path style="fill:#9bb5c9; stroke:none;" d="M708 298L709 299L708 298z"/>
<path style="fill:#8798a4; stroke:none;" d="M708 299L709 300L708 299z"/>
<path style="fill:#b5cddd; stroke:none;" d="M98 300L99 301L98 300z"/>
<path style="fill:#9bb5c9; stroke:none;" d="M98 301L99 302L98 301M709 301L710 302L709 301z"/>
<path style="fill:#8798a4; stroke:none;" d="M709 302L710 303L709 302z"/>
<path style="fill:#b5cddd; stroke:none;" d="M97 303L98 304L97 303z"/>
<path style="fill:#9bb5c9; stroke:none;" d="M97 304L98 305L97 304z"/>
<path style="fill:#b5cddd; stroke:none;" d="M710 304L711 305L710 304z"/>
<path style="fill:#8798a4; stroke:none;" d="M97 305L98 306L97 305M710 305L711 306L710 305z"/>
<path style="fill:#b5cddd; stroke:none;" d="M96 306L97 307L96 306z"/>
<path style="fill:#9bb5c9; stroke:none;" d="M96 307L97 308L96 307z"/>
<path style="fill:#b5cddd; stroke:none;" d="M711 307L712 308L711 307z"/>
<path style="fill:#8798a4; stroke:none;" d="M96 308L97 309L96 308M711 308L712 309L711 308z"/>
<path style="fill:#b5cddd; stroke:none;" d="M95 310L96 311L95 310M712 310L713 311L712 310z"/>
<path style="fill:#8798a4; stroke:none;" d="M95 311L96 312L95 311z"/>
<path style="fill:#9bb5c9; stroke:none;" d="M712 311L713 312L712 311z"/>
<path style="fill:#8798a4; stroke:none;" d="M712 312L713 313L712 312z"/>
<path style="fill:#b5cddd; stroke:none;" d="M94 313L95 314L94 313z"/>
<path style="fill:#9bb5c9; stroke:none;" d="M94 314L95 315L94 314z"/>
<path style="fill:#b5cddd; stroke:none;" d="M713 314L714 315L713 314z"/>
<path style="fill:#8798a4; stroke:none;" d="M94 315L95 316L94 315z"/>
<path style="fill:#9bb5c9; stroke:none;" d="M713 315L714 316L713 315z"/>
<path style="fill:#8798a4; stroke:none;" d="M713 316L714 317L713 316z"/>
<path style="fill:#b5cddd; stroke:none;" d="M93 317L94 318L93 317z"/>
<path style="fill:#9bb5c9; stroke:none;" d="M93 318L94 319L93 318M714 318L715 319L714 318z"/>
<path style="fill:#8798a4; stroke:none;" d="M93 319L94 320L93 319M714 319L715 320L714 319z"/>
<path style="fill:#9bb5c9; stroke:none;" d="M92 321L93 322L92 321z"/>
<path style="fill:#b5cddd; stroke:none;" d="M715 321L716 322L715 321z"/>
<path style="fill:#8798a4; stroke:none;" d="M92.3333 322.667L92.6667 323.333L92.3333 322.667z"/>
<path style="fill:#9bb5c9; stroke:none;" d="M715 322L716 323L715 322z"/>
<path style="fill:#8798a4; stroke:none;" d="M715 323L716 324L715 323z"/>
<path style="fill:#b5cddd; stroke:none;" d="M91 325L92 326L91 325z"/>
<path style="fill:#9bb5c9; stroke:none;" d="M91 326L92 327L91 326z"/>
<path style="fill:#b5cddd; stroke:none;" d="M716 326L717 327L716 326z"/>
<path style="fill:#8798a4; stroke:none;" d="M91 327L92 328L91 327z"/>
<path style="fill:#9bb5c9; stroke:none;" d="M716 327L717 328L716 327z"/>
<path style="fill:#8798a4; stroke:none;" d="M716 328L717 329L716 328z"/>
<path style="fill:#b5cddd; stroke:none;" d="M90 329L91 330L90 329z"/>
<path style="fill:#9bb5c9; stroke:none;" d="M90 330L91 331L90 330z"/>
<path style="fill:#b5cddd; stroke:none;" d="M717 330L718 331L717 330z"/>
<path style="fill:#8798a4; stroke:none;" d="M90 331L91 332L90 331z"/>
<path style="fill:#9bb5c9; stroke:none;" d="M717 331L718 332L717 331z"/>
<path style="fill:#8798a4; stroke:none;" d="M717 332L718 333L717 332z"/>
<path style="fill:#b5cddd; stroke:none;" d="M89 334L90 335L89 334M718 334L719 335L718 334z"/>
<path style="fill:#9bb5c9; stroke:none;" d="M89 335L90 336L89 335M718 335L719 336L718 335z"/>
<path style="fill:#8798a4; stroke:none;" d="M89 336L90 337L89 336M718.333 336.667L718.667 337.333L718.333 336.667z"/>
<path style="fill:#b5cddd; stroke:none;" d="M88.3333 338.667L88.6667 339.333L88.3333 338.667M719.333 339.667L719.667 340.333L719.333 339.667z"/>
<path style="fill:#9bb5c9; stroke:none;" d="M88 340L89 341L88 340z"/>
<path style="fill:#8798a4; stroke:none;" d="M88 341L89 342L88 341z"/>
<path style="fill:#9bb5c9; stroke:none;" d="M719 341L720 342L719 341z"/>
<path style="fill:#8798a4; stroke:none;" d="M719 342L720 343L719 342z"/>
<path style="fill:#b5cddd; stroke:none;" d="M87 344L88 345L87 344z"/>
<path style="fill:#9bb5c9; stroke:none;" d="M87 345L88 346L87 345z"/>
<path style="fill:#b5cddd; stroke:none;" d="M720 345L721 346L720 345z"/>
<path style="fill:#8798a4; stroke:none;" d="M87.3333 346.667L87.6667 347.333L87.3333 346.667z"/>
<path style="fill:#9bb5c9; stroke:none;" d="M720.333 346.667L720.667 347.333L720.333 346.667z"/>
<path style="fill:#8798a4; stroke:none;" d="M720 348L721 349L720 348z"/>
<path style="fill:#b5cddd; stroke:none;" d="M86 350L87 351L86 350z"/>
<path style="fill:#9bb5c9; stroke:none;" d="M86 351L87 352L86 351z"/>
<path style="fill:#b5cddd; stroke:none;" d="M721 351L722 352L721 351z"/>
<path style="fill:#8798a4; stroke:none;" d="M86.3333 352.667L86.6667 353.333L86.3333 352.667z"/>
<path style="fill:#9bb5c9; stroke:none;" d="M721.333 352.667L721.667 353.333L721.333 352.667z"/>
<path style="fill:#8798a4; stroke:none;" d="M721.333 354.667L721.667 355.333L721.333 354.667z"/>
<path style="fill:#b5cddd; stroke:none;" d="M85 357L86 358L85 357z"/>
<path style="fill:#9bb5c9; stroke:none;" d="M85.3333 358.667L85.6667 359.333L85.3333 358.667z"/>
<path style="fill:#b5cddd; stroke:none;" d="M722.333 358.667L722.667 359.333L722.333 358.667z"/>
<path style="fill:#8798a4; stroke:none;" d="M85.3333 360.667L85.6667 361.333L85.3333 360.667z"/>
<path style="fill:#9bb5c9; stroke:none;" d="M722.333 360.667L722.667 361.333L722.333 360.667z"/>
<path style="fill:#8798a4; stroke:none;" d="M722.333 362.667L722.667 363.333L722.333 362.667z"/>
<path style="fill:#b5cddd; stroke:none;" d="M84 365L85 366L84 365z"/>
<path style="fill:#9bb5c9; stroke:none;" d="M84.3333 366.667L84.6667 367.333L84.3333 366.667z"/>
<path style="fill:#b5cddd; stroke:none;" d="M723.333 366.667L723.667 367.333L723.333 366.667z"/>
<path style="fill:#8798a4; stroke:none;" d="M84 368L84 372L85 372L84 368z"/>
<path style="fill:#9bb5c9; stroke:none;" d="M723.333 368.667L723.667 369.333L723.333 368.667z"/>
<path style="fill:#8798a4; stroke:none;" d="M723 370L723 374L724 374L723 370z"/>
<path style="fill:#b5cddd; stroke:none;" d="M83 375L83 379L84 379L83 375M724 378L724 381L725 381L724 378z"/>
<path style="fill:#9bb5c9; stroke:none;" d="M83.3333 379.667L83.6667 380.333L83.3333 379.667z"/>
<path style="fill:#8798a4; stroke:none;" d="M83 381L83 387L84 387L83 381z"/>
<path style="fill:#9bb5c9; stroke:none;" d="M724 381L724 384L725 384L724 381z"/>
<path style="fill:#8798a4; stroke:none;" d="M724 384L724 395L725 395L724 384M724 406L724 417L725 417L724 406M83 414L83 419L84 419L83 414z"/>
<path style="fill:#9bb5c9; stroke:none;" d="M724.333 417.667L724.667 418.333L724.333 417.667M83 419L83 422L84 422L83 419z"/>
<path style="fill:#b5cddd; stroke:none;" d="M724 419L724 423L725 423L724 419M83 422L83 425L84 425L83 422z"/>
<path style="fill:#8798a4; stroke:none;" d="M723 426L723 430L724 430L723 426M84 429L84 432L85 432L84 429M634 430L634 431L661 431L634 430z"/>
<path style="fill:#9bb5c9; stroke:none;" d="M723 430L723 433L724 433L723 430z"/>
<path style="fill:#8798a4; stroke:none;" d="M622 431L622 432L627 432L622 431z"/>
<path style="fill:#9bb5c9; stroke:none;" d="M727 905C726.06 883.092 724.215 863.499 731.029 842C750.289 781.228 815.142 734.959 880 747C890.298 723.071 891 694.586 891 669C891 642.678 886.174 615.65 876.808 591C864.062 557.455 845.406 526.585 819.911 501.089C743.665 424.844 620.312 409.051 527 462.427C498.044 478.991 472.416 501.206 452.478 528C373.725 633.84 394.864 789.626 501 869.105C545.073 902.109 603.656 921.7 659 917.911C682.608 916.294 704.122 910.293 727 905z"/>
<path style="fill:#8798a4; stroke:none;" d="M669 431L669 432L673 432L669 431z"/>
<path style="fill:#9bb5c9; stroke:none;" d="M84.3333 432.667L84.6667 433.333L84.3333 432.667z"/>
<path style="fill:#8798a4; stroke:none;" d="M614 432L614 433L618 433L614 432M678 432L678 433L681 433L678 432M608 433L608 434L611 434L608 433M685 433L685 434L688 434L685 433z"/>
<path style="fill:#b5cddd; stroke:none;" d="M723 433L724 434L723 433M84.3333 434.667L84.6667 435.333L84.3333 434.667z"/>
<path style="fill:#8798a4; stroke:none;" d="M602 434L602 435L605 435L602 434M691 434L691 435L694 435L691 434M597.667 435.333L598.333 435.667L597.667 435.333M696 435L696 436L699 436L696 435M593.667 436.333L594.333 436.667L593.667 436.333M701.667 436.333L702.333 436.667L701.667 436.333M588.667 437.333L589.333 437.667L588.667 437.333M705.667 437.333L706.333 437.667L705.667 437.333M722.333 437.667L722.667 438.333L722.333 437.667M85.3333 438.667L85.6667 439.333L85.3333 438.667M584.667 438.333L585.333 438.667L584.667 438.333M710 438L711 439L710 438M581 439L582 440L581 439M713.667 439.333L714.333 439.667L713.667 439.333z"/>
<path style="fill:#9bb5c9; stroke:none;" d="M722.333 439.667L722.667 440.333L722.333 439.667M85.3333 440.667L85.6667 441.333L85.3333 440.667z"/>
<path style="fill:#8798a4; stroke:none;" d="M577.667 440.333L578.333 440.667L577.667 440.333M717 440L718 441L717 440M574.667 441.333L575.333 441.667L574.667 441.333M720 441L721 442L720 441z"/>
<path style="fill:#b5cddd; stroke:none;" d="M722 441L723 442L722 441M85.3333 442.667L85.6667 443.333L85.3333 442.667z"/>
<path style="fill:#8798a4; stroke:none;" d="M571.667 442.333L572.333 442.667L571.667 442.333z"/>
<path style="fill:#b5cddd; stroke:none;" d="M723 442L724 443L723 442z"/>
<path style="fill:#8798a4; stroke:none;" d="M568.667 443.333L569.333 443.667L568.667 443.333z"/>
<path style="fill:#b5cddd; stroke:none;" d="M726 443L727 444L726 443z"/>
<path style="fill:#8798a4; stroke:none;" d="M565.667 444.333L566.333 444.667L565.667 444.333z"/>
<path style="fill:#b5cddd; stroke:none;" d="M729 444L730 445L729 444z"/>
<path style="fill:#8798a4; stroke:none;" d="M563 445L564 446L563 445z"/>
<path style="fill:#b5cddd; stroke:none;" d="M732 445L733 446L732 445z"/>
<path style="fill:#8798a4; stroke:none;" d="M86.3333 446.667L86.6667 447.333L86.3333 446.667M560 446L561 447L560 446z"/>
<path style="fill:#b5cddd; stroke:none;" d="M734.667 446.333L735.333 446.667L734.667 446.333z"/>
<path style="fill:#8798a4; stroke:none;" d="M558 447L559 448L558 447z"/>
<path style="fill:#b5cddd; stroke:none;" d="M737 447L738 448L737 447z"/>
<path style="fill:#9bb5c9; stroke:none;" d="M86 448L87 449L86 448z"/>
<path style="fill:#8798a4; stroke:none;" d="M555 448L556 449L555 448z"/>
<path style="fill:#b5cddd; stroke:none;" d="M739 448L740 449L739 448M86.3333 449.667L86.6667 450.333L86.3333 449.667z"/>
<path style="fill:#8798a4; stroke:none;" d="M553 449L554 450L553 449z"/>
<path style="fill:#b5cddd; stroke:none;" d="M742 449L743 450L742 449z"/>
<path style="fill:#8798a4; stroke:none;" d="M551 450L552 451L551 450z"/>
<path style="fill:#b5cddd; stroke:none;" d="M744 450L745 451L744 450z"/>
<path style="fill:#8798a4; stroke:none;" d="M548 451L549 452L548 451z"/>
<path style="fill:#b5cddd; stroke:none;" d="M746 451L747 452L746 451z"/>
<path style="fill:#8798a4; stroke:none;" d="M87.3333 452.667L87.6667 453.333L87.3333 452.667M546 452L547 453L546 452z"/>
<path style="fill:#b5cddd; stroke:none;" d="M748.667 452.333L749.333 452.667L748.667 452.333z"/>
<path style="fill:#8798a4; stroke:none;" d="M544 453L545 454L544 453z"/>
<path style="fill:#b5cddd; stroke:none;" d="M751 453L752 454L751 453z"/>
<path style="fill:#9bb5c9; stroke:none;" d="M87 454L88 455L87 454z"/>
<path style="fill:#8798a4; stroke:none;" d="M542 454L543 455L542 454z"/>
<path style="fill:#b5cddd; stroke:none;" d="M753 454L754 455L753 454M87 455L88 456L87 455z"/>
<path style="fill:#8798a4; stroke:none;" d="M540 455L541 456L540 455z"/>
<path style="fill:#b5cddd; stroke:none;" d="M755 455L756 456L755 455z"/>
<path style="fill:#8798a4; stroke:none;" d="M538 456L539 457L538 456z"/>
<path style="fill:#b5cddd; stroke:none;" d="M757 456L758 457L757 456z"/>
<path style="fill:#8798a4; stroke:none;" d="M536 457L537 458L536 457z"/>
<path style="fill:#b5cddd; stroke:none;" d="M759 457L760 458L759 457z"/>
<path style="fill:#8798a4; stroke:none;" d="M88.3333 458.667L88.6667 459.333L88.3333 458.667M534 458L535 459L534 458z"/>
<path style="fill:#b5cddd; stroke:none;" d="M761 458L762 459L761 458z"/>
<path style="fill:#8798a4; stroke:none;" d="M532 459L533 460L532 459z"/>
<path style="fill:#b5cddd; stroke:none;" d="M763 459L764 460L763 459z"/>
<path style="fill:#9bb5c9; stroke:none;" d="M88 460L89 461L88 460z"/>
<path style="fill:#8798a4; stroke:none;" d="M530 460L531 461L530 460z"/>
<path style="fill:#b5cddd; stroke:none;" d="M764 460L765 461L764 460M88 461L89 462L88 461z"/>
<path style="fill:#8798a4; stroke:none;" d="M528 461L529 462L528 461z"/>
<path style="fill:#b5cddd; stroke:none;" d="M766 461L767 462L766 461M768 462L769 463L768 462z"/>
<path style="fill:#8798a4; stroke:none;" d="M89.3333 463.667L89.6667 464.333L89.3333 463.667M525 463L526 464L525 463z"/>
<path style="fill:#b5cddd; stroke:none;" d="M770 463L771 464L770 463z"/>
<path style="fill:#8798a4; stroke:none;" d="M523 464L524 465L523 464z"/>
<path style="fill:#9bb5c9; stroke:none;" d="M89 465L90 466L89 465z"/>
<path style="fill:#b5cddd; stroke:none;" d="M773 465L774 466L773 465M89 466L90 467L89 466z"/>
<path style="fill:#8798a4; stroke:none;" d="M520 466L521 467L520 466z"/>
<path style="fill:#b5cddd; stroke:none;" d="M775 466L776 467L775 466z"/>
<path style="fill:#8798a4; stroke:none;" d="M518 467L519 468L518 467z"/>
<path style="fill:#b5cddd; stroke:none;" d="M776 467L777 468L776 467z"/>
<path style="fill:#8798a4; stroke:none;" d="M90 468L91 469L90 468z"/>
<path style="fill:#b5cddd; stroke:none;" d="M778 468L779 469L778 468z"/>
<path style="fill:#9bb5c9; stroke:none;" d="M90 469L91 470L90 469z"/>
<path style="fill:#8798a4; stroke:none;" d="M515 469L516 470L515 469z"/>
<path style="fill:#b5cddd; stroke:none;" d="M90 470L91 471L90 470M781 470L782 471L781 470z"/>
<path style="fill:#8798a4; stroke:none;" d="M512 471L513 472L512 471z"/>
<path style="fill:#b5cddd; stroke:none;" d="M783 471L784 472L783 471z"/>
<path style="fill:#8798a4; stroke:none;" d="M91.3333 472.667L91.6667 473.333L91.3333 472.667z"/>
<path style="fill:#b5cddd; stroke:none;" d="M784 472L785 473L784 472z"/>
<path style="fill:#8798a4; stroke:none;" d="M509 473L510 474L509 473z"/>
<path style="fill:#9bb5c9; stroke:none;" d="M91 474L92 475L91 474z"/>
<path style="fill:#b5cddd; stroke:none;" d="M787 474L788 475L787 474M91 475L92 476L91 475z"/>
<path style="fill:#8798a4; stroke:none;" d="M506 475L507 476L506 475M505 476L506 477L505 476z"/>
<path style="fill:#b5cddd; stroke:none;" d="M790 476L791 477L790 476z"/>
<path style="fill:#8798a4; stroke:none;" d="M92 477L93 478L92 477M503 477L504 478L503 477z"/>
<path style="fill:#b5cddd; stroke:none;" d="M791 477L792 478L791 477z"/>
<path style="fill:#9bb5c9; stroke:none;" d="M92 478L93 479L92 478z"/>
<path style="fill:#8798a4; stroke:none;" d="M502 478L503 479L502 478z"/>
<path style="fill:#b5cddd; stroke:none;" d="M92 479L93 480L92 479M794 479L795 480L794 479M795 480L796 481L795 480z"/>
<path style="fill:#8798a4; stroke:none;" d="M93 481L94 482L93 481M498 481L499 482L498 481z"/>
<path style="fill:#9bb5c9; stroke:none;" d="M93 482L94 483L93 482z"/>
<path style="fill:#8798a4; stroke:none;" d="M497 482L498 483L497 482z"/>
<path style="fill:#b5cddd; stroke:none;" d="M798 482L799 483L798 482M799 483L800 484L799 483z"/>
<path style="fill:#8798a4; stroke:none;" d="M94 484L95 485L94 484M494 484L495 485L494 484z"/>
<path style="fill:#9bb5c9; stroke:none;" d="M94 485L95 486L94 485z"/>
<path style="fill:#8798a4; stroke:none;" d="M493 485L494 486L493 485z"/>
<path style="fill:#b5cddd; stroke:none;" d="M94 486L95 487L94 486M803 486L804 487L803 486M804 487L805 488L804 487z"/>
<path style="fill:#8798a4; stroke:none;" d="M95 488L96 489L95 488z"/>
<path style="fill:#b5cddd; stroke:none;" d="M805 488L806 489L805 488z"/>
<path style="fill:#9bb5c9; stroke:none;" d="M95 489L96 490L95 489z"/>
<path style="fill:#8798a4; stroke:none;" d="M488 489L489 490L488 489z"/>
<path style="fill:#b5cddd; stroke:none;" d="M95 490L96 491L95 490z"/>
<path style="fill:#8798a4; stroke:none;" d="M487 490L488 491L487 490M486 491L487 492L486 491M96 492L97 493L96 492M485 492L486 493L485 492z"/>
<path style="fill:#b5cddd; stroke:none;" d="M810 492L811 493L810 492z"/>
<path style="fill:#9bb5c9; stroke:none;" d="M96 493L97 494L96 493z"/>
<path style="fill:#b5cddd; stroke:none;" d="M811 493L812 494L811 493M812 494L813 495L812 494z"/>
<path style="fill:#8798a4; stroke:none;" d="M97 495L98 496L97 495z"/>
<path style="fill:#b5cddd; stroke:none;" d="M813 495L814 496L813 495z"/>
<path style="fill:#9bb5c9; stroke:none;" d="M97 496L98 497L97 496z"/>
<path style="fill:#b5cddd; stroke:none;" d="M814 496L815 497L814 496M815 497L816 498L815 497z"/>
<path style="fill:#8798a4; stroke:none;" d="M98 498L99 499L98 498z"/>
<path style="fill:#9bb5c9; stroke:none;" d="M98 499L99 500L98 499z"/>
<path style="fill:#8798a4; stroke:none;" d="M477 499L478 500L477 499M476 500L477 501L476 500M99 501L100 502L99 501M475 501L476 502L475 501z"/>
<path style="fill:#9bb5c9; stroke:none;" d="M99 502L100 503L99 502z"/>
<path style="fill:#8798a4; stroke:none;" d="M474 502L475 503L474 502M473 503L474 504L473 503M100 504L101 505L100 504M472 504L473 505L472 504z"/>
<path style="fill:#9bb5c9; stroke:none;" d="M100 505L101 506L100 505z"/>
<path style="fill:#b5cddd; stroke:none;" d="M823 505L824 506L823 505M824 506L825 507L824 506z"/>
<path style="fill:#8798a4; stroke:none;" d="M101 507L102 508L101 507z"/>
<path style="fill:#b5cddd; stroke:none;" d="M825 507L826 508L825 507z"/>
<path style="fill:#9bb5c9; stroke:none;" d="M101 508L102 509L101 508z"/>
<path style="fill:#b5cddd; stroke:none;" d="M826 508L827 509L826 508M827 509L828 510L827 509z"/>
<path style="fill:#8798a4; stroke:none;" d="M102 510L103 511L102 510z"/>
<path style="fill:#b5cddd; stroke:none;" d="M828 510L829 511L828 510M102 511L103 512L102 511M829 511L830 512L829 511z"/>
<path style="fill:#8798a4; stroke:none;" d="M103 512L104 513L103 512M465 512L466 513L465 512z"/>
<path style="fill:#b5cddd; stroke:none;" d="M830 512L831 513L830 512z"/>
<path style="fill:#9bb5c9; stroke:none;" d="M103 513L104 514L103 513z"/>
<path style="fill:#8798a4; stroke:none;" d="M464 513L465 514L464 513M463 514L464 515L463 514M104 515L105 516L104 515M462 515L463 516L462 515z"/>
<path style="fill:#b5cddd; stroke:none;" d="M104 516L105 517L104 516M833 516L834 517L833 516M834 517L835 518L834 517z"/>
<path style="fill:#9bb5c9; stroke:none;" d="M105 518L106 519L105 518z"/>
<path style="fill:#b5cddd; stroke:none;" d="M835 518L836 519L835 518z"/>
<path style="fill:#8798a4; stroke:none;" d="M459 519L460 520L459 519z"/>
<path style="fill:#b5cddd; stroke:none;" d="M836 519L837 520L836 519z"/>
<path style="fill:#8798a4; stroke:none;" d="M106 520L107 521L106 520M458 520L459 521L458 520z"/>
<path style="fill:#b5cddd; stroke:none;" d="M106 521L107 522L106 521z"/>
<path style="fill:#8798a4; stroke:none;" d="M457 521L458 522L457 521z"/>
<path style="fill:#b5cddd; stroke:none;" d="M838 522L839 523L838 522z"/>
<path style="fill:#9bb5c9; stroke:none;" d="M107 523L108 524L107 523z"/>
<path style="fill:#b5cddd; stroke:none;" d="M839 523L840 524L839 523z"/>
<path style="fill:#8798a4; stroke:none;" d="M455 524L456 525L455 524M108 525L109 526L108 525M454 525L455 526L454 525z"/>
<path style="fill:#b5cddd; stroke:none;" d="M108 526L109 527L108 526M841 526L842 527L841 526z"/>
<path style="fill:#8798a4; stroke:none;" d="M109 527L110 528L109 527z"/>
<path style="fill:#b5cddd; stroke:none;" d="M842 527L843 528L842 527M109 528L110 529L109 528M843 528L844 529L843 528z"/>
<path style="fill:#8798a4; stroke:none;" d="M110 529L111 530L110 529M451 529L452 530L451 529z"/>
<path style="fill:#9bb5c9; stroke:none;" d="M110 530L111 531L110 530z"/>
<path style="fill:#b5cddd; stroke:none;" d="M844 530L845 531L844 530M845 531L846 532L845 531z"/>
<path style="fill:#9bb5c9; stroke:none;" d="M111 532L112 533L111 532z"/>
<path style="fill:#8798a4; stroke:none;" d="M449 532L450 533L449 532M448 533L449 534L448 533M112 534L113 535L112 534z"/>
<path style="fill:#b5cddd; stroke:none;" d="M847 534L848 535L847 534M112 535L113 536L112 535z"/>
<path style="fill:#8798a4; stroke:none;" d="M447 535L448 536L447 535z"/>
<path style="fill:#b5cddd; stroke:none;" d="M848 535L849 536L848 535z"/>
<path style="fill:#8798a4; stroke:none;" d="M113 536L114 537L113 536M446 536L447 537L446 536z"/>
<path style="fill:#b5cddd; stroke:none;" d="M113 537L114 538L113 537M849 537L850 538L849 537z"/>
<path style="fill:#8798a4; stroke:none;" d="M114 538L115 539L114 538z"/>
<path style="fill:#b5cddd; stroke:none;" d="M850 538L851 539L850 538M114 539L115 540L114 539z"/>
<path style="fill:#8798a4; stroke:none;" d="M444 539L445 540L444 539M115 540L116 541L115 540z"/>
<path style="fill:#b5cddd; stroke:none;" d="M851 540L852 541L851 540M115 541L116 542L115 541M852 541L853 542L852 541z"/>
<path style="fill:#8798a4; stroke:none;" d="M116 542L117 543L116 542M442 542L443 543L442 542z"/>
<path style="fill:#b5cddd; stroke:none;" d="M116 543L117 544L116 543M853 543L854 544L853 543z"/>
<path style="fill:#8798a4; stroke:none;" d="M117 544L118 545L117 544M441 544L442 545L441 544z"/>
<path style="fill:#b5cddd; stroke:none;" d="M117 545L118 546L117 545z"/>
<path style="fill:#8798a4; stroke:none;" d="M118 546L119 547L118 546z"/>
<path style="fill:#b5cddd; stroke:none;" d="M855 546L856 547L855 546M118 547L119 548L118 547z"/>
<path style="fill:#8798a4; stroke:none;" d="M439 547L440 548L439 547M119 548L120 549L119 548z"/>
<path style="fill:#b5cddd; stroke:none;" d="M856 548L857 549L856 548M119 549L120 550L119 549M857 549L858 550L857 549z"/>
<path style="fill:#8798a4; stroke:none;" d="M120 550L121 551L120 550M437 550L438 551L437 550z"/>
<path style="fill:#b5cddd; stroke:none;" d="M120 551L121 552L120 551M858 551L859 552L858 551z"/>
<path style="fill:#8798a4; stroke:none;" d="M121 552L122 553L121 552M436 552L437 553L436 552z"/>
<path style="fill:#b5cddd; stroke:none;" d="M121 553L122 554L121 553M859 553L860 554L859 553z"/>
<path style="fill:#8798a4; stroke:none;" d="M122 554L123 555L122 554M435 554L436 555L435 554z"/>
<path style="fill:#b5cddd; stroke:none;" d="M860 555L861 556L860 555z"/>
<path style="fill:#9bb5c9; stroke:none;" d="M123 556L124 557L123 556z"/>
<path style="fill:#8798a4; stroke:none;" d="M434 556L435 557L434 556z"/>
<path style="fill:#b5cddd; stroke:none;" d="M861 556L862 557L861 556z"/>
<path style="fill:#8798a4; stroke:none;" d="M124 557L125 558L124 557M433 557L434 558L433 557z"/>
<path style="fill:#b5cddd; stroke:none;" d="M124 558L125 559L124 558M862 558L863 559L862 558z"/>
<path style="fill:#8798a4; stroke:none;" d="M125 559L126 560L125 559M432 559L433 560L432 559z"/>
<path style="fill:#b5cddd; stroke:none;" d="M125 560L126 561L125 560M863 560L864 561L863 560z"/>
<path style="fill:#8798a4; stroke:none;" d="M126 561L127 562L126 561M431 561L432 562L431 561z"/>
<path style="fill:#b5cddd; stroke:none;" d="M864 562L865 563L864 562z"/>
<path style="fill:#9bb5c9; stroke:none;" d="M127 563L128 564L127 563z"/>
<path style="fill:#8798a4; stroke:none;" d="M430 563L431 564L430 563z"/>
<path style="fill:#b5cddd; stroke:none;" d="M865 564L866 565L865 564M128 565L129 566L128 565z"/>
<path style="fill:#8798a4; stroke:none;" d="M429 565L430 566L429 565M129 566L130 567L129 566z"/>
<path style="fill:#b5cddd; stroke:none;" d="M866 566L867 567L866 566z"/>
<path style="fill:#8798a4; stroke:none;" d="M428 567L429 568L428 567z"/>
<path style="fill:#9bb5c9; stroke:none;" d="M130 568L131 569L130 568z"/>
<path style="fill:#b5cddd; stroke:none;" d="M867 568L868 569L867 568z"/>
<path style="fill:#8798a4; stroke:none;" d="M131 569L132 570L131 569M427 569L428 570L427 569z"/>
<path style="fill:#b5cddd; stroke:none;" d="M131 570L132 571L131 570M868 570L869 571L868 570z"/>
<path style="fill:#9bb5c9; stroke:none;" d="M132 571L133 572L132 571z"/>
<path style="fill:#8798a4; stroke:none;" d="M426 571L427 572L426 571M133 572L134 573L133 572z"/>
<path style="fill:#b5cddd; stroke:none;" d="M869 572L870 573L869 572M133 573L134 574L133 573z"/>
<path style="fill:#8798a4; stroke:none;" d="M134 574L135 575L134 574M425 574L426 575L425 574z"/>
<path style="fill:#b5cddd; stroke:none;" d="M870 575L871 576L870 575M135 576L136 577L135 576z"/>
<path style="fill:#8798a4; stroke:none;" d="M424 576L425 577L424 576M136 577L137 578L136 577z"/>
<path style="fill:#b5cddd; stroke:none;" d="M871 577L872 578L871 577z"/>
<path style="fill:#8798a4; stroke:none;" d="M423 578L424 579L423 578z"/>
<path style="fill:#9bb5c9; stroke:none;" d="M137 579L138 580L137 579z"/>
<path style="fill:#b5cddd; stroke:none;" d="M872 579L873 580L872 579z"/>
<path style="fill:#8798a4; stroke:none;" d="M138 580L139 581L138 580M422.333 580.667L422.667 581.333L422.333 580.667z"/>
<path style="fill:#b5cddd; stroke:none;" d="M873.333 581.667L873.667 582.333L873.333 581.667M139 582L140 583L139 582z"/>
<path style="fill:#9bb5c9; stroke:none;" d="M140 583L141 584L140 583z"/>
<path style="fill:#8798a4; stroke:none;" d="M421 583L422 584L421 583M141 584L142 585L141 584z"/>
<path style="fill:#b5cddd; stroke:none;" d="M874 584L875 585L874 584M141 585L142 586L141 585z"/>
<path style="fill:#9bb5c9; stroke:none;" d="M142 586L143 587L142 586z"/>
<path style="fill:#8798a4; stroke:none;" d="M420 586L421 587L420 586M143 587L144 588L143 587z"/>
<path style="fill:#b5cddd; stroke:none;" d="M875 587L876 588L875 587z"/>
<path style="fill:#8798a4; stroke:none;" d="M419 588L420 589L419 588z"/>
<path style="fill:#b5cddd; stroke:none;" d="M144 589L145 590L144 589M876.333 589.667L876.667 590.333L876.333 589.667z"/>
<path style="fill:#8798a4; stroke:none;" d="M145 590L146 591L145 590M146 591L147 592L146 591M418 591L419 592L418 591z"/>
<path style="fill:#b5cddd; stroke:none;" d="M146 592L147 593L146 592M877 592L878 593L877 592z"/>
<path style="fill:#9bb5c9; stroke:none;" d="M147 593L148 594L147 593z"/>
<path style="fill:#8798a4; stroke:none;" d="M417.333 593.667L417.667 594.333L417.333 593.667M148 594L149 595L148 594M149 595L150 596L149 595z"/>
<path style="fill:#b5cddd; stroke:none;" d="M878 595L879 596L878 595z"/>
<path style="fill:#8798a4; stroke:none;" d="M416.333 596.667L416.667 597.333L416.333 596.667z"/>
<path style="fill:#b5cddd; stroke:none;" d="M150 597L151 598L150 597z"/>
<path style="fill:#9bb5c9; stroke:none;" d="M151 598L152 599L151 598z"/>
<path style="fill:#b5cddd; stroke:none;" d="M879 598L880 599L879 598z"/>
<path style="fill:#8798a4; stroke:none;" d="M152 599L153 600L152 599M415.333 599.667L415.667 600.333L415.333 599.667z"/>
<path style="fill:#b5cddd; stroke:none;" d="M153 601L154 602L153 601M880 601L881 602L880 601z"/>
<path style="fill:#9bb5c9; stroke:none;" d="M154 602L155 603L154 602z"/>
<path style="fill:#8798a4; stroke:none;" d="M155 603L156 604L155 603M414 603L415 604L414 603M156 604L157 605L156 604z"/>
<path style="fill:#b5cddd; stroke:none;" d="M881.333 604.667L881.667 605.333L881.333 604.667M157 606L158 607L157 606z"/>
<path style="fill:#8798a4; stroke:none;" d="M413.333 606.667L413.667 607.333L413.333 606.667z"/>
<path style="fill:#b5cddd; stroke:none;" d="M158 607L159 608L158 607M882.333 607.667L882.667 608.333L882.333 607.667z"/>
<path style="fill:#9bb5c9; stroke:none;" d="M159 608L160 609L159 608M160 609L161 610L160 609z"/>
<path style="fill:#8798a4; stroke:none;" d="M161 610L162 611L161 610M412 610L413 611L412 610M162 611L163 612L162 611z"/>
<path style="fill:#b5cddd; stroke:none;" d="M883.333 611.667L883.667 612.333L883.333 611.667M163 613L164 614L163 613z"/>
<path style="fill:#8798a4; stroke:none;" d="M411.333 613.667L411.667 614.333L411.333 613.667z"/>
<path style="fill:#b5cddd; stroke:none;" d="M164 614L165 615L164 614z"/>
<path style="fill:#9bb5c9; stroke:none;" d="M165 615L166 616L165 615z"/>
<path style="fill:#b5cddd; stroke:none;" d="M884.333 615.667L884.667 616.333L884.333 615.667z"/>
<path style="fill:#9bb5c9; stroke:none;" d="M166 616L167 617L166 616M167 617L168 618L167 617z"/>
<path style="fill:#8798a4; stroke:none;" d="M410.333 617.667L410.667 618.333L410.333 617.667z"/>
<path style="fill:#9bb5c9; stroke:none;" d="M168 618L169 619L168 618z"/>
<path style="fill:#8798a4; stroke:none;" d="M169 619L170 620L169 619z"/>
<path style="fill:#b5cddd; stroke:none;" d="M885.333 619.667L885.667 620.333L885.333 619.667z"/>
<path style="fill:#8798a4; stroke:none;" d="M170 620L171 621L170 620M171 621L172 622L171 621M172 622L173 623L172 622M409.333 622.667L409.667 623.333L409.333 622.667M173 623L174 624L173 623M174 624L175 625L174 624z"/>
<path style="fill:#b5cddd; stroke:none;" d="M886.333 624.667L886.667 625.333L886.333 624.667z"/>
<path style="fill:#8798a4; stroke:none;" d="M175 625L176 626L175 625M176 626L177 627L176 626M408 626L408 629L409 629L408 626M177 627L178 628L177 627M178 628L179 629L178 628z"/>
<path style="fill:#b5cddd; stroke:none;" d="M887 628L887 631L888 631L887 628z"/>
<path style="fill:#8798a4; stroke:none;" d="M179 629L180 630L179 629M180 630L181 631L180 630M181 631L182 632L181 631M182 632L183 633L182 632M407.333 632.667L407.667 633.333L407.333 632.667M183 633L184 634L183 633z"/>
<path style="fill:#9bb5c9; stroke:none;" d="M184 634L185 635L184 634z"/>
<path style="fill:#b5cddd; stroke:none;" d="M888 634L888 637L889 637L888 634z"/>
<path style="fill:#9bb5c9; stroke:none;" d="M185 635L186 636L185 635M186 636L187 637L186 636z"/>
<path style="fill:#b5cddd; stroke:none;" d="M187 637L188 638L187 637z"/>
<path style="fill:#8798a4; stroke:none;" d="M406 637L406 641L407 641L406 637z"/>
<path style="fill:#b5cddd; stroke:none;" d="M188 638L189 639L188 638M189 639L190 640L189 639M190 640L191 641L190 640z"/>
<path style="fill:#8798a4; stroke:none;" d="M191 640L192 641L191 640z"/>
<path style="fill:#b5cddd; stroke:none;" d="M889 640L889 645L890 645L889 640z"/>
<path style="fill:#8798a4; stroke:none;" d="M192 641L193 642L192 641M193 642L194 643L193 642z"/>
<path style="fill:#9bb5c9; stroke:none;" d="M194 643L195 644L194 643M195 644L196 645L195 644z"/>
<path style="fill:#b5cddd; stroke:none;" d="M196 645L197 646L196 645z"/>
<path style="fill:#8798a4; stroke:none;" d="M405 645L405 649L406 649L405 645z"/>
<path style="fill:#b5cddd; stroke:none;" d="M197 646L198 647L197 646z"/>
<path style="fill:#8798a4; stroke:none;" d="M199 647L200 648L199 647M200 648L201 649L200 648z"/>
<path style="fill:#9bb5c9; stroke:none;" d="M201 649L202 650L201 649z"/>
<path style="fill:#b5cddd; stroke:none;" d="M890 649L890 654L891 654L890 649M202 650L203 651L202 650z"/>
<path style="fill:#8798a4; stroke:none;" d="M204 651L205 652L204 651M205 652L206 653L205 652z"/>
<path style="fill:#9bb5c9; stroke:none;" d="M206 653L207 654L206 653z"/>
<path style="fill:#b5cddd; stroke:none;" d="M207 654L208 655L207 654z"/>
<path style="fill:#8798a4; stroke:none;" d="M209 655L210 656L209 655M404 655L404 662L405 662L404 655z"/>
<path style="fill:#9bb5c9; stroke:none;" d="M210 656L211 657L210 656z"/>
<path style="fill:#b5cddd; stroke:none;" d="M211 657L212 658L211 657z"/>
<path style="fill:#8798a4; stroke:none;" d="M213 658L214 659L213 658z"/>
<path style="fill:#9bb5c9; stroke:none;" d="M214 659L215 660L214 659z"/>
<path style="fill:#b5cddd; stroke:none;" d="M215 660L216 661L215 660z"/>
<path style="fill:#8798a4; stroke:none;" d="M217 661L218 662L217 661z"/>
<path style="fill:#b5cddd; stroke:none;" d="M218 662L219 663L218 662z"/>
<path style="fill:#8798a4; stroke:none;" d="M220 663L221 664L220 663z"/>
<path style="fill:#9bb5c9; stroke:none;" d="M221 664L222 665L221 664z"/>
<path style="fill:#b5cddd; stroke:none;" d="M891 664L891 685L892 685L891 664M222 665L223 666L222 665z"/>
<path style="fill:#8798a4; stroke:none;" d="M223 665L224 666L223 665z"/>
<path style="fill:#9bb5c9; stroke:none;" d="M224 666L225 667L224 666z"/>
<path style="fill:#b5cddd; stroke:none;" d="M225 667L226 668L225 667z"/>
<path style="fill:#9bb5c9; stroke:none;" d="M227 668L228 669L227 668z"/>
<path style="fill:#b5cddd; stroke:none;" d="M228 669L229 670L228 669z"/>
<path style="fill:#8798a4; stroke:none;" d="M229 669L230 670L229 669z"/>
<path style="fill:#9bb5c9; stroke:none;" d="M230 670L231 671L230 670z"/>
<path style="fill:#8798a4; stroke:none;" d="M232 671L233 672L232 671z"/>
<path style="fill:#b5cddd; stroke:none;" d="M233 672L234 673L233 672z"/>
<path style="fill:#9bb5c9; stroke:none;" d="M235 673L236 674L235 673z"/>
<path style="fill:#b5cddd; stroke:none;" d="M236 674L237 675L236 674z"/>
<path style="fill:#8798a4; stroke:none;" d="M237 674L238 675L237 674z"/>
<path style="fill:#9bb5c9; stroke:none;" d="M238 675L239 676L238 675z"/>
<path style="fill:#8798a4; stroke:none;" d="M240 676L241 677L240 676z"/>
<path style="fill:#b5cddd; stroke:none;" d="M241 677L242 678L241 677z"/>
<path style="fill:#8798a4; stroke:none;" d="M242 677L243 678L242 677z"/>
<path style="fill:#b5cddd; stroke:none;" d="M243 678L244 679L243 678z"/>
<path style="fill:#8798a4; stroke:none;" d="M244 678L245 679L244 678z"/>
<path style="fill:#9bb5c9; stroke:none;" d="M245 679L246 680L245 679M247 680L248 681L247 680z"/>
<path style="fill:#8798a4; stroke:none;" d="M249 681L250 682L249 681z"/>
<path style="fill:#b5cddd; stroke:none;" d="M250 682L251 683L250 682z"/>
<path style="fill:#8798a4; stroke:none;" d="M251 682L252 683L251 682z"/>
<path style="fill:#b5cddd; stroke:none;" d="M252 683L253 684L252 683z"/>
<path style="fill:#8798a4; stroke:none;" d="M253 683L254 684L253 683z"/>
<path style="fill:#b5cddd; stroke:none;" d="M254 684L255 685L254 684z"/>
<path style="fill:#8798a4; stroke:none;" d="M255 684L256 685L255 684z"/>
<path style="fill:#b5cddd; stroke:none;" d="M256 685L257 686L256 685z"/>
<path style="fill:#8798a4; stroke:none;" d="M257 685L258 686L257 685z"/>
<path style="fill:#b5cddd; stroke:none;" d="M258 686L259 687L258 686z"/>
<path style="fill:#8798a4; stroke:none;" d="M259 686L260 687L259 686z"/>
<path style="fill:#b5cddd; stroke:none;" d="M260 687L261 688L260 687z"/>
<path style="fill:#8798a4; stroke:none;" d="M261 687L262 688L261 687M404 687L404 694L405 694L404 687z"/>
<path style="fill:#b5cddd; stroke:none;" d="M262 688L263 689L262 688z"/>
<path style="fill:#8798a4; stroke:none;" d="M263 688L264 689L263 688z"/>
<path style="fill:#b5cddd; stroke:none;" d="M264 689L265 690L264 689z"/>
<path style="fill:#8798a4; stroke:none;" d="M265 689L266 690L265 689z"/>
<path style="fill:#b5cddd; stroke:none;" d="M266 690L267 691L266 690z"/>
<path style="fill:#8798a4; stroke:none;" d="M267 690L268 691L267 690z"/>
<path style="fill:#b5cddd; stroke:none;" d="M268 691L269 692L268 691z"/>
<path style="fill:#9bb5c9; stroke:none;" d="M269 691L270 692L269 691M271 692L272 693L271 692M273 693L274 694L273 693z"/>
<path style="fill:#8798a4; stroke:none;" d="M274 693L275 694L274 693z"/>
<path style="fill:#b5cddd; stroke:none;" d="M275 694L276 695L275 694z"/>
<path style="fill:#8798a4; stroke:none;" d="M276 694L277 695L276 694z"/>
<path style="fill:#b5cddd; stroke:none;" d="M277 695L278 696L277 695z"/>
<path style="fill:#8798a4; stroke:none;" d="M278 695L279 696L278 695z"/>
<path style="fill:#b5cddd; stroke:none;" d="M890 695L890 700L891 700L890 695z"/>
<path style="fill:#9bb5c9; stroke:none;" d="M280 696L281 697L280 696z"/>
<path style="fill:#b5cddd; stroke:none;" d="M282 697L283 698L282 697z"/>
<path style="fill:#8798a4; stroke:none;" d="M283 697L284 698L283 697z"/>
<path style="fill:#9bb5c9; stroke:none;" d="M285 698L286 699L285 698z"/>
<path style="fill:#8798a4; stroke:none;" d="M286 698L287 699L286 698z"/>
<path style="fill:#b5cddd; stroke:none;" d="M287 699L288 700L287 699z"/>
<path style="fill:#8798a4; stroke:none;" d="M288 699L289 700L288 699M405 699L405 703L406 703L405 699z"/>
<path style="fill:#9bb5c9; stroke:none;" d="M290 700L291 701L290 700z"/>
<path style="fill:#8798a4; stroke:none;" d="M291 700L292 701L291 700z"/>
<path style="fill:#b5cddd; stroke:none;" d="M292 701L293 702L292 701z"/>
<path style="fill:#9bb5c9; stroke:none;" d="M293 701L294 702L293 701z"/>
<path style="fill:#b5cddd; stroke:none;" d="M295 702L296 703L295 702z"/>
<path style="fill:#8798a4; stroke:none;" d="M296 702L297 703L296 702z"/>
<path style="fill:#b5cddd; stroke:none;" d="M298 703L299 704L298 703z"/>
<path style="fill:#8798a4; stroke:none;" d="M299 703L300 704L299 703z"/>
<path style="fill:#b5cddd; stroke:none;" d="M301 704L302 705L301 704z"/>
<path style="fill:#8798a4; stroke:none;" d="M302 704L303 705L302 704z"/>
<path style="fill:#b5cddd; stroke:none;" d="M889 704L889 708L890 708L889 704z"/>
<path style="fill:#9bb5c9; stroke:none;" d="M304 705L305 706L304 705z"/>
<path style="fill:#8798a4; stroke:none;" d="M305 705L306 706L305 705z"/>
<path style="fill:#9bb5c9; stroke:none;" d="M307 706L308 707L307 706z"/>
<path style="fill:#8798a4; stroke:none;" d="M308 706L309 707L308 706z"/>
<path style="fill:#9bb5c9; stroke:none;" d="M310 707L311 708L310 707z"/>
<path style="fill:#8798a4; stroke:none;" d="M311 707L312 708L311 707M406 707L406 711L407 711L406 707z"/>
<path style="fill:#b5cddd; stroke:none;" d="M313 708L314 709L313 708z"/>
<path style="fill:#9bb5c9; stroke:none;" d="M314 708L315 709L314 708z"/>
<path style="fill:#8798a4; stroke:none;" d="M315 708L316 709L315 708z"/>
<path style="fill:#9bb5c9; stroke:none;" d="M317 709L318 710L317 709z"/>
<path style="fill:#8798a4; stroke:none;" d="M318 709L319 710L318 709z"/>
<path style="fill:#b5cddd; stroke:none;" d="M320 710L321 711L320 710z"/>
<path style="fill:#9bb5c9; stroke:none;" d="M321 710L322 711L321 710z"/>
<path style="fill:#8798a4; stroke:none;" d="M322 710L323 711L322 710z"/>
<path style="fill:#b5cddd; stroke:none;" d="M324 711L325 712L324 711z"/>
<path style="fill:#8798a4; stroke:none;" d="M325 711L326 712L325 711z"/>
<path style="fill:#b5cddd; stroke:none;" d="M328 712L329 713L328 712z"/>
<path style="fill:#9bb5c9; stroke:none;" d="M329 712L330 713L329 712z"/>
<path style="fill:#8798a4; stroke:none;" d="M330 712L331 713L330 712z"/>
<path style="fill:#b5cddd; stroke:none;" d="M888.333 712.667L888.667 713.333L888.333 712.667M332 713L333 714L332 713z"/>
<path style="fill:#9bb5c9; stroke:none;" d="M333.667 713.333L334.333 713.667L333.667 713.333z"/>
<path style="fill:#8798a4; stroke:none;" d="M335 713L336 714L335 713z"/>
<path style="fill:#b5cddd; stroke:none;" d="M337 714L338 715L337 714z"/>
<path style="fill:#9bb5c9; stroke:none;" d="M338 714L339 715L338 714z"/>
<path style="fill:#8798a4; stroke:none;" d="M339.667 714.333L340.333 714.667L339.667 714.333M407 714L407 717L408 717L407 714z"/>
<path style="fill:#b5cddd; stroke:none;" d="M342 715L343 716L342 715z"/>
<path style="fill:#9bb5c9; stroke:none;" d="M343.667 715.333L344.333 715.667L343.667 715.333z"/>
<path style="fill:#8798a4; stroke:none;" d="M345 715L346 716L345 715z"/>
<path style="fill:#b5cddd; stroke:none;" d="M348 716L349 717L348 716z"/>
<path style="fill:#9bb5c9; stroke:none;" d="M349 716L350 717L349 716z"/>
<path style="fill:#8798a4; stroke:none;" d="M350.667 716.333L351.333 716.667L350.667 716.333z"/>
<path style="fill:#b5cddd; stroke:none;" d="M354 717L355 718L354 717z"/>
<path style="fill:#9bb5c9; stroke:none;" d="M355 717L356 718L355 717z"/>
<path style="fill:#8798a4; stroke:none;" d="M356.667 717.333L357.333 717.667L356.667 717.333z"/>
<path style="fill:#b5cddd; stroke:none;" d="M887 717L887 720L888 720L887 717M360 718L361 719L360 718z"/>
<path style="fill:#9bb5c9; stroke:none;" d="M361.667 718.333L362.333 718.667L361.667 718.333z"/>
<path style="fill:#8798a4; stroke:none;" d="M363.667 718.333L364.333 718.667L363.667 718.333z"/>
<path style="fill:#b5cddd; stroke:none;" d="M368 719L369 720L368 719z"/>
<path style="fill:#9bb5c9; stroke:none;" d="M369.667 719.333L370.333 719.667L369.667 719.333z"/>
<path style="fill:#8798a4; stroke:none;" d="M371 719L371 720L374 720L371 719z"/>
<path style="fill:#b5cddd; stroke:none;" d="M377 720L377 721L380 721L377 720z"/>
<path style="fill:#9bb5c9; stroke:none;" d="M380 720L380 721L383 721L380 720z"/>
<path style="fill:#8798a4; stroke:none;" d="M383 720L383 721L386 721L383 720M408 720L409 721L408 720z"/>
<path style="fill:#b5cddd; stroke:none;" d="M408 721L409 722L408 721M886.333 723.667L886.667 724.333L886.333 723.667M409.333 725.667L409.667 726.333L409.333 725.667M885.333 727.667L885.667 728.333L885.333 727.667M410.333 729.667L410.667 730.333L410.333 729.667M884.333 732.667L884.667 733.333L884.333 732.667M411.333 733.667L411.667 734.333L411.333 733.667M883 736L884 737L883 736M412.333 737.667L412.667 738.333L412.333 737.667M882.333 739.667L882.667 740.333L882.333 739.667M413.333 741.667L413.667 742.333L413.333 741.667M881.333 743.667L881.667 744.333L881.333 743.667M414.333 744.667L414.667 745.333L414.333 744.667M860 745.594C827.738 746.76 796.679 756.817 772 778.289C715.144 827.757 708.59 920.23 762.015 975C774.444 987.742 788.77 998.26 805 1005.69C826.867 1015.7 850.235 1018 874 1016.96C891.129 1016.21 908.969 1010.16 924 1002.22C1008.71 957.494 1020.75 841.103 950 778.173C937.721 767.251 922.494 758.724 907 753.344C891.888 748.097 876.044 745.014 860 745.594M415.333 747.667L415.667 748.333L415.333 747.667M416 751L417 752L416 751M417 754L418 755L417 754M418.333 756.667L418.667 757.333L418.333 756.667M419 759L420 760L419 759M420 762L421 763L420 762M421.333 764.667L421.667 765.333L421.333 764.667M422 767L423 768L422 767M423 769L424 770L423 769M424 772L425 773L424 772M425 774L426 775L425 774M426 776L427 777L426 776M427 778L428 779L427 778M428 780L429 781L428 780M429 782L430 783L429 782M430 784L431 785L430 784M431 786L432 787L431 786M432 788L433 789L432 788M433 790L434 791L433 790M434 792L435 793L434 792M435 794L436 795L435 794M436 795L437 796L436 795M437 797L438 798L437 797M438 799L439 800L438 799M440 802L441 803L440 802M441 804L442 805L441 804M442 805L443 806L442 805M443 807L444 808L443 807M445 810L446 811L445 810M446 811L447 812L446 811M447 813L448 814L447 813M448 814L449 815L448 814M450 817L451 818L450 817M452 820L453 821L452 820M453 821L454 822L453 821M456 825L457 826L456 825M457 826L458 827L457 826M459 829L460 830L459 829M460 830L461 831L460 830M461 831L462 832L461 831M462 832L463 833L462 832M463 833L464 834L463 833M465 836L466 837L465 836M466 837L467 838L466 837M467 838L468 839L467 838M468 839L469 840L468 839M469 840L470 841L469 840M470 841L471 842L470 841M471 842L472 843L471 842M472 843L473 844L472 843M473 844L474 845L473 844M478 849L479 850L478 849M479 850L480 851L479 850M480 851L481 852L480 851M481 852L482 853L481 852M482 853L483 854L482 853M483 854L484 855L483 854M484 855L485 856L484 855M485 856L486 857L485 856M489 859L490 860L489 859M490 860L491 861L490 860M491 861L492 862L491 861M492 862L493 863L492 862M495 864L496 865L495 864M496 865L497 866L496 865M497 866L498 867L497 866M500 868L501 869L500 868M501 869L502 870L501 869M504 871L505 872L504 871M507 873L508 874L507 873M508 874L509 875L508 874M510 875L511 876L510 875M511 876L512 877L511 876M513 877L514 878L513 877M514 878L515 879L514 878M516 879L517 880L516 879M517 880L518 881L517 880M519 881L520 882L519 881M522 883L523 884L522 883M524 884L525 885L524 884M526 885L527 886L526 885M529 887L530 888L529 887M531 888L532 889L531 888M533 889L534 890L533 889M535 890L536 891L535 890M537 891L538 892L537 891M539 892L540 893L539 892M541 893L542 894L541 893M543 894L544 895L543 894M545 895L546 896L545 895M547 896L548 897L547 896M549 897L550 898L549 897M552 898L553 899L552 898M554 899L555 900L554 899M556.667 900.333L557.333 900.667L556.667 900.333M559 901L560 902L559 901M562 902L563 903L562 902M564.667 903.333L565.333 903.667L564.667 903.333M567.667 904.333L568.333 904.667L567.667 904.333M570.667 905.333L571.333 905.667L570.667 905.333M724.667 905.333L725.333 905.667L724.667 905.333M573.667 906.333L574.333 906.667L573.667 906.333M721.667 906.333L722.333 906.667L721.667 906.333M576.667 907.333L577.333 907.667L576.667 907.333M718 907L719 908L718 907M579.667 908.333L580.333 908.667L579.667 908.333M714.667 908.333L715.333 908.667L714.667 908.333M583.667 909.333L584.333 909.667L583.667 909.333M711.667 909.333L712.333 909.667L711.667 909.333M587.667 910.333L588.333 910.667L587.667 910.333M707.667 910.333L708.333 910.667L707.667 910.333M591.667 911.333L592.333 911.667L591.667 911.333M703.667 911.333L704.333 911.667L703.667 911.333M595.667 912.333L596.333 912.667L595.667 912.333M698 912L698 913L701 913L698 912M599 913L599 914L602 914L599 913M694.667 913.333L695.333 913.667L694.667 913.333M605 914L605 915L608 915L605 914M688 914L688 915L691 915L688 914M610 915L610 916L613 916L610 915M682 915L682 916L685 916L682 915M617 916L617 917L622 917L617 916M674 916L674 917L679 917L674 916M627 917L627 918L633 918L627 917M662 917L662 918L669 918L662 917z"/>
</svg>
