<?xml version="1.0" standalone="no"?>
<!DOCTYPE svg PUBLIC "-//W3C//DTD SVG 20010904//EN"
 "http://www.w3.org/TR/2001/REC-SVG-20010904/DTD/svg10.dtd">
<svg version="1.0" xmlns="http://www.w3.org/2000/svg"
 width="500.000000pt" height="500.000000pt" viewBox="0 0 500.000000 500.000000"
 preserveAspectRatio="xMidYMid meet">

<g transform="translate(0.000000,500.000000) scale(0.100000,-0.100000)"
fill="#000000" stroke="none">
<path d="M1111 4045 c-335 -73 -597 -283 -746 -598 -72 -150 -90 -241 -89
-442 0 -151 4 -181 27 -267 50 -188 136 -338 271 -474 126 -127 264 -210 456
-275 53 -18 85 -34 84 -42 -2 -23 -246 -402 -457 -710 -76 -111 -85 -182 -30
-248 34 -39 64 -51 135 -50 194 2 559 139 809 303 124 82 371 327 452 449 124
187 223 412 281 640 56 218 70 341 71 609 0 228 -1 238 -28 335 -35 123 -109
278 -176 366 -158 208 -410 365 -655 408 -84 15 -328 12 -405 -4z"/>
<path d="M3433 4041 c-400 -109 -689 -396 -786 -781 -31 -122 -30 -399 1 -512
62 -227 194 -430 369 -569 82 -65 254 -155 363 -190 40 -13 75 -30 77 -37 7
-17 -89 -176 -313 -513 -100 -153 -188 -287 -194 -299 -17 -31 -8 -111 16
-143 44 -59 102 -72 222 -51 537 93 1025 434 1274 889 183 335 261 666 262
1115 1 262 -12 335 -88 496 -61 128 -107 194 -204 296 -136 141 -299 240 -477
288 -119 33 -419 39 -522 11z"/>
</g>
</svg>
