<?xml version="1.0" standalone="no"?>
<!DOCTYPE svg PUBLIC "-//W3C//DTD SVG 20010904//EN"
 "http://www.w3.org/TR/2001/REC-SVG-20010904/DTD/svg10.dtd">
<svg version="1.0" xmlns="http://www.w3.org/2000/svg"
 width="500.000000pt" height="500.000000pt" viewBox="0 0 500.000000 500.000000"
 preserveAspectRatio="xMidYMid meet">

<g transform="translate(0.000000,500.000000) scale(0.100000,-0.100000)"
fill="#000000" stroke="none">
<path d="M2981 4560 c-33 -15 -306 -282 -1088 -1063 l-1044 -1042 -11 -95 c-7
-63 -8 -239 -4 -529 7 -475 5 -462 71 -519 76 -68 47 -65 595 -61 l497 4 59
45 c32 24 510 496 1061 1048 701 703 1008 1017 1023 1046 24 50 26 113 5 162
-15 37 -870 901 -968 979 -61 49 -127 57 -196 25z m112 -474 c18 -8 152 -135
300 -283 270 -271 287 -293 279 -353 -2 -19 -258 -281 -933 -955 l-929 -930
-278 3 c-405 5 -381 -18 -389 378 l-6 276 929 930 c511 511 938 933 949 938
29 12 42 12 78 -4z"/>
<path d="M1095 821 c-77 -3 -149 -11 -160 -18 -136 -78 -121 -315 24 -365 28
-10 369 -12 1554 -11 l1518 1 38 26 c118 82 120 260 3 341 l-44 30 -1396 1
c-769 0 -1460 -2 -1537 -5z"/>
</g>
</svg>
