<?xml version="1.0" encoding="utf-8"?>
<!-- Generator: Adobe Illustrator 21.0.0, SVG Export Plug-In . SVG Version: 6.00 Build 0)  -->
<svg version="1.1" id="Layer_1" xmlns="http://www.w3.org/2000/svg" xmlns:xlink="http://www.w3.org/1999/xlink" x="0px" y="0px"
	 viewBox="0 0 100 100" style="enable-background:new 0 0 100 100;" xml:space="preserve">
<style type="text/css">
	.st0{fill:#DCE4EA;}
	.st1{fill:#677987;}
</style>
<g>
	<path class="st0" d="M100,50c0,14.2-6,27.1-15.5,36.2C75.5,94.7,63.4,100,50,100s-25.5-5.3-34.5-13.8C6,77.1,0,64.2,0,50
		C0,22.4,22.4,0,50,0S100,22.4,100,50z"/>
	<path class="st1" d="M57.3,66.7H42.7c-12.6,0-23.3,8.2-27.1,19.5c9,8.5,21.1,13.8,34.5,13.8s25.5-5.3,34.5-13.8
		C80.7,74.9,70,66.7,57.3,66.7z M50,17.9c-11.4,0-20.6,9.2-20.6,20.6S38.6,59,50,59s20.6-9.2,20.6-20.6S61.4,17.9,50,17.9z"/>
</g>
</svg>
