<?xml version="1.0" encoding="utf-8"?>
<!-- Generator: Adobe Illustrator 21.0.0, SVG Export Plug-In . SVG Version: 6.00 Build 0)  -->
<svg version="1.1" id="Layer_1" xmlns="http://www.w3.org/2000/svg" xmlns:xlink="http://www.w3.org/1999/xlink" x="0px" y="0px"
	 viewBox="0 0 100 100" style="enable-background:new 0 0 100 100;" xml:space="preserve">
<style type="text/css">
	.st0{fill:#727272;}
</style>
<g>
	<path class="st0" d="M54.2,97.4c-0.5,0.5-1.3,0.1-1.3-0.5v-0.1c0-23.3,0.1-46.5-0.1-69.8c0-3.5,1.2-6.2,3.3-8.8
		c6.5-8,15.1-12.4,25-14.4c4.5-0.9,9.1-1.1,13.7-1.5c3-0.2,5.1,1.9,5.1,5.1c0,8.3,0,16.7,0,25c0,14.8-0.1,29.5,0.1,44.3
		c0,4.3-2.1,6.3-6.3,6.4c-9.2,0.1-18.2,1.7-26.6,5.6C62.3,90.9,57.9,93.7,54.2,97.4L54.2,97.4z"/>
	<path class="st0" d="M45.8,97.4c0.5,0.5,1.3,0.1,1.3-0.5v-0.1c0-23.3-0.1-46.5,0.1-69.8c0-3.5-1.2-6.2-3.3-8.8
		c-6.5-8-15.1-12.4-25-14.4C14.4,3,9.7,2.7,5.1,2.4c-3-0.2-5.1,1.9-5.1,5.1c0,8.3,0,16.7,0,25c0,14.8,0.1,29.5-0.1,44.3
		C0,81,2.1,83,6.3,83.1c9.2,0.1,18.2,1.7,26.6,5.6C37.7,90.9,42.1,93.7,45.8,97.4L45.8,97.4z"/>
</g>
</svg>
