<?xml version="1.0" standalone="no"?>
<!DOCTYPE svg PUBLIC "-//W3C//DTD SVG 20010904//EN"
 "http://www.w3.org/TR/2001/REC-SVG-20010904/DTD/svg10.dtd">
<svg version="1.0" xmlns="http://www.w3.org/2000/svg"
 width="500.000000pt" height="500.000000pt" viewBox="0 0 500.000000 500.000000"
 preserveAspectRatio="xMidYMid meet">

<g transform="translate(0.000000,500.000000) scale(0.100000,-0.100000)"
fill="#000000" stroke="none">
<path d="M1040 4561 c-92 -29 -176 -96 -218 -176 l-27 -50 -3 -1940 c-3 -2188
-9 -2003 77 -2097 71 -78 137 -110 232 -116 87 -5 152 12 217 56 22 15 325
302 673 637 349 336 640 614 646 618 9 6 231 -201 666 -621 744 -716 708 -687
862 -687 72 0 100 5 139 23 76 35 131 86 163 150 l28 57 0 1960 0 1960 -23 47
c-31 63 -91 121 -160 155 l-57 28 -1595 2 c-877 1 -1606 -2 -1620 -6z m3030
-2127 l0 -1697 -83 79 c-768 734 -1322 1261 -1334 1267 -8 5 -23 3 -36 -6 -20
-13 -533 -504 -1149 -1100 l-238 -229 0 1691 0 1691 1420 0 1420 0 0 -1696z"/>
</g>
</svg>
