<?xml version="1.0" standalone="no"?>
<!DOCTYPE svg PUBLIC "-//W3C//DTD SVG 20010904//EN"
 "http://www.w3.org/TR/2001/REC-SVG-20010904/DTD/svg10.dtd">
<svg version="1.0" xmlns="http://www.w3.org/2000/svg"
 width="3125.000000pt" height="3125.000000pt" viewBox="0 0 3125.000000 3125.000000"
 preserveAspectRatio="xMidYMid meet">

<g transform="translate(0.000000,3125.000000) scale(0.100000,-0.100000)"
fill="#000000" stroke="none">
<path d="M9025 28339 c-1611 -83 -3114 -645 -4375 -1638 -256 -201 -389 -320
-654 -581 -370 -366 -544 -564 -814 -925 -816 -1094 -1376 -2421 -1612 -3819
-68 -403 -110 -790 -131 -1196 -13 -261 -6 -1177 10 -1395 154 -1990 774
-3858 1933 -5819 803 -1359 1793 -2657 3047 -3996 232 -248 1074 -1087 1336
-1331 1550 -1445 3124 -2706 5010 -4014 558 -387 1490 -1005 1782 -1181 239
-144 574 -299 778 -360 77 -23 114 -27 253 -32 180 -5 229 1 387 49 164 50
362 140 620 282 413 226 1810 1165 2760 1856 3053 2218 5484 4510 7206 6796
1730 2297 2762 4522 3119 6727 203 1260 195 2557 -25 3758 -361 1971 -1373
3769 -2810 4991 -1130 962 -2522 1581 -3970 1768 -673 86 -1412 92 -2032 16
-758 -93 -1458 -307 -2108 -644 -786 -407 -1580 -1064 -2230 -1846 -280 -336
-640 -862 -851 -1242 -16 -29 -32 -53 -35 -53 -4 0 -42 62 -85 138 -604 1065
-1416 1956 -2389 2624 -1158 794 -2526 1148 -4120 1067z m15629 -7264 c75 -21
220 -83 294 -127 87 -51 267 -237 326 -336 227 -382 198 -865 -70 -1178 -134
-158 -1061 -774 -1794 -1194 -774 -443 -1527 -800 -2420 -1148 -692 -269
-1618 -539 -2395 -698 -668 -137 -1499 -248 -2113 -283 -477 -28 -1504 -23
-1907 9 -425 33 -1029 106 -1405 169 -1097 185 -2161 486 -3245 919 -159 63
-339 137 -400 165 -60 27 -144 64 -185 82 -388 171 -1049 501 -1394 697 -815
463 -1605 974 -1820 1178 -108 102 -196 250 -252 420 -24 76 -28 103 -31 260
-5 204 4 262 67 423 52 134 120 239 216 333 123 122 249 203 388 250 245 84
503 70 721 -39 33 -16 168 -100 300 -187 418 -273 514 -334 755 -477 1531
-912 3141 -1545 4751 -1867 777 -156 1422 -227 2234 -247 891 -21 1522 19
2416 155 364 56 982 186 1309 277 80 22 226 63 325 91 565 157 1391 462 1980
730 844 385 1580 798 2406 1349 418 279 476 302 729 295 99 -3 176 -11 214
-21z"/>
</g>
</svg>
