<?xml version="1.0" standalone="no"?>
<!DOCTYPE svg PUBLIC "-//W3C//DTD SVG 20010904//EN"
 "http://www.w3.org/TR/2001/REC-SVG-20010904/DTD/svg10.dtd">
<svg version="1.0" xmlns="http://www.w3.org/2000/svg"
 width="500.000000pt" height="500.000000pt" viewBox="0 0 500.000000 500.000000"
 preserveAspectRatio="xMidYMid meet">

<g transform="translate(0.000000,500.000000) scale(0.100000,-0.100000)"
fill="#000000" stroke="none">
<path d="M3529 4717 c-60 -17 -103 -49 -123 -92 -35 -74 -30 -397 9 -546 8
-29 12 -55 10 -57 -7 -7 -75 47 -129 103 -27 27 -80 91 -117 141 -82 110 -116
129 -212 122 -160 -13 -307 -144 -307 -275 0 -45 5 -58 44 -110 24 -32 91
-104 149 -160 l104 -101 -58 -58 c-32 -31 -86 -101 -121 -155 -35 -54 -66 -99
-69 -99 -4 0 -10 17 -14 38 -31 167 -153 401 -287 548 -258 285 -598 434 -990
434 -344 0 -657 -122 -903 -352 -199 -186 -318 -397 -377 -671 -30 -138 -32
-489 -5 -636 93 -490 332 -982 694 -1429 221 -272 530 -548 792 -706 497 -301
946 -367 1421 -210 286 95 505 238 766 498 368 369 674 900 852 1482 199 648
184 1099 -43 1319 l-63 61 25 83 c13 46 42 129 65 184 34 84 39 106 34 145
-15 112 -131 224 -275 266 -110 32 -209 12 -264 -53 -32 -39 -87 -206 -118
-359 -20 -102 -24 -113 -42 -110 -53 8 -82 239 -57 456 13 113 13 115 -10 159
-56 106 -249 177 -381 140z"/>
</g>
</svg>
