<?xml version="1.0" standalone="no"?>
<!DOCTYPE svg PUBLIC "-//W3C//DTD SVG 20010904//EN"
 "http://www.w3.org/TR/2001/REC-SVG-20010904/DTD/svg10.dtd">
<svg version="1.0" xmlns="http://www.w3.org/2000/svg"
 width="500.000000pt" height="500.000000pt" viewBox="0 0 500.000000 500.000000"
 preserveAspectRatio="xMidYMid meet">

<g transform="translate(0.000000,500.000000) scale(0.100000,-0.100000)"
fill="#000000" stroke="none">
<path d="M2264 4631 c-756 -119 -1307 -498 -1589 -1094 -152 -321 -189 -624
-120 -962 40 -193 159 -461 282 -635 86 -121 301 -337 415 -415 l87 -60 1
-387 c0 -213 4 -389 8 -392 5 -3 42 16 83 42 41 27 215 132 387 236 l312 188
118 -15 c383 -50 706 -21 1056 94 528 174 915 500 1153 973 63 125 114 273
139 403 24 123 24 393 -1 523 -37 197 -136 451 -242 617 -99 158 -277 348
-435 466 -271 203 -623 350 -988 413 -152 26 -514 28 -666 5z m601 -366 c568
-86 1050 -414 1254 -856 86 -188 125 -355 124 -544 0 -198 -37 -355 -127 -532
-235 -468 -707 -783 -1296 -864 -142 -19 -404 -17 -527 5 -167 29 -195 21
-428 -118 -106 -64 -195 -116 -199 -116 -3 0 -6 78 -6 173 -1 256 1 252 -162
368 -201 143 -349 310 -451 508 -107 207 -147 366 -147 584 0 263 66 465 232
711 76 111 273 311 378 383 215 146 498 254 780 297 131 19 447 20 575 1z"/>
</g>
</svg>
