<?xml version="1.0" encoding="utf-8"?>
<!-- Generator: Adobe Illustrator 21.0.0, SVG Export Plug-In . SVG Version: 6.00 Build 0)  -->
<svg version="1.1" id="Layer_1" xmlns="http://www.w3.org/2000/svg" xmlns:xlink="http://www.w3.org/1999/xlink" x="0px" y="0px"
	 viewBox="0 0 100 100" style="enable-background:new 0 0 100 100;" xml:space="preserve">
<g>
	<path d="M20.2,98.2l0-7.1c0-1,0-1.9,0-2.8l0-2.1c0-2.4,0-4.8,0.1-7.2c-6.6-4.3-11.6-9.6-14.9-15.8C-1.8,49.4-1.2,36,7.3,23.2
		C14.2,12.9,24.5,6.2,38,3.2c12.2-2.7,24-1.4,35.2,3.7C84.9,12.3,92.9,20.6,97,31.5c4.5,12.1,3.1,23.8-4.3,34.7
		c-6.2,9.3-15.3,15.7-27.1,19.1c-7.7,2.3-15.5,2.8-23.3,1.6h-0.1c-0.4,0-1,0-1.6-0.3c-0.6-0.2-1.1-0.3-2.8,0.8
		c-2.9,1.9-5.9,3.6-9,5.5c-1.2,0.7-2.5,1.5-3.8,2.2L20.2,98.2z M50.3,8.3c-3.6,0-7.2,0.4-10.9,1.2c-12,2.6-20.7,8.3-26.7,17.3
		c-7.1,10.6-7.6,21.8-1.6,33.2c2.9,5.4,7.1,9.9,13.1,13.6c1.8,1.1,2.6,2.7,2.5,4.8c-0.1,2.5-0.1,5.1-0.1,7.6l0,0.5
		c2.6-1.6,5.2-3.1,7.7-4.7c1.3-0.9,4.4-2.8,8.3-1.5c0.2,0,0.4,0,0.6,0.1c6.8,1,13.7,0.5,20.5-1.5c10.4-3,18.1-8.5,23.5-16.5
		c6.1-9.1,7.3-18.8,3.6-28.9c-3.5-9.3-10.2-16.2-20.4-20.9C64,9.8,57.3,8.3,50.3,8.3z"/>
</g>
</svg>
