<?xml version="1.0" standalone="no"?>
<!DOCTYPE svg PUBLIC "-//W3C//DTD SVG 20010904//EN"
 "http://www.w3.org/TR/2001/REC-SVG-20010904/DTD/svg10.dtd">
<svg version="1.0" xmlns="http://www.w3.org/2000/svg"
 width="128.000000pt" height="128.000000pt" viewBox="0 0 128.000000 128.000000"
 preserveAspectRatio="xMidYMid meet">

<g transform="translate(0.000000,128.000000) scale(0.100000,-0.100000)"
fill="#000000" stroke="none">
<path d="M561 1170 c-81 -35 -131 -105 -138 -194 -4 -53 -1 -68 24 -116 41
-79 102 -115 193 -115 91 0 152 36 193 115 25 48 28 63 24 116 -5 74 -39 132
-98 171 -33 22 -55 28 -108 30 -36 2 -77 -2 -90 -7z"/>
<path d="M211 970 c-129 -29 -169 -207 -65 -289 108 -85 266 -9 266 128 0 111
-92 185 -201 161z"/>
<path d="M991 970 c-74 -17 -123 -81 -123 -160 0 -194 279 -226 322 -37 27
120 -78 224 -199 197z"/>
<path d="M442 669 c-46 -23 -72 -55 -90 -108 -17 -48 -16 -433 0 -449 19 -19
561 -17 577 2 9 10 11 75 9 228 -3 243 -10 269 -81 316 -39 26 -46 27 -206 30
-153 2 -169 1 -209 -19z"/>
<path d="M165 595 c-5 -2 -22 -6 -37 -9 -39 -9 -88 -54 -109 -101 -15 -32 -19
-65 -19 -168 0 -195 17 -217 172 -217 l98 0 0 219 c0 120 3 233 6 250 l7 31
-54 -1 c-30 0 -58 -2 -64 -4z"/>
<path d="M1003 570 c4 -18 7 -131 7 -251 l0 -219 98 0 c107 0 131 9 157 60 21
41 21 266 0 318 -34 80 -85 111 -193 119 l-75 6 6 -33z"/>
</g>
</svg>
