<?xml version="1.0" encoding="UTF-8"?>
<svg version="1.1" xmlns="http://www.w3.org/2000/svg" width="1024" height="1024">
<path d="M0 0 C337.92 0 675.84 0 1024 0 C1024 337.92 1024 675.84 1024 1024 C686.08 1024 348.16 1024 0 1024 C0 686.08 0 348.16 0 0 Z " fill="#5A65F2" transform="translate(0,0)"/>
<path d="M0 0 C0.97520592 -0.00404087 1.95041185 -0.00808174 2.95516947 -0.01224506 C4.02096571 -0.01161898 5.08676195 -0.0109929 6.18485504 -0.01034784 C7.32608215 -0.01359886 8.46730926 -0.01684988 9.64311901 -0.02019942 C12.82057807 -0.0282177 15.99800622 -0.03176363 19.17547383 -0.03342255 C22.62879167 -0.03629323 26.0820962 -0.04485382 29.53540576 -0.05266094 C36.38912568 -0.06722299 43.24284318 -0.07633466 50.09657415 -0.08374964 C55.79685464 -0.09007406 61.49712766 -0.09873432 67.19740254 -0.10890818 C68.01965292 -0.11037518 68.84190331 -0.11184217 69.68907038 -0.11335363 C71.36602524 -0.11635423 73.04298009 -0.11935847 74.71993493 -0.12236629 C96.44509422 -0.16090162 118.17026538 -0.18590215 139.89544619 -0.20854339 C142.71010569 -0.21148717 145.52476514 -0.21447722 148.33942458 -0.21748137 C184.14608448 -0.25563261 219.95274869 -0.28914315 255.75942268 -0.31074053 C264.86170345 -0.31623459 273.96398409 -0.32193417 283.06626469 -0.32770777 C284.07203845 -0.32834019 285.07781221 -0.32897262 286.11406396 -0.32962421 C318.72156322 -0.3503036 351.3289629 -0.39627175 383.93641158 -0.45636045 C417.45911133 -0.51802319 450.98175773 -0.55695259 484.50451506 -0.56624377 C489.23986135 -0.5675605 493.97520754 -0.56912245 498.71055371 -0.57082605 C500.10847893 -0.57131424 500.10847893 -0.57131424 501.53464507 -0.5718123 C516.52894655 -0.57768729 531.52311182 -0.60725378 546.51736166 -0.64553227 C561.5916613 -0.68346698 576.66581044 -0.69567088 591.74015289 -0.68176967 C600.6934517 -0.67427588 609.64622862 -0.68621234 618.59944398 -0.72619284 C624.58513184 -0.75098732 630.57046883 -0.75019473 636.55616908 -0.72889369 C639.96387365 -0.71748744 643.36978292 -0.72080601 646.77751964 -0.74760789 C672.77003654 -0.93970268 672.77003654 -0.93970268 684.06699711 7.13225317 C684.80938364 7.65097384 685.55177016 8.16969451 686.31665325 8.70413399 C691.05727198 12.23349261 694.17245714 17.05221039 697.06699711 22.13225317 C697.69154789 23.17059301 697.69154789 23.17059301 698.32871586 24.22990942 C702.96678372 33.45722337 702.5709416 45.92349118 700.18418461 55.77678442 C695.36910186 68.19714688 686.90217004 76.32141836 675.11722857 82.20130926 C669.54876319 84.63616507 664.44928847 84.68767725 658.4429813 84.63282442 C657.29564084 84.63833859 656.14830037 84.64385275 654.96619201 84.64953402 C651.79005964 84.66076277 648.6145503 84.65415421 645.43844881 84.63992203 C641.97990078 84.62884905 638.52142047 84.64103707 635.06287771 84.65022951 C629.00415949 84.66312728 622.94558756 84.66117607 616.88686901 84.64944983 C607.87735854 84.63206034 598.86796302 84.63756912 589.85844658 84.64761674 C573.76735746 84.66480966 557.67633647 84.65926726 541.58524875 84.64425955 C527.50372459 84.63121063 513.42222406 84.62601125 499.34069401 84.62857771 C498.40683471 84.62873812 497.47297542 84.62889854 496.51081735 84.62906382 C492.72003091 84.6297274 488.92924447 84.63042981 485.13845805 84.63118916 C449.57394195 84.6382141 414.00946747 84.62271889 378.44496197 84.5965657 C346.84418848 84.57345045 315.24346074 84.56806237 283.6426807 84.57829809 C275.55081519 84.58090008 267.45894966 84.58348508 259.36708409 84.58589602 C258.37089715 84.58619346 257.37471021 84.58649091 256.34833579 84.58679737 C229.94722382 84.59441129 203.54611559 84.58800096 177.14500529 84.5772 C174.30439582 84.57605218 171.46378634 84.57490901 168.62317687 84.57377317 C166.73877226 84.57301792 164.85436765 84.57225228 162.96996305 84.57147616 C148.89688083 84.56581635 134.82381045 84.56714879 120.75072819 84.57170439 C104.74989422 84.57681038 88.74910457 84.57096731 72.74828166 84.55081009 C63.79186285 84.53981758 54.83553118 84.53703628 45.8791097 84.54609862 C39.89783284 84.5513144 33.9166306 84.54562985 27.93536941 84.53104528 C24.52663508 84.52303396 21.11807697 84.51973138 17.70934355 84.52961784 C14.0363912 84.53774126 10.36393347 84.52748746 6.69101292 84.5125699 C5.6342955 84.51930756 4.57757807 84.52604521 3.48883891 84.53298703 C-9.02097059 84.43439414 -17.97020613 79.87472987 -27.12050289 71.50725317 C-36.38205372 61.91228651 -38.3416908 51.13756625 -38.14394039 38.40569067 C-37.71703054 26.34153458 -31.75891926 17.20765352 -23.21425289 8.99162817 C-16.2376136 3.30518929 -9.0122284 0.01515897 0 0 Z " fill="#FEFEFE" transform="translate(191.93300288915634,469.8677468299866)"/>
<path d="M0 0 C0.77989502 -0.00265183 1.55979003 -0.00530365 2.36331823 -0.00803584 C4.99838137 -0.01574593 7.63339804 -0.01628867 10.26847172 -0.01688576 C12.16816726 -0.02089927 14.06786194 -0.02533731 15.96755558 -0.03016531 C21.20513665 -0.04214937 26.4427085 -0.04778352 31.68030059 -0.05234647 C37.32266304 -0.05829574 42.96501443 -0.06990737 48.60736942 -0.08063698 C62.24366822 -0.10517813 75.8799707 -0.11979149 89.51628479 -0.13269705 C93.36706502 -0.136408 97.21784487 -0.14038132 101.06862473 -0.14444971 C124.97433279 -0.16968736 148.8800408 -0.19175968 172.78575897 -0.20417786 C178.32516768 -0.20709916 183.86457637 -0.21006669 189.40398502 -0.21308327 C190.43628436 -0.21363963 190.43628436 -0.21363963 191.48943823 -0.21420723 C213.79338637 -0.22635782 236.09725552 -0.25729305 258.40116658 -0.29900479 C281.98374237 -0.34302731 305.56625366 -0.36871463 329.14887482 -0.37409842 C342.00316089 -0.3775129 354.85732238 -0.38927241 367.71156979 -0.42220116 C378.65979143 -0.45020093 389.60786297 -0.46120128 400.55611765 -0.4500057 C406.14140502 -0.44481876 411.72637804 -0.44770855 417.31161976 -0.47247124 C422.42872421 -0.49496876 427.54528857 -0.49421957 432.66240252 -0.47526737 C434.50976246 -0.47246808 436.35715906 -0.47806185 438.20446008 -0.4930803 C452.68112653 -0.60354128 464.67209721 1.54058158 475.44915104 12.13701439 C484.29156082 21.97242206 488.25839395 32.84741443 487.76555729 46.07451439 C486.84789712 54.95655853 483.36624244 61.78115111 478.44915104 69.13701439 C477.87165104 70.02388939 477.29415104 70.91076439 476.69915104 71.82451439 C467.92604824 80.84131449 457.43231151 85.39584007 444.94515419 85.64317226 C441.54423173 85.68094021 438.14474884 85.66838064 434.74372196 85.65167809 C432.84536702 85.65700847 430.9470163 85.66407698 429.04867357 85.67272514 C423.85187853 85.69131399 418.65536921 85.68506038 413.45856249 85.67457211 C407.84631518 85.66756949 402.23412593 85.6835861 396.62189579 85.69656944 C385.63504223 85.71819669 374.64829231 85.71808581 363.66142447 85.7099439 C354.73061964 85.70364076 345.799845 85.70478382 336.86904049 85.71121597 C334.96147383 85.71256846 334.96147383 85.71256846 333.01537047 85.71394826 C330.43179611 85.71579949 327.84822176 85.71766205 325.26464742 85.71953582 C307.92235726 85.73140336 290.58008461 85.73581812 273.23779488 85.72460079 C272.56010795 85.72416282 271.88242103 85.72372485 271.18419814 85.72327361 C265.68138463 85.71966702 260.17857127 85.71583213 254.67575792 85.71198268 C233.21158463 85.69713533 211.74753859 85.70591654 190.28337955 85.73393822 C166.15089741 85.7653834 142.01850872 85.78026283 117.88599867 85.7701382 C115.31169157 85.76911567 112.73738447 85.76812106 110.16307735 85.76715469 C108.26324139 85.76644011 108.26324139 85.76644011 106.32502489 85.76571109 C97.40726522 85.76354793 88.48956487 85.77334585 79.57181835 85.78792572 C68.70062514 85.80545164 57.82960486 85.80532775 46.95841844 85.78257407 C41.41359484 85.77143453 35.86907589 85.76826324 30.32426548 85.78687477 C25.2444634 85.80370588 20.16523107 85.79729248 15.08546572 85.77265798 C13.25181367 85.767783 11.41811542 85.77126763 9.58450211 85.78414542 C-4.99063418 85.87908987 -16.58255865 83.57696702 -27.55084896 73.13701439 C-36.03096738 64.39992268 -40.00277983 54.10174394 -40.11334896 42.01201439 C-39.88871398 29.1891007 -35.55872551 20.36343179 -26.67194271 11.19951439 C-19.01838144 4.02526706 -10.47414658 -0.01718831 0 0 Z " fill="#FEFEFE" transform="translate(193.55084896087646,289.8629856109619)"/>
<path d="M0 0 C1.24177509 -0.00850552 2.48355019 -0.01701104 3.76295483 -0.0257743 C7.17537617 -0.04407617 10.58641581 -0.04027912 13.99876761 -0.02663505 C17.69216656 -0.01732247 21.38543462 -0.03691075 25.07879639 -0.0526123 C32.30096349 -0.07861814 39.52288096 -0.07763498 46.745077 -0.06657412 C52.61902686 -0.05799377 58.49290484 -0.05886373 64.36685562 -0.06637001 C65.62391835 -0.06795234 65.62391835 -0.06795234 66.90637628 -0.06956664 C68.60920565 -0.07173771 70.31203501 -0.07392449 72.01486434 -0.07612679 C87.96078641 -0.09552973 103.90656884 -0.08358494 119.85247947 -0.06134085 C133.51187007 -0.04309656 147.17099024 -0.0539897 160.83035278 -0.08564758 C176.71858542 -0.12246952 192.60664929 -0.13941079 208.49492466 -0.12623531 C210.19187933 -0.12489431 211.88883401 -0.12358532 213.58578873 -0.12230873 C214.42056843 -0.12167807 215.25534812 -0.1210474 216.11542418 -0.12039762 C221.97604775 -0.11737934 227.83654322 -0.12859098 233.69713974 -0.14555931 C240.84852458 -0.1659542 247.99952822 -0.16490882 255.15089355 -0.13692691 C258.79437066 -0.12322064 262.43718386 -0.11882417 266.08063507 -0.14087677 C299.12888884 -0.325665 299.12888884 -0.325665 312.98904419 13.21586609 C320.58844421 21.90689264 324.69372624 31.50813562 324.54763794 43.01664734 C324.53627808 44.27227478 324.53627808 44.27227478 324.52468872 45.55326843 C324.35455875 51.93748867 323.40402362 57.08385262 320.11013794 62.64164734 C319.66283325 63.4163739 319.21552856 64.19110046 318.75466919 64.98930359 C313.17458366 73.95035247 306.89654934 79.60305098 297.11013794 83.64164734 C296.32032154 83.98764292 295.53050514 84.3336385 294.71675491 84.69011879 C289.43681283 86.08311829 284.31558314 85.92356363 278.87692261 85.90907288 C277.01159107 85.91586955 277.01159107 85.91586955 275.10857606 85.92280352 C271.663889 85.93326625 268.2194109 85.93477465 264.77472281 85.93241477 C261.05679568 85.93200626 257.33889958 85.94304904 253.62098694 85.95252991 C246.33924958 85.96913389 239.0575446 85.97463919 231.77578989 85.97575466 C225.85543778 85.97670548 219.93509635 85.98081748 214.01474762 85.98715591 C197.22290156 86.00476718 180.43108105 86.01399504 163.63922569 86.01249497 C162.2817047 86.0123751 162.2817047 86.0123751 160.89675903 86.01225281 C159.99063764 86.01217105 159.08451625 86.01208928 158.15093663 86.01200505 C143.46931479 86.01119232 128.78779557 86.03032686 114.10620341 86.05852954 C99.02481235 86.08727118 83.94347133 86.10106911 68.8620522 86.09934199 C60.39759185 86.0986785 51.93323907 86.10415275 43.46880341 86.12569809 C36.26124992 86.1439268 29.05385278 86.14824344 21.84628621 86.13467924 C18.17106259 86.12815788 14.49613876 86.12800188 10.82094383 86.14538574 C6.83083267 86.1640645 2.84141286 86.15154031 -1.14871216 86.13612366 C-2.30223026 86.14641078 -3.45574835 86.15669791 -4.64422154 86.16729677 C-17.23671105 86.05992087 -25.904659 81.40197465 -34.83126831 72.76274109 C-44.44566726 62.48384804 -46.46764557 52.04677295 -46.22970581 38.49320984 C-45.70878089 27.32682761 -39.78277195 18.26205272 -31.86251831 10.70805359 C-22.32970214 2.69221359 -12.26792643 -0.11285112 0 0 Z " fill="#FEFEFE" transform="translate(199.88986206054688,648.3583526611328)"/>
</svg>
