<svg width="54" height="54" viewBox="0 0 54 54" fill="none" xmlns="http://www.w3.org/2000/svg">
<path d="M41.3099 51.1892H12.5774C9.15744 51.1892 6.02994 49.4567 4.22994 46.5317C2.42994 43.6067 2.27244 40.0517 3.80244 36.9692L7.67244 29.2067C8.93244 26.6867 10.9574 25.1117 13.2299 24.8642C15.5024 24.6167 17.8199 25.7417 19.5749 27.9242L20.0699 28.5542C21.0599 29.7692 22.2074 30.4217 23.3324 30.3092C24.4574 30.2192 25.4924 29.4092 26.2574 28.0367L30.5099 20.3642C32.2649 17.1917 34.6049 15.5492 37.1474 15.6617C39.6674 15.7967 41.8274 17.6867 43.2674 21.0167L50.3099 37.4642C51.6149 40.5017 51.2999 43.9667 49.4774 46.7342C47.6774 49.5467 44.6174 51.1892 41.3099 51.1892ZM13.8599 28.2392C13.7699 28.2392 13.6799 28.2392 13.5899 28.2617C12.4649 28.3742 11.4299 29.2742 10.6874 30.7367L6.81744 38.4992C5.80494 40.5017 5.91744 42.8642 7.08744 44.7767C8.25744 46.6892 10.3274 47.8367 12.5774 47.8367H41.2874C43.4924 47.8367 45.4499 46.7792 46.6649 44.9342C47.8799 43.0892 48.0824 40.8842 47.2049 38.8592L40.1624 22.4117C39.3074 20.3867 38.1149 19.1492 36.9674 19.1042C35.9099 19.0367 34.5374 20.1617 33.4574 22.0742L29.2049 29.7467C27.8999 32.0867 25.8524 33.5492 23.6249 33.7517C21.3974 33.9317 19.1249 32.8517 17.4374 30.7367L16.9424 30.1067C15.9974 28.8692 14.9174 28.2392 13.8599 28.2392Z" fill="#596176"/>
<path d="M15.6826 19.6875C11.0476 19.6875 7.24512 15.9075 7.24512 11.25C7.24512 6.5925 11.0251 2.8125 15.6826 2.8125C20.3401 2.8125 24.1201 6.5925 24.1201 11.25C24.1201 15.9075 20.3401 19.6875 15.6826 19.6875ZM15.6826 6.1875C12.8926 6.1875 10.6201 8.46 10.6201 11.25C10.6201 14.04 12.8926 16.3125 15.6826 16.3125C18.4726 16.3125 20.7451 14.04 20.7451 11.25C20.7451 8.46 18.4726 6.1875 15.6826 6.1875Z" fill="#596176"/>
</svg>
