<?xml version="1.0" standalone="no"?>
<!DOCTYPE svg PUBLIC "-//W3C//DTD SVG 20010904//EN"
 "http://www.w3.org/TR/2001/REC-SVG-20010904/DTD/svg10.dtd">
<svg version="1.0" xmlns="http://www.w3.org/2000/svg"
 width="500.000000pt" height="500.000000pt" viewBox="0 0 500.000000 500.000000"
 preserveAspectRatio="xMidYMid meet">

<g transform="translate(0.000000,500.000000) scale(0.100000,-0.100000)"
fill="#000000" stroke="none">
<path d="M1019 4566 c-79 -28 -176 -112 -201 -174 -7 -17 -14 -172 -19 -412
-10 -515 -10 -3078 0 -3353 l9 -219 38 -56 c94 -138 268 -187 416 -120 61 28
138 99 891 821 268 258 491 467 496 465 4 -2 257 -242 562 -534 755 -723 779
-745 847 -764 20 -5 73 -10 117 -10 63 0 91 5 131 24 65 30 118 77 152 135
l27 46 3 1960 c2 1377 0 1971 -8 1997 -15 53 -102 144 -171 179 l-58 29 -1598
0 c-1280 -1 -1605 -3 -1634 -14z"/>
</g>
</svg>
